<?xml version="1.0" standalone="no"?>
<!DOCTYPE svg PUBLIC "-//W3C//DTD SVG 1.1//EN" "http://www.w3.org/Graphics/SVG/1.1/DTD/svg11.dtd" >
<svg xmlns="http://www.w3.org/2000/svg">
<metadata></metadata>
<defs>
<font id="essays1743medium" horiz-adv-x="1530" >
<font-face units-per-em="2048" ascent="1518" descent="-530" />
<missing-glyph horiz-adv-x="948" />
<glyph unicode="AE" horiz-adv-x="2110" d="M20 110q0 72 53 121t95 49l72 -10q22 0 34 10q54 92 90 232l12 46l76 242q44 136 81 214t95 186l92 178q26 12 72 46q110 76 158 76q22 0 38 -10h200l422 2q132 0 334 -36q2 -34 3 -68t2 -51t1 -35t1 -27t2 -17t4 -16t6 -15t8 -21t11 -29t30 -38t24 -35v-4l-2 -4 q-98 -32 -131 -32t-53 2q-56 6 -122 10q-6 8 -6 13t21 24t21 41t-2 30l-14 58q-2 8 -15 16t-29 30q-76 14 -134 14t-102 -5t-72 -10t-34 -5l-30 2q-24 0 -38 -16q-2 -92 -2 -228t2 -250q152 -28 177 -28t79 12q36 24 36 84l-2 54q0 98 86 98q38 0 68 -32q0 -106 8 -580 q-58 -24 -83 -24t-61 42q-4 16 -4 45t14 53t14 36t-8 24t-23 20t-27 14q-32 12 -44 12q-76 24 -116 24q-100 0 -130 -58q-24 -120 -29 -186t-5 -206q10 -24 29 -39t90 -29t139 -14t304 10q64 34 82 94q22 86 90 166q36 -40 44 -74t8 -146t-64 -162h-978q46 494 46 502h-20 l-328 10q-68 0 -134 -6q-46 -38 -54 -73t-10 -52t-2 -56t-2 -57q18 -10 36 -10l60 10q18 0 34 -18q2 -38 2 -111t-18 -93q-34 -36 -92 -36l-162 18q-6 0 -19 -1t-54 -2t-101 -3q-6 -2 -19 -8t-29 -6t-54 28q-6 10 -20 24q-28 32 -28 50zM648 672q156 -4 210 -4t184 10 q8 192 8 319t-6 287q-16 -42 -61 -75t-83 -45l-36 -12q-8 -22 -80 -166t-90 -194q4 0 4 -15t-50 -105z" />
<glyph unicode="ae" horiz-adv-x="1208" d="M30 223q0 43 22 101q50 128 274 218q20 8 67 11t67 20t29 54t9 61t-4 46t-6 38t-4 24t-6 20q-18 46 -62 46q-12 0 -61 -11t-73 -42t-24 -93v-38q-4 -36 -35 -59t-61 -23q-104 0 -104 102q0 14 2 26q28 160 146 208q34 14 114 30q10 2 92 12q34 4 62 4q30 0 122 -4h164 q112 0 165 -15t90 -23t51 -12q44 -16 70 -66q42 -80 42 -128q0 -44 -24 -116q-22 -52 -56 -56q-242 -22 -321 -22t-81 2q-4 -40 -4 -76t9 -92t25 -94q24 -56 68 -84q16 -10 32 -14t20 -6q20 -4 30 -4l30 -2l66 -6q66 0 88 56q6 20 15 51t37 31t47 -16t19 -38v-2 q-6 -86 -10 -98q-2 -14 -28 -59t-80 -67q-26 -12 -62 -12l-74 4l-130 6q-80 -4 -146 -12q-8 2 -24 2q-48 0 -71 30t-29 36q-4 4 -12 16q-14 24 -28 24h-8q-22 0 -60 -32q-36 -30 -46 -36t-26 -16q-50 -38 -120 -38t-116 29t-62 95t-16 109zM218 288q0 -112 64 -140 q8 -4 16 -4t28 11t28 13l28 12q56 22 82 52q54 62 54 124l-2 20q-4 56 -46 80q-12 8 -58 -4q-40 -10 -96 -44q-98 -64 -98 -120zM724 692q0 -8 6 -18q10 -10 124 -10t118 22l6 70q0 36 -26 55t-59 19t-77 -30q-92 -62 -92 -108z" />
<glyph unicode="&#xfb01;" horiz-adv-x="958" d="M32 54q0 30 14 53t53 27t51 22q4 116 5 276t3 218q-8 24 -37 43t-43 37q-14 24 -14 43t6 43t42 55t46 55q8 50 8 98l-2 60q0 188 200 320q58 38 158 54q30 6 50 6t34 -4t35 -9t27 -7l24 -8q46 -16 58 -30q40 -46 40 -83t-21 -54t-35 -17q-64 0 -107 34t-99 34t-84 -20 q-52 -38 -64 -86l-14 -56q-20 -72 -20 -144l2 -112v-26h32l282 16q132 0 168 -62q24 -40 24 -76t-14 -98t-14 -100l-10 -412q10 -26 52 -35t52 -29t10 -41t-20 -39h-398q-20 18 -20 36q0 60 84 66q62 4 80 30q0 284 -13 396t-31 188q-42 10 -100 10l-158 -12 q-12 -160 -12 -335t2 -231q0 -20 30 -20h20q30 0 42 -14q22 -34 22 -59t-22 -55h-376q-28 24 -28 54z" />
<glyph unicode="&#xfb02;" horiz-adv-x="986" d="M14 54q0 30 14 53t53 27t51 22q4 116 5 276t3 218q-8 24 -37 43t-43 37q-16 28 -16 49t9 40t42 50t45 57q8 50 8 98v60q0 202 208 326q50 30 93 38t119 10h16q86 0 166 -40q8 -4 22 -10t20 -8q40 -20 58 -76v-1146q2 0 30 -14t41 -27t26 -32t13 -36t-10 -63l-428 2 q-20 28 -20 53t8 61q36 36 82 45t54 11l-2 1058q-26 30 -40 44q-38 38 -81 38t-105 -24q-10 -18 -35 -54t-34 -78t-13 -78q-6 -56 -6 -130v-78h12l116 12q36 0 60 -23t24 -61t-37 -68t-75 -30l-88 8h-6q-12 -160 -12 -335t2 -231q0 -20 30 -20h20q30 0 42 -14q22 -34 22 -59 t-22 -55h-376q-28 24 -28 54z" />
<glyph unicode="&#xfb03;" horiz-adv-x="1380" d="M14 54q0 30 14 53t53 27t51 22q4 116 5 276t3 218q-8 24 -37 43t-43 37q-16 30 -16 62t45 75t51 59q8 50 8 98v60q0 142 100 244q40 38 113 86t191 48q34 0 42 -3t27 -8t25 -7t22 -6t24 -8l16 -10q16 -8 36 -28l30 18q88 52 196 52q34 0 42 -3t29 -8t27 -7l24 -8 q46 -16 58 -30q40 -46 40 -83t-21 -54t-35 -17q-64 0 -107 34t-99 34t-84 -20q-52 -38 -64 -86l-14 -56q-20 -72 -20 -144l2 -112v-26h28l284 16q132 0 170 -62q24 -40 24 -76t-14 -98t-14 -100l-10 -412q10 -26 52 -35t52 -29t10 -41t-20 -39h-398q-20 18 -20 36 q0 60 84 66q62 4 80 30q0 284 -13 396t-31 188q-42 10 -100 10l-158 -12q-12 -160 -12 -335t2 -231q0 -20 30 -20h20q30 0 42 -14q22 -34 22 -59t-22 -55h-376q-18 14 -24 34q-2 -8 -18 -34h-376q-28 24 -28 54zM324 379q0 -175 2 -231q0 -20 30 -20h20q30 0 42 -16t18 -34 q8 38 30 47t47 11t37 20q4 116 5 276t3 218q-26 76 -112 76l-110 -12q-12 -160 -12 -335zM328 1014l2 -112v-26l126 -10q34 0 58 6t44 54q8 50 8 96l-2 68q0 90 60 184q-6 4 -16 12l-16 14q-26 20 -82 20t-86 -20q-50 -38 -62 -86l-14 -56q-20 -72 -20 -144z" />
<glyph unicode="&#xfb04;" horiz-adv-x="1394" d="M14 54q0 30 14 53t53 27t51 22q4 116 5 276t3 218q-8 24 -37 43t-43 37q-16 30 -16 62t45 75t51 59q8 50 8 98v60q0 142 100 244q40 38 113 86t191 48q34 0 44 -4q108 -28 138 -56q56 34 98 44t128 12h16q86 0 166 -40q8 -4 22 -10t20 -8q40 -20 58 -76v-1146q2 0 30 -14 t41 -27t26 -32t13 -36t-10 -63l-428 2q-20 28 -20 53t8 61q36 36 82 45t54 11l-2 1058q-26 30 -40 44q-38 38 -81 38t-105 -24q-10 -18 -35 -54t-34 -78t-13 -78q-6 -56 -6 -130v-78h12l116 12q36 0 60 -23t24 -61t-37 -68t-75 -30l-88 8h-6q-12 -160 -12 -335t2 -231 q0 -20 30 -20h20q30 0 42 -14q22 -34 22 -59t-22 -55h-376l-10 10q-4 -8 -6 -10h-376q-28 24 -28 54zM324 379q0 -175 2 -231q0 -20 30 -20h18q34 0 48 -20q12 22 51 26t51 22q4 116 5 276t3 218q-8 24 -31 39t-31 23q-18 -6 -38 -6l-90 8h-6q-12 -160 -12 -335zM328 1014 l2 -112v-26h12l126 16q16 0 32 -10q22 22 32 44q8 50 8 100v52q0 112 68 210q-42 32 -98 32t-86 -20q-50 -38 -62 -86l-14 -56q-20 -72 -20 -144z" />
<glyph horiz-adv-x="2048" />
<glyph horiz-adv-x="2048" />
<glyph unicode="&#xd;" horiz-adv-x="694" d="M42 892q40 32 58 44q64 42 154 56h2q16 0 8 -14t-30 -22t-24 -18q12 -20 42 -20l84 10h74q74 0 104 6q-4 18 -4 34l2 40q0 52 21 75t42 23t35 -12t18 -30q12 -42 12 -70v-20q10 -60 10 -64q0 -98 -70 -98h-2q-16 -2 -54 -2l-116 -2q-80 0 -94 6q-2 -2 -11 1t-55 3h-6 q-38 -4 -40 -26q0 -4 10 -8l22 -8q28 -10 22 -24q-2 -8 -8 -8h-2q-98 44 -135 72t-69 76z" />
<glyph unicode=" "  horiz-adv-x="948" />
<glyph unicode="&#x09;" horiz-adv-x="948" />
<glyph unicode="&#xa0;" horiz-adv-x="948" />
<glyph unicode="!" horiz-adv-x="602" d="M198 96v18q10 78 72 108q36 16 76 16t66 -32t26 -77t-40 -85t-86 -40q-114 0 -114 92zM212 1229q0 69 4 181q50 62 112 62t112 -44q2 -64 2 -198t-22 -360l-10 -94q-4 -36 -10 -60q-20 -108 -40 -242q-42 -46 -78 -46q-14 0 -30 10q-18 120 -18 200l2 84q0 46 -12 242 t-12 265z" />
<glyph unicode="&#x22;" horiz-adv-x="1076" d="M94 1222q0 46 12 81t19 61t11 36l14 30q10 22 22 30l26 24q28 22 97 22t139 -71t70 -169q0 -38 -20 -142q-6 -36 -57 -107t-51 -167l8 -160q0 -68 -28 -105t-104 -39q-20 20 -20 110l4 222q0 70 -2 106q-64 38 -84 65t-38 77t-18 96zM594 1222q0 46 12 81t19 61t11 36 l14 30q10 22 22 30l26 24q28 22 97 22t139 -71t70 -169q0 -38 -20 -142q-6 -36 -57 -107t-51 -167l8 -160q0 -68 -28 -105t-104 -39q-20 20 -20 110l4 222q0 70 -2 106q-64 38 -84 65t-38 77t-18 96z" />
<glyph unicode="#" horiz-adv-x="1024" d="M50 362q0 34 39 64t75 38v32l-6 142q-44 18 -76 46t-32 62t42 66q42 30 80 38q20 74 56 112t68 38t64 -41t42 -95l44 4l58 8q42 6 62 8q18 50 50 83t64 33t62 -41t42 -83q66 -10 107 -47t41 -75t-32 -71t-102 -51q0 -18 2 -32l8 -54q6 -42 8 -60q42 -12 79 -45t37 -71 t-32 -70q-34 -34 -96 -50q-10 -52 -46 -94q-36 -40 -73 -40t-69 32q-30 32 -46 84h-16l-138 -6q-14 -40 -36 -62q-42 -48 -79 -48t-70 34t-49 96q-60 18 -96 50t-36 66zM416 604l16 -122l116 16q-4 80 -4 118q-88 -4 -128 -6v-6z" />
<glyph unicode="$" horiz-adv-x="628" d="M18 418q0 46 32 108q8 20 24 20t49 -51t75 -101t82 -50h8q56 6 90 48t36 100v4q0 34 -16 53t-22 25t-28 23t-26 21q-34 28 -128 41t-122 65q-40 76 -40 128q0 8 1 25t1 29q2 80 46 133t128 105q6 4 11 74t9 104q66 22 84 22q46 0 60 -40v-26l-6 -88q0 -20 14 -22 q120 -32 158 -126q14 -34 14 -61t-21 -69t-29 -42t-22 26q-42 86 -66 102q-72 48 -94 48t-47 -8t-51 -37t-26 -54t2 -31q10 -50 90 -73t100 -39t62 -46t60 -46q54 -48 74 -108t20 -120t-38 -115t-71 -76t-59 -29t-80 -20q-4 0 -4 -24l4 -116q0 -20 -2 -20l-38 -8 q-18 -2 -34 -2q-66 0 -90 40q-8 40 -8 76l2 52v2q-6 2 -25 6t-26 6t-21 8t-22 12q-20 14 -32 32q-42 64 -42 110z" />
<glyph unicode="%" horiz-adv-x="1586" d="M52 161q0 37 41 62t67 25l96 -20q20 0 34 16l376 452q62 72 114 128l126 130q96 106 165 216t153 202q-6 20 -56 25t-50 39t36 54q84 0 144 5t74 5t158 -50q14 -16 14 -40t-15 -47t-37 -23l-62 12q-14 0 -20 -4q-152 -164 -255 -310t-147 -202l-184 -228 q-138 -172 -244 -330q-2 -8 -17 -29t-15 -35q0 -28 32 -28l42 4q30 0 30 -32q0 -24 -40 -57t-48 -45l-274 -12q-74 0 -154 12q-12 14 -36 32q-48 36 -48 73zM64 1248q0 46 35 114t96 93t98 25t105 -18q110 -36 147 -98t37 -115t-18 -103q-36 -114 -130 -152q-48 -20 -98 -20 t-118 38q-100 52 -134 134q-20 56 -20 102zM150 1213q0 -29 20 -63q34 -60 110 -78q20 -6 41 -6t47 14q68 34 90 106q6 22 6 50t-26 76q-42 82 -136 82q-36 0 -70 -20q-50 -26 -72 -98q-10 -34 -10 -63zM934 372q0 46 35 114t96 93t98 25t105 -18q110 -36 147 -98t37 -115 t-18 -103q-36 -114 -130 -152q-48 -20 -98 -20t-118 38q-100 52 -134 134q-20 56 -20 102zM1020 337q0 -29 20 -63q34 -60 110 -78q20 -6 41 -6t47 14q68 34 90 106q6 20 6 49t-26 77q-42 82 -136 82q-36 0 -70 -20q-50 -26 -72 -98q-10 -34 -10 -63z" />
<glyph unicode="&#x26;" horiz-adv-x="1886" d="M112 520q0 66 34 161t63 146t45 53q52 6 84 56q-10 42 -50 91t-40 89q2 100 35 169t129 127t171 58t112 -36t37 -71t-25 -70t-63 -35l-98 16q-42 0 -92 -48t-50 -96q0 -78 110 -78h22q32 0 52 -3t43 -24t23 -70t-74 -115q-28 -26 -84 -26l-60 2q-64 0 -80 -42 q-52 -132 -52 -204t68 -180q26 -44 60 -66l32 -20q12 -6 41 -15t37 -12t46 -12t95 -24t134 -15t175 27t158 59t106 102q72 106 72 216q0 60 -18 126q-48 180 -220 180q-68 0 -111 -38t-43 -73t21 -59t47 -24t73 18t71 18t37 -22t13 -44q0 -52 -61 -102t-138 -50t-131 62 t-54 146q0 100 62 194q8 12 20 22t19 17t25 15l22 12q24 12 42 14q56 12 76 20t68 8t163 -39t154 -39t63 20q36 30 36 64q0 26 -69 51t-77 61q-4 28 -4 44q0 74 44 119t122 45q40 0 76 -11t71 -55t35 -116q0 -172 -110 -272q-30 -28 -82 -28l-86 6q-50 0 -73 -24t-23 -46 t17 -63t17 -67l22 -238q0 -104 -74 -200l-46 -64q-92 -122 -158 -154q-32 -14 -155 -40t-227 -26t-226 29t-193 65t-129 114q-124 170 -124 314z" />
<glyph unicode="'" horiz-adv-x="576" d="M94 1222q0 46 12 81t19 61t11 36l14 30q10 22 22 30l26 24q28 22 97 22t139 -71t70 -169q0 -38 -20 -142q-6 -36 -57 -107t-51 -167l8 -160q0 -68 -28 -105t-104 -39q-20 20 -20 110l4 222q0 70 -2 106q-64 38 -84 65t-38 77t-18 96z" />
<glyph unicode="(" horiz-adv-x="512" d="M66 449q0 145 46 334t106 312t178 249q6 6 18 6t29 -17t17 -28t-2 -15q-104 -220 -140 -316t-67 -283t-31 -309t30 -255t52 -183t78 -146q116 -198 116 -229t-43 -53t-101 -22t-76 38q-76 164 -111 261t-67 304t-32 352z" />
<glyph unicode=")" horiz-adv-x="512" d="M66 1275q0 31 43 53t101 22t76 -38q76 -164 111 -261t67 -304t32 -352t-46 -334t-106 -312t-178 -249q-6 -6 -18 -6t-29 17t-17 28t2 15q104 220 140 316t67 283t31 309t-30 255t-52 183t-78 146q-116 198 -116 229z" />
<glyph unicode="*" horiz-adv-x="1068" d="M62 974q0 46 34 61t100 15l100 -2q58 0 98 8q-34 38 -91 75t-91 64t-34 52t25 52t49 27q26 0 44 -10q30 -16 84 -74l104 -114v38l-8 194q0 42 16 57t64 17h2q36 0 49 -18t13 -54l-4 -106q0 -66 18 -122q6 10 32 51t48 71t57 60t64 30t57 -21t28 -47q0 -64 -178 -180 q38 -8 120 -8t119 -15t37 -60t-20 -60t-60 -15l-114 4q-48 0 -94 -8q24 -42 70 -90t75 -84t29 -62t-25 -47t-45 -21t-40 31t-55 81t-81 84q-10 -72 -13 -152t-9 -108q-10 -46 -67 -46t-74 16t-17 54l6 140q0 42 -6 96q-32 -24 -64 -84q-34 -64 -62 -104q-30 -44 -68 -44 q-36 0 -75 28t-39 58t50 68l116 82q66 46 88 86q-24 -2 -113 -18t-133 -16q-116 0 -116 90z" />
<glyph unicode="+" horiz-adv-x="692" d="M48 409q0 29 8 52t45 51t99 28q4 72 34 116q46 66 93 66t77 -30q46 -40 50 -126q94 0 139 -44t45 -96q0 -54 -48 -90t-114 -40l-4 -40q-6 -48 -19 -64t-43 -37t-60 -21t-54 8t-53 46t-33 102q-78 6 -120 48t-42 71z" />
<glyph unicode="," horiz-adv-x="644" d="M130 -292q0 50 88 82q34 12 61 43t27 76t-23 69t-51 30q-76 16 -82 61t-6 83q0 102 52 151t102 49t118 -28t100 -108q24 -56 24 -108t-15 -128t-42 -139t-79 -119t-82 -72t-82 -16q-110 0 -110 74z" />
<glyph unicode="-" horiz-adv-x="692" d="M48 424q0 34 28 64q46 54 142 54q6 0 10 -2h16q62 4 68 6q60 20 149 20t133 -43t44 -86t-18 -69t-35 -40t-47 -21t-42 -9q-28 -4 -112 -4l-138 -6q-124 0 -180 78q-18 26 -18 58z" />
<glyph unicode="." horiz-adv-x="606" d="M130 190q0 50 24 92q46 90 126 90t126 -90q30 -54 30 -106t-30 -92q-50 -64 -138 -64t-113 60t-25 110z" />
<glyph unicode="/" horiz-adv-x="1586" d="M52 161q0 37 41 62t67 25l96 -20q20 0 34 16l376 452q62 72 114 128l126 130q96 106 165 216t153 202q-6 20 -56 25t-50 39t36 54q84 0 144 5t74 5t158 -50q14 -16 14 -40t-15 -47t-37 -23l-62 12q-14 0 -20 -4q-152 -164 -255 -310t-147 -202l-184 -228 q-138 -172 -244 -330q-2 -8 -17 -29t-15 -35q0 -28 32 -28l42 4q30 0 30 -32q0 -24 -40 -57t-48 -45l-274 -12q-74 0 -154 12q-12 14 -36 32q-48 36 -48 73z" />
<glyph unicode="0" horiz-adv-x="1120" d="M46 538q0 98 50 197t102 148t138 84t169 35t203 -35t187 -76t126 -141t59 -204t-36 -215t-96 -183t-163 -115t-201 -43t-216 66t-182 126t-102 159t-38 197zM218 468q0 -56 37 -124t89 -102t112 -51t100 -17t96 28q140 72 180 212q12 46 12 101t-38 130t-67 105t-90 55 t-127 25t-140 -38q-104 -54 -144 -198q-20 -70 -20 -126z" />
<glyph unicode="1" horiz-adv-x="1120" d="M290 69q0 39 17 78t43 39l44 -6q22 0 32 24q6 258 6 284v322q-12 26 -34 26l-38 -6q-22 0 -34 38t-12 66q0 70 46 104h396q56 -48 56 -118q0 -36 -20 -80q-6 -12 -16 -8q-30 16 -34 -24l2 -356v-260q4 -12 22 -12t26 -6q16 -20 31 -66t15 -70q-432 -8 -516 -8 q-32 0 -32 39z" />
<glyph unicode="2" horiz-adv-x="1120" d="M164 70q0 26 20 58q78 126 214 252t200 250q34 68 34 118t-34 88t-80 38t-95 -17t-73 -42t-56 -68t-74 -79q-36 60 -36 78t48 90t86 103t148 67t188 36t143 -63t65 -163q0 -56 -26 -152t-118 -182t-120 -130q-14 -48 -14 -52v-2q0 -6 -22 -58h192q6 6 6 16l-6 52 q0 20 12 32q60 26 102 26t90 -34q-32 -152 -54 -178q-4 -6 -30 -33t-60 -71q-322 -16 -338 -16l-292 10q-20 0 -20 26z" />
<glyph unicode="3" horiz-adv-x="1120" d="M180 -322q0 76 54 130q34 4 68 4l70 -6l42 2q16 -12 16 -50v-6q0 -56 61 -56t137 94q78 94 78 272q0 66 -40 106t-124 40t-134 -35t-120 -41q-32 22 -32 63t32 117q64 70 156 156t137 133t45 78t-36 70t-87 39t-85 -23t-50 -53q-44 -84 -116 -112q-6 -2 -10 -2 q-18 0 -18 33t6 66t24 87q40 116 180 206q90 58 170 58t188 -52q56 -54 56 -142q0 -44 -17 -126t-83 -166t-82 -124q12 -24 46 -24l50 2q80 0 116 -117t36 -235t-43 -224t-84 -160t-115 -94q-176 -92 -271 -92t-158 54t-63 130z" />
<glyph unicode="4" horiz-adv-x="1120" d="M6 98q0 30 12 70l166 274q76 128 92 159t67 103t93 124l170 204q16 8 43 8t47 -26q18 -174 18 -225t-36 -561q18 -2 58 -2t100 20t120 20t140 -4q18 -28 18 -58q0 -64 -67 -125t-123 -61q-16 0 -80 16t-132 16l-40 -2l6 -310q0 -64 -4 -128q-48 -54 -100 -54t-94 36 q-2 62 -2 150l2 164q0 56 -6 154q-26 2 -77 2t-113 -13t-103 -13t-145 24q-30 8 -30 38zM200 231q0 -11 10 -21l128 4q-16 0 -16 2q32 4 158 12v270q-36 74 -78 74l-12 -2l-180 -288q-10 -40 -10 -51z" />
<glyph unicode="5" horiz-adv-x="1120" d="M68 -304q0 38 39 80t85 42t68 -18t30 -40q22 -66 68 -76q50 -10 86 -10q100 0 172 64q128 114 128 278q0 108 -74 196q-34 40 -77 40t-104 -14t-127 -83t-124 -75h-12q-38 0 -48 24l50 226q64 298 94 379t142 269l54 90q6 2 18 2q34 0 75 -61t81 -74t50 -13q70 0 70 92 v36q0 88 58 88q44 0 124 -59t80 -157q0 -46 -21 -105t-41 -93l-22 -36q-124 10 -186 10l-74 -4q-32 0 -112 10q-12 12 -12 32l14 72q0 32 -32 32l-60 -4h-10q-14 -62 -25 -118t-17 -78l-8 -46q-12 -46 -19 -65t-13 -41l-50 -164q248 40 317 40t148 -25t111 -87 q40 -82 40 -177t-70 -232t-158 -207t-195 -113t-160 -43t-128 19t-124 45t-81 84q-18 30 -18 68z" />
<glyph unicode="6" horiz-adv-x="1120" d="M38 632q0 116 38 248t94 219t162 179q134 112 239 163t253 53q50 0 77 -9t55 -49q-76 -58 -160 -96t-132 -80l-58 -48q-46 -38 -58 -48l-42 -44q-32 -30 -46 -52l-36 -60q-46 -76 -46 -105t30 -43q46 16 88 34l60 26q40 16 76 16q222 0 332 -150q104 -148 104 -282 q0 -92 -38 -174t-73 -122t-107 -95t-158 -75q-114 -22 -183 -22t-168 43t-164 101t-89 156q-50 200 -50 316zM270 476q0 -132 94 -240q62 -72 212 -72q80 0 136 50q110 98 110 268q0 124 -24 190t-88 105t-139 39t-159 -44q-142 -76 -142 -296z" />
<glyph unicode="7" horiz-adv-x="1120" d="M92 1088q42 204 65 253t127 149q36 20 71 20t73 -28q8 -6 8 -27t16 -31h612l-332 -680q-38 -80 -108 -242l-176 -430q-8 -8 -28 -34q-38 -52 -73 -56t-56 -7t-25 -5q-12 -6 -34 -6h-52q104 312 178 456t102 214t76 156t72 157t24 165q-30 84 -144 84q-86 0 -128 -38 l-64 -54q-46 -40 -96 -76q-88 0 -108 60z" />
<glyph unicode="8" horiz-adv-x="1120" d="M148 1116q0 90 58 192q30 52 74 76t126 46t164 22t172 -38t131 -73t70 -95t29 -106t-4 -71t-9 -44t-14 -38t-15 -30t-18 -25l-46 -44q-28 -28 -74 -56l-76 -48q-28 -16 -28 -25t7 -17t21 -19t18 -15q28 -30 104 -63t102 -81q36 -70 36 -136t-28 -163t-49 -137t-69 -68 q-108 -64 -213 -64t-230 44t-173 152q-30 68 -30 141t42 183q18 48 82 103t78 97q-68 42 -94 60q-66 50 -102 136q-42 114 -42 204zM308 1076q0 -46 27 -105t85 -83t113 -24t117 36q36 20 55 77t19 91q0 100 -72 152t-145 52t-121 -40q-78 -62 -78 -156zM312 382 q0 -48 30 -108t89 -84t106 -24t101 30q52 30 76 120q16 54 16 93t-20 79q-28 58 -96 82t-111 24t-93 -22q-56 -28 -77 -85t-21 -105z" />
<glyph unicode="9" horiz-adv-x="1120" d="M106 454q0 62 22 158q48 204 232 288q114 52 223 52t237 -74q70 -40 100 -96t62 -168t32 -222q-6 -24 -46 -320q-8 -70 -55 -163t-123 -177t-146 -133t-154 -80t-121 -35t-133 -4q-38 16 -38 54q0 12 2 16q80 78 179 126t125 70l60 50q32 26 38 32l30 30q24 22 29 31 t21 32t20 43t16 51t14 49h-8q-8 0 -100 -26t-149 -26t-137 33t-130 111q-102 152 -102 298zM302 437q0 -83 35 -164t98 -108t120 -27t134 32t103 94q36 88 36 173t-60 211q-34 72 -103 98t-122 26t-110 -28t-89 -108q-42 -116 -42 -199z" />
<glyph unicode=":" horiz-adv-x="770" d="M164 190q0 50 24 92q46 90 126 90t126 -90q30 -54 30 -106t-30 -92q-50 -64 -138 -64t-113 60t-25 110zM164 810q0 50 24 92q46 90 126 90t126 -90q30 -54 30 -106t-30 -92q-50 -64 -138 -64t-113 60t-25 110z" />
<glyph unicode=";" horiz-adv-x="770" d="M131 -32q0 43 89 70q35 10 62 36.5t27 64.5t-23 58.5t-52 25.5q-76 13 -82 51.5t-6 70.5q0 87 52.5 128.5t103 41.5t119 -24t100.5 -92q25 -47 25 -91t-15.5 -108.5t-42.5 -118t-79.5 -101.5t-83 -61.5t-82.5 -13.5q-112 0 -112 63zM188 828q0 50 24 92q46 90 126 90 t126 -90q30 -54 30 -106t-30 -92q-50 -64 -138 -64t-113 60t-25 110z" />
<glyph unicode="&#x3c;" horiz-adv-x="744" d="M32 512q0 16 14 24q58 70 206 184q6 4 57 56t102 73t117 21t105 -17t39 -40t-14 -46t-40 -23l-40 2q-16 0 -22 -4l-208 -130q-56 -36 -116 -86q36 -54 91 -96t139 -92t140 -94q26 -46 26 -56t-14 -22q-78 -28 -218 -28q-58 0 -111 48t-79 106q-2 8 -88 96t-86 124z" />
<glyph unicode="=" horiz-adv-x="692" d="M48 232q0 34 28 64q46 54 142 54q6 0 10 -2h16q62 4 68 6q60 20 149 20t133 -43t44 -86t-18 -69t-35 -40t-47 -21t-42 -9q-28 -4 -112 -4l-138 -6q-124 0 -180 78q-18 26 -18 58zM48 616q0 34 28 64q46 54 142 54q6 0 10 -2h16q62 4 68 6q60 20 149 20t133 -43t44 -86 t-18 -69t-35 -40t-47 -21t-42 -9q-28 -4 -112 -4l-138 -6q-124 0 -180 78q-18 26 -18 58z" />
<glyph unicode="&#x3e;" horiz-adv-x="744" d="M52 197q0 23 14 46t40 23l40 -2q16 0 22 4l208 130q56 36 116 86q-36 54 -91 96t-139 92t-140 94q-26 46 -26 56t14 22q78 28 218 28q58 0 111 -48t79 -106q2 -8 88 -96t86 -124q0 -16 -14 -24q-58 -70 -206 -184q-6 -4 -57 -56t-102 -73t-117 -21t-105 17t-39 40z" />
<glyph unicode="?" horiz-adv-x="948" d="M190 233q0 65 50 94t117 29t107 -53t40 -105q0 -132 -148 -132q-52 0 -90 36q-76 66 -76 131zM228 1392q0 72 62 108q48 4 83 4t74 -16t113 -60q8 -14 38 -59t38 -59l24 -46q26 -54 34 -126l10 -62q8 -50 8 -74q0 -76 -62 -138q-30 -30 -107 -51t-109 -69v-34l-6 -164 q0 -56 6 -90q-16 -14 -51 -14t-75 50q-46 184 -46 272t10 214q92 30 150 30l78 -4q38 0 78 10q28 28 28 56t-14 60t-48 51t-84 34t-75 30t-60 26t-57 25q-40 24 -40 96z" />
<glyph unicode="@" horiz-adv-x="1054" d="M34 528q0 40 25 235t75 293q126 246 508 246q156 0 194 -22q70 -44 125 -200t55 -330q0 -240 -112 -386q-16 -20 -44 -20l-40 2h-8l-38 -2q-56 0 -94 64q-14 20 -31 20t-41 -24q-74 -70 -160 -70q-84 0 -112 72q-20 54 -20 98q0 160 222 246q10 4 52 7t60 25t18 98 q-2 72 -36 100q-10 8 -34 8q-92 0 -106 -70q-4 -20 -4 -38q0 -54 -25 -72t-57 -18t-51 22t-19 54q0 94 54 139t100 56t128 11h4q24 0 48 -5t61 -38t46 -82t9 -175q0 -318 33 -318t71 82t38 144t-15 127t-18 92t-63 129q-60 100 -93 121t-111 21q-202 0 -292 -108 q-38 -46 -100 -210q-60 -166 -60 -304q0 -174 113 -241t291 -67q70 0 162 11t106 11t14 -6q0 -36 -130 -84q-132 -50 -241 -50t-152 4t-97 31t-100 83q-108 134 -108 288zM456 560q0 -86 48 -106q18 -2 32 6t24 11t31 11t55 45t34 85v4q0 34 -14 53t-47 19t-98 -44t-65 -84z " />
<glyph unicode="A" d="M20 114q0 90 110 156q20 10 38 10l72 -10q22 0 34 10q30 44 84 220l18 58l82 222q112 306 262 598q104 54 144 54t80 -22q60 -90 77 -139t33 -101l26 -84q50 -142 116 -420q62 -262 106 -382q24 -34 94 -56q72 -24 95 -65t23 -75q0 -32 -24 -60q-6 -6 -17 -4t-17 -2 q-102 -22 -400 -22h-168q-50 0 -50 71t50 129q20 22 31 22t36 -7t54 -7t63 8q8 14 13 16t7 4q4 4 4 34t-4 84t-5 61t-7 25q-8 20 -16 30q-30 38 -92 46q-40 -4 -108 -4l-146 2q-78 0 -166 -8q-46 -38 -54 -73t-10 -52t-2 -56t-2 -57q18 -10 36 -10l60 10q18 0 34 -18 q4 -84 4 -134q0 -48 -20 -70q-34 -38 -92 -38q-22 0 -76 10t-86 10h-14q-70 0 -160 -6q-6 -2 -19 -8t-29 -6t-54 28q-6 10 -20 24q-28 32 -28 54zM648 672q62 -34 119 -34t225 16v16q0 58 -30 122t-40 88t-28 91t-39 104t-59 57q-10 -26 -49 -173t-99 -287z" />
<glyph unicode="B" horiz-adv-x="1262" d="M36 70q0 68 60 118q18 8 43 8t69 -15t67 -15t43 22v36q0 92 -18 169t-18 117l54 816q-26 26 -41 26t-55 -14t-75 -14t-69 8q-20 22 -20 62t38 74q138 36 233 36t190 -12t173 -19t117 -13t96 -20t104 -41t93 -67t64 -88q24 -68 24 -160q0 -116 -88 -204q-12 -12 -22 -24 t-33 -21t-37 -15t-62 -22t-84 -30q54 -38 111 -57t94 -36t67 -61q56 -76 56 -180q0 -22 -6 -89t-13 -106t-33 -88t-72 -83q-104 -78 -248 -78l-240 12q-38 0 -58 -2l-252 -18q-92 0 -226 18q-26 32 -26 70zM534 290q2 -60 51 -99t113 -39q122 0 187 89t65 186t-46 164 t-130 77l-70 12q-56 8 -80 8q-70 0 -72 -54q-18 -244 -18 -290v-54zM586 1075q0 -75 16 -215q32 -26 58 -26q44 0 92 26t68 36q88 40 112 96q28 56 28 112t-25 106t-59 75t-89 45t-92 20t-93 -18q-16 -182 -16 -257z" />
<glyph unicode="C" horiz-adv-x="1382" d="M16 662q0 168 48 279t135 229t165 182t186 111t232 47l78 -2q110 -2 204 -40q172 -58 220 -114q20 -22 44 -73t24 -129t-84 -242q-50 34 -66 106t-32 92l-58 80q-42 60 -58 78t-58 46q-76 56 -190 56t-238 -100q-116 -90 -169 -197t-69 -263q-6 -48 -6 -90 q0 -182 126 -336q72 -90 154 -132t204 -56q32 -4 48 -4q80 0 204 49t174 57h6q26 0 26 -46t-32 -88t-61 -68t-67 -42t-64 -26t-78 -14l-76 -8q-40 -4 -172 -4h-30q-134 0 -255 65t-193 133t-147 199t-75 265z" />
<glyph unicode="D" horiz-adv-x="1500" d="M-16 86q0 40 16 78q28 22 66 22l130 -16q48 0 72 30q8 246 9 504t13 668q-16 16 -37 16t-51 -7t-50 -27t-40 -20h-12q-82 0 -90 42v6q0 52 110 98q42 20 94 20l94 -4l194 2q258 0 510 -84q110 -36 201 -117t141 -155t75 -169t25 -168t-36 -214t-68 -216t-102 -151 t-136 -115t-175 -75t-243 -36l-142 2h-124q-202 0 -428 28q-16 18 -16 58zM484 220q0 -24 16 -34q32 -22 65 -26t51 -8t58 -4t137 41t156 84t119 127t87 164t27 190v14q-2 122 -32 209t-96 174t-127 128t-167 72t-158 31t-102 -44q-22 -476 -24 -694t-10 -422v-2z" />
<glyph unicode="E" horiz-adv-x="1296" d="M0 62q0 26 13 32t16 8t11 5t11 5t12 4t13 4t16 2l86 -18q20 0 22 20q50 500 50 726t-6 434q-72 0 -86 -8t-20 -11t-12 -3t-24 6q-68 34 -68 80v6q4 54 43 83t111 53h200l422 2q132 0 334 -36q2 -34 3 -68t2 -51t1 -35t1 -27t2 -17t4 -16t6 -15l9 -21l8 -30q6 -14 31 -38 t25 -30v-8l-2 -4q-98 -32 -131 -32t-71 4t-104 8q-6 8 -6 13t21 24t21 41t-8 50l-8 38q-2 8 -15 16t-29 30q-76 14 -149 14t-127 -10t-66 -10l-30 2q-24 0 -38 -16q-2 -92 -2 -228t2 -250q152 -28 177 -28t79 12q36 24 36 84l-2 54q0 98 92 98q32 0 62 -32q0 -106 8 -580 q-58 -24 -83 -24t-61 42q-4 16 -4 45t14 53t14 31t-7 22t-19 24t-19 12t-30 9t-63 19t-72 13q-108 0 -138 -58q-24 -120 -29 -186t-5 -206q20 -44 68 -56q112 -28 219 -28t275 12q64 34 84 107t88 153q38 -44 44 -68l6 -30v-24v-26q2 -26 2 -72q0 -112 -64 -162h-1092 q-74 24 -74 62z" />
<glyph unicode="F" horiz-adv-x="1296" d="M0 62q0 26 13 32t16 8t11 5t11 5t12 4t13 4t16 2l86 -18q20 0 22 20q50 500 50 726t-6 434q-72 0 -86 -8t-20 -11t-12 -3t-24 6q-68 34 -68 80v6q4 54 43 83t111 53h200l422 2q132 0 334 -36q2 -34 3 -68t2 -51t1 -35t1 -27t2 -17t4 -16t6 -15t8 -21t10 -29t30 -39 t25 -36v-2l-2 -4q-98 -32 -131 -32t-53 2q-56 6 -122 10q-6 8 -6 13t21 24t21 41t-2 30l-14 58q-2 8 -15 16t-29 30q-76 14 -149 14t-127 -10t-66 -10l-30 2q-24 0 -38 -16q-2 -92 -2 -228t2 -250q152 -28 177 -28t79 12q36 24 36 84l-2 54q0 62 36 84q22 14 55 14t63 -32 q0 -106 8 -580q-58 -24 -83 -24t-61 42q-4 16 -4 45t14 53t14 31t-7 22t-19 24t-19 12t-30 9t-63 19t-72 13t-76 -11t-62 -47q-24 -120 -29 -186t-5 -206q20 -44 68 -56q90 -22 102 -22t45 10t105 14q18 10 32 10q22 0 22 -26q0 -44 -24 -104l-8 -20h-712q-74 24 -74 62z " />
<glyph unicode="G" horiz-adv-x="1552" d="M16 662q0 168 48 279t135 229t165 182t200 116q86 40 232 40h102q132 0 228 -23t145 -51t147 -96q30 -92 30 -161t-78 -229q-50 34 -64 105t-40 99q-88 94 -166 140q-116 68 -265 68t-266 -91t-169 -197q-74 -148 -74 -342t124 -348q72 -90 154 -131t177 -53t125 -12 q142 0 244 88l4 198q0 2 -16 92q-8 38 -52 47t-96 16t-73 38t-1 51q72 6 246 11t334 23q18 -18 18 -46t-24 -56q-8 -8 -22 -8l-42 6q-14 0 -16 -15t-2 -47l14 -258q0 -64 -16 -88q-104 -146 -298 -190q-158 -38 -392 -48l-38 -2q-120 0 -244 66t-196 134t-147 199t-75 265z " />
<glyph unicode="H" horiz-adv-x="1620" d="M20 108q0 30 14 48t44 18l116 -22q28 0 44 18q-2 70 -2 193t16 351t22 622q-20 28 -66 28l-58 -4q-44 0 -63 26t-19 54t24 50q288 -4 350 -10h22q40 -4 276 -12q16 -16 16 -42t-19 -46t-51 -20l-110 16q-32 0 -50 -18q-10 -152 -10 -236l2 -252h700q4 76 4 186v80 q0 98 12 178q-20 30 -85 35t-84 32t-19 57t18 46q176 18 247 18t261 -30q12 -16 12 -30t-14 -42t-73 -50t-75 -52v-1060q10 -24 43 -51t42 -48t11 -39q2 -20 2 -43t2 -39q-240 -22 -252 -22h-38q-78 4 -236 4q4 18 6 48q4 62 25 87t64 31t75 15t35 51t6 77t5 45q4 20 4 30 l-4 356q-154 10 -164 15t-57 5t-485 -10q18 -278 18 -299t-2 -21q-2 10 -4 10t-2 -63t4 -155q24 -36 104 -41t100 -45q10 -24 10 -50t-34 -52q-208 -4 -270 -8t-84 -4t-294 30q-32 26 -32 56z" />
<glyph unicode="I" horiz-adv-x="778" d="M20 108q0 70 68 70q22 0 70 -13t71 -13t41 18q-8 310 -8 426l12 740q-20 28 -66 28l-58 -4q-44 0 -63 26t-19 54t24 50q288 -4 350 -10h22q40 -4 276 -12q8 -8 8 -30l-14 -70q-18 -30 -47 -30t-79 13t-75 13t-43 -8q24 -368 24 -660v-126q0 -216 6 -382q20 -30 66 -30 l80 6q40 0 55 -23t15 -52t-36 -55q-208 -4 -270 -8t-84 -4t-294 30q-32 26 -32 56z" />
<glyph unicode="J" horiz-adv-x="758" d="M14 -374q0 50 36 93t61 43t53 -38q50 -68 102 -68q42 6 79 46t39 106q8 314 8 459t-2 451l-4 624q-18 28 -76 34q-94 10 -94 84q0 14 4 38q86 28 167 28t141 -6l34 -2l44 2q80 0 114 -44q9 -11 9 -26q0 -14 -8 -31q-17 -35 -74 -62t-75 -63q14 -436 14 -740l-2 -662 q0 -82 -18 -116q-28 -54 -50 -80l-24 -24q-8 -8 -28 -24l-30 -26q-40 -36 -62 -52t-78 -38t-122 -22t-100 24q-58 42 -58 92z" />
<glyph unicode="K" horiz-adv-x="1450" d="M2 102q0 30 24 56t68 26l136 -16q22 0 32 2q-26 432 -40 1144q0 22 -24 22l-90 -16q-46 0 -46 61t64 103l166 -2l56 -2h12l278 4q32 -30 32 -76t-32 -76q-14 -14 -33 -14t-54 14t-53 14t-32 -14l2 -138q0 -92 -7 -164t-11 -228q20 -52 48 -52h2q76 106 94 134 q44 66 94 128l222 286q-8 36 -86 42q-86 6 -86 56q0 34 27 55t77 43l184 4h2q0 -2 -4 -2t-4 -4t146 -14q6 -2 24 -11t25 -12t17 -11q20 -14 20 -38v-6q-2 -28 -25 -40t-58 -21t-53 -25l-96 -82q-74 -68 -112 -118l-242 -306l126 -112q88 -80 160 -172l282 -342q14 -6 26 -6 l88 20q20 0 34 -14q40 -40 40 -82t-34 -80h-688q-26 26 -26 58t21 53t40 21t57 -14t57 -14t41 18t22 48t-8 66l-172 208q-14 18 -52 60l-128 136h-12q-64 0 -108 -86q-12 -112 -12 -182t12 -228q16 -18 46 -18l80 8q52 0 52 -52q0 -42 -42 -68q-140 0 -226 9t-320 9 q-20 20 -20 50z" />
<glyph unicode="L" horiz-adv-x="1416" d="M52 76q0 16 46 94h16q48 0 105 -17t93 -17t72 12v102l18 710q0 122 -2 194q-22 60 -63 95t-127 77q-12 34 -12 71t30 65q188 8 231 12t52 4t33 -2q78 -6 292 -14q54 -44 54 -94q0 -102 -74 -102l-52 4q-28 0 -48 -12q-50 -36 -64 -86q4 -166 4 -366l-2 -352 q0 -194 4 -358h130q86 0 149 14t179 66v16q0 48 -12 109t-12 90t7 68t59 39l114 -10q20 0 30 2q38 -192 38 -248t-20 -242q-72 22 -120 28q-102 -6 -232 -16q-248 -16 -406 -16t-480 32q-30 32 -30 48z" />
<glyph unicode="M" horiz-adv-x="1722" d="M38 1382q0 46 82 86q96 24 165 24t215 -40q92 -226 142 -381t92 -261t160 -332l522 1012q56 32 93 32t147 -38q36 -42 36 -75t-26 -51v-2q0 -26 -36 -26l-56 4q-50 0 -50 -38q-20 -686 -20 -776t4 -250q12 -16 52 -20q66 -6 66 -76l-16 -118q-102 -14 -170 -14l-222 14 v18l-4 72q0 78 76 78h40q36 0 52 20q18 146 18 284l-12 576v114q-136 -298 -248 -613t-156 -414t-50 -110t-10 -17q-10 -16 -30 -16h-10q-42 0 -94 68q-76 196 -143 399t-130 358t-193 407q30 -304 30 -508l-6 -384v-98q16 -30 76 -50q82 -24 82 -82q0 -16 -10 -45t-12 -45 q-72 -2 -153 -10t-161 -8l-96 2q-2 16 -14 46t-12 44t10 31t42 17l36 -2q28 0 40 16q-8 210 -8 368l8 742q-16 22 -71 23t-65 29q-2 6 -2 16z" />
<glyph unicode="N" horiz-adv-x="1586" d="M36 1384q0 46 84 84q96 24 165 24t215 -40l460 -552l136 -176l166 -224l36 876q-36 0 -82 -12t-67 -12t-39 18t-18 34l18 70q0 10 -6 22q124 8 192 8t258 -12q24 0 24 -39t-42 -81q-20 -18 -40 -18l-80 6q-10 -198 -10 -374l10 -470q0 -154 -10 -322q-2 -2 -13 -22 t-19 -30q-24 -30 -54 -34h-8q-44 0 -94 68l-814 990q18 -216 18 -327t-12 -273t-12 -282v-56q8 -24 44 -24h20q46 0 46 -46q0 -14 -11 -44t-13 -46q-70 -2 -174 -9t-176 -7h-60q-2 16 -14 46t-12 44t15 36t69 22l100 -8q24 0 36 12q-8 210 -8 368l8 742q-10 16 -48 16 l-96 -6q-70 0 -84 42q-4 12 -4 18z" />
<glyph unicode="O" d="M74 746q0 234 134 411t285 253t359 76h8q176 0 306 -63t234 -211t104 -338q0 -106 -23 -224t-49 -177t-48 -93t-68 -96l-64 -94q-138 -208 -414 -208q-178 0 -308 66q-238 122 -326 232q-88 104 -110 240q-20 136 -20 226zM404 620q0 -128 51 -220t105 -137t137 -73 t153 -28t155 47t130 114t101 208t56 271q0 62 -15 154t-47 161t-104 131q-124 108 -244 108q-180 0 -302 -144q-56 -64 -90 -121t-51 -115t-21 -97t-8 -127z" />
<glyph unicode="P" horiz-adv-x="1262" d="M42 70q0 68 60 118q18 8 37 8t37 -15t28 -15t32 22l4 358q10 166 10 470l-2 310q-10 -10 -58 -10t-128 16q-20 22 -20 62t38 74q100 2 241 8t237 8h52q140 0 241 -33t195 -119q76 -72 86 -206l2 -36q0 -86 -55 -171t-118 -135t-148 -84t-173 -34l-108 2q-40 0 -60 -2 q2 -234 16 -446q28 -10 74 -12t77 -12t47 -39t16 -59q0 -58 -50 -98l-368 -16q-98 0 -216 16q-26 32 -26 70zM456 1067q0 -75 16 -213q28 -26 58 -26t54 9t58 27t48 24q88 38 115 98t27 110t-25 103t-60 79t-93 46t-87 20t-95 -20q-16 -182 -16 -257z" />
<glyph unicode="Q" d="M12 822q0 86 28 160q26 76 90 166q126 178 268 264q142 90 340 94h14q306 0 490 -268q106 -154 106 -342q0 -88 -34 -284q-22 -114 -82 -212q-26 -42 -62 -96l-62 -96q-60 -92 -102 -106q-6 -2 -6 -10q0 -20 92 -62l280 -116q74 -32 190 -86l182 -84q176 -78 384 -86h2 q44 0 134 50t104 50t14 -16l-10 -68l4 -38q0 -14 -19 -35t-50 -37t-55 -20t-72 -8q-46 -4 -91 -12t-91 -8q-48 0 -124 14q-164 30 -308 94l-158 70q-104 48 -184 83t-220 109l-238 126q-98 54 -128 62q-134 36 -210 78q-58 34 -132 84q-56 38 -120 96q-122 110 -146 286 q-18 132 -18 204zM256 753q0 -187 94 -345q48 -80 101 -126t130 -72t146 -26t130 34t93 64q60 56 98 152l38 98q62 168 62 284q0 52 -15 150t-45 166t-100 137t-133 104t-145 35l-28 -2q-112 -10 -180 -62q-72 -54 -138 -144t-84 -164q-24 -96 -24 -283z" />
<glyph unicode="R" horiz-adv-x="1518" d="M100 1412q0 38 38 72q88 2 230 10t286 8t259 -28t225 -126q74 -66 86 -204l2 -36q0 -88 -54 -170q-90 -130 -234 -194l-2 -2q0 -10 81 -93t220 -244t247 -325q-78 -58 -146 -58t-178 40q-70 86 -184 250l-192 268q-78 104 -102 104l-82 2q-22 0 -70 -4q2 -134 16 -444 q28 -10 75 -12t79 -13t48 -43q12 -20 12 -49t-48 -69q-42 -4 -106 -12q-138 -14 -227 -14t-251 26q-26 28 -26 65t60 87q18 8 36 8t36 -15t29 -15t31 22l6 360q10 176 10 494l-2 284q-10 -10 -58 -10t-128 16q-22 26 -22 64zM564 1072q0 -84 16 -222q30 -28 60 -28 q44 0 82 16l38 18q26 10 56 22q70 30 96 88q32 64 32 127t-35 134t-145 109q-60 20 -91 20t-93 -20q-16 -180 -16 -264z" />
<glyph unicode="S" horiz-adv-x="920" d="M10 318l6 186q20 22 42 22t62 -20q52 -30 75 -93t44 -129t81 -111t156 -45q110 0 151 22t55 50q36 60 36 141t-70 183q-36 52 -86 78t-122 47t-108 41t-83 36t-79 34t-54 54q-78 122 -78 233t34 202t75 130t110 66t124 27t154 -21t135 -26t54 -9q52 -12 78 -56 q0 -132 -5 -183t-29 -175q-20 -4 -26 -4q-72 0 -94 142q-10 56 -35 116t-67 86q-74 46 -122 46t-82 -28q-98 -80 -98 -212q0 -92 46 -180q20 -40 53 -59t86 -33t88 -31t99 -33t110 -38t76 -68q74 -110 74 -222t-41 -221t-88 -157t-124 -81t-151 -33t-210 32l-34 10 q-14 4 -26 7t-25 10t-21 10t-25 15t-26 17t-37 23l-46 32q-12 114 -12 170z" />
<glyph unicode="T" horiz-adv-x="1706" d="M50 1042q42 188 42 212q0 40 42 180q26 26 45 30t40 6t62 9t122 7t225 -15t234 -15t223 18t203 18q170 0 226 -52l46 -48q4 -4 15 -26t13 -40q0 -36 96 -262q-10 -38 -37 -63t-52 -25t-31 2q-66 92 -97 184t-54 138t-87 74q-152 -36 -376 -50q0 -224 16 -595t18 -535 q0 -24 30 -24l66 6q30 0 47 -24t17 -71t-40 -81q-258 0 -391 15t-281 41q-32 32 -32 65t16 55q30 42 90 42l118 -10q20 0 30 2l-2 104q0 192 24 448t24 365t-6 209q-36 2 -114 11t-146 9l-64 -2q-68 -40 -83 -94t-35 -145t-88 -187q-12 -10 -28 -10q-46 0 -86 124z" />
<glyph unicode="U" horiz-adv-x="1604" d="M32 1324q0 30 21 73t83 65q210 8 269 13t75 5t270 -36q52 -42 52 -92q0 -22 -16 -44q-18 -20 -44 -20t-84 28t-82 28t-46 -18q-4 -128 -15 -291t-11 -264t36 -351q44 -104 100 -164q72 -80 208 -80q206 0 364 216q30 282 30 404v136q0 142 10 382q-14 20 -48 20l-94 -12 q-52 0 -52 55t74 97l192 4q14 0 24 -1t53 -3t107 -6q60 -42 60 -88q0 -16 -10 -32t-30 -16l-72 12q-20 0 -30 -12q-10 -158 -10 -310l4 -312q0 -222 -22 -488q-34 -68 -86 -104t-140 -66q-216 -80 -366 -80t-306 50q-54 18 -93 50t-83 80t-80 76q-16 154 -16 321t14 410 t14 329v38q-6 -4 -35 -25t-69 -33t-61 -12t-40 19t-19 49z" />
<glyph unicode="V" horiz-adv-x="1364" d="M54 1436q0 22 26 44q250 30 277 30t235 -14q34 -26 18 -51t-58 -25l-142 22q-26 0 -26 -20q0 -8 2 -12q56 -208 140 -403t168 -495q10 -30 36 -30t32 12q156 368 256 630t100 270q0 22 -46 22l-60 -2q-90 0 -90 56q0 26 22 44q184 -4 358 -18q8 -10 8 -28t-34 -54 t-42 -54q-106 -238 -248 -606t-286 -674q-22 -48 -91 -48t-79 48l-106 440q-74 296 -236 800q-10 28 -62 38t-64 36q-8 20 -8 42z" />
<glyph unicode="W" horiz-adv-x="2082" d="M54 1426q0 32 26 54q250 30 277 30t235 -14q34 -26 18 -51t-58 -25l-142 22q-26 0 -26 -20q0 -8 2 -12q56 -208 140 -403t168 -495q10 -30 36 -30t32 12q132 312 240 592l-80 234q-16 20 -66 32q-68 20 -68 74q0 32 26 54l112 -2l238 6q86 0 236 -10q34 -26 16 -52 q-8 -12 -44 -31t-60 -21t-53 -35t-41 -63l-12 -32q104 -302 222 -728q10 -30 36 -30t32 12l172 416l48 122q14 32 60 156l72 194q2 6 2 14q0 20 -46 20l-58 -2q-90 0 -90 56q0 26 22 44q184 -4 358 -18q8 -10 8 -28t-34 -54t-42 -54q-112 -248 -253 -614t-281 -666 q-12 -24 -48 -24t-42 24q-80 316 -164 592t-94 312q-156 -410 -386 -904q-12 -24 -44 -24t-38 24l-106 440q-74 296 -236 800q-12 40 -78 40h-52q-92 0 -92 66z" />
<glyph unicode="X" horiz-adv-x="1586" d="M32 1390q0 50 60 70q10 2 32 7t30 7q276 16 361 16t241 -34q22 -18 22 -38t-12 -36t-32 -16t-59 13t-59 13t-30 -20q62 -110 157 -221t139 -173q96 104 177 203t165 191q-6 22 -52 26t-52 24q-2 4 -2 14q0 34 36 54q84 0 144 5t74 5t158 -50q14 -16 14 -46t-20 -47 t-34 -17l-60 12q-14 0 -20 -4q-176 -188 -282 -328l-126 -160l234 -404q46 -78 118 -178q44 -14 84 -14l42 2q46 0 74 -31t28 -77l-10 -112q-224 0 -317 8t-243 8l-12 100q0 18 6 38q4 10 31 16t27 30v10l-96 184q-34 66 -92 146q-12 18 -42 18t-44 -18q-76 -100 -83 -114 t-39 -60l-88 -134q-2 -8 -17 -29t-15 -31q0 -32 32 -32l42 4q30 0 30 -32q0 -22 -39 -54t-49 -48l-274 -12q-74 0 -154 12q-12 14 -36 32q-48 36 -48 65t14 47q16 20 49 35t49 15t47 -11t48 -11t31 16l182 218q38 44 101 103t143 141q20 20 20 45t-20 73l-122 148 q-54 64 -55 73t-51 79l-144 192q-16 8 -40 8l-148 -22q-42 0 -70 18q-54 32 -54 70z" />
<glyph unicode="Y" horiz-adv-x="1518" d="M28 1308q0 44 24 74q206 16 244 16l112 -4q52 0 212 6q42 -32 42 -72q0 -52 -52 -52l-82 8q-32 0 -44 -22q50 -134 132 -308t124 -306l358 580q-24 10 -65 14t-69 14q-40 18 -40 63t54 81l96 8q42 2 58 4q32 4 47 4t34 -1t84 -6t143 -9q30 -26 30 -56t-14 -46 q-20 -30 -62 -30l-100 10q-36 0 -60 -16q-38 -66 -98 -182l-96 -178q-100 -176 -210 -322q-4 -52 -10 -104l-8 -84q-2 -30 -2 -77t14 -179q2 -22 26 -22l94 18q20 0 41 -20t21 -41t-10 -37q-262 -26 -318 -26t-296 20q-16 20 -16 47t25 49t51 22l100 -16q28 0 44 18 q18 188 18 426q-74 154 -213 350t-203 304q-12 6 -24 6l-72 -16q-10 0 -24 10q-40 36 -40 80z" />
<glyph unicode="Z" horiz-adv-x="1536" d="M56 1024l24 92l16 72q20 74 36 108l78 154q542 0 569 -3t40 -5t29 -4q28 -4 558 -4q4 -8 4 -16t-18 -28t-156 -186l-256 -328l-450 -620q-14 -42 -14 -57t14 -29h614q64 26 102 65t75 97t47 122t48 144q8 4 24 4q38 0 62 -38q0 -102 -10 -155t-42 -135l-18 -54 q-38 -106 -65 -130t-53 -38q-242 0 -439 13t-465 13q-32 -4 -83 -33t-74 -29t-49 17t-26 63l4 74q0 20 -2 30l424 580q26 36 111 139t137 161l212 234q8 22 8 41t-8 27h-564q-64 -20 -136 -102q-36 -40 -56 -77t-45 -93t-53 -104q-44 -20 -87 -20t-67 38z" />
<glyph unicode="[" horiz-adv-x="524" d="M78 14q0 14 14 36q2 54 2 156l-10 660l4 576q22 8 54 24l4 4h2q14 -14 88 -20h10q20 0 55 13t51 13t32 -10q34 -24 18 -60q-12 -24 -61 -29t-65 -25q-48 -62 -48 -150l6 -138q0 -20 -6 -84t-12 -267t-15 -295t-9 -116q0 -92 26 -132t106 -102q10 -8 28 -8l58 8 q18 0 32 -15t-9 -39t-69 -24l-106 12h-10l-128 -12q-42 0 -42 24z" />
<glyph unicode="\" horiz-adv-x="1586" d="M52 1410q0 24 14 40q146 50 159 50t73 -5t144 -5q36 -20 36 -54t-50 -39t-56 -25q84 -92 153 -202t165 -216l126 -130q52 -56 114 -128l376 -452q14 -16 34 -16l96 20q26 0 67 -25t41 -56t-13 -47t-36 -33t-35 -31q-80 -12 -134 -12t-136 6t-158 6q-8 12 -48 45t-40 57 q0 32 30 32l42 -4q32 0 32 28q0 14 -15 35t-17 29q-106 158 -244 329t-183 228t-148 203t-255 310q-6 4 -20 4l-62 -12q-22 0 -37 23t-15 47z" />
<glyph unicode="]" horiz-adv-x="524" d="M82 1413q-14 15 9 39t69 24l106 -12h10l128 12q42 0 42 -24q0 -14 -14 -36q-2 -54 -2 -156l10 -660l-4 -576q-22 -8 -54 -24l-4 -4h-2q-14 14 -88 20h-10q-20 0 -55 -13t-51 -13t-32 10q-34 24 -18 60q12 24 61 29t65 25q48 62 48 150l-6 138q0 20 6 84t12 267t15 295 t9 116q0 92 -26 132t-106 102q-10 8 -28 8l-58 -8q-18 0 -32 15z" />
<glyph unicode="^" horiz-adv-x="692" d="M40 910v2q60 160 212 454q100 50 139 50t73 -20q40 -58 60 -100t40 -110t44 -138t44 -148v-2q0 -28 -97 -28t-109 20q-4 6 -39 111t-83 131q-36 -104 -56 -226q-2 -22 -115 -22t-113 26z" />
<glyph unicode="_" horiz-adv-x="1120" d="M41.5 153.5q2.5 51.5 12.5 75.5q27 61 132.5 74.5t266.5 4.5l68 -3l286 -21q132 -7 259 20q27 -1 23.5 -65t-20.5 -118.5t-33 -53.5l-1 2l-61 4q-133 7 -360.5 10.5t-538.5 20.5q-5 -4 -13 -4q-23 2 -20.5 53.5z" />
<glyph unicode="`" horiz-adv-x="576" d="M88 1366q100 50 139 50t73 -20q40 -58 60 -100t40 -110t44 -138t44 -148v-2q0 -28 -97 -28t-108 18t-43 130q-94 316 -152 348z" />
<glyph unicode="a" horiz-adv-x="834" d="M14 224q0 118 114 216q70 56 182 102q20 8 67 11t68 21t29 54t8 60t-4 46t-6 38t-4 24t-6 20q-8 20 -26 33t-33 13t-64 -11t-73 -42t-24 -93v-38q-2 -36 -33 -59t-61 -23q-106 0 -106 102q0 18 2 26q20 116 79 166t113 64t144 18l42 2q64 0 116 -36q74 -50 90 -136 t16 -222v-52l2 -88l2 -44l-2 -82q0 -38 6 -90v-26q0 -22 24 -22t56 43t54 43q2 0 17 -6t15 -30l-6 -48l-2 -40q0 -22 -3 -31t-5 -19t-5 -17t-9 -15q-26 -42 -46 -46t-26 -4l-40 -2q-36 -4 -59 -4t-45 11t-30 19t-16 20t-15 19t-13 19q-14 24 -30 24h-8q-26 0 -59 -30 t-45 -37t-28 -17q-50 -38 -120 -38t-116 30t-62 95t-16 109zM202 288q0 -112 64 -140q8 -4 16 -4t28 11t28 13l28 12q56 22 82 52q54 62 54 124l-2 20q-4 56 -46 80q-7 3 -18 3q-15 0 -39 -6q-41 -11 -97 -45q-98 -64 -98 -120z" />
<glyph unicode="b" horiz-adv-x="1016" d="M14 1368q0 2 18 36q38 74 178 172q10 6 18 6q26 0 62 -78l8 -16q6 -192 6 -349t-2 -215q2 -22 18 -22t57 20t59 24t66 17t70 16t51 8t49 5t58 -17t75 -54t56 -68t54 -102t47 -135t14 -162v-30q0 -82 -25 -151t-85 -141q-12 -14 -29 -38t-29 -38q-30 -36 -72 -40 q-168 -22 -308 -22q-228 0 -280 60q-12 206 -12 676t6 586q-12 18 -44 24t-58 10t-26 18zM306 550q0 -240 74 -364q30 -54 52 -72q42 -34 79 -34t90 28t91 75t77 129t39 146q0 100 -34 164q-84 160 -180 204q-52 26 -76 26q-102 -12 -157 -102t-55 -200z" />
<glyph unicode="c" horiz-adv-x="864" d="M28 449q0 71 26 162t58 149t98 108q112 88 258 88h28q52 -2 72 -4q60 -10 121 -71t61 -121q0 -18 -2 -28q-14 -54 -58 -56h-6q-24 0 -51 33t-38 41t-27 24q-40 36 -68 42t-68 6t-89 -32t-86 -132t-37 -166q0 -214 98 -306q34 -32 126 -46l60 -6q60 0 102 50q18 20 40 82 q10 32 39 32t47 -15t18 -37v-4q0 -80 -6 -98q-12 -32 -30 -52q-30 -42 -74 -56l-52 -18q-36 -10 -72 -10l-64 2q-26 -2 -66 -2q-114 0 -210 86q-104 102 -128 206q-20 78 -20 149z" />
<glyph unicode="d" horiz-adv-x="888" d="M20 418v24q6 178 54 276t88 145t107 92t135 47h8q38 0 136 -34q14 -4 39 -28t34 -24t11 18q-2 56 -2 243t8 211q0 6 -7 6t-41 -12t-52 -12q-22 0 -22 36t34 86t68 72q10 8 42 8t73 -20t41 -44q0 -4 -4 -12q18 -420 18 -1198v-82q0 -14 33 -47t33 -45v-10q0 -80 -40 -98 q-4 -2 -16 -2l-66 6h-8q-30 0 -70 49t-55 49t-41 -19t-114 -53t-134 -34t-66 4q-40 6 -84 68l-32 46q-108 130 -108 288zM180 458q0 -72 36 -129t75 -84t95 -48t77 -21t35 4t21 8t14 9t12 8t11 10t9 10t9 13t8 12t9 14t9 14q72 116 72 274q0 104 -54 192t-138 106 q-8 2 -23 2t-66 -25t-98 -83t-73 -106t-33 -106t-7 -74z" />
<glyph unicode="e" horiz-adv-x="728" d="M28 449q0 71 26 162t58 149t98 108q110 84 230 84t178 -40q28 -18 58 -78t30 -110t-21 -107t-59 -59q-242 -22 -321 -22t-81 2q-4 -40 -4 -76t9 -92t25 -95t56 -73q20 -20 41 -24t35 -8t48 -4l66 -6q34 0 54 14t26 26t12 34t10 32q10 32 38 32t47 -16t19 -38v-2 q-6 -86 -9 -99t-28 -56t-66 -62t-77 -19l-74 4q-26 -2 -66 -2q-114 0 -210 86q-104 102 -128 206q-20 78 -20 149zM252 692q0 -8 6 -18q10 -10 124 -10t118 22l6 70q0 36 -26 56q-28 18 -60 18t-76 -30q-92 -62 -92 -108z" />
<glyph unicode="f" horiz-adv-x="644" d="M14 54q0 30 14 53t53 27t51 22q4 116 5 276t3 218q-8 24 -37 43t-43 37q-14 24 -14 43t6 43t42 55t46 55q8 50 8 98v60q0 142 100 244q40 38 98 76t158 54q30 6 51 6t34 -4t34 -9t27 -7l22 -8q48 -16 60 -30q40 -46 40 -83t-28 -61q-16 -10 -28 -10q-64 0 -102 30 q-48 38 -104 38t-86 -20q-50 -38 -62 -86l-14 -56q-20 -72 -20 -144l2 -112v-26h10q28 0 69 8t65 8t44 -26t20 -64t-33 -67t-73 -29l-92 8h-4q-12 -160 -12 -335t2 -231q0 -20 30 -20h20q30 0 42 -14q22 -34 22 -59t-22 -55h-376q-28 24 -28 54z" />
<glyph unicode="g" horiz-adv-x="1030" d="M20 -228q0 20 3 35t15 31t23 24t33 22t37 26t55 18t65 17t27 39v2q0 14 -11 20t-28 11t-28 14t-40 27t-43 34t-14 40q24 42 64 83t60 65q2 6 2 21t-24 60t-74 95q-68 70 -68 136q0 14 13 67t48 112t35 103v10q-2 22 -30 45t-28 37t2 20h12q22 0 60 -21t73 -21t96 30 t86 33t48 3t61 -10t94 -43t100 -35h4q34 0 80 28t76 30l60 8q28 0 30 -20q8 -60 8 -99t-17 -74t-23 -47q-16 -30 -52 -34h-12q-24 0 -58 34t-68 42q-4 -14 -4 -38t15 -70t15 -78v-42q0 -76 -12 -100t-33 -51t-59 -46t-92 -36t-82 -32t-69 -25t-65 -24t-30 -46v-8 q0 -44 68 -72q42 -18 73 -18t83 11t79 11t69 -10t66 -16q76 -24 128 -83t52 -149v-16q-2 -80 -56 -148t-110 -104t-166 -84q-128 -56 -318 -56q-60 0 -101 21t-60 42t-39 49l-36 52q-52 66 -60 97t-8 51zM258 -206v-6q2 -34 24 -61t46 -39q90 -52 144 -52t87 9t54 13t28 5 t23 7t24 10q22 14 35 39t13 49t-25 80t-53 88q-48 54 -120 54q-90 0 -222 -94q-18 -14 -38 -42t-20 -60zM258 626q0 -70 51 -140t74 -82t45 -12h12q36 4 62 31t38 53q44 102 44 153t-17 97t-25 63t-33 44t-69 27t-110 -65t-72 -151v-18z" />
<glyph unicode="h" horiz-adv-x="970" d="M18 79q0 25 10 45q18 36 93 37t93 29q-10 278 -10 628v472q-14 22 -55 32t-51 19t-22 18t-16 13q-16 16 -16 32q8 36 28 45t28 12t31 6t87 15t66 12q52 0 84 -34q8 -150 8 -340v-218q28 32 48 44l24 12q6 4 26 9t26 7t34 6t37 6t29 2q64 0 162 -76q56 -44 88 -144 t32 -228l-18 -338v-32q10 -26 40 -38q52 -18 52 -72q0 -20 -12 -36q-30 2 -62 2l-118 -2q-98 0 -184 2q-20 20 -20 48t16 50t55 23t51 17q38 236 38 310t-14 163t-126 145q-36 16 -58 16t-42 -6t-34 -9t-21 -5t-18 -6t-15 -8q-16 -16 -18 -48t-2 -128l4 -290q0 -68 -2 -102 q10 -24 45 -24t45 -14q34 -46 34 -76t-20 -52q-254 -4 -424 -4q-36 28 -36 53z" />
<glyph unicode="i" horiz-adv-x="500" d="M30 36q0 60 86 66q60 4 78 30v212q0 112 -12 308q-18 44 -70 85t-82 75q50 22 86 36l72 28q40 14 62 14q90 -12 116 -56t26 -80t-14 -98t-14 -100l-10 -412q10 -26 52 -35t52 -29t10 -41t-20 -39h-398q-20 18 -20 36zM170 1125q0 25 14 49q22 48 64 48t63 -39t21 -65 t-22 -53t-69 -27t-57 34q-14 28 -14 53z" />
<glyph unicode="j" horiz-adv-x="572" d="M18 -378q0 24 16 63t55 55t63 16t44 -9t29 -31t21 -28q40 -22 53 -22t35 12q-2 294 -4 294t-2 245t2 531q-10 12 -32 12l-50 -4q-22 0 -32 14q-26 36 -26 70t26 66q176 44 234 44t74 -2v-1140q-24 -88 -71 -143t-139 -113t-136 -58h-10q-34 0 -80 24q-70 38 -70 104z M342 1117q0 25 14 49q22 48 64 48t63 -39t21 -65t-22 -53t-69 -27t-57 34q-14 28 -14 53z" />
<glyph unicode="k" horiz-adv-x="1074" d="M26 1378q0 18 6 32l46 30q6 4 8 6t6 4t7 3t38 14t93 13h18q80 0 100 -10q48 -22 48 -68q0 -50 -38 -66q-18 -6 -22 -16q8 -248 8 -494l-2 -278q2 -14 17 -28t29 -18q40 32 88 64q100 68 164 136q14 38 14 52t-11 25t-25 11l-54 -12q-4 0 -16 4q-44 14 -46 44v4 q0 44 58 76q178 8 410 24q38 -26 38 -64q0 -14 -2 -20l-176 -120q-88 -58 -144 -98l-160 -124q138 -130 280 -238t244 -200l-4 -48q-90 -16 -146 -16t-144 4t-158 4q-10 10 -10 26t32 52q14 14 42 14l48 -4q30 0 36 24q-142 76 -190 111t-186 161v-88q0 -100 -6 -208 q10 -14 42 -16t44 -18q20 -30 0 -50q-86 -16 -172 -16t-132 1t-68 1q-12 10 -12 30t11 38t43 24t42 22q-2 110 -2 322l2 516q0 224 -2 346q-12 16 -58 18q-76 4 -76 62z" />
<glyph unicode="l" horiz-adv-x="562" d="M30 1294l12 78q14 40 36 56t52 34q42 20 101 20t199 -50v-1254q2 0 30 -14t41 -27t26 -32t13 -30t-10 -57l-452 -10q-20 28 -20 53t8 61q36 36 82 45t54 11l-2 1058h-38q-50 0 -78 10t-54 48z" />
<glyph unicode="m" horiz-adv-x="1422" d="M-6 108q0 56 49 82t61 48v228q0 144 -2 304q-12 20 -55 27t-47 29q122 110 194 182q18 0 28 -3t14 -4t10 -5t8 -6q12 -12 21 -17t19 -29q14 -30 45 -30t74 23t56 27t29 12q34 14 60 13t65 -21t51 -24t30 -12q36 -12 62 -12h12q18 2 42 18q60 42 158 42q118 0 210 -58 q92 -62 124 -148q6 -210 6 -274l-6 -226q6 -20 30 -36t30 -30q30 -60 30 -88q0 -78 -52 -106q-46 -2 -94 -2t-170 2q-22 10 -36 47t-14 59t7 43t41 51t34 32v200q0 118 -2 250q-12 42 -57 74t-99 34h-10q-34 0 -82 -26q-56 -34 -76 -80q6 -124 6 -200l-2 -196v-64 q8 -14 39 -16t41 -14q32 -38 32 -72t-9 -69t-45 -53q-46 -2 -117 -2t-191 2q-22 10 -38 52t-16 60t10 38t53 36t53 38l-4 216q0 62 4 210q-6 46 -24 68q-30 32 -76 38h-16q-48 0 -103 -32t-75 -78q-2 -46 -2 -122l2 -300q8 -12 29 -21t29 -19q28 -46 28 -71t-9 -55t-23 -39 t-38 -15h-254q-40 12 -61 41t-21 49z" />
<glyph unicode="n" horiz-adv-x="940" d="M-6 108q0 56 49 82t61 48v228q0 144 -2 304q-12 20 -55 27t-47 29q122 110 194 182q18 0 28 -3t14 -4t10 -5t8 -6q12 -12 21 -17t19 -29q14 -30 45 -30t74 23t56 27t29 12q34 14 57 14t40 -6t44 -21t37 -19t32 -12q40 -12 58 -36q36 -52 36 -113t-10 -85q6 -124 6 -200 l-2 -196v-64q8 -14 39 -16t41 -14q32 -38 32 -72t-9 -69t-45 -53q-46 -2 -117 -2t-191 2q-22 10 -38 52t-16 60t10 38t53 36t53 38l-4 216q0 62 4 210q-6 46 -24 68q-30 32 -76 38h-16q-48 0 -103 -32t-75 -78q-2 -46 -2 -122l2 -300q8 -12 29 -21t29 -19q28 -46 28 -71 t-9 -55t-23 -39t-38 -15h-254q-40 12 -61 41t-21 49z" />
<glyph unicode="o" horiz-adv-x="864" d="M28 449q0 71 26 162t58 149t98 108q112 88 258 88h28q52 -2 72 -4q60 -10 130 -80t102 -140q40 -86 40 -280q0 -82 -32 -189t-85 -162t-135 -83q-36 -10 -72 -10l-64 2q-26 -2 -66 -2q-114 0 -210 86q-104 102 -128 206q-20 78 -20 149zM220 492q0 -214 98 -306 q34 -32 126 -46l60 -6q60 0 102 50q18 20 48 102t30 150q0 200 -86 312q-48 58 -87 66t-79 8t-89 -32t-86 -132t-37 -166z" />
<glyph unicode="p" horiz-adv-x="948" d="M20 758q12 64 74 102q32 20 84 48l46 22h14q16 0 23 -5t27 -28t50 -47q22 12 45 27t33 19q16 10 64 22t86 12t114 -18q142 -34 178 -180q2 -8 7 -32t18 -79t13 -145v-36q0 -44 -2 -68l-4 -46q-4 -46 -20 -86q-20 -48 -42 -76l-14 -20q-4 -4 -22 -20l-22 -22 q-82 -78 -130 -99t-120 -21h-8l-98 10h-16q-2 -56 -2 -120l4 -228q8 -20 46 -39t47 -39t9 -47t-20 -47h-222q-116 0 -184 4q-36 22 -36 56l2 12q4 30 48 55t54 49v228l-2 802q-20 36 -38 44t-42 17t-42 19zM336 258q0 -44 53 -75t87 -31q112 0 188 100q44 58 60 184 q4 28 4 47t-10 47q-24 82 -82 146q-70 70 -152 70q-32 0 -51 -8t-31 -12q-58 -20 -64 -42q-2 -8 -2 -16v-410z" />
<glyph unicode="q" horiz-adv-x="948" d="M38 462v38q0 100 12 150l18 78q20 78 34 97t28 35q46 54 121 73t116 19t77 -9t50 -14t23 -10t33 -20t46 -27q42 36 56 54q20 26 44 26h14q8 -4 20 -11t56 -25q4 -552 4 -598l-2 -648q12 -24 55 -48t49 -54v-10q0 -36 -34 -58q-60 -4 -162 -4h-244q-22 20 -22 43t10 47 t47 42t45 38l4 230q0 64 -2 120h-14l-98 -12h-8q-136 8 -206 78l-44 44q-4 4 -12 11t-11 10t-11 10t-17 16t-12 14t-11 17t-11 19l-9 21t-13 35t-9 33q-8 28 -8 68zM206 499q0 -27 2 -41q16 -122 68 -194q68 -90 172 -90q40 0 94 32t56 74v410q0 32 -34 46q-20 8 -32 12 t-32 12t-46 8q-88 0 -150 -64t-90 -152q-8 -26 -8 -53z" />
<glyph unicode="r" horiz-adv-x="734" d="M46 770q10 14 29 47t25 39l18 28q14 18 24 24l26 16q40 24 74 24t66 -18q28 -26 34 -31t19 -8t37 -15q20 12 59 48t89 36h8q100 -8 136 -148q6 -22 6 -48t-34 -75t-76 -49h-10q-26 6 -41 52t-39 52q-66 -44 -122 -88q-2 -96 -2 -192l2 -132l-2 -112q6 -16 36 -32t30 -61 t-20 -67q-44 -12 -156 -30t-164 -30q-20 8 -32 40t-1 53t45 38t46 39q4 58 4 150l-2 202q0 82 2 134q-12 26 -63 53t-51 61z" />
<glyph unicode="s" horiz-adv-x="628" d="M18 184q0 46 32 108q8 20 24 20t49 -50t75 -101t82 -51h8q56 6 89 48t37 100v4q0 34 -16 53t-22 25t-28 23t-26 21q-34 28 -128 41t-122 65q-40 74 -40 128q0 8 1 25t1 29q2 80 46 133t115 96t110 43t75 -10q122 -32 158 -126q14 -34 14 -61t-21 -69t-29 -42t-22 26 q-42 86 -58 96t-33 22t-25 16q-28 16 -42 16t-34 -4q-92 -30 -92 -104q0 -56 37 -73t84 -29t69 -30t65 -48t61 -44q52 -48 72 -109t20 -121t-38 -114q-56 -82 -130 -104q-108 -34 -155 -34t-73 6l-36 8q-14 4 -17 5t-14 4t-23 7t-16 7t-11 7t-11 10q-12 10 -20 22 q-42 64 -42 110z" />
<glyph unicode="t" horiz-adv-x="632" d="M34 808q0 12 18 60l84 88q30 32 34 35t10 9q16 16 64 72q8 2 28 2t38 -30t18 -56l-4 -68v-18q68 6 103 6t77 -4l62 -8q30 -30 30 -73t-30 -75q-34 -2 -76 -2l-72 2q-38 0 -70 -2q-30 -10 -44 -32q2 -70 2 -121t-4 -279q4 -18 7 -55t7 -54t21 -37t47 -30q20 2 65 20t61 18 h6l4 -2q24 -6 24 -22t-18 -47t-26 -37l-48 -42q-54 -18 -94 -18t-78 8q-92 14 -152 112v582q-6 4 -20 12t-20 14l-20 12q-16 12 -25 30t-9 30z" />
<glyph unicode="u" horiz-adv-x="876" d="M-2 852q18 30 42 44l20 16q14 10 34 14t49 12t45 8t24 -2q52 -12 68 -46q2 -144 2 -260l-2 -354q54 -92 152 -92q66 0 98 35t54 91l-2 468q-16 20 -56 20h-30q-68 0 -68 54q0 40 30 61t63 23t58 6t69 4t71 -12t35 -14t24 -10q22 -10 22 -30v-6q0 -14 -21 -32t-25 -30 v-566l38 -54q6 -6 25 -18t41 -30l-66 -84q-44 -48 -162 -86q-22 0 -34 9t-27 34t-31 43q-18 2 -34 -4t-30 -10t-74 -29t-102 -25h-10q-66 2 -119 50t-75 140v164q0 -12 -2 -12v408q-10 18 -46 28t-47 33q-6 12 -6 23q0 9 5 18z" />
<glyph unicode="v" horiz-adv-x="856" d="M-8 888q0 28 8 42q24 48 112 48h62q20 2 60 2q150 0 150 -72q0 -42 -38 -88q-10 -12 -32 -7t-26 -5q-2 -16 -2 -35t9 -73t13 -105t8 -79q6 -70 72 -174l26 2q0 2 16 28q46 70 66 132l18 56q6 18 17 65t17 69l12 32q14 42 14 64q0 52 -40 52h-24q-20 0 -32 17t-12 50 t35 51t73 18t71 -2t56 -3t33 -2t26 -5q34 -8 54 -35t20 -53q0 -58 -38 -66q-16 -4 -22 -8q-74 -110 -152 -275t-136 -263q-22 -50 -27 -121t-23 -115q-24 -16 -64 -16t-72 36q-26 54 -31 128t-19 126q-28 102 -68 210l-102 278q-10 8 -20 9t-14 5q-54 54 -54 82z" />
<glyph unicode="w" horiz-adv-x="1318" d="M30 846v18q0 66 46 96q96 16 140 16q68 0 122 -36q6 -4 8 -5t5 -6t5 -7q2 -6 2 -28v-26q-6 -8 -29 -5t-29 -7q36 -86 60 -174t44 -134t66 -100q26 18 55 36t39 24q26 18 34 44q34 104 34 160q0 44 -14 65t-54 47q-68 40 -68 100q0 24 12 36q60 34 97 34t64 -9t30 -13 t5 -13t3 -17t4 -24t5 -30q8 14 14 29t16 35t14 22t33 11t52 9t51 -16q20 -18 20 -39t-11 -42t-47 -44t-44 -44t-8 -49l14 -168l20 -52q10 -26 10 -31t10 -19q10 -12 12 -14q16 -6 76 -54q70 16 89 47t25 45t17 52t16 56t17 50q18 52 18 81t-8 53t-26 42q-40 40 -40 70 q0 14 8 26q28 34 80 34q18 0 58 -4l30 -2q20 0 26 -2q6 -4 13 -7t23 -19q20 -26 20 -53t-8 -51q-6 -24 -23 -40t-23 -26q-28 -90 -67 -257t-81 -269q-44 -104 -138 -226q-32 -28 -49 -28t-29 6q-68 94 -88 150t-58 234q-4 6 -14 24q-22 40 -42 40h-2q-28 0 -52 -31t-26 -33 q-28 -84 -46 -129t-20 -51q-2 -8 -17 -37t-18 -33t-27 -44l-34 -56q-44 -40 -62 -40t-30 6q-78 146 -132 368q-54 232 -110 342q-2 4 -14 34l-12 30q-16 30 -62 72z" />
<glyph unicode="x" horiz-adv-x="988" d="M24 144q0 28 18 47t46 19l64 -6q22 0 38 8q108 108 138 144t78 120l-30 64q-18 40 -26 60q-18 44 -62 108l-52 74q-32 22 -82 22h-14q-44 0 -72 8q-12 16 -12 59t16 65q42 10 76 20l44 16q30 10 96 10h36q112 0 142 -46q14 -20 14 -45t-10 -40t-33 -16t-27 -13 q12 -26 20 -57t17 -48t31 -31t43 -14t45 9t34 16t16 15q24 40 58 80q10 36 -2 54q-8 8 -31 14t-26 16t-3 22q0 34 60 72q16 2 47 7t49 5h18l26 -2l50 2q58 0 82 -38q8 -10 8 -40t-20 -66q-6 -14 -22 -14l-32 4q-14 0 -26 -14t-64 -66q-106 -106 -188 -214q28 -72 73 -127 t112 -122t111 -125q22 -58 22 -73t-12 -33q-64 -28 -109 -31t-91 -8t-92 -5t-84 8q-12 10 -12 42l2 38q0 16 30 16l28 -2q40 0 40 32q0 12 -8 36l-10 32q-10 42 -40 60q-10 6 -40 18q-16 2 -36 2t-48 -2q-16 -16 -32 -26q-34 -18 -58 -62q-2 -6 -7 -14t-5 -13t4 -31 q8 -8 20 -8l38 6q28 0 28 -30q0 -12 -12 -36t-22 -32t-17 -11t-24 -8t-29 -7t-39 -4t-47 -4t-51 -2t-64 9t-43 15q-20 12 -36 48t-16 64z" />
<glyph unicode="y" horiz-adv-x="982" d="M0 -380q0 30 18 80q6 46 21 66t38 31t37 11t42 -11t42 -11t26 6q58 32 82 82t34 101t14 70t4 49t-25 157t-64 243t-121 282q-52 8 -77 24t-38 44t-13 43t22 39l36 22q48 26 76 29t32 3q12 4 64 6t76 2q66 0 98 -34t32 -68t-12 -47t-24 -13l-40 4q-12 0 -22 -11t-10 -27 l12 -60q20 -132 102 -318q22 -12 47 -12t57 22q58 112 80 170t32 150l6 48q0 24 -12 37t-24 13l-30 -4q-12 0 -25 16t-13 42t20 52q68 36 182 42l40 2q56 0 92 -22q42 -46 42 -80t-8 -50t-8 -17t-4 -2t-7 0t-17 -3l-30 -10l-290 -614l-140 -278l-218 -406q-36 -14 -80 -14 t-136 68q-18 26 -18 56z" />
<glyph unicode="z" horiz-adv-x="932" d="M-4 59q0 21 34 77l322 382q58 72 134 176q26 66 26 87t-16 39q-34 40 -85 40t-109 -25t-84 -54t-38 -57q-36 -78 -110 -122q-18 4 -24 17t-6 43l-8 136q0 70 18 142q56 8 90 8l102 -8l360 14q92 0 198 -14q24 -22 24 -44t-24 -104l-398 -522l-2 -18q0 -34 24 -50 q90 -18 105 -18t85 18q62 28 112 122t82 120q46 -14 60 -56q24 -70 24 -191t-72 -175h-92l-268 -4h-74l-154 -4q-82 0 -232 20q-4 4 -4 25z" />
<glyph unicode="{" horiz-adv-x="512" d="M94 766q24 8 58 17t44 13l28 12q16 6 22 16q14 28 23 59t9 39q0 36 -42 94t-46 68q-52 104 -52 182t61 152t129 74q24 0 48 -12q38 -18 18 -60q-10 -24 -62 -27t-64 -27q-18 -38 -18 -80t54 -134q86 -140 86 -228q0 -106 -140 -170q146 -56 146 -176l-2 -22 q-10 -96 -64 -212t-54 -163t40 -99q10 -12 26 -12l62 12q14 0 29 -15t-3 -33q-42 -46 -92 -46t-88 28q-84 70 -84 173t44 175l26 36q46 70 46 118q0 80 -50 134q-34 34 -79 68t-59 46z" />
<glyph unicode="|" horiz-adv-x="510" d="M136 1408q0 32 52 32t76 -12q62 -32 81 -173t19 -359v-92l-6 -388q0 -178 34 -348q0 -36 -64 -36t-119 19t-55 41l2 2v82q0 180 -8 487t-8 729q-4 6 -4 16z" />
<glyph unicode="}" horiz-adv-x="512" d="M99 1413q-15 15 3 33q42 46 92 46t88 -28q84 -70 84 -173t-44 -175l-26 -36q-46 -70 -46 -118q0 -80 50 -134q34 -34 79 -68t59 -46q-24 -8 -58 -17t-44 -13l-28 -12q-16 -6 -22 -16q-14 -28 -23 -59t-9 -39q0 -36 42 -94t46 -68q52 -104 52 -182t-61 -152t-129 -74 q-24 0 -48 12q-38 18 -18 60q10 24 62 27t64 27q18 38 18 80t-54 134q-86 140 -86 228q0 106 140 170q-146 56 -146 176l2 22q10 96 64 212t54 163t-40 99q-10 12 -26 12l-62 -12q-14 0 -29 15z" />
<glyph unicode="~" horiz-adv-x="692" d="M32 686q0 22 8 34t14 16q18 16 50 32q68 40 122 40h18q34 0 70 -23t48 -28t42 -21t48 -16h10q26 2 55 41t57 39q80 -4 86 -64v-2q0 -22 -23 -33t-33 -19t-35 -31t-37 -33q-40 -30 -88 -30h-8q-42 0 -100 50t-102 50h-4q-28 -2 -61 -37t-57 -35h-10q-30 4 -50 26t-20 44z " />
<glyph horiz-adv-x="3194" d="M48 630q0 318 192 536q76 86 142 138q68 52 182 124q250 158 448 158h42q164 0 250 -56q68 -44 102 -118q16 -34 32 -72q28 -66 38 -86q22 -52 40 -116q26 -94 36 -134q12 -56 14 -56l70 112q132 210 246 298q114 86 275 149t274 72t149 9q294 0 432 -172q52 -60 77 -113 t44 -145t19 -154t-8 -112q-8 -64 -38 -190l-26 -114q-18 -78 -42 -122l-26 -48q-8 -18 -32 -50l-36 -44q-8 -12 -40 -50l-44 -50q-90 -106 -176 -144q-124 -54 -466 -54q-258 0 -414 94q-76 46 -102 68q-36 28 -66 58t-88 266q-18 72 -30 72q-4 0 -16 -26l-26 -58 q-14 -30 -20 -38l-188 -246q-52 -68 -76 -92q-32 -32 -100 -68t-146 -36h-52l-164 -2q-206 0 -414 72q-110 38 -172 126q-14 20 -24 44l-18 36q-6 12 -14 44l-8 40q-2 10 -9 51t-15 86t-8 113zM150 706q0 -126 18 -213t35 -118t41 -63t39 -47t37 -27t35 -18t45 -17t80 -31 q114 -46 265 -46t243 27t158 76t100 85t72 86t58 80t44 95t24 116t-6 82t-21 82t-21 73t-20 86t-20 86q-24 80 -71 151t-86 109t-106 64t-127 26t-140 -22q-152 -42 -262 -130l-128 -106q-64 -54 -100 -90t-88 -100q-98 -124 -98 -296zM302 322q36 130 182 158q42 8 70 8h12 q84 0 84 54l-2 50v46q0 76 -56 94q-6 2 -25 2t-63 -14l-44 -12q-24 0 -24 30q0 4 11 17t30 44t36 45t41 16t38 -2t18 2q28 22 28 62l-8 88l6 76l-2 50q0 54 19 66t99 12l96 -2l130 -8q82 0 110 10t56 28l40 24q6 4 9 -1t7 -15t7 -14t9 -8q4 -6 8 -10q18 -26 -12 -34 q-26 -6 -26 -26q0 -18 36 -38t36 -42q0 -14 -16 -30q-8 -6 -10 -8q-38 -38 -69 -38t-69 16t-140 16t-180 -30q-14 -6 -14 -17t8 -34t10 -35q4 -86 11 -107t35 -21l132 20l36 -2l104 8q30 0 48 -12q22 -16 22 -32t-10 -23t-25 -14t-23 -15t-20 -28q-22 -46 -62 -46l-162 36 q-28 0 -41 -23t-13 -53v-36l-10 -122q0 -48 9 -71t9 -28t-8 -12t-22 -15t-20 -14l-20 -20q-24 -24 -42 -24h-4q-26 0 -45 24t-30 33t-31 31q-40 40 -71 40t-73 -24q-54 -34 -64 -50q-4 -6 -8 -26q-4 -18 -15 -20t-19 14t-12 18t-14 4t-15 5t-3 9zM1622 720q0 -84 66 -198 q64 -112 121 -171t120 -97t93 -51t66 -23t56 -15t70 -13t109 -19t99 -11q304 0 426 214q52 88 81 153t57 208t28 324t-82 323q-28 50 -65 78t-119 58t-161 30t-185 -20t-168 -48q-70 -32 -180 -98q-116 -70 -182 -150l-116 -140q-66 -82 -86 -132q-48 -118 -48 -202z M1906 462q0 128 4 185t6 109q0 90 16 158t32 96t31 43t47 44t54 51q24 24 89 61t89 66t30 68t11 65t20 26t21 -10t7 -29t5 -28t6 -41q4 -78 110 -78l54 2l108 -8q50 0 75 18t38 23t38 19t37 14q38 0 38 -36q0 -32 -28 -46q-30 -14 -30 -41t44 -67t44 -67t-23 -50t-41 -23 t-27 11t-33 29t-38 45t-24 39q-22 30 -147 30t-137 -76q-50 -256 -50 -560q0 -154 10 -162q4 -2 14 -2l70 12h6l62 8q48 0 48 -16q0 -10 -38 -28q-38 -16 -49 -22t-46 -9t-55 -15t-42 -37t-37 -44t-22 -19t-11 6q-26 32 -56 52l-70 48q-28 18 -75 45t-68 44t-53 31t-48 28 t-16 38zM2042 516q0 -20 13 -33t48 -28t43 -19t28 -17t36 -22t26 -9t16 15t9 49t4 67t2 91t7 191t8 195l2 46q0 60 -13 82t-34 22t-31 -4t-22 -13t-20 -13t-30 -12q-42 -12 -46 -38q-20 -136 -30 -306q-10 -190 -16 -238v-6z" />
<glyph unicode="&#xa1;" horiz-adv-x="602" d="M198 246q0 134 22 360l10 94q4 36 10 60q20 108 40 242q42 46 78 46q14 0 30 -10q18 -120 18 -200l-2 -84q0 -46 12 -242t12 -265t-4 -181q-50 -62 -112 -62t-112 44q-2 64 -2 198zM202 1347q0 45 40 85t86 40q114 0 114 -92v-18q-10 -78 -72 -108q-36 -16 -76 -16 t-66 32t-26 77z" />
<glyph unicode="&#xa2;" horiz-adv-x="628" d="M58 754q0 66 26 142q50 156 180 204q0 114 2 180q40 68 82 68t78 -48q2 -72 2 -186q56 -6 100 -51t44 -95t-44 -50h-6q-18 0 -34 22t-24 28q-8 4 -14 10t-13 12t-11 10q-8 -282 -28 -470q68 0 100 94q10 24 29 24t32 -11t13 -27v-2q-4 -74 -9 -83t-21 -31t-58 -37 t-74 -15h-24l-16 -162q-30 -48 -49 -48t-29 10q-12 122 -12 202q-100 14 -161 105t-61 205zM194 778q0 -54 9 -94t21 -63t24 -39q22 -26 32 -26v52q-2 72 -7 194t-7 184q-26 -24 -49 -89t-23 -119z" />
<glyph unicode="&#xa3;" horiz-adv-x="1416" d="M52 124q0 16 46 94l42 2l70 -4q22 0 59 32t65 77t40 111q14 74 20 206q-118 0 -201 36t-83 88t38 80q64 48 202 48h52l12 158q0 68 -18 110t-40 56q-56 38 -56 86q0 92 91 133t205 41q194 0 339 -124t145 -224q0 -28 -20 -28q-94 18 -151 61t-86 72t-66 29t-61 -17 t-31 -32t-13 -43q4 -204 4 -252l34 2q16 0 43 -3t65 -5t56 -4q54 -6 86 -46q40 -44 40 -84q0 -74 -110 -108q-54 -18 -93 -20t-121 -4q0 -52 -56 -186t-64 -272q180 -44 292 -44t288 78v16q0 48 -12 109t-12 100t10 63t22 29t34 5l116 -10q18 0 28 2q38 -192 38 -248 t-20 -242q-72 28 -120 28q-160 0 -344 -16t-318 -16t-456 32q-30 32 -30 48z" />
<glyph unicode="&#xa4;" horiz-adv-x="628" d="M52 490q0 18 30 30q8 4 29 -3t25 3l52 64q-26 44 -26 106t34 130l-60 72q-4 10 -25 3t-29 -3q-30 12 -30 30q0 12 13 22t17 14q24 4 54 4l96 -4q4 -6 12 -14q18 -12 18 -28q-2 -8 -16 -5t-18 -3q-2 -10 -2 -11t16 -25q44 34 103 34t89 -24l30 36q-2 8 -17 9t-23 11t16 20 q28 0 50 2l22 2q8 0 60 -18q8 -12 -4 -28l-2 -8q-24 6 -36 0q-18 -18 -60 -66q34 -44 34 -134t-32 -140l58 -64q6 -2 19 2t17 -2q18 -18 6 -36q-52 -18 -60 -18l-22 2q-22 2 -50 2q-20 12 -14 21t21 11t17 10l-28 32q-34 -28 -104 -28q-14 0 -47 9t-47 23q-12 -24 -9 -28 t18 -2t15 -6t-4 -15t-13 -14t-13 -13l-96 -4q-30 0 -54 4q-4 4 -12 10q-18 14 -18 26zM242 704l4 -40q0 -10 16 -43t22 -39q22 -22 56 -22t44 5t20 21q34 48 34 109t-12 85q-40 70 -80 70h-6q-24 0 -46 -14q-10 -8 -31 -51t-21 -81z" />
<glyph unicode="&#xa5;" horiz-adv-x="1518" d="M28 1316q0 36 24 66q206 16 244 16l112 -4q52 0 212 6q42 -32 42 -72q0 -52 -52 -52l-82 8q-32 0 -44 -22q50 -132 130 -302t120 -296l18 2l346 562q-24 10 -65 14t-69 14q-40 18 -40 63t54 81l96 8q42 2 58 4q32 4 47 4t34 -1t84 -6t143 -9q30 -26 30 -55t-18 -53 t-58 -24l-100 10q-36 0 -60 -16l-226 -414q-52 -90 -110 -174h10q34 0 52 -3t38 -6t30 -7l20 -10q14 -6 24 -14q38 -32 38 -60t-16 -43t-27 -22t-26 -12t-25 -9t-29 -7t-29 -4t-34 -2t-32 -2t-36 -1h-36q-4 -34 -8 -86q16 2 80 2t123 -19t77 -41t18 -46t-16 -38 q-26 -24 -54 -36l-24 -8q-30 -10 -74 -12t-52 -3t-36 -1h-36q8 -62 14 -66t18 -4l94 18q28 0 45 -23t17 -41t-10 -34q-262 -26 -318 -26t-296 20q-16 20 -16 44t22 49t54 25l100 -16q28 0 44 18l2 32q-80 2 -147 30t-67 66q0 30 46 61t182 31l2 100q-100 0 -165 30t-65 68 t54 64t134 26q-60 114 -183 285t-191 287q-12 6 -24 6l-72 -16q-22 0 -43 31t-21 67z" />
<glyph unicode="&#xa6;" horiz-adv-x="510" d="M136 1408q0 32 54 32t79 -16t49 -68q46 -102 46 -472q-16 -2 -48 -8q-50 -12 -172 -20q-4 256 -4 536q-4 6 -4 16zM150 612q18 -4 58 -4l134 6h20q-4 -144 -4 -206q0 -114 14 -212l8 -68q4 -28 8 -43t4 -17q0 -36 -64 -36t-119 19t-55 41l2 2v4q0 294 -6 514z" />
<glyph unicode="&#xa7;" horiz-adv-x="1286" d="M232 676q0 104 80 148l64 40q80 44 80 154q0 34 -13 98t-13 96q0 80 65 143t169 63q116 0 184 -58q42 -34 42 -87t-48 -78t-77 -25t-61 38t-48 38t-32 -9t-34 -39t-18 -93t27 -122t61 -89l84 -74q48 -42 76 -84t78 -104l78 -96q30 -38 53 -100t23 -126t-25 -124t-44 -87 t-75 -99q66 -118 66 -204q0 -76 -50 -160q-30 -46 -95 -76t-144 -30t-127 18t-70 44q-38 52 -38 85t32 66t74 33t76 -8t65 -52t49 -44t32 12t14 32t-10 86q-8 84 -32 142t-57 113t-63 111t-44 76l-42 56q-46 56 -152 120q-160 92 -160 256zM554 656q0 -118 42 -206 q18 -36 71 -65t67 -48t21 -47t27 -43t61 -33t65 -18t24 16q0 6 -2 10l-10 38q-8 24 -11 31t-8 24t-8 23l-9 18q-12 30 -27 45l-25 25l-20 24q-86 52 -127 102t-89 150q-12 12 -22 12q-20 0 -20 -58z" />
<glyph unicode="&#xa8;" horiz-adv-x="730" d="M152 815q0 55 31 100t86 45t85 -54t30 -97t-34 -78t-74 -35t-59 4t-29 16q-36 44 -36 99zM452 815q0 55 31 100t86 45t85 -54t30 -97t-34 -78t-74 -35t-59 4t-29 16q-36 44 -36 99z" />
<glyph unicode="&#xa9;" horiz-adv-x="864" d="M26 446q0 74 26 165t58 149t98 108q112 88 258 88q92 0 134 -15t88 -61q90 -90 120 -171t30 -252t-83 -310t-241 -139l-64 2q-26 -2 -66 -2q-118 0 -216 90q-142 132 -142 348zM218 470q0 -270 166 -320q24 -8 54 -10h4l60 -6q74 0 106 58q24 40 36 74q38 108 38 188 q0 188 -86 294q-60 74 -150 74q-132 0 -182 -144q-46 -120 -46 -208zM252 460q0 100 60 182q22 30 64 51t93 21t70 -7t47 -35t28 -63t-32 -35q-16 0 -28 16t-18 20l-16 16q-20 20 -46 20t-39 -4t-22 -10t-17 -14t-12 -15t-8 -15q-28 -66 -28 -106t5 -66t12 -42t17 -29 t18 -21q12 -8 20 -10q24 -6 32 -6q20 -6 36 -6q20 0 32 8q26 14 40 58q8 22 31 15t21 -38t-3 -38t-15 -25q-26 -42 -102 -42h-62q-64 0 -121 59t-57 161z" />
<glyph unicode="&#xaa;" horiz-adv-x="560" d="M60 492q0 36 21 61t47 31t66 6q48 0 94 10l36 8q14 2 30 2q82 0 114 -32t32 -65t-12 -50t-25 -27t-23 -16t-32 -8q-34 -6 -64 -6h-34l-102 -6q-58 0 -94 22q-54 34 -54 70zM100 776q0 94 134 146q8 4 22 5t24 1q30 4 30 62t-20 72q-4 4 -20 4q-68 0 -68 -66v-16 q-4 -38 -46 -38t-42 48q0 122 170 122q78 0 94 -80q6 -28 6 -78v-130q0 -28 2 -39t1 -17t1 -8q4 -8 12 -8t23 20t27 20t12 -18q-8 -78 -20 -86t-14 -8q-6 -4 -30 -4h-16q-44 0 -54 24q-10 22 -24 26h-4q-8 0 -41 -28t-78 -28t-63 34t-18 68zM184 808q0 -50 30 -62h2 q24 0 64 25t40 65q0 50 -32 50q-26 0 -65 -27t-39 -51z" />
<glyph unicode="&#xab;" horiz-adv-x="1024" d="M32 512q0 16 14 24q58 70 206 184q6 4 57 56t102 73t117 21t105 -17t39 -40t-14 -46t-40 -23l-40 2q-16 0 -22 -4l-208 -130q-56 -36 -116 -86q36 -54 91 -96t139 -92t140 -94q26 -46 26 -56t-14 -22q-78 -28 -218 -28q-58 0 -111 48t-79 106q-2 8 -88 96t-86 124z M432 512q0 16 14 24q58 70 206 184q6 4 57 56t102 73t117 21t105 -17t39 -40t-14 -46t-40 -23l-40 2q-16 0 -22 -4l-208 -130q-56 -36 -116 -86q36 -54 91 -96t139 -92t140 -94q26 -46 26 -56t-14 -22q-78 -28 -218 -28q-58 0 -111 48t-79 106q-2 8 -88 96t-86 124z" />
<glyph unicode="&#xac;" horiz-adv-x="692" d="M48 510q0 34 30 68t62 42t78 8h10q2 -2 40 0q46 2 72 12q32 12 78 12q50 0 78 -4l24 -4q8 -2 18 -4q14 -2 30 -10q28 -16 38 -34q46 -82 46 -146q0 -34 -11 -107t-13 -107q-4 -64 -106 -64q-60 0 -82 32t-30 79t-9 72t-15 25h-2l-138 -6q-124 0 -180 78q-18 26 -18 58z " />
<glyph unicode="&#xad;" horiz-adv-x="692" d="M48 424q0 34 28 64q46 54 142 54q6 0 10 -2h16q62 4 68 6q60 20 149 20t133 -43t44 -86t-18 -69t-35 -40t-47 -21t-42 -9q-28 -4 -112 -4l-138 -6q-124 0 -180 78q-18 26 -18 58z" />
<glyph unicode="&#xae;" horiz-adv-x="864" d="M28 446q0 74 26 165t58 149t98 108q112 88 258 88q88 0 130 -15t94 -62t104 -139q16 -26 24 -48q20 -58 20 -232t-83 -313t-241 -139l-64 2q-26 -2 -66 -2q-118 0 -214 90q-144 132 -144 348zM220 470q0 -270 166 -320q24 -8 54 -10h4l60 -6q74 0 108 58q22 38 34 74 q38 102 38 188q0 184 -86 294q-60 74 -150 74q-56 0 -105 -32t-86 -132t-37 -188zM304 608q6 8 14 20l18 32q12 18 41 30t59 -2q16 -16 24 -19t20 -9q12 6 24 18q30 26 56 26q48 0 68 -76q8 -24 -12 -56q-24 -32 -46 -28q-14 2 -21 25t-19 27l-62 -44v-220q4 -8 15 -14 t13 -14q14 -30 -4 -52q-24 -6 -80 -14t-80 -14q-12 4 -17 19t0 26t22 20t23 19q2 34 2 84v160q-6 12 -32 25t-26 31z" />
<glyph unicode="&#xaf;" horiz-adv-x="692" d="M48 846q0 26 28 48q48 40 142 40q10 0 10 -1t34 -1t75 10t71 10h34q112 0 154 -33t42 -72t-54 -75q-18 -12 -32 -14l-42 -6q-28 -4 -64 -4h-62l-138 -6q-120 0 -180 60q-18 18 -18 44z" />
<glyph unicode="&#xb0;" horiz-adv-x="528" d="M62 866q0 140 90 210q54 44 130 44h14q44 -4 61 -12t46 -37t47 -69t18 -108t-12 -110q-44 -138 -154 -138h-28l-34 -2q-14 0 -32 6q-52 12 -88 54q-58 64 -58 162zM158 864q0 -84 48 -130q28 -24 85 -24t79 64q18 44 18 106t-26 112q-32 60 -88 60t-86 -52t-30 -136z" />
<glyph unicode="&#xb1;" horiz-adv-x="692" d="M48 262q0 34 28 64q46 54 142 54q6 0 10 -2h16q62 4 68 6q60 20 149 20t133 -43t44 -86t-18 -69t-35 -40t-47 -21t-42 -9q-28 -4 -112 -4l-138 -6q-124 0 -180 78q-18 26 -18 58zM48 709q0 29 8 52t45 51t99 28q4 72 34 116q46 66 93 66t77 -30q46 -40 50 -126 q94 0 139 -44t45 -96q0 -54 -48 -90t-114 -40l-4 -40q-6 -48 -19 -64t-43 -37t-60 -21t-54 8t-53 46t-33 102q-78 6 -120 48t-42 71z" />
<glyph unicode="&#xb2;" horiz-adv-x="560" d="M82 705q0 13 10 29q39 63 107 126t100 125q17 34 17 59t-17 44t-40 19t-47.5 -8.5t-36.5 -21t-28 -34t-37 -39.5q-18 30 -18 39t24 45t43 51.5t74 33.5t94 18t71.5 -31.5t32.5 -81.5q0 -28 -13 -76t-59 -91t-60 -65q-7 -24 -7 -26v-1q0 -3 -11 -29h96q3 3 3 8l-3 26 q0 10 6 16q30 13 51 13t45 -17q-16 -76 -27 -89q-2 -3 -15 -16.5t-30 -35.5q-161 -8 -169 -8l-146 5q-10 0 -10 13z" />
<glyph unicode="&#xb3;" horiz-adv-x="560" d="M96 505q0 38 27 65q17 2 34 2l35 -3l21 1q8 -6 8 -25v-3q0 -28 30.5 -28t68.5 47q39 47 39 136q0 33 -20 53t-62 20t-67 -17.5t-60 -20.5q-16 11 -16 31.5t16 58.5q32 35 78 78t68.5 66.5t22.5 39t-18 35t-43.5 19.5t-42.5 -11.5t-25 -26.5q-22 -42 -58 -56q-3 -1 -5 -1 q-9 0 -9 16.5t3 33t12 43.5q20 58 90 103q45 29 85 29t94 -26q28 -27 28 -71q0 -22 -8.5 -63t-41.5 -83t-41 -62q6 -12 23 -12l25 1q40 0 58 -58.5t18 -117.5t-21.5 -112t-42 -80t-57.5 -47q-88 -46 -135.5 -46t-79 27t-31.5 65z" />
<glyph unicode="&#xb4;" horiz-adv-x="576" d="M88 898v2q20 78 46 153t39 119t23 70q24 74 80 154q34 20 73 20t139 -50q-58 -32 -152 -350q-32 -112 -43 -129t-108 -17t-97 28z" />
<glyph unicode="&#xb5;" horiz-adv-x="876" d="M-3 850q9 16 18 26t16 17t20 13t19 10t23 9t21 6t26 7q30 8 48 8q66 0 92 -48q2 -144 2 -260l-2 -354q54 -92 152 -92q60 0 94 34t58 92l-2 468q-16 20 -56 20h-30q-68 0 -68 54q0 24 15 43t31 27t22 10q28 8 66 8q42 6 80 6t98 -19t60 -51q0 -16 -21 -34t-25 -30v-566 l38 -54q6 -6 25 -18t41 -30q-50 -64 -66 -84q-44 -48 -162 -86q-22 0 -34 9t-27 34t-31 43q-18 2 -34 -4t-32 -10t-60 -6q-86 -8 -124 -48q-52 -60 -52 -152l18 -206q0 -58 -22 -98q-34 -60 -74 -60q-74 0 -74 316l12 362q0 24 -1 92t-3 88v408q-10 18 -46 28t-47 33t-2 39z " />
<glyph unicode="&#xb6;" horiz-adv-x="1394" d="M60 1092q0 160 93 244t195 116t248 32q16 0 470 -16q34 54 71 54t73 -58q80 -4 116 -4q36 -36 36 -74t-18 -62q-52 -10 -128 -14q0 -596 -42 -1114q50 10 80 10t50 -6q60 -50 60 -118q0 -38 -26 -70q-30 -4 -274 -12l-8 170l4 244l-16 802v100l-98 10q-2 -138 -2 -310 l12 -590v-90q0 -82 2 -148q-6 0 -6 -32l6 -132q0 -30 -6 -30l-410 6q-50 40 -50 98q0 30 16 59t47 39t77 12t74 12q14 212 16 446q-20 2 -60 2l-108 -2q-88 0 -173 34t-148 84t-118 137t-55 171zM362 1096q0 -50 27 -110t115 -98q14 -6 48 -24q68 -36 105 -36t65 26 q14 120 14 215t-14 255q-66 20 -95 20t-87 -20t-93 -46t-60 -79t-25 -103z" />
<glyph unicode="&#xb7;" horiz-adv-x="608" d="M130 530q0 50 24 92q46 90 126 90t126 -90q30 -54 30 -106t-30 -92q-50 -64 -138 -64t-113 60t-25 110z" />
<glyph unicode="&#xb8;" horiz-adv-x="402" d="M92 -232q2 38 58 54q20 6 38 26t18 50q0 28 -16 44q-14 14 -32 18q-48 14 -52 39t-4 53q0 66 34 98q32 30 64 30t76 -18q42 -18 62 -62q18 -42 18 -76t-10 -82q-22 -106 -82 -170q-26 -28 -48 -40q-18 -10 -52 -10q-72 0 -72 44v2z" />
<glyph unicode="&#xb9;" horiz-adv-x="560" d="M143 700.5q0 19.5 8.5 39t21.5 19.5l22 -3q11 0 16 12q3 129 3 142v161q-6 13 -17 13l-19 -3q-11 0 -17 19t-6 33q0 35 23 52h198q28 -24 28 -59q0 -18 -10 -40q-3 -6 -8 -4q-15 8 -17 -12l1 -178v-130q2 -6 11 -6t13 -3q8 -10 15.5 -33t7.5 -35q-216 -4 -258 -4 q-16 0 -16 19.5z" />
<glyph unicode="&#xba;" horiz-adv-x="560" d="M60 537q0 25 21 50t47 31t66 6t77 9t107 9t96 -36t26 -64t-12 -45t-25 -27t-23 -16t-32 -10q-34 -4 -64 -4h-34l-102 -6q-92 0 -136 60q-12 18 -12 43zM74 908q0 144 90 210q54 44 128 44h14q64 -2 100 -39t54 -75t18 -109t-12 -113q-42 -136 -154 -136h-28 q-12 -2 -32 -2q-68 0 -113 50t-55 89t-10 81zM168 906q0 -84 50 -128q26 -26 70 -26t54 8q56 32 56 150q0 66 -24 118q-30 66 -87 66t-88 -52t-31 -136z" />
<glyph unicode="&#xbb;" horiz-adv-x="1024" d="M-40 195q0 23 14 46t40 23l40 -2q16 0 22 4l208 130q56 36 116 86q-36 54 -91 96t-139 92t-140 94q-26 46 -26 56t14 22q78 28 218 28q58 0 111 -48t79 -106q2 -8 88 -96t86 -124q0 -16 -14 -24q-58 -70 -206 -184q-6 -4 -57 -56t-102 -73t-117 -21t-105 17t-39 40z M360 195q0 23 14 46t40 23l40 -2q16 0 22 4l208 130q56 36 116 86q-36 54 -91 96t-139 92t-140 94q-26 46 -26 56t14 22q78 28 218 28q58 0 111 -48t79 -106q2 -8 88 -96t86 -124q0 -16 -14 -24q-58 -70 -206 -184q-6 -4 -57 -56t-102 -73t-117 -21t-105 17t-39 40z" />
<glyph unicode="&#xbc;" horiz-adv-x="1120" d="M82 310.5q0 18.5 20.5 31t33.5 12.5l48 -10q10 0 17 8l188 226q31 36 57 64l63 65q48 53 82.5 108t76.5 101q-3 10 -28 12.5t-25 19.5t18 27q42 0 72 2.5t37 2.5t79 -25q7 -8 7 -20t-7.5 -23.5t-18.5 -11.5l-31 6q-7 0 -10 -2q-76 -82 -127.5 -155t-73.5 -101l-92 -114 q-69 -86 -122 -165q-1 -4 -8.5 -14.5t-7.5 -17.5q0 -14 16 -14l21 2q15 0 15 -16q0 -12 -20 -28.5t-24 -22.5l-137 -6q-37 0 -77 6q-6 7 -18 16q-24 18 -24 36.5zM147 662.5q0 19.5 8.5 39t21.5 19.5l22 -3q11 0 16 12q3 129 3 142v161q-6 13 -17 13l-19 -3q-11 0 -17 19 t-6 33q0 35 23 52h198q28 -24 28 -59q0 -18 -10 -40q-3 -6 -8 -4q-15 8 -17 -12l1 -178v-130q2 -6 11 -6t13 -3q8 -10 15.5 -33t7.5 -35q-216 -4 -258 -4q-16 0 -16 19.5zM459 285q0 15 6 35l83 137q38 64 46 79.5t33.5 51.5t46.5 62l85 102q8 4 21.5 4t23.5 -13 q9 -87 9 -112.5t-18 -280.5q9 -1 29 -1t50 10t60 10t70 -2q9 -14 9 -29q0 -32 -33.5 -62.5t-61.5 -30.5q-8 0 -40 8t-66 8l-20 -1l3 -155q0 -32 -2 -64q-24 -27 -50 -27t-47 18q-1 31 -1 75l1 82q0 28 -3 77q-13 1 -38.5 1t-56.5 -6.5t-51.5 -6.5t-72.5 12q-15 4 -15 19z M556 351.5q0 -5.5 5 -10.5l64 2q-8 0 -8 1q16 2 79 6v135q-18 37 -39 37l-6 -1l-90 -144q-5 -20 -5 -25.5z" />
<glyph unicode="&#xbd;" horiz-adv-x="1120" d="M142 310.5q0 18.5 20.5 31t33.5 12.5l48 -10q10 0 17 8l188 226q31 36 57 64l63 65q48 53 82.5 108t76.5 101q-3 10 -28 12.5t-25 19.5t18 27q42 0 72 2.5t37 2.5t79 -25q7 -8 7 -20t-7.5 -23.5t-18.5 -11.5l-31 6q-7 0 -10 -2q-76 -82 -127.5 -155t-73.5 -101l-92 -114 q-69 -86 -122 -165q-1 -4 -8.5 -14.5t-7.5 -17.5q0 -14 16 -14l21 2q15 0 15 -16q0 -12 -20 -28.5t-24 -22.5l-137 -6q-37 0 -77 6q-6 7 -18 16q-24 18 -24 36.5zM147 662.5q0 19.5 8.5 39t21.5 19.5l22 -3q11 0 16 12q3 129 3 142v161q-6 13 -17 13l-19 -3q-11 0 -17 19 t-6 33q0 35 23 52h198q28 -24 28 -59q0 -18 -10 -40q-3 -6 -8 -4q-15 8 -17 -12l1 -178v-130q2 -6 11 -6t13 -3q8 -10 15.5 -33t7.5 -35q-216 -4 -258 -4q-16 0 -16 19.5zM590 99q0 13 10 29q39 63 107 126t100 125q17 34 17 59t-17 44t-40 19t-47.5 -8.5t-36.5 -21t-28 -34 t-37 -39.5q-18 30 -18 39t24 45t43 51.5t74 33.5t94 18t71.5 -31.5t32.5 -81.5q0 -28 -13 -76t-59 -91t-60 -65q-7 -24 -7 -26v-1q0 -3 -11 -29h96q3 3 3 8l-3 26q0 10 6 16q30 13 51 13t45 -17q-16 -76 -27 -89q-2 -3 -15 -16.5t-30 -35.5q-161 -8 -169 -8l-146 5 q-10 0 -10 13z" />
<glyph unicode="&#xbe;" horiz-adv-x="1120" d="M82 310.5q0 18.5 20.5 31t33.5 12.5l48 -10q10 0 17 8l188 226q31 36 57 64l63 65q48 53 82.5 108t76.5 101q-3 10 -28 12.5t-25 19.5t18 27q42 0 72 2.5t37 2.5t79 -25q7 -8 7 -20t-7.5 -23.5t-18.5 -11.5l-31 6q-7 0 -10 -2q-76 -82 -127.5 -155t-73.5 -101l-92 -114 q-69 -86 -122 -165q-1 -4 -8.5 -14.5t-7.5 -17.5q0 -14 16 -14l21 2q15 0 15 -16q0 -12 -20 -28.5t-24 -22.5l-137 -6q-37 0 -77 6q-6 7 -18 16q-24 18 -24 36.5zM104 659q0 38 27 65q17 2 34 2l35 -3l21 1q8 -6 8 -25v-3q0 -28 30.5 -28t68.5 47q39 47 39 136q0 33 -20 53 t-62 20t-67 -17.5t-60 -20.5q-16 11 -16 31.5t16 58.5q32 35 78 78t68.5 66.5t22.5 39t-18 35t-43.5 19.5t-42.5 -11.5t-25 -26.5q-22 -42 -58 -56q-3 -1 -5 -1q-9 0 -9 16.5t3 33t12 43.5q20 58 90 103q45 29 85 29t94 -26q28 -27 28 -71q0 -22 -8.5 -63t-41.5 -83t-41 -62 q6 -12 23 -12l25 1q40 0 58 -58.5t18 -117.5t-21.5 -112t-42 -80t-57.5 -47q-88 -46 -135.5 -46t-79 27t-31.5 65zM459 285q0 15 6 35l83 137q38 64 46 79.5t33.5 51.5t46.5 62l85 102q8 4 21.5 4t23.5 -13q9 -87 9 -112.5t-18 -280.5q9 -1 29 -1t50 10t60 10t70 -2 q9 -14 9 -29q0 -32 -33.5 -62.5t-61.5 -30.5q-8 0 -40 8t-66 8l-20 -1l3 -155q0 -32 -2 -64q-24 -27 -50 -27t-47 18q-1 31 -1 75l1 82q0 28 -3 77q-13 1 -38.5 1t-56.5 -6.5t-51.5 -6.5t-72.5 12q-15 4 -15 19zM556 351.5q0 -5.5 5 -10.5l64 2q-8 0 -8 1q16 2 79 6v135 q-18 37 -39 37l-6 -1l-90 -144q-5 -20 -5 -25.5z" />
<glyph unicode="&#xbf;" horiz-adv-x="948" d="M188 566q0 76 62 138q30 30 107 51t109 69v34l6 164q0 56 -6 90q16 14 51 14t75 -50q46 -184 46 -272t-10 -214q-92 -30 -150 -30l-78 4q-38 0 -78 -10q-28 -28 -28 -56t14 -60t48 -51t84 -34t75 -30t60 -26t57 -25q40 -24 40 -96t-62 -108q-48 -4 -83 -4t-74 16t-113 60 q-8 14 -38 59t-38 59l-24 46q-26 54 -34 126l-10 62q-8 50 -8 74zM396 1370q0 132 148 132q52 0 90 -36q76 -66 76 -131t-50 -94t-117 -29t-107 53t-40 105z" />
<glyph unicode="&#xc0;" d="M20 114q0 90 110 156q20 10 38 10l72 -10q22 0 34 10q30 44 84 220l18 58l82 222q112 306 262 598q104 54 144 54t80 -22q60 -90 77 -139t33 -101l26 -84q50 -142 116 -420q62 -262 106 -382q24 -34 94 -56q72 -24 95 -65t23 -75q0 -32 -24 -60q-6 -6 -17 -4t-17 -2 q-102 -22 -400 -22h-168q-50 0 -50 71t50 129q20 22 31 22t36 -7t54 -7t63 8q8 14 13 16t7 4q4 4 4 34t-4 84t-5 61t-7 25q-8 20 -16 30q-30 38 -92 46q-40 -4 -108 -4l-146 2q-78 0 -166 -8q-46 -38 -54 -73t-10 -52t-2 -56t-2 -57q18 -10 36 -10l60 10q18 0 34 -18 q4 -84 4 -134q0 -48 -20 -70q-34 -38 -92 -38q-22 0 -76 10t-86 10h-14q-70 0 -160 -6q-6 -2 -19 -8t-29 -6t-54 28q-6 10 -20 24q-28 32 -28 54zM396 1604q28 68 56 94q30 26 72 34q116 -16 214 -56t150 -58t120 -50l-46 -62q-40 -54 -71 -54t-219 77t-262 77q-8 0 -14 -2z M648 672q62 -34 119 -34t225 16v16q0 58 -30 122t-40 88t-28 91t-39 104t-59 57q-10 -26 -49 -173t-99 -287z" />
<glyph unicode="&#xc1;" d="M20 114q0 90 110 156q20 10 38 10l72 -10q22 0 34 10q30 44 84 220l18 58l82 222q112 306 262 598q104 54 144 54t80 -22q60 -90 77 -139t33 -101l26 -84q50 -142 116 -420q62 -262 106 -382q24 -34 94 -56q72 -24 95 -65t23 -75q0 -32 -24 -60q-6 -6 -17 -4t-17 -2 q-102 -22 -400 -22h-168q-50 0 -50 71t50 129q20 22 31 22t36 -7t54 -7t63 8q8 14 13 16t7 4q4 4 4 34t-4 84t-5 61t-7 25q-8 20 -16 30q-30 38 -92 46q-40 -4 -108 -4l-146 2q-78 0 -166 -8q-46 -38 -54 -73t-10 -52t-2 -56t-2 -57q18 -10 36 -10l60 10q18 0 34 -18 q4 -84 4 -134q0 -48 -20 -70q-34 -38 -92 -38q-22 0 -76 10t-86 10h-14q-70 0 -160 -6q-6 -2 -19 -8t-29 -6t-54 28q-6 10 -20 24q-28 32 -28 54zM648 672q62 -34 119 -34t225 16v16q0 58 -30 122t-40 88t-28 91t-39 104t-59 57q-10 -26 -49 -173t-99 -287zM726 1558 q0 6 4 10q52 24 130 52l186 72q66 26 168 40q38 -8 66 -28t62 -100q-6 2 -16 2q-70 0 -258 -76t-206 -76t-77 43t-59 61z" />
<glyph unicode="&#xc2;" d="M20 114q0 90 110 156q20 10 38 10l72 -10q22 0 34 10q30 44 84 220l18 58l82 222q112 306 262 598q104 54 144 54t80 -22q60 -90 77 -139t33 -101l26 -84q50 -142 116 -420q62 -262 106 -382q24 -34 94 -56q72 -24 95 -65t23 -75q0 -32 -24 -60q-6 -6 -17 -4t-17 -2 q-102 -22 -400 -22h-168q-50 0 -50 71t50 129q20 22 31 22t36 -7t54 -7t63 8q8 14 13 16t7 4q4 4 4 34t-4 84t-5 61t-7 25q-8 20 -16 30q-30 38 -92 46q-40 -4 -108 -4l-146 2q-78 0 -166 -8q-46 -38 -54 -73t-10 -52t-2 -56t-2 -57q18 -10 36 -10l60 10q18 0 34 -18 q4 -84 4 -134q0 -48 -20 -70q-34 -38 -92 -38q-22 0 -76 10t-86 10h-14q-70 0 -160 -6q-6 -2 -19 -8t-29 -6t-54 28q-6 10 -20 24q-28 32 -28 54zM648 672q62 -34 119 -34t225 16v16q0 58 -30 122t-40 88t-28 91t-39 104t-59 57q-10 -26 -49 -173t-99 -287zM738 1488 q24 64 86 182q40 20 55 20t29 -8q26 -38 37 -75t21 -65t18 -58v-2q0 -10 -39 -10t-42 5t-17 47t-34 52q-14 -42 -22 -90q0 -8 -46 -8t-46 10z" />
<glyph unicode="&#xc3;" d="M20 114q0 90 110 156q20 10 38 10l72 -10q22 0 34 10q30 44 84 220l18 58l82 222q112 306 262 598q104 54 144 54t80 -22q60 -90 77 -139t33 -101l26 -84q50 -142 116 -420q62 -262 106 -382q24 -34 94 -56q72 -24 95 -65t23 -75q0 -32 -24 -60q-6 -6 -17 -4t-17 -2 q-102 -22 -400 -22h-168q-50 0 -50 71t50 129q20 22 31 22t36 -7t54 -7t63 8q8 14 13 16t7 4q4 4 4 34t-4 84t-5 61t-7 25q-8 20 -16 30q-30 38 -92 46q-40 -4 -108 -4l-146 2q-78 0 -166 -8q-46 -38 -54 -73t-10 -52t-2 -56t-2 -57q18 -10 36 -10l60 10q18 0 34 -18 q4 -84 4 -134q0 -48 -20 -70q-34 -38 -92 -38q-22 0 -76 10t-86 10h-14q-70 0 -160 -6q-6 -2 -19 -8t-29 -6t-54 28q-6 10 -20 24q-28 32 -28 54zM634 1521q0 15 3 22t10 13t11 9t16 10t14 9q54 32 96 32h10q30 -4 55 -20t34 -20t31 -16t36 -12h8q20 2 42 31t42 29 q58 0 64 -48q0 -16 -18 -26t-26 -15t-25 -21t-35 -31t-58 -19h-2q-34 0 -78 38t-78 38h-4q-20 0 -45 -27t-45 -27h-6q-22 4 -37 20t-15 31zM648 672q62 -34 119 -34t225 16v16q0 58 -30 122t-40 88t-28 91t-39 104t-59 57q-10 -26 -49 -173t-99 -287z" />
<glyph unicode="&#xc4;" d="M20 114q0 90 110 156q20 10 38 10l72 -10q22 0 34 10q30 44 84 220l18 58l82 222q112 306 262 598q104 54 144 54t80 -22q60 -90 77 -139t33 -101l26 -84q50 -142 116 -420q62 -262 106 -382q24 -34 94 -56q72 -24 95 -65t23 -75q0 -32 -24 -60q-6 -6 -17 -4t-17 -2 q-102 -22 -400 -22h-168q-50 0 -50 71t50 129q20 22 31 22t36 -7t54 -7t63 8q8 14 13 16t7 4q4 4 4 34t-4 84t-5 61t-7 25q-8 20 -16 30q-30 38 -92 46q-40 -4 -108 -4l-146 2q-78 0 -166 -8q-46 -38 -54 -73t-10 -52t-2 -56t-2 -57q18 -10 36 -10l60 10q18 0 34 -18 q4 -84 4 -134q0 -48 -20 -70q-34 -38 -92 -38q-22 0 -76 10t-86 10h-14q-70 0 -160 -6q-6 -2 -19 -8t-29 -6t-54 28q-6 10 -20 24q-28 32 -28 54zM604 1571q0 55 31 100t86 45t85 -54t30 -97t-34 -78t-74 -35t-59 4t-29 16q-36 44 -36 99zM648 672q62 -34 119 -34t225 16v16 q0 58 -30 122t-40 88t-28 91t-39 104t-59 57q-10 -26 -49 -173t-99 -287zM904 1571q0 55 31 100t86 45t85 -54t30 -97t-34 -78t-74 -35t-59 4t-29 16q-36 44 -36 99z" />
<glyph unicode="&#xc5;" d="M20 114q0 90 110 156q20 10 38 10l72 -10q22 0 34 10q30 44 84 220l18 58l82 222q112 306 262 598q104 54 144 54t80 -22q60 -90 77 -139t33 -101l26 -84q50 -142 116 -420q62 -262 106 -382q24 -34 94 -56q72 -24 95 -65t23 -75q0 -32 -24 -60q-6 -6 -17 -4t-17 -2 q-102 -22 -400 -22h-168q-50 0 -50 71t50 129q20 22 31 22t36 -7t54 -7t63 8q8 14 13 16t7 4q4 4 4 34t-4 84t-5 61t-7 25q-8 20 -16 30q-30 38 -92 46q-40 -4 -108 -4l-146 2q-78 0 -166 -8q-46 -38 -54 -73t-10 -52t-2 -56t-2 -57q18 -10 36 -10l60 10q18 0 34 -18 q4 -84 4 -134q0 -48 -20 -70q-34 -38 -92 -38q-22 0 -76 10t-86 10h-14q-70 0 -160 -6q-6 -2 -19 -8t-29 -6t-54 28q-6 10 -20 24q-28 32 -28 54zM648 672q62 -34 119 -34t225 16v16q0 58 -30 122t-40 88t-28 91t-39 104t-59 57q-10 -26 -49 -173t-99 -287zM770 1570 q0 64 44 96q28 20 64 20h8q80 -6 84 -108v-18q0 -18 -8 -48q-16 -62 -72 -62h-16h-16q-30 0 -58 28q-30 30 -30 92zM818 1558q0 -40 24 -64q4 -4 30 -10q20 -4 34 2q10 4 18 30t10 38v16q0 84 -60 84q-32 0 -44 -34t-12 -62z" />
<glyph unicode="&#xc7;" horiz-adv-x="1382" d="M16 662q0 166 48 279t135 230t165 181t188 111t226 47q182 0 286 -42q14 -6 74 -29t79 -33t51 -39t58 -83t26 -132t-84 -242q-50 34 -66 106t-36 100l-44 62q-84 118 -144 150q-74 40 -179 40t-226 -97t-175 -203q-72 -146 -72 -339t124 -347q72 -88 155 -130t203 -58 q32 -4 48 -4q80 0 204 49t174 57h6q26 0 26 -46t-38 -96q-78 -104 -214 -134q-34 -8 -34 -46l14 -110q0 -10 -4 -24l-26 -100q-16 -56 -26 -76l-22 -42q-22 -40 -58 -76q-66 -76 -132 -78h-24q-98 0 -108 60l-2 14q0 32 34 50l74 44q66 36 66 102q0 24 -7 47t-16 58t-14 48 t-16 39t-23 38q-38 34 -72 36q-90 8 -199 67t-180 126t-147 199t-76 266z" />
<glyph unicode="&#xc8;" horiz-adv-x="1296" d="M0 62q0 26 13 32t16 8t11 5t11 5t12 4t13 4t16 2l86 -18q20 0 22 20q50 500 50 726t-6 434q-72 0 -86 -8t-20 -11t-12 -3t-24 6q-68 34 -68 80v6q4 54 43 83t111 53h200l422 2q132 0 334 -36q2 -34 3 -68t2 -51t1 -35t1 -27t2 -17t4 -16t6 -15l9 -21l8 -30q6 -14 31 -38 t25 -30v-8l-2 -4q-98 -32 -131 -32t-71 4t-104 8q-6 8 -6 13t21 24t21 41t-8 50l-8 38q-2 8 -15 16t-29 30q-76 14 -149 14t-127 -10t-66 -10l-30 2q-24 0 -38 -16q-2 -92 -2 -228t2 -250q152 -28 177 -28t79 12q36 24 36 84l-2 54q0 98 92 98q32 0 62 -32q0 -106 8 -580 q-58 -24 -83 -24t-61 42q-4 16 -4 45t14 53t14 31t-7 22t-19 24t-19 12t-30 9t-63 19t-72 13q-108 0 -138 -58q-24 -120 -29 -186t-5 -206q20 -44 68 -56q112 -28 219 -28t275 12q64 34 84 107t88 153q38 -44 44 -68l6 -30v-24v-26q2 -26 2 -72q0 -112 -64 -162h-1092 q-74 24 -74 62zM336 1764q28 68 56 94q30 26 72 34q116 -16 214 -56t150 -58t120 -50l-46 -62q-40 -54 -71 -54t-219 77t-262 77q-8 0 -14 -2z" />
<glyph unicode="&#xc9;" horiz-adv-x="1296" d="M0 62q0 26 13 32t16 8t11 5t11 5t12 4t13 4t16 2l86 -18q20 0 22 20q50 500 50 726t-6 434q-72 0 -86 -8t-20 -11t-12 -3t-24 6q-68 34 -68 80v6q4 54 43 83t111 53h200l422 2q132 0 334 -36q2 -34 3 -68t2 -51t1 -35t1 -27t2 -17t4 -16t6 -15l9 -21l8 -30q6 -14 31 -38 t25 -30v-8l-2 -4q-98 -32 -131 -32t-71 4t-104 8q-6 8 -6 13t21 24t21 41t-8 50l-8 38q-2 8 -15 16t-29 30q-76 14 -149 14t-127 -10t-66 -10l-30 2q-24 0 -38 -16q-2 -92 -2 -228t2 -250q152 -28 177 -28t79 12q36 24 36 84l-2 54q0 98 92 98q32 0 62 -32q0 -106 8 -580 q-58 -24 -83 -24t-61 42q-4 16 -4 45t14 53t14 31t-7 22t-19 24t-19 12t-30 9t-63 19t-72 13q-108 0 -138 -58q-24 -120 -29 -186t-5 -206q20 -44 68 -56q112 -28 219 -28t275 12q64 34 84 107t88 153q38 -44 44 -68l6 -30v-24v-26q2 -26 2 -72q0 -112 -64 -162h-1092 q-74 24 -74 62zM666 1718q0 6 4 10q52 24 130 52l186 72q66 26 168 40q38 -8 66 -28t62 -100q-6 2 -16 2q-70 0 -258 -76t-206 -76t-77 43t-59 61z" />
<glyph unicode="&#xca;" horiz-adv-x="1296" d="M0 62q0 26 13 32t16 8t11 5t11 5t12 4t13 4t16 2l86 -18q20 0 22 20q50 500 50 726t-6 434q-72 0 -86 -8t-20 -11t-12 -3t-24 6q-68 34 -68 80v6q4 54 43 83t111 53h200l422 2q132 0 334 -36q2 -34 3 -68t2 -51t1 -35t1 -27t2 -17t4 -16t6 -15l9 -21l8 -30q6 -14 31 -38 t25 -30v-8l-2 -4q-98 -32 -131 -32t-71 4t-104 8q-6 8 -6 13t21 24t21 41t-8 50l-8 38q-2 8 -15 16t-29 30q-76 14 -149 14t-127 -10t-66 -10l-30 2q-24 0 -38 -16q-2 -92 -2 -228t2 -250q152 -28 177 -28t79 12q36 24 36 84l-2 54q0 98 92 98q32 0 62 -32q0 -106 8 -580 q-58 -24 -83 -24t-61 42q-4 16 -4 45t14 53t14 31t-7 22t-19 24t-19 12t-30 9t-63 19t-72 13q-108 0 -138 -58q-24 -120 -29 -186t-5 -206q20 -44 68 -56q112 -28 219 -28t275 12q64 34 84 107t88 153q38 -44 44 -68l6 -30v-24v-26q2 -26 2 -72q0 -112 -64 -162h-1092 q-74 24 -74 62zM546 1514q24 64 86 182q40 20 55 20t29 -8q26 -38 37 -75t21 -65t18 -58v-2q0 -10 -39 -10t-42 5t-17 47t-34 52q-14 -42 -22 -90q0 -8 -46 -8t-46 10z" />
<glyph unicode="&#xcb;" horiz-adv-x="1296" d="M0 62q0 26 13 32t16 8t11 5t11 5t12 4t13 4t16 2l86 -18q20 0 22 20q50 500 50 726t-6 434q-72 0 -86 -8t-20 -11t-12 -3t-24 6q-68 34 -68 80v6q4 54 43 83t111 53h200l422 2q132 0 334 -36q2 -34 3 -68t2 -51t1 -35t1 -27t2 -17t4 -16t6 -15l9 -21l8 -30q6 -14 31 -38 t25 -30v-8l-2 -4q-98 -32 -131 -32t-71 4t-104 8q-6 8 -6 13t21 24t21 41t-8 50l-8 38q-2 8 -15 16t-29 30q-76 14 -149 14t-127 -10t-66 -10l-30 2q-24 0 -38 -16q-2 -92 -2 -228t2 -250q152 -28 177 -28t79 12q36 24 36 84l-2 54q0 98 92 98q32 0 62 -32q0 -106 8 -580 q-58 -24 -83 -24t-61 42q-4 16 -4 45t14 53t14 31t-7 22t-19 24t-19 12t-30 9t-63 19t-72 13q-108 0 -138 -58q-24 -120 -29 -186t-5 -206q20 -44 68 -56q112 -28 219 -28t275 12q64 34 84 107t88 153q38 -44 44 -68l6 -30v-24v-26q2 -26 2 -72q0 -112 -64 -162h-1092 q-74 24 -74 62zM370 1703q0 55 31 100t86 45t85 -54t30 -97t-34 -78t-74 -35t-59 4t-29 16q-36 44 -36 99zM670 1703q0 55 31 100t86 45t85 -54t30 -97t-34 -78t-74 -35t-59 4t-29 16q-36 44 -36 99z" />
<glyph unicode="&#xcc;" horiz-adv-x="778" d="M20 108q0 70 68 70q22 0 70 -13t71 -13t41 18q-8 310 -8 426l12 740q-20 28 -66 28l-58 -4q-44 0 -63 26t-19 54t24 50q288 -4 350 -10h22q40 -4 276 -12q8 -8 8 -30l-14 -70q-18 -30 -47 -30t-79 13t-75 13t-43 -8q24 -368 24 -660v-126q0 -216 6 -382q20 -30 66 -30 l80 6q40 0 55 -23t15 -52t-36 -55q-208 -4 -270 -8t-84 -4t-294 30q-32 26 -32 56zM80 1690q28 68 56 94q30 26 72 34q116 -16 214 -56t150 -58t120 -50l-46 -62q-40 -54 -71 -54t-219 77t-262 77q-8 0 -14 -2z" />
<glyph unicode="&#xcd;" horiz-adv-x="778" d="M20 108q0 70 68 70q22 0 70 -13t71 -13t41 18q-8 310 -8 426l12 740q-20 28 -66 28l-58 -4q-44 0 -63 26t-19 54t24 50q288 -4 350 -10h22q40 -4 276 -12q8 -8 8 -30l-14 -70q-18 -30 -47 -30t-79 13t-75 13t-43 -8q24 -368 24 -660v-126q0 -216 6 -382q20 -30 66 -30 l80 6q40 0 55 -23t15 -52t-36 -55q-208 -4 -270 -8t-84 -4t-294 30q-32 26 -32 56zM254 1680q0 6 4 10q52 24 130 52l186 72q66 26 168 40q38 -8 66 -28t62 -100q-6 2 -16 2q-70 0 -258 -76t-206 -76t-77 43t-59 61z" />
<glyph unicode="&#xce;" horiz-adv-x="778" d="M20 108q0 70 68 70q22 0 70 -13t71 -13t41 18q-8 310 -8 426l12 740q-20 28 -66 28l-58 -4q-44 0 -63 26t-19 54t24 50q288 -4 350 -10h22q40 -4 276 -12q8 -8 8 -30l-14 -70q-18 -30 -47 -30t-79 13t-75 13t-43 -8q24 -368 24 -660v-126q0 -216 6 -382q20 -30 66 -30 l80 6q40 0 55 -23t15 -52t-36 -55q-208 -4 -270 -8t-84 -4t-294 30q-32 26 -32 56zM260 1554q24 64 86 182q40 20 55 20t29 -8q26 -38 37 -75t21 -65t18 -58v-2q0 -10 -39 -10t-42 5t-17 47t-34 52q-14 -42 -22 -90q0 -8 -46 -8t-46 10z" />
<glyph unicode="&#xcf;" horiz-adv-x="778" d="M20 108q0 70 68 70q22 0 70 -13t71 -13t41 18q-8 310 -8 426l12 740q-20 28 -66 28l-58 -4q-44 0 -63 26t-19 54t24 50q288 -4 350 -10h22q40 -4 276 -12q8 -8 8 -30l-14 -70q-18 -30 -47 -30t-79 13t-75 13t-43 -8q24 -368 24 -660v-126q0 -216 6 -382q20 -30 66 -30 l80 6q40 0 55 -23t15 -52t-36 -55q-208 -4 -270 -8t-84 -4t-294 30q-32 26 -32 56zM138 1617q0 55 31 100t86 45t85 -54t30 -97t-34 -78t-74 -35t-59 4t-29 16q-36 44 -36 99zM438 1617q0 55 31 100t86 45t85 -54t30 -97t-34 -78t-74 -35t-59 4t-29 16q-36 44 -36 99z" />
<glyph unicode="&#xd0;" horiz-adv-x="1500" d="M-16 86q0 40 16 78q28 22 66 22l130 -16q48 0 72 30q8 236 8 454q-76 2 -127 40t-51 84t28 80q42 48 152 48q2 112 12 466q-16 16 -40 16l-62 -12q-14 -4 -35 -23t-41 -19h-12q-90 0 -90 48q0 34 65 76t139 42l94 -4l194 2q258 0 510 -84q110 -36 201 -117t141 -155 t75 -169t25 -168t-36 -214t-68 -216t-104 -153q-206 -224 -552 -224l-142 2h-124q-202 0 -428 28q-16 18 -16 58zM484 220q0 -24 16 -34q32 -22 65 -26t51 -8t58 -4t137 41t156 84t119 127t87 164t27 199t-31 208t-97 178t-127 130t-167 72t-158 31t-102 -44 q-16 -346 -18 -406q106 0 146 -46t40 -86t-24 -75t-64 -48t-104 -15v-78q0 -120 -5 -237t-5 -127z" />
<glyph unicode="&#xd1;" horiz-adv-x="1586" d="M36 1384q0 46 84 84q96 24 165 24t215 -40l460 -552l136 -176l166 -224l36 876q-36 0 -82 -12t-67 -12t-39 18t-18 34l18 70q0 10 -6 22q124 8 192 8t258 -12q24 0 24 -39t-42 -81q-20 -18 -40 -18l-80 6q-10 -198 -10 -374l10 -470q0 -154 -10 -322q-2 -2 -13 -22 t-19 -30q-24 -30 -54 -34h-8q-44 0 -94 68l-814 990q18 -216 18 -327t-12 -273t-12 -282v-56q8 -24 44 -24h20q46 0 46 -46q0 -14 -11 -44t-13 -46q-70 -2 -174 -9t-176 -7h-60q-2 16 -14 46t-12 44t15 36t69 22l100 -8q24 0 36 12q-8 210 -8 368l8 742q-10 16 -48 16 l-96 -6q-70 0 -84 42q-4 12 -4 18zM546 1615q0 15 3 22t10 13t11 9t16 10t14 9q54 32 96 32h10q30 -4 55 -20t34 -20t31 -16t36 -12h8q20 2 42 31t42 29q58 0 64 -48q0 -16 -18 -26t-26 -15t-25 -21t-35 -31t-58 -19h-2q-34 0 -78 38t-78 38h-4q-20 0 -45 -27t-45 -27h-6 q-22 4 -37 20t-15 31z" />
<glyph unicode="&#xd2;" d="M74 746q0 234 134 411t285 253t359 76h8q176 0 306 -63t234 -211t104 -338q0 -106 -23 -224t-49 -177t-48 -93t-68 -96l-64 -94q-138 -208 -414 -208q-178 0 -308 66q-238 122 -326 232q-88 104 -110 240q-20 136 -20 226zM404 620q0 -128 51 -220t105 -137t137 -73 t153 -28t155 47t130 114t101 208t56 271q0 62 -15 154t-47 161t-104 131q-124 108 -244 108q-180 0 -302 -144q-56 -64 -90 -121t-51 -115t-21 -97t-8 -127zM508 1656q28 68 56 94q30 26 72 34q116 -16 214 -56t150 -58t120 -50l-46 -62q-40 -54 -71 -54t-219 77t-262 77 q-8 0 -14 -2z" />
<glyph unicode="&#xd3;" d="M74 746q0 234 134 411t285 253t359 76h8q176 0 306 -63t234 -211t104 -338q0 -106 -23 -224t-49 -177t-48 -93t-68 -96l-64 -94q-138 -208 -414 -208q-178 0 -308 66q-238 122 -326 232q-88 104 -110 240q-20 136 -20 226zM404 620q0 -128 51 -220t105 -137t137 -73 t153 -28t155 47t130 114t101 208t56 271q0 62 -15 154t-47 161t-104 131q-124 108 -244 108q-180 0 -302 -144q-56 -64 -90 -121t-51 -115t-21 -97t-8 -127zM622 1640q0 6 4 10q52 24 130 52l186 72q66 26 168 40q38 -8 66 -28t62 -100q-6 2 -16 2q-70 0 -258 -76t-206 -76 t-77 43t-59 61z" />
<glyph unicode="&#xd4;" d="M50 746q0 234 134 411t285 253t359 76h8q176 0 306 -63t234 -211t104 -338q0 -106 -23 -224t-49 -177t-48 -93t-68 -96l-64 -94q-138 -208 -414 -208q-178 0 -308 66q-238 122 -326 232q-88 104 -110 240q-20 136 -20 226zM380 620q0 -128 51 -220t105 -137t137 -73 t153 -28t155 47t130 114t101 208t56 271q0 62 -15 154t-47 161t-104 131q-124 108 -244 108q-180 0 -302 -144q-56 -64 -90 -121t-51 -115t-21 -97t-8 -127zM726 1508q24 64 86 182q40 20 55 20t29 -8q26 -38 37 -75t21 -65t18 -58v-2q0 -10 -39 -10t-42 5t-17 47t-34 52 q-14 -42 -22 -90q0 -8 -46 -8t-46 10z" />
<glyph unicode="&#xd5;" d="M74 746q0 234 134 411t285 253t359 76h8q176 0 306 -63t234 -211t104 -338q0 -106 -23 -224t-49 -177t-48 -93t-68 -96l-64 -94q-138 -208 -414 -208q-178 0 -308 66q-238 122 -326 232q-88 104 -110 240q-20 136 -20 226zM404 620q0 -128 51 -220t105 -137t137 -73 t153 -28t155 47t130 114t101 208t56 271q0 62 -15 154t-47 161t-104 131q-124 108 -244 108q-180 0 -302 -144q-56 -64 -90 -121t-51 -115t-21 -97t-8 -127zM662 1597q0 15 3 22t10 13t11 9t16 10t14 9q54 32 96 32h10q30 -4 55 -20t34 -20t31 -16t36 -12h8q20 2 42 31 t42 29q58 0 64 -48q0 -16 -18 -26t-26 -15t-25 -21t-35 -31t-58 -19h-2q-34 0 -78 38t-78 38h-4q-20 0 -45 -27t-45 -27h-6q-22 4 -37 20t-15 31z" />
<glyph unicode="&#xd6;" d="M74 746q0 234 134 411t285 253t359 76h8q176 0 306 -63t234 -211t104 -338q0 -106 -23 -224t-49 -177t-48 -93t-68 -96l-64 -94q-138 -208 -414 -208q-178 0 -308 66q-238 122 -326 232q-88 104 -110 240q-20 136 -20 226zM404 620q0 -128 51 -220t105 -137t137 -73 t153 -28t155 47t130 114t101 208t56 271q0 62 -15 154t-47 161t-104 131q-124 108 -244 108q-180 0 -302 -144q-56 -64 -90 -121t-51 -115t-21 -97t-8 -127zM644 1615q0 55 31 100t86 45t85 -54t30 -97t-34 -78t-74 -35t-59 4t-29 16q-36 44 -36 99zM944 1615q0 55 31 100 t86 45t85 -54t30 -97t-34 -78t-74 -35t-59 4t-29 16q-36 44 -36 99z" />
<glyph unicode="&#xd7;" horiz-adv-x="860" d="M142 195q0 11 33 62t33 67v6q82 82 104 109t58 89q-120 262 -194 362q14 4 26 7t18 5t10 4t5 3l1 1h4l4 -2h38q92 -190 142 -222q16 -10 37 -10t39 9t27 19t23 30t22 30q2 8 43 69t41 73v2h54q46 0 64 -28q-128 -138 -258 -308q26 -68 88 -132l104 -114q46 -48 46 -90 q0 -14 -8 -24q-46 -22 -81 -24t-47 -4v2q0 14 -50 75t-53 74t-11 25q-14 16 -48 28q-22 2 -64 0q-16 -16 -28 -22q-24 -12 -38 -44q-58 -102 -58 -140v-8q-22 -2 -40 -2t-80 12q-6 0 -6 11z" />
<glyph unicode="&#xd8;" d="M52 158v2q0 42 44 64q48 26 66 26l94 -22h2q-138 120 -161 274t-23 244q0 234 134 411t285 253t359 76h8q144 0 258 -42q2 28 36 46q84 0 144 5t74 5t158 -50q14 -16 14 -46t-20 -47t-32 -17l-62 12q-14 0 -20 -4l-62 -68q156 -182 156 -408q0 -96 -23 -218t-49 -181 t-48 -93t-68 -96l-64 -94q-138 -208 -416 -208q-186 0 -320 74l-226 -12q-74 0 -154 12q-12 14 -36 32q-48 36 -48 70zM404 596q0 -84 38 -170l166 202q44 52 124 140l174 186q100 110 149 189t69 107q-126 106 -242 106q-30 0 -62 -6q-112 -20 -184 -82t-126 -148t-71 -144 t-21 -97t-9 -119t-5 -164zM568 256q50 -38 131 -66t151 -28t155 47t130 114t101 208t56 271q0 60 -15 158t-55 172q-20 -26 -88 -124t-120 -164l-190 -236q-138 -172 -244 -330q-10 -20 -12 -22z" />
<glyph unicode="&#xd9;" horiz-adv-x="1604" d="M32 1324q0 30 21 73t83 65q210 8 269 13t75 5t270 -36q52 -42 52 -92q0 -22 -16 -44q-18 -20 -44 -20t-84 28t-82 28t-46 -18q-4 -128 -15 -291t-11 -264t36 -351q44 -104 100 -164q72 -80 208 -80q206 0 364 216q30 282 30 404v136q0 142 10 382q-14 20 -48 20l-94 -12 q-52 0 -52 55t74 97l192 4q14 0 24 -1t53 -3t107 -6q60 -42 60 -88q0 -16 -10 -32t-30 -16l-72 12q-20 0 -30 -12q-10 -158 -10 -310l4 -312q0 -222 -22 -488q-34 -68 -86 -104t-140 -66q-216 -80 -366 -80t-306 50q-54 18 -93 50t-83 80t-80 76q-16 154 -16 321t14 410 t14 329v38q-6 -4 -35 -25t-69 -33t-61 -12t-40 19t-19 49zM470 1668q28 68 56 94q30 26 72 34q116 -16 214 -56t150 -58t120 -50l-46 -62q-40 -54 -71 -54t-219 77t-262 77q-8 0 -14 -2z" />
<glyph unicode="&#xda;" horiz-adv-x="1604" d="M32 1324q0 30 21 73t83 65q210 8 269 13t75 5t270 -36q52 -42 52 -92q0 -22 -16 -44q-18 -20 -44 -20t-84 28t-82 28t-46 -18q-4 -128 -15 -291t-11 -264t36 -351q44 -104 100 -164q72 -80 208 -80q206 0 364 216q30 282 30 404v136q0 142 10 382q-14 20 -48 20l-94 -12 q-52 0 -52 55t74 97l192 4q14 0 24 -1t53 -3t107 -6q60 -42 60 -88q0 -16 -10 -32t-30 -16l-72 12q-20 0 -30 -12q-10 -158 -10 -310l4 -312q0 -222 -22 -488q-34 -68 -86 -104t-140 -66q-216 -80 -366 -80t-306 50q-54 18 -93 50t-83 80t-80 76q-16 154 -16 321t14 410 t14 329v38q-6 -4 -35 -25t-69 -33t-61 -12t-40 19t-19 49zM752 1622q0 6 4 10q52 24 130 52l186 72q66 26 168 40q38 -8 66 -28t62 -100q-6 2 -16 2q-70 0 -258 -76t-206 -76t-77 43t-59 61z" />
<glyph unicode="&#xdb;" horiz-adv-x="1604" d="M32 1324q0 30 21 73t83 65q210 8 269 13t75 5t270 -36q52 -42 52 -92q0 -22 -16 -44q-18 -20 -44 -20t-84 28t-82 28t-46 -18q-4 -128 -15 -291t-11 -264t36 -351q44 -104 100 -164q72 -80 208 -80q206 0 364 216q30 282 30 404v136q0 142 10 382q-14 20 -48 20l-94 -12 q-52 0 -52 55t74 97l192 4q14 0 24 -1t53 -3t107 -6q60 -42 60 -88q0 -16 -10 -32t-30 -16l-72 12q-20 0 -30 -12q-10 -158 -10 -310l4 -312q0 -222 -22 -488q-34 -68 -86 -104t-140 -66q-216 -80 -366 -80t-306 50q-54 18 -93 50t-83 80t-80 76q-16 154 -16 321t14 410 t14 329v38q-6 -4 -35 -25t-69 -33t-61 -12t-40 19t-19 49zM788 1502q24 64 86 182q40 20 55 20t29 -8q26 -38 37 -75t21 -65t18 -58v-2q0 -10 -39 -10t-42 5t-17 47t-34 52q-14 -42 -22 -90q0 -8 -46 -8t-46 10z" />
<glyph unicode="&#xdc;" horiz-adv-x="1604" d="M32 1324q0 30 21 73t83 65q210 8 269 13t75 5t270 -36q52 -42 52 -92q0 -22 -16 -44q-18 -20 -44 -20t-84 28t-82 28t-46 -18q-4 -128 -15 -291t-11 -264t36 -351q44 -104 100 -164q72 -80 208 -80q206 0 364 216q30 282 30 404v136q0 142 10 382q-14 20 -48 20l-94 -12 q-52 0 -52 55t74 97l192 4q14 0 24 -1t53 -3t107 -6q60 -42 60 -88q0 -16 -10 -32t-30 -16l-72 12q-20 0 -30 -12q-10 -158 -10 -310l4 -312q0 -222 -22 -488q-34 -68 -86 -104t-140 -66q-216 -80 -366 -80t-306 50q-54 18 -93 50t-83 80t-80 76q-16 154 -16 321t14 410 t14 329v38q-6 -4 -35 -25t-69 -33t-61 -12t-40 19t-19 49zM622 1581q0 55 31 100t86 45t85 -54t30 -97t-34 -78t-74 -35t-59 4t-29 16q-36 44 -36 99zM922 1581q0 55 31 100t86 45t85 -54t30 -97t-34 -78t-74 -35t-59 4t-29 16q-36 44 -36 99z" />
<glyph unicode="&#xdd;" horiz-adv-x="1518" d="M28 1308q0 44 24 74q206 16 244 16l112 -4q52 0 212 6q42 -32 42 -72q0 -52 -52 -52l-82 8q-32 0 -44 -22q50 -134 132 -308t124 -306l358 580q-24 10 -65 14t-69 14q-40 18 -40 63t54 81l96 8q42 2 58 4q32 4 47 4t34 -1t84 -6t143 -9q30 -26 30 -56t-14 -46 q-20 -30 -62 -30l-100 10q-36 0 -60 -16q-38 -66 -98 -182l-96 -178q-100 -176 -210 -322q-4 -52 -10 -104l-8 -84q-2 -30 -2 -77t14 -179q2 -22 26 -22l94 18q20 0 41 -20t21 -41t-10 -37q-262 -26 -318 -26t-296 20q-16 20 -16 47t25 49t51 22l100 -16q28 0 44 18 q18 188 18 426q-74 154 -213 350t-203 304q-12 6 -24 6l-72 -16q-10 0 -24 10q-40 36 -40 80zM690 1562q0 6 4 10q52 24 130 52l186 72q66 26 168 40q38 -8 66 -28t62 -100q-6 2 -16 2q-70 0 -258 -76t-206 -76t-77 43t-59 61z" />
<glyph unicode="&#xde;" horiz-adv-x="1118" d="M42 55q0 23 60 73q18 8 37 8t37 -15t28 -15t32 22l4 418q10 166 10 470l-2 310q-10 -10 -58 -10t-128 16q-20 22 -20 62t38 74h82l462 -4h72q8 0 18 -19t10 -48t-22 -59q-6 -8 -106 -13t-116 -15t-16 -28t8 -31t14 -13h44q142 0 242 -30t191 -112t91 -238 q0 -104 -102 -260q-76 -116 -168 -152q-58 -24 -132 -24l-134 6q-30 0 -46 -2q0 -86 7 -152t9 -114q32 -6 66 -6l100 4q92 0 124 -56q12 -22 12 -42t-46 -58l-444 -16q-114 0 -232 14q-26 32 -26 55zM456 827q0 -75 16 -213q28 -26 58 -26t54 9t58 27t48 24q88 38 115 98 t27 110t-25 103t-60 79t-93 46t-87 20t-95 -20q-16 -182 -16 -257z" />
<glyph unicode="&#xdf;" horiz-adv-x="1152" d="M32 78q0 42 48 80q10 8 28 8l44 -4q18 0 30 10q2 100 2 154v22l-4 296q-14 24 -62 37t-62 35q-24 42 -24 68t15 48t61 26t62 26q8 42 8 74v64q0 62 4 112q46 150 134 250q120 136 230 136q166 0 242 -90q48 -56 48 -126q0 -120 -80 -120q-36 0 -104 52l-64 56 q-28 26 -52 26t-35 -3t-23 -8t-22 -14t-17 -14t-15 -20t-12 -21t-11 -25t-9 -25q-6 -34 -16 -54v-162l2 -498q0 -178 -2 -294q10 -22 44 -32q58 -16 58 -68q0 -20 -12 -42q-18 -38 -56 -38h-318q-48 0 -60 78zM502 184q0 46 32 108q8 20 24 20t49 -50t75 -101t82 -51h8 q56 6 89 48t37 100v4q0 34 -16 53t-22 25t-28 23t-26 21q-34 28 -128 41t-122 65q-40 74 -40 128q0 8 1 25t1 29q2 80 46 133t115 96t110 43t75 -10q122 -32 158 -126q14 -34 14 -61t-21 -69t-29 -42t-22 26q-42 86 -58 96t-33 22t-25 16q-28 16 -42 16t-34 -4 q-92 -30 -92 -104q0 -56 37 -73t84 -29t69 -30t65 -48t61 -44q52 -48 72 -109t20 -121t-38 -114q-56 -82 -130 -104q-108 -34 -155 -34t-73 6l-36 8q-14 4 -17 5t-14 4t-23 7t-16 7t-11 7t-11 10q-12 10 -20 22q-42 64 -42 110z" />
<glyph unicode="&#xe0;" horiz-adv-x="834" d="M14 224q0 118 114 216q70 56 182 102q20 8 67 11t68 21t29 54t8 60t-4 46t-6 38t-4 24t-6 20q-8 20 -26 33t-33 13t-64 -11t-73 -42t-24 -93v-38q-2 -36 -33 -59t-61 -23q-106 0 -106 102q0 18 2 26q20 116 79 166t113 64t144 18l42 2q64 0 116 -36q74 -50 90 -136 t16 -222v-52l2 -88l2 -44l-2 -82q0 -38 6 -90v-26q0 -22 24 -22t56 43t54 43q2 0 17 -6t15 -30l-6 -48l-2 -40q0 -22 -3 -31t-5 -19t-5 -17t-9 -15q-26 -42 -46 -46t-26 -4l-40 -2q-36 -4 -59 -4t-45 11t-30 19t-16 20t-15 19t-13 19q-14 24 -30 24h-8q-26 0 -59 -30 t-45 -37t-28 -17q-50 -38 -120 -38t-116 30t-62 95t-16 109zM26 1204q28 68 56 94q30 26 72 34q116 -16 214 -56t150 -58t120 -50l-46 -62q-40 -54 -71 -54t-219 77t-262 77q-8 0 -14 -2zM202 288q0 -112 64 -140q8 -4 16 -4t28 11t28 13l28 12q56 22 82 52q54 62 54 124 l-2 20q-4 56 -46 80q-16 8 -57 -3t-97 -45q-98 -64 -98 -120z" />
<glyph unicode="&#xe1;" horiz-adv-x="834" d="M14 224q0 118 114 216q70 56 182 102q20 8 67 11t68 21t29 54t8 60t-4 46t-6 38t-4 24t-6 20q-8 20 -26 33t-33 13t-64 -11t-73 -42t-24 -93v-38q-2 -36 -33 -59t-61 -23q-106 0 -106 102q0 18 2 26q20 116 79 166t113 64t144 18l42 2q64 0 116 -36q74 -50 90 -136 t16 -222v-52l2 -88l2 -44l-2 -82q0 -38 6 -90v-26q0 -22 24 -22t56 43t54 43q2 0 17 -6t15 -30l-6 -48l-2 -40q0 -22 -3 -31t-5 -19t-5 -17t-9 -15q-26 -42 -46 -46t-26 -4l-40 -2q-36 -4 -59 -4t-45 11t-30 19t-16 20t-15 19t-13 19q-14 24 -30 24h-8q-26 0 -59 -30 t-45 -37t-28 -17q-50 -38 -120 -38t-116 30t-62 95t-16 109zM92 1146q0 6 4 10q52 24 130 52l186 72q66 26 168 40q38 -8 66 -28t62 -100q-6 2 -16 2q-70 0 -258 -76t-206 -76t-77 43t-59 61zM202 288q0 -112 64 -140q8 -4 16 -4t28 11t28 13l28 12q56 22 82 52 q54 62 54 124l-2 20q-4 56 -46 80q-16 8 -57 -3t-97 -45q-98 -64 -98 -120z" />
<glyph unicode="&#xe2;" horiz-adv-x="834" d="M14 224q0 118 114 216q70 56 182 102q20 8 67 11t68 21t29 54t8 60t-4 46t-6 38t-4 24t-6 20q-8 20 -26 33t-33 13t-64 -11t-73 -42t-24 -93v-38q-2 -36 -33 -59t-61 -23q-106 0 -106 102q0 18 2 26q20 116 79 166t113 64t144 18l42 2q64 0 116 -36q74 -50 90 -136 t16 -222v-52l2 -88l2 -44l-2 -82q0 -38 6 -90v-26q0 -22 24 -22t56 43t54 43q2 0 17 -6t15 -30l-6 -48l-2 -40q0 -22 -3 -31t-5 -19t-5 -17t-9 -15q-26 -42 -46 -46t-26 -4l-40 -2q-36 -4 -59 -4t-45 11t-30 19t-16 20t-15 19t-13 19q-14 24 -30 24h-8q-26 0 -59 -30 t-45 -37t-28 -17q-50 -38 -120 -38t-116 30t-62 95t-16 109zM202 288q0 -112 64 -140q8 -4 16 -4t28 11t28 13l28 12q56 22 82 52q54 62 54 124l-2 20q-4 56 -46 80q-16 8 -57 -3t-97 -45q-98 -64 -98 -120zM288 1006q24 64 86 182q40 20 55 20t29 -8q26 -38 37 -75t21 -65 t18 -58v-2q0 -10 -39 -10t-42 5t-17 47t-34 52q-14 -42 -22 -90q0 -8 -46 -8t-46 10z" />
<glyph unicode="&#xe3;" horiz-adv-x="834" d="M14 224q0 118 114 216q70 56 182 102q20 8 67 11t68 21t29 54t8 60t-4 46t-6 38t-4 24t-6 20q-8 20 -26 33t-33 13t-64 -11t-73 -42t-24 -93v-38q-2 -36 -33 -59t-61 -23q-106 0 -106 102q0 18 2 26q20 116 79 166t113 64t144 18l42 2q64 0 116 -36q74 -50 90 -136 t16 -222v-52l2 -88l2 -44l-2 -82q0 -38 6 -90v-26q0 -22 24 -22t56 43t54 43q2 0 17 -6t15 -30l-6 -48l-2 -40q0 -22 -3 -31t-5 -19t-5 -17t-9 -15q-26 -42 -46 -46t-26 -4l-40 -2q-36 -4 -59 -4t-45 11t-30 19t-16 20t-15 19t-13 19q-14 24 -30 24h-8q-26 0 -59 -30 t-45 -37t-28 -17q-50 -38 -120 -38t-116 30t-62 95t-16 109zM150 1103q0 15 3 22t10 13t11 9t16 10t14 9q54 32 96 32h10q30 -4 55 -20t34 -20t31 -16t36 -12h8q20 2 42 31t42 29q58 0 64 -48q0 -16 -18 -26t-26 -15t-25 -21t-35 -31t-58 -19h-2q-34 0 -78 38t-78 38h-4 q-20 0 -45 -27t-45 -27h-6q-22 4 -37 20t-15 31zM202 288q0 -112 64 -140q8 -4 16 -4t28 11t28 13l28 12q56 22 82 52q54 62 54 124l-2 20q-4 56 -46 80q-16 8 -57 -3t-97 -45q-98 -64 -98 -120z" />
<glyph unicode="&#xe4;" horiz-adv-x="834" d="M14 224q0 118 114 216q70 56 182 102q20 8 67 11t68 21t29 54t8 60t-4 46t-6 38t-4 24t-6 20q-8 20 -26 33t-33 13t-64 -11t-73 -42t-24 -93v-38q-2 -36 -33 -59t-61 -23q-106 0 -106 102q0 18 2 26q20 116 79 166t113 64t144 18l42 2q64 0 116 -36q74 -50 90 -136 t16 -222v-52l2 -88l2 -44l-2 -82q0 -38 6 -90v-26q0 -22 24 -22t56 43t54 43q2 0 17 -6t15 -30l-6 -48l-2 -40q0 -22 -3 -31t-5 -19t-5 -17t-9 -15q-26 -42 -46 -46t-26 -4l-40 -2q-36 -4 -59 -4t-45 11t-30 19t-16 20t-15 19t-13 19q-14 24 -30 24h-8q-26 0 -59 -30 t-45 -37t-28 -17q-50 -38 -120 -38t-116 30t-62 95t-16 109zM102 1149q0 55 31 100t86 45t85 -54t30 -97t-34 -78t-74 -35t-59 4t-29 16q-36 44 -36 99zM202 288q0 -112 64 -140q8 -4 16 -4t28 11t28 13l28 12q56 22 82 52q54 62 54 124l-2 20q-4 56 -46 80q-16 8 -57 -3 t-97 -45q-98 -64 -98 -120zM402 1149q0 55 31 100t86 45t85 -54t30 -97t-34 -78t-74 -35t-59 4t-29 16q-36 44 -36 99z" />
<glyph unicode="&#xe5;" horiz-adv-x="834" d="M14 224q0 118 114 216q70 56 182 102q20 8 67 11t68 21t29 54t8 60t-4 46t-6 38t-4 24t-6 20q-8 20 -26 33t-33 13t-64 -11t-73 -42t-24 -93v-38q-2 -36 -33 -59t-61 -23q-106 0 -106 102q0 18 2 26q20 116 79 166t113 64t144 18l42 2q64 0 116 -36q74 -50 90 -136 t16 -222v-52l2 -88l2 -44l-2 -82q0 -38 6 -90v-26q0 -22 24 -22t56 43t54 43q2 0 17 -6t15 -30l-6 -48l-2 -40q0 -22 -3 -31t-5 -19t-5 -17t-9 -15q-26 -42 -46 -46t-26 -4l-40 -2q-36 -4 -59 -4t-45 11t-30 19t-16 20t-15 19t-13 19q-14 24 -30 24h-8q-26 0 -59 -30 t-45 -37t-28 -17q-50 -38 -120 -38t-116 30t-62 95t-16 109zM202 288q0 -112 64 -140q8 -4 16 -4t28 11t28 13l28 12q56 22 82 52q54 62 54 124l-2 20q-4 56 -46 80q-16 8 -57 -3t-97 -45q-98 -64 -98 -120zM268 1152q0 64 44 96q28 20 64 20h8q80 -6 84 -108v-18 q0 -18 -8 -48q-16 -62 -72 -62h-16h-16q-30 0 -58 28q-30 30 -30 92zM316 1140q0 -40 24 -64q4 -4 30 -10q20 -4 34 2q10 4 18 30t10 38v16q0 84 -60 84q-32 0 -44 -34t-12 -62z" />
<glyph unicode="&#xe7;" horiz-adv-x="864" d="M28 444q0 76 26 167t58 148t98 109q112 88 258 88h28q52 -2 72 -4q60 -10 122 -72t62 -118q0 -84 -62 -86h-2q-28 0 -53 31t-37 41t-30 28q-36 34 -67 40t-70 6t-87 -32t-85 -130t-37 -165t6 -115q18 -128 126 -194q70 -42 133 -42t91 16t38 28q10 14 20 50l10 28 q10 32 39 32t47 -15t18 -37v-4q0 -80 -6 -98q-12 -32 -30 -52q-30 -38 -90 -62q0 -40 -12 -94q-32 -180 -132 -288q-66 -74 -132 -78h-14q-106 0 -118 60l-2 14q0 32 34 52t75 42t55 57t14 57t-14 50t-77 49t-67 57q0 28 -4 44q-20 10 -54 42q-148 136 -148 350z" />
<glyph unicode="&#xe8;" horiz-adv-x="728" d="M28 449q0 71 26 162t58 149t98 108q110 84 230 84t178 -40q28 -18 58 -78t30 -110t-21 -107t-59 -59q-242 -22 -321 -22t-81 2q-4 -40 -4 -76t9 -92t25 -95t56 -73q20 -20 41 -24t35 -8t48 -4l66 -6q34 0 54 14t26 26t12 34t10 32q10 32 38 32t47 -16t19 -38v-2 q-6 -86 -9 -99t-28 -56t-66 -62t-77 -19l-74 4q-26 -2 -66 -2q-114 0 -210 86q-104 102 -128 206q-20 78 -20 149zM60 1186q28 68 56 94q30 26 72 34q116 -16 214 -56t150 -58t120 -50l-46 -62q-40 -54 -71 -54t-219 77t-262 77q-8 0 -14 -2zM252 692q0 -8 6 -18 q10 -10 124 -10t118 22l6 70q0 36 -26 56q-28 18 -60 18t-76 -30q-92 -62 -92 -108z" />
<glyph unicode="&#xe9;" horiz-adv-x="728" d="M28 449q0 71 26 162t58 149t98 108q110 84 230 84t178 -40q28 -18 58 -78t30 -110t-21 -107t-59 -59q-242 -22 -321 -22t-81 2q-4 -40 -4 -76t9 -92t25 -95t56 -73q20 -20 41 -24t35 -8t48 -4l66 -6q34 0 54 14t26 26t12 34t10 32q10 32 38 32t47 -16t19 -38v-2 q-6 -86 -9 -99t-28 -56t-66 -62t-77 -19l-74 4q-26 -2 -66 -2q-114 0 -210 86q-104 102 -128 206q-20 78 -20 149zM72 1110q0 6 4 10q52 24 130 52l186 72q66 26 168 40q38 -8 66 -28t62 -100q-6 2 -16 2q-70 0 -258 -76t-206 -76t-77 43t-59 61zM252 692q0 -8 6 -18 q10 -10 124 -10t118 22l6 70q0 36 -26 56q-28 18 -60 18t-76 -30q-92 -62 -92 -108z" />
<glyph unicode="&#xea;" horiz-adv-x="728" d="M28 449q0 71 26 162t58 149t98 108q110 84 230 84t178 -40q28 -18 58 -78t30 -110t-21 -107t-59 -59q-242 -22 -321 -22t-81 2q-4 -40 -4 -76t9 -92t25 -95t56 -73q20 -20 41 -24t35 -8t48 -4l66 -6q34 0 54 14t26 26t12 34t10 32q10 32 38 32t47 -16t19 -38v-2 q-6 -86 -9 -99t-28 -56t-66 -62t-77 -19l-74 4q-26 -2 -66 -2q-114 0 -210 86q-104 102 -128 206q-20 78 -20 149zM252 692q0 -8 6 -18q10 -10 124 -10t118 22l6 70q0 36 -26 56q-28 18 -60 18t-76 -30q-92 -62 -92 -108zM346 976q24 64 86 182q40 20 55 20t29 -8 q26 -38 37 -75t21 -65t18 -58v-2q0 -10 -39 -10t-42 5t-17 47t-34 52q-14 -42 -22 -90q0 -8 -46 -8t-46 10z" />
<glyph unicode="&#xeb;" horiz-adv-x="728" d="M28 449q0 71 26 162t58 149t98 108q110 84 230 84t178 -40q28 -18 58 -78t30 -110t-21 -107t-59 -59q-242 -22 -321 -22t-81 2q-4 -40 -4 -76t9 -92t25 -95t56 -73q20 -20 41 -24t35 -8t48 -4l66 -6q34 0 54 14t26 26t12 34t10 32q10 32 38 32t47 -16t19 -38v-2 q-6 -86 -9 -99t-28 -56t-66 -62t-77 -19l-74 4q-26 -2 -66 -2q-114 0 -210 86q-104 102 -128 206q-20 78 -20 149zM166 1113q0 55 31 100t86 45t85 -54t30 -97t-34 -78t-74 -35t-59 4t-29 16q-36 44 -36 99zM252 692q0 -8 6 -18q10 -10 124 -10t118 22l6 70q0 36 -26 56 q-28 18 -60 18t-76 -30q-92 -62 -92 -108zM466 1113q0 55 31 100t86 45t85 -54t30 -97t-34 -78t-74 -35t-59 4t-29 16q-36 44 -36 99z" />
<glyph unicode="&#xec;" horiz-adv-x="500" d="M-200 1108q28 68 56 94q30 26 72 34q116 -16 214 -56t150 -58t120 -50l-46 -62q-40 -54 -71 -54t-219 77t-262 77q-8 0 -14 -2zM30 36q0 60 86 66q60 4 78 30v212q0 112 -12 308q-18 44 -70 85t-82 75q50 22 86 36l72 28q40 14 62 14q90 -12 116 -56t26 -80t-14 -98 t-14 -100l-10 -412q10 -26 52 -35t52 -29t10 -41t-20 -39h-398q-20 18 -20 36z" />
<glyph unicode="&#xed;" horiz-adv-x="500" d="M30 36q0 60 86 66q60 4 78 30v212q0 112 -12 308q-18 44 -70 85t-82 75q50 22 86 36l72 28q40 14 62 14q90 -12 116 -56t26 -80t-14 -98t-14 -100l-10 -412q10 -26 52 -35t52 -29t10 -41t-20 -39h-398q-20 18 -20 36zM46 1098q0 6 4 10q52 24 130 52l186 72q66 26 168 40 q38 -8 66 -28t62 -100q-6 2 -16 2q-70 0 -258 -76t-206 -76t-77 43t-59 61z" />
<glyph unicode="&#xee;" horiz-adv-x="500" d="M30 36q0 60 86 66q60 4 78 30v212q0 112 -12 308q-18 44 -70 85t-82 75q50 22 86 36l72 28q40 14 62 14q90 -12 116 -56t26 -80t-14 -98t-14 -100l-10 -412q10 -26 52 -35t52 -29t10 -41t-20 -39h-398q-20 18 -20 36zM128 920q24 64 86 182q40 20 55 20t29 -8 q26 -38 37 -75t21 -65t18 -58v-2q0 -10 -39 -10t-42 5t-17 47t-34 52q-14 -42 -22 -90q0 -8 -46 -8t-46 10z" />
<glyph unicode="&#xef;" horiz-adv-x="500" d="M-28 1041q0 55 31 100t86 45t85 -54t30 -97t-34 -78t-74 -35t-59 4t-29 16q-36 44 -36 99zM30 36q0 60 86 66q60 4 78 30v212q0 112 -12 308q-18 44 -70 85t-82 75q50 22 86 36l72 28q40 14 62 14q90 -12 116 -56t26 -80t-14 -98t-14 -100l-10 -412q10 -26 52 -35t52 -29 t10 -41t-20 -39h-398q-20 18 -20 36zM272 1041q0 55 31 100t86 45t85 -54t30 -97t-34 -78t-74 -35t-59 4t-29 16q-36 44 -36 99z" />
<glyph unicode="&#xf0;" horiz-adv-x="864" d="M28 444q0 76 26 167t58 148t98 109q112 88 252 88h34q84 -4 122 -22q-20 82 -44 128q-78 -26 -122 -26t-76 25t-32 51q0 80 78 102q-88 60 -236 142q-16 8 -16 18q0 18 50 33t101 15t81 -12q130 -60 204 -126q30 10 67 10t69 -26t32 -72t-44 -76q34 -72 45 -142t25 -130 t24 -190q16 -70 16 -180q0 -248 -126 -386q-48 -52 -126 -74q-30 -10 -66 -10l-70 2l-70 -2q-30 0 -60 8q-90 26 -146 78q-148 136 -148 350zM220 492q0 -214 98 -306q34 -32 126 -46l60 -6q94 0 138 118q-4 4 -8 12q42 108 50 200q0 24 -13 115t-73 169q-48 58 -87 66 t-79 8t-89 -32t-86 -132t-37 -166z" />
<glyph unicode="&#xf1;" horiz-adv-x="940" d="M-6 108q0 56 49 82t61 48v228q0 144 -2 304q-12 20 -55 27t-47 29q122 110 194 182q18 0 28 -3t14 -4t10 -5t8 -6q12 -12 21 -17t19 -29q14 -30 45 -30t74 23t56 27t29 12q34 14 57 14t40 -6t44 -21t37 -19t32 -12q40 -12 58 -36q36 -52 36 -113t-10 -85q6 -124 6 -200 l-2 -196v-64q8 -14 39 -16t41 -14q32 -38 32 -72t-9 -69t-45 -53q-46 -2 -117 -2t-191 2q-22 10 -38 52t-16 60t10 38t53 36t53 38l-4 216q0 62 4 210q-6 46 -24 68q-30 32 -76 38h-16q-48 0 -103 -32t-75 -78q-2 -46 -2 -122l2 -300q8 -12 29 -21t29 -19q28 -46 28 -71 t-9 -55t-23 -39t-38 -15h-254q-40 12 -61 41t-21 49zM234 1143q0 15 3 22t10 13t11 9t16 10t14 9q54 32 96 32h10q30 -4 55 -20t34 -20t31 -16t36 -12h8q20 2 42 31t42 29q58 0 64 -48q0 -16 -18 -26t-26 -15t-25 -21t-35 -31t-58 -19h-2q-34 0 -78 38t-78 38h-4 q-20 0 -45 -27t-45 -27h-6q-22 4 -37 20t-15 31z" />
<glyph unicode="&#xf2;" horiz-adv-x="864" d="M28 449q0 71 26 162t58 149t98 108q112 88 258 88h28q52 -2 72 -4q60 -10 130 -80t102 -140q40 -86 40 -280q0 -82 -32 -189t-85 -162t-135 -83q-36 -10 -72 -10l-64 2q-26 -2 -66 -2q-114 0 -210 86q-104 102 -128 206q-20 78 -20 149zM140 1162q28 68 56 94 q30 26 72 34q116 -16 214 -56t150 -58t120 -50l-46 -62q-40 -54 -71 -54t-219 77t-262 77q-8 0 -14 -2zM220 492q0 -214 98 -306q34 -32 126 -46l60 -6q60 0 102 50q18 20 48 102t30 150q0 200 -86 312q-48 58 -87 66t-79 8t-89 -32t-86 -132t-37 -166z" />
<glyph unicode="&#xf3;" horiz-adv-x="864" d="M28 449q0 71 26 162t58 149t98 108q112 88 258 88h28q52 -2 72 -4q60 -10 130 -80t102 -140q40 -86 40 -280q0 -82 -32 -189t-85 -162t-135 -83q-36 -10 -72 -10l-64 2q-26 -2 -66 -2q-114 0 -210 86q-104 102 -128 206q-20 78 -20 149zM140 1086q0 6 4 10q52 24 130 52 l186 72q66 26 168 40q38 -8 66 -28t62 -100q-6 2 -16 2q-70 0 -258 -76t-206 -76t-77 43t-59 61zM220 492q0 -214 98 -306q34 -32 126 -46l60 -6q60 0 102 50q18 20 48 102t30 150q0 200 -86 312q-48 58 -87 66t-79 8t-89 -32t-86 -132t-37 -166z" />
<glyph unicode="&#xf4;" horiz-adv-x="864" d="M28 449q0 71 26 162t58 149t98 108q112 88 258 88h28q52 -2 72 -4q60 -10 130 -80t102 -140q40 -86 40 -280q0 -82 -32 -189t-85 -162t-135 -83q-36 -10 -72 -10l-64 2q-26 -2 -66 -2q-114 0 -210 86q-104 102 -128 206q-20 78 -20 149zM220 492q0 -214 98 -306 q34 -32 126 -46l60 -6q60 0 102 50q18 20 48 102t30 150q0 200 -86 312q-48 58 -87 66t-79 8t-89 -32t-86 -132t-37 -166zM348 994q24 64 86 182q40 20 55 20t29 -8q26 -38 37 -75t21 -65t18 -58v-2q0 -10 -39 -10t-42 5t-17 47t-34 52q-14 -42 -22 -90q0 -8 -46 -8t-46 10z " />
<glyph unicode="&#xf5;" horiz-adv-x="864" d="M28 449q0 71 26 162t58 149t98 108q112 88 258 88h28q52 -2 72 -4q60 -10 130 -80t102 -140q40 -86 40 -280q0 -82 -32 -189t-85 -162t-135 -83q-36 -10 -72 -10l-64 2q-26 -2 -66 -2q-114 0 -210 86q-104 102 -128 206q-20 78 -20 149zM220 492q0 -214 98 -306 q34 -32 126 -46l60 -6q60 0 102 50q18 20 48 102t30 150q0 200 -86 312q-48 58 -87 66t-79 8t-89 -32t-86 -132t-37 -166zM276 1085q0 15 3 22t10 13t11 9t16 10t14 9q54 32 96 32h10q30 -4 55 -20t34 -20t31 -16t36 -12h8q20 2 42 31t42 29q58 0 64 -48q0 -16 -18 -26 t-26 -15t-25 -21t-35 -31t-58 -19h-2q-34 0 -78 38t-78 38h-4q-20 0 -45 -27t-45 -27h-6q-22 4 -37 20t-15 31z" />
<glyph unicode="&#xf6;" horiz-adv-x="864" d="M28 449q0 71 26 162t58 149t98 108q112 88 258 88h28q52 -2 72 -4q60 -10 130 -80t102 -140q40 -86 40 -280q0 -82 -32 -189t-85 -162t-135 -83q-36 -10 -72 -10l-64 2q-26 -2 -66 -2q-114 0 -210 86q-104 102 -128 206q-20 78 -20 149zM220 492q0 -214 98 -306 q34 -32 126 -46l60 -6q60 0 102 50q18 20 48 102t30 150q0 200 -86 312q-48 58 -87 66t-79 8t-89 -32t-86 -132t-37 -166zM234 1131q0 55 31 100t86 45t85 -54t30 -97t-34 -78t-74 -35t-59 4t-29 16q-36 44 -36 99zM534 1131q0 55 31 100t86 45t85 -54t30 -97t-34 -78 t-74 -35t-59 4t-29 16q-36 44 -36 99z" />
<glyph unicode="&#xf7;" horiz-adv-x="692" d="M48 462q0 34 30 68t62 42t78 8h10q2 -2 40 0t72 12q32 12 77 12t53 -1t20 -3t17 -3t14 -2t15 -3l12 -4q10 -2 14 -4q30 -14 53 -46t23 -69t-18 -63t-36 -40q-40 -34 -200 -34l-138 -6q-124 0 -180 78q-18 26 -18 58zM264 192q0 24 14 50q26 50 71 50t67 -45t22 -69 t-23 -54t-73 -30t-64 36t-14 62zM264 738q0 24 14 50q26 50 71 50t67 -45t22 -69t-23 -54t-73 -30t-64 36t-14 62z" />
<glyph unicode="&#xf8;" horiz-adv-x="936" d="M34 62q0 10 10 30t31 52t29 46q-66 100 -66 258q0 72 26 163t58 149t98 108q112 88 258 88h28q106 -4 158 -44q74 108 74 130v4q10 -2 32 -2l46 2q60 0 86 -40l-154 -176q36 -40 69 -112t33 -266q0 -82 -32 -189t-85 -162t-111 -74t-96 -19l-64 2q-26 -2 -66 -2 q-102 0 -186 66q-6 -24 -4 -38q-60 -4 -70 -4t-94 18q-8 2 -8 12zM230 492q0 -66 8 -112l2 -2q14 18 46 64t58 78l132 164q26 32 37 50t19 26t19 16t17 14q-42 32 -104 32q-138 0 -188 -144q-46 -120 -46 -186zM284 238q16 -24 47 -54t123 -44l60 -6q60 0 102 50 q18 20 48 102t30 150q0 166 -52 264l-94 -116l-172 -232q-8 -10 -38 -40t-52 -72z" />
<glyph unicode="&#xf9;" horiz-adv-x="876" d="M-2 852q18 30 42 44l20 16q14 10 34 14t49 12t45 8t24 -2q52 -12 68 -46q2 -144 2 -260l-2 -354q54 -92 152 -92q66 0 98 35t54 91l-2 468q-16 20 -56 20h-30q-68 0 -68 54q0 40 30 61t63 23t58 6t69 4t71 -12t35 -14t24 -10q22 -10 22 -30v-6q0 -14 -21 -32t-25 -30 v-566l38 -54q6 -6 25 -18t41 -30l-66 -84q-44 -48 -162 -86q-22 0 -34 9t-27 34t-31 43q-18 2 -34 -4t-30 -10t-74 -29t-102 -25h-10q-66 2 -119 50t-75 140v164q0 -12 -2 -12v408q-10 18 -46 28t-47 33t-1 41zM58 1174q28 68 56 94q30 26 72 34q116 -16 214 -56t150 -58 t120 -50l-46 -62q-40 -54 -71 -54t-219 77t-262 77q-8 0 -14 -2z" />
<glyph unicode="&#xfa;" horiz-adv-x="876" d="M-2 852q18 30 42 44l20 16q14 10 34 14t49 12t45 8t24 -2q52 -12 68 -46q2 -144 2 -260l-2 -354q54 -92 152 -92q66 0 98 35t54 91l-2 468q-16 20 -56 20h-30q-68 0 -68 54q0 40 30 61t63 23t58 6t69 4t71 -12t35 -14t24 -10q22 -10 22 -30v-6q0 -14 -21 -32t-25 -30 v-566l38 -54q6 -6 25 -18t41 -30l-66 -84q-44 -48 -162 -86q-22 0 -34 9t-27 34t-31 43q-18 2 -34 -4t-30 -10t-74 -29t-102 -25h-10q-66 2 -119 50t-75 140v164q0 -12 -2 -12v408q-10 18 -46 28t-47 33t-1 41zM262 1104q0 6 4 10q52 24 130 52l186 72q66 26 168 40 q38 -8 66 -28t62 -100q-6 2 -16 2q-70 0 -258 -76t-206 -76t-77 43t-59 61z" />
<glyph unicode="&#xfb;" horiz-adv-x="876" d="M-2 852q18 30 42 44l20 16q14 10 34 14t49 12t45 8t24 -2q52 -12 68 -46q2 -144 2 -260l-2 -354q54 -92 152 -92q66 0 98 35t54 91l-2 468q-16 20 -56 20h-30q-68 0 -68 54q0 40 30 61t63 23t58 6t69 4t71 -12t35 -14t24 -10q22 -10 22 -30v-6q0 -14 -21 -32t-25 -30 v-566l38 -54q6 -6 25 -18t41 -30l-66 -84q-44 -48 -162 -86q-22 0 -34 9t-27 34t-31 43q-18 2 -34 -4t-30 -10t-74 -29t-102 -25h-10q-66 2 -119 50t-75 140v164q0 -12 -2 -12v408q-10 18 -46 28t-47 33t-1 41zM260 970q24 64 86 182q40 20 55 20t29 -8q26 -38 37 -75 t21 -65t18 -58v-2q0 -10 -39 -10t-42 5t-17 47t-34 52q-14 -42 -22 -90q0 -8 -46 -8t-46 10z" />
<glyph unicode="&#xfc;" horiz-adv-x="876" d="M-2 852q18 30 42 44l20 16q14 10 34 14t49 12t45 8t24 -2q52 -12 68 -46q2 -144 2 -260l-2 -354q54 -92 152 -92q66 0 98 35t54 91l-2 468q-16 20 -56 20h-30q-68 0 -68 54q0 40 30 61t63 23t58 6t69 4t71 -12t35 -14t24 -10q22 -10 22 -30v-6q0 -14 -21 -32t-25 -30 v-566l38 -54q6 -6 25 -18t41 -30l-66 -84q-44 -48 -162 -86q-22 0 -34 9t-27 34t-31 43q-18 2 -34 -4t-30 -10t-74 -29t-102 -25h-10q-66 2 -119 50t-75 140v164q0 -12 -2 -12v408q-10 18 -46 28t-47 33t-1 41zM140 1113q0 55 31 100t86 45t85 -54t30 -97t-34 -78t-74 -35 t-59 4t-29 16q-36 44 -36 99zM440 1113q0 55 31 100t86 45t85 -54t30 -97t-34 -78t-74 -35t-59 4t-29 16q-36 44 -36 99z" />
<glyph unicode="&#xfd;" horiz-adv-x="982" d="M0 -380q0 30 18 80q6 46 21 66t38 31t37 11t42 -11t42 -11t26 6q58 32 82 82t34 101t14 70t4 49t-25 157t-64 243t-121 282q-52 8 -77 24t-38 44t-13 43t22 39l36 22q48 26 76 29t32 3q12 4 64 6t76 2q66 0 98 -34t32 -68t-12 -47t-24 -13l-40 4q-12 0 -22 -11t-10 -27 l12 -60q20 -132 102 -318q22 -12 47 -12t57 22q58 112 80 170t32 150l6 48q0 24 -12 37t-24 13l-30 -4q-12 0 -25 16t-13 42t20 52q68 36 182 42l40 2q56 0 92 -22q42 -46 42 -80t-8 -50t-8 -17t-4 -2t-7 0t-17 -3l-30 -10l-290 -614l-140 -278l-218 -406q-36 -14 -80 -14 t-136 68q-18 26 -18 56zM288 1140q0 6 4 10q52 24 130 52l186 72q66 26 168 40q38 -8 66 -28t62 -100q-6 2 -16 2q-70 0 -258 -76t-206 -76t-77 43t-59 61z" />
<glyph unicode="&#xfe;" horiz-adv-x="1134" d="M42 -393q0 23 60 73q18 8 37 8t37 -15t28 -15t32 22l4 418q10 164 10 676l-2 552q-10 -10 -58 -10t-128 16q-20 22 -20 62t38 74h82l462 -4h72q8 0 18 -19t10 -48t-22 -59q-6 -8 -106 -13t-116 -15t-16 -51t4 -71q8 -64 18 -64h40q142 0 242 -30t198 -116q46 -40 64 -81 t36 -133t18 -190t-35 -195t-51 -136t-44 -91q-50 -90 -158 -146q-50 -26 -94 -26t-115 13t-115 13q0 -42 16 -294q32 -6 66 -6l100 4q92 0 126 -62q10 -20 10 -38t-46 -56l-444 -16q-114 0 -232 14q-26 32 -26 55zM456 546q0 -242 16 -380q32 -30 79 -30t131 59t117 125 t51 161t18 153q0 108 -62 218q-46 82 -150 118q-60 20 -89 20t-95 -20q-16 -182 -16 -424z" />
<glyph unicode="&#xff;" horiz-adv-x="982" d="M0 -380q0 30 18 80q6 46 21 66t38 31t37 11t42 -11t42 -11t26 6q58 32 82 82t34 101t14 70t4 49t-25 157t-64 243t-121 282q-52 8 -77 24t-38 44t-13 43t22 39l36 22q48 26 76 29t32 3q12 4 64 6t76 2q66 0 98 -34t32 -68t-12 -47t-24 -13l-40 4q-12 0 -22 -11t-10 -27 l12 -60q20 -132 102 -318q22 -12 47 -12t57 22q58 112 80 170t32 150l6 48q0 24 -12 37t-24 13l-30 -4q-12 0 -25 16t-13 42t20 52q68 36 182 42l40 2q56 0 92 -22q42 -46 42 -80t-8 -50t-8 -17t-4 -2t-7 0t-17 -3l-30 -10l-290 -614l-140 -278l-218 -406q-36 -14 -80 -14 t-136 68q-18 26 -18 56zM274 1149q0 55 31 100t86 45t85 -54t30 -97t-34 -78t-74 -35t-59 4t-29 16q-36 44 -36 99zM574 1149q0 55 31 100t86 45t85 -54t30 -97t-34 -78t-74 -35t-59 4t-29 16q-36 44 -36 99z" />
<glyph unicode="&#x152;" horiz-adv-x="1890" d="M74 748q0 236 142 420q248 322 574 322q58 0 98 -8h156l450 6q70 0 250 -32q2 -34 3 -68t2 -51t1 -35t1 -27t2 -17t4 -16t6 -15t8 -21t11 -29t30 -38t24 -35v-4l-2 -4q-98 -32 -131 -32t-53 2q-56 6 -122 10q-6 8 -6 13t21 24t21 41t-2 30l-14 58q-2 8 -15 16t-29 30 q-76 14 -149 14t-127 -10t-66 -10l-30 2q-24 0 -38 -16q-2 -92 -2 -228t2 -250q152 -28 177 -28t79 12q36 24 36 84l-2 54q0 62 36 84q22 14 55 14t63 -32q0 -106 8 -580q-58 -24 -83 -24t-61 42q-4 16 -4 45t14 53t14 31t-7 22t-19 24t-19 12t-30 9t-63 19t-72 13 q-108 0 -138 -58q-24 -120 -29 -186t-5 -206q20 -44 68 -56q112 -28 196 -28q130 0 298 12q64 34 82 94q22 86 90 166q50 -58 50 -122v-26q2 -26 2 -72q0 -112 -64 -162h-896q-38 -18 -98 -18q-158 0 -396 150q-168 108 -232 226q-38 72 -54 185t-16 205zM404 614 q0 -126 48 -212t99 -125t149 -87q26 -12 74 -12h32q44 450 44 674q0 416 -14 506q-8 0 -17 -7t-49 -29l-50 -28q-66 -36 -88 -54l-36 -28q-24 -20 -38 -36l-34 -40q-58 -68 -80 -144t-26 -114t-8 -126z" />
<glyph unicode="&#x153;" horiz-adv-x="1136" d="M52 448q0 70 28 162q28 94 59 150t95 108q114 88 288 88l122 -4h16l126 4q44 0 67 -5t47 -9l30 -6q38 -6 48 -14t22 -16q22 -14 52 -73t30 -109t-21 -106t-59 -60q-242 -22 -321 -22t-81 2q-4 -36 -4 -66q0 -192 90 -270q30 -26 58 -29t66 -7l66 -6q58 0 80 40 q8 12 14 36t8 30q10 32 38 32t47 -16t19 -38v-2q-8 -102 -14 -114q-54 -122 -172 -122l-68 4q-52 0 -130 6h-10l-86 -8h-26l-100 2l-52 -2q-132 0 -230 92t-122 200q-20 78 -20 148zM244 468q0 -24 8 -88q22 -128 80 -184t130 -56q16 0 22 2l18 170q0 12 -10 59t-10 86 t14 133t17 147t7 75l4 4q-36 4 -72 4t-82 -30t-80 -112q-46 -132 -46 -210zM628 692q0 -8 6 -18q10 -10 124 -10t118 22l6 70q0 36 -26 55t-59 19t-77 -30q-92 -62 -92 -108z" />
<glyph unicode="&#x178;" horiz-adv-x="1518" d="M28 1308q0 44 24 74q206 16 244 16l112 -4q52 0 212 6q42 -32 42 -72q0 -52 -52 -52l-82 8q-32 0 -44 -22q50 -134 132 -308t124 -306l358 580q-24 10 -65 14t-69 14q-40 18 -40 63t54 81l96 8q42 2 58 4q32 4 47 4t34 -1t84 -6t143 -9q30 -26 30 -56t-14 -46 q-20 -30 -62 -30l-100 10q-36 0 -60 -16q-38 -66 -98 -182l-96 -178q-100 -176 -210 -322q-4 -52 -10 -104l-8 -84q-2 -30 -2 -77t14 -179q2 -22 26 -22l94 18q20 0 41 -20t21 -41t-10 -37q-262 -26 -318 -26t-296 20q-16 20 -16 47t25 49t51 22l100 -16q28 0 44 18 q18 188 18 426q-74 154 -213 350t-203 304q-12 6 -24 6l-72 -16q-10 0 -24 10q-40 36 -40 80zM528 1543q0 55 31 100t86 45t85 -54t30 -97t-34 -78t-74 -35t-59 4t-29 16q-36 44 -36 99zM828 1543q0 55 31 100t86 45t85 -54t30 -97t-34 -78t-74 -35t-59 4t-29 16 q-36 44 -36 99z" />
<glyph unicode="&#x2c6;" horiz-adv-x="336" d="M64 1050q24 64 86 182q40 20 55 20t29 -8q26 -38 37 -75t21 -65t18 -58v-2q0 -10 -39 -10t-42 5t-17 47t-34 52q-14 -42 -22 -90q0 -8 -46 -8t-46 10z" />
<glyph unicode="&#x2dc;" horiz-adv-x="692" d="M110 1287q0 15 3 22t10 13t11 9t16 10t14 9q54 32 96 32h10q30 -4 55 -20t34 -20t31 -16t36 -12h8q20 2 42 31t42 29q58 0 64 -48q0 -16 -18 -26t-26 -15t-25 -21t-35 -31t-58 -19h-2q-34 0 -78 38t-78 38h-4q-20 0 -45 -27t-45 -27h-6q-22 4 -37 20t-15 31z" />
<glyph unicode="&#x2000;" horiz-adv-x="946" />
<glyph unicode="&#x2001;" horiz-adv-x="1892" />
<glyph unicode="&#x2002;" horiz-adv-x="946" />
<glyph unicode="&#x2003;" horiz-adv-x="1892" />
<glyph unicode="&#x2004;" horiz-adv-x="630" />
<glyph unicode="&#x2005;" horiz-adv-x="473" />
<glyph unicode="&#x2006;" horiz-adv-x="315" />
<glyph unicode="&#x2007;" horiz-adv-x="315" />
<glyph unicode="&#x2008;" horiz-adv-x="236" />
<glyph unicode="&#x2009;" horiz-adv-x="378" />
<glyph unicode="&#x200a;" horiz-adv-x="105" />
<glyph unicode="&#x2010;" horiz-adv-x="692" d="M48 424q0 34 28 64q46 54 142 54q6 0 10 -2h16q62 4 68 6q60 20 149 20t133 -43t44 -86t-18 -69t-35 -40t-47 -21t-42 -9q-28 -4 -112 -4l-138 -6q-124 0 -180 78q-18 26 -18 58z" />
<glyph unicode="&#x2011;" horiz-adv-x="692" d="M48 424q0 34 28 64q46 54 142 54q6 0 10 -2h16q62 4 68 6q60 20 149 20t133 -43t44 -86t-18 -69t-35 -40t-47 -21t-42 -9q-28 -4 -112 -4l-138 -6q-124 0 -180 78q-18 26 -18 58z" />
<glyph unicode="&#x2012;" horiz-adv-x="692" d="M48 424q0 34 28 64q46 54 142 54q6 0 10 -2h16q62 4 68 6q60 20 149 20t133 -43t44 -86t-18 -69t-35 -40t-47 -21t-42 -9q-28 -4 -112 -4l-138 -6q-124 0 -180 78q-18 26 -18 58z" />
<glyph unicode="&#x2013;" horiz-adv-x="1126" d="M48 424q0 34 49 64q79 54 246 54q10 0 17 -2h28q108 4 118 6q104 20 258.5 20t231 -43t76.5 -86t-31 -69t-60.5 -40t-82 -21t-72.5 -9q-49 -4 -195 -4l-239 -6q-216 0 -313 78q-31 26 -31 58z" />
<glyph unicode="&#x2014;" horiz-adv-x="2150" d="M48 424q0 34 97 64q160 54 493 54q21 0 35 -2h55q216 4 236 6q209 20 518 20t461.5 -43t152.5 -86t-62.5 -69t-121.5 -40t-163 -21t-146 -9q-97 -4 -389 -4l-479 -6q-430 0 -625 78q-62 26 -62 58z" />
<glyph unicode="&#x2018;" horiz-adv-x="576" d="M56 1120l2 46q8 134 94 216q14 12 42 42t36 35t39 18t70 15t109 4q4 -4 4 -13t-28 -31l-60 -48q-32 -24 -59 -76t-27 -116v-16q40 -24 96 -36t80 -42q36 -48 36 -90t-10 -92q-32 -152 -160 -152q-88 0 -176 96t-88 240z" />
<glyph unicode="&#x2019;" horiz-adv-x="576" d="M58 1254q0 42 10 92q32 152 160 152q88 0 176 -96t88 -240l-2 -46q-8 -134 -94 -216q-14 -12 -42 -42t-36 -35t-39 -18t-70 -15t-109 -4q-4 4 -4 13t28 31l60 48q32 24 59 76t27 116v16q-40 24 -96 36t-80 42q-36 48 -36 90z" />
<glyph unicode="&#x201c;" horiz-adv-x="1076" d="M56 1120l2 46q8 134 94 216q14 12 42 42t36 35t39 18t70 15t109 4q4 -4 4 -13t-28 -31l-60 -48q-32 -24 -59 -76t-27 -116v-16q40 -24 96 -36t80 -42q36 -48 36 -90t-10 -92q-32 -152 -160 -152q-88 0 -176 96t-88 240zM556 1120l2 46q8 134 94 216q14 12 42 42t36 35 t39 18t70 15t109 4q4 -4 4 -13t-28 -31l-60 -48q-32 -24 -59 -76t-27 -116v-16q40 -24 96 -36t80 -42q36 -48 36 -90t-10 -92q-32 -152 -160 -152q-88 0 -176 96t-88 240z" />
<glyph unicode="&#x201d;" horiz-adv-x="1076" d="M58 1254q0 42 10 92q32 152 160 152q88 0 176 -96t88 -240l-2 -46q-8 -134 -94 -216q-14 -12 -42 -42t-36 -35t-39 -18t-70 -15t-109 -4q-4 4 -4 13t28 31l60 48q32 24 59 76t27 116v16q-40 24 -96 36t-80 42q-36 48 -36 90zM558 1254q0 42 10 92q32 152 160 152 q88 0 176 -96t88 -240l-2 -46q-8 -134 -94 -216q-14 -12 -42 -42t-36 -35t-39 -18t-70 -15t-109 -4q-4 4 -4 13t28 31l60 48q32 24 59 76t27 116v16q-40 24 -96 36t-80 42q-36 48 -36 90z" />
<glyph unicode="&#x2022;" horiz-adv-x="606" d="M150 766q0 50 24 92q46 90 126 90t126 -90q30 -54 30 -106t-30 -92q-50 -64 -138 -64t-113 60t-25 110z" />
<glyph unicode="&#x2026;" horiz-adv-x="956" d="M12 766q0 50 24 92q46 90 126 90t126 -90q30 -54 30 -106t-30 -92q-50 -64 -138 -64t-113 60t-25 110zM328 748q0 50 24 92q46 90 126 90t126 -90q30 -54 30 -106t-30 -92q-50 -64 -138 -64t-113 60t-25 110zM636 748q0 50 24 92q46 90 126 90t126 -90q30 -54 30 -106 t-30 -92q-50 -64 -138 -64t-113 60t-25 110z" />
<glyph unicode="&#x202f;" horiz-adv-x="378" />
<glyph unicode="&#x2039;" horiz-adv-x="628" d="M58 514q0 22 12 34q46 92 114 179t96 137t54 76q50 52 124 52t104 -48q8 -10 8 -40t-20 -66q-6 -14 -22 -14l-32 4q-14 0 -26 -14t-62 -66q-108 -106 -190 -214q28 -72 73 -127t112 -122t111 -125q22 -58 22 -73t-12 -33q-64 -28 -109 -31t-61 -5h-6q-46 0 -88 63 t-62 143q-2 10 -71 126t-69 164z" />
<glyph unicode="&#x203a;" horiz-adv-x="628" d="M58 106q0 30 20 66q6 14 22 14l32 -4q14 0 26 14t62 66q108 106 190 214q-28 72 -73 127t-112 122t-111 125q-22 58 -22 73t12 33q64 28 109 31t61 5h6q46 0 88 -63t62 -143q2 -10 71 -126t69 -164q0 -22 -12 -34q-46 -92 -114 -179t-96 -137t-54 -76q-50 -52 -124 -52 t-104 48q-8 10 -8 40z" />
<glyph unicode="&#x205f;" horiz-adv-x="473" />
<glyph unicode="&#x20ac;" horiz-adv-x="1682" d="M34 513q0 33 54 75t204 42h20v24q0 60 6 108q-176 4 -256 78q-28 24 -28 57t55 75t209 42h26q48 0 72 2q30 60 108 166t156 170t186 111t232 47l78 -2q110 -2 204 -40q172 -58 220 -114q20 -22 44 -73t24 -129t-84 -242q-50 34 -66 106t-32 92l-58 80q-42 60 -58 78 t-58 46q-76 56 -190 56t-241 -101t-181 -229l58 -6q22 0 50 -8l24 -6q36 -10 60 -34q46 -40 46 -78t-28 -66q-70 -70 -268 -70l-2 -48q0 -22 4 -66q54 0 82 -4t44 -6t24 -4t21 -4t22 -6t19 -8q20 -8 36 -24q46 -40 46 -78t-28 -66q-50 -50 -152 -64q80 -100 162 -142 t204 -56q32 -4 48 -4q80 0 204 49t174 57h6q26 0 26 -46t-32 -88q-64 -84 -130 -110l-64 -26q-24 -10 -76 -14l-76 -8q-40 -4 -172 -4h-30q-134 0 -255 65t-193 133t-136 178l-2 2h-56q-196 0 -278 78q-28 24 -28 57z" />
<glyph unicode="&#x2122;" horiz-adv-x="1688" d="M37 1259q21 94 21 106q0 20 21 90q13 13 22.5 15t20 3t31 4.5t61 3.5t112.5 -7.5t117 -7.5t111.5 9t101.5 9q85 0 113 -26l23 -24q2 -2 7.5 -13t6.5 -20q0 -18 48 -131q-5 -19 -18.5 -31.5t-26 -12.5t-15.5 1q-33 46 -48.5 92t-27 69t-43.5 37q-76 -18 -188 -25 q0 -112 8 -297.5t9 -267.5q0 -12 15 -12l33 3q15 0 23.5 -12t8.5 -35.5t-20 -40.5q-129 0 -195.5 7.5t-140.5 20.5q-16 16 -16 32.5t8 27.5q15 21 45 21l59 -5q10 0 15 1l-1 52q0 96 12 224t12 182.5t-3 104.5q-18 1 -57 5.5t-73 4.5l-32 -1q-34 -20 -41.5 -47t-17.5 -72.5 t-44 -93.5q-6 -5 -14 -5q-23 0 -43 62zM831 1395q0 23 41 43q48 12 82.5 12t107.5 -20q46 -113 71 -190.5t46 -130.5t80 -166l261 506q28 16 46.5 16t73.5 -19q18 -21 18 -37.5t-13 -25.5v-1q0 -13 -18 -13l-28 2q-25 0 -25 -19q-10 -343 -10 -388t2 -125q6 -8 26 -10 q33 -3 33 -38l-8 -59q-51 -7 -85 -7l-111 7v9l-2 36q0 39 38 39h20q18 0 26 10q9 73 9 142l-6 288v57q-68 -149 -124 -306.5t-78 -207t-25 -55t-5 -8.5q-5 -8 -15 -8h-5q-21 0 -47 34q-38 98 -71.5 199.5t-65 179t-96.5 203.5q15 -152 15 -254l-3 -192v-49q8 -15 38 -25 q41 -12 41 -41q0 -8 -5 -22.5t-6 -22.5q-36 -1 -76.5 -5t-80.5 -4l-48 1q-1 8 -7 23t-6 22t5 15.5t21 8.5l18 -1q14 0 20 8q-4 105 -4 184l4 371q-8 11 -35.5 11.5t-32.5 14.5q-1 3 -1 8z" />
<glyph unicode="&#xe000;" horiz-adv-x="980" d="M0 0v980h980v-980h-980z" />
</font>
</defs>
</svg>
