<?xml version="1.0" standalone="no"?>
<!DOCTYPE svg PUBLIC "-//W3C//DTD SVG 1.1//EN" "http://www.w3.org/Graphics/SVG/1.1/DTD/svg11.dtd" >
<svg xmlns="http://www.w3.org/2000/svg">
<metadata></metadata>
<defs>
<font id="essays1743bold" horiz-adv-x="1160" >
<font-face units-per-em="2048" ascent="1518" descent="-530" />
<missing-glyph horiz-adv-x="1000" />
<glyph unicode="AE" horiz-adv-x="2192" d="M38 172v4q2 114 136 180q42 22 74 22q34 0 56 -22q30 46 92 234q50 144 77 218t63 151t46 97t69 121t93 159q6 14 22 20q10 6 59 39t99 56t92 23q30 0 54 -12h122q156 0 307 3t175 3q114 0 346 -36q40 -12 42 -44q4 -60 12 -98t14 -49t11 -19t5 -18q0 -12 -8 -42v-2 q0 -6 29 -23t29 -39q0 -38 -36 -54q-106 -30 -168 -30q-22 0 -75 4t-83 6q-24 4 -34 18q-32 32 -32 50q0 10 26 21t28 29q2 30 -36 52q-46 8 -100 8q-68 0 -188 -16q-8 0 -18 -5t-14 -1t-12 20q-4 -116 -4 -182q0 -78 2 -196q90 -16 116 -16q38 0 72 8q2 2 2 8q0 4 -3 27 t-3 39q0 72 68 112q34 20 76 20q62 0 106 -44l2 -2q10 -10 12 -110v-104q4 -182 6 -328q-2 -30 -30 -42q-50 -22 -94 -22q-64 0 -110 52q-18 28 -18 82q0 16 3 29t8 19t9 9t8 5h4v2q0 8 -73 26t-93 18t-44 -6q-36 -8 -40 -18q-34 -154 -34 -206q0 -10 1 -49t1 -73 q4 -6 32 -18q120 -24 220 -24q40 0 122 5t124 7q24 12 30 30t30 69t86 119q34 20 42 20q12 0 36 -18q16 -16 28 -32t18 -28t10 -29t5 -24t1 -26v-23q0 -10 1 -33t1 -35q0 -122 -84 -180q-10 -10 -30 -10l-1004 24q18 154 18 286q0 26 -1 62t-1 48q0 6 1 17t1 15h-10 q-20 0 -108 6t-154 6q-64 0 -136 -6q-44 -30 -44 -98q0 -22 8 -50q10 2 29 12t31 10q14 0 41 -19t27 -41q0 -16 2 -49t2 -51q0 -86 -36 -118q-54 -48 -132 -48q-30 0 -85 9t-75 9h-8q-150 -4 -154 -4q-40 -10 -48 -10q-42 0 -90 30q-12 8 -14 14l-8 6q-8 6 -15 12t-15 16 t-13 25t-5 31zM778 770q0 -14 3 -26t7 -18t8 -6q2 0 2 2q22 0 58 -1t52 -1q84 0 154 6q8 132 8 234v30q6 18 6 30q0 34 -56 45t-58 17l-180 -280q-4 -12 -4 -32z" />
<glyph unicode="ae" horiz-adv-x="1328" d="M42 292q0 70 24 136q60 150 300 244q52 20 94 20h8q16 0 22 6t12 32q4 14 4 46q0 98 -24 118h-6q-72 0 -94 -32q-6 -6 -9 -19t-3 -24t-1 -30t-3 -33q-8 -58 -53 -92t-103 -34q-70 0 -107 46t-37 110q0 62 29 126t75 104q34 28 73 46t63 23t75 12t67 9q52 6 90 6 q30 0 118 -4h158q126 0 226 -28q8 -2 45 -10t58 -16t50 -31t47 -59q44 -88 44 -162q0 -58 -24 -122q-30 -82 -98 -88q-32 -8 -246 -8q-138 0 -152 14l8 -22q10 -20 21 -51t15 -53q8 -46 13 -66t18 -42t35 -40q18 -16 96 -24q60 -4 64 -4q10 0 16 2t10 4t8 9t5 12t5 19t8 24 q22 66 90 66q44 0 78 -29t34 -73v-6q-4 -78 -11 -107t-31 -67q-66 -110 -208 -110q-28 0 -87 5t-89 5h-8q-28 0 -80 -6t-78 -6q-48 0 -82 18q-18 10 -31 23t-22 25t-11 14l-20 20q6 2 8 8v4q-2 0 -11 -9t-29 -26t-44 -31q-6 -2 -20 -13t-32 -21t-40 -14q-64 -12 -94 -12 q-106 0 -166 75t-60 193zM328 372q4 -98 26 -98l8 4q2 2 3 6t25 14q80 32 96 50q42 50 42 92q0 34 -22 56q-26 0 -96 -44l-10 -4q-8 -6 -20 -14t-24 -17t-20 -21t-8 -22v-2zM834 792q70 -4 136 -16q0 18 19 53t19 39v2q-12 10 -34 10q-36 0 -96 -40q-16 -10 -44 -48z" />
<glyph unicode="&#xfb01;" horiz-adv-x="1066" d="M32 82q0 32 20 62q14 22 53 30t45 12q2 54 4 232t4 222q-6 12 -22 22q-40 26 -56 48t-16 62q0 54 58 102q28 22 36 40q8 44 8 86q0 8 -1 31t-1 25q0 86 36 152q34 72 73 111t113 87q58 38 212 52q32 6 58 6q38 0 102 -22l22 -8q118 -40 118 -138q0 -42 -26 -70t-64 -28 q-28 0 -64 12q-16 4 -50 27t-46 25q-34 4 -44 4q-64 0 -122 -20q-16 -10 -30 -30t-18 -36l-14 -56q-20 -66 -20 -130q0 -12 1 -45t1 -41h6q32 0 166 7t170 7q146 0 190 -72q28 -44 28 -112q0 -20 -14 -92t-14 -90q0 -56 -5 -190t-5 -196q8 -10 30 -14q84 -18 84 -90 q0 -34 -36 -66h-420q-44 20 -58 34q-14 -12 -48 -34h-398q-46 38 -46 82zM396 352q0 -114 2 -170h2h20q36 0 68 -22t50 -46q52 38 118 42q38 2 54 14q-2 358 -40 530q-34 6 -78 6q-90 0 -148 -6l-38 -4q-10 -152 -10 -344z" />
<glyph unicode="&#xfb02;" horiz-adv-x="1094" d="M14 82q0 32 20 62q14 22 53 30t45 12q2 54 4 232t4 222q-6 12 -24 24q-72 44 -72 110q0 18 8 36q10 18 46 55t42 49q8 44 8 86v56q0 88 32 152q36 74 80 115t120 83q60 32 108 41t142 11h18q114 0 238 -62q48 -24 72 -94v-1088q64 -30 96 -78q14 -20 14 -48 q0 -14 -10 -60l-6 -22l-504 2q-38 46 -38 84q0 20 12 64q54 44 156 62l6 980q-2 4 -11 13l-12 12l-11 11t-13 11t-13 8t-15 6t-16 3t-19 2q-32 0 -88 -18q-8 -12 -21 -30t-20 -29t-16 -28t-13 -33q-18 -84 -18 -158v-44q16 0 58 6t52 6q48 0 86 -39t38 -81q0 -58 -48 -107 t-106 -49q-10 0 -76 6q-2 -30 -9 -92t-11 -117t-4 -113q0 -108 2 -162h4h20q42 0 69 -32t27 -70q0 -32 -42 -80h-398q-46 38 -46 82z" />
<glyph unicode="&#xfb03;" horiz-adv-x="1542" d="M14 82q0 40 25 66t67 30q16 2 26 8q2 56 4 233t4 221q-6 10 -36 32t-40 34q-20 36 -20 68q0 46 54 96q34 30 42 44q8 44 8 86v56q0 154 108 264q42 40 112 86q42 28 119 42t145 14q30 0 50 -4t42 -11t32 -9q40 -10 72 -40q50 30 129 47t147 17q50 0 108 -20l22 -8 q118 -40 118 -138q0 -40 -25 -69t-67 -29q-26 0 -62 12q-24 6 -59 29t-37 23q-34 4 -46 4q-74 0 -117 -25t-51 -61l-14 -56q-20 -66 -20 -130q0 -14 1 -46t1 -40q26 0 171 7t169 7q134 0 192 -90q28 -46 28 -94q0 -26 -14 -98t-14 -84q0 -58 -5 -191t-5 -195q8 -10 30 -14 q84 -18 84 -90q0 -34 -36 -66h-420q-44 20 -58 34q-14 -12 -48 -34h-398l-30 6q-10 2 -18 4l-24 -10h-400q-46 38 -46 82zM378 352q0 -114 2 -170h4h20q30 0 62 -20q70 24 126 28q8 0 12 4q2 60 4 230t4 218q-12 30 -34 42t-66 12q-40 0 -124 -10q-10 -152 -10 -334z M382 988q0 -14 1 -43t1 -41q0 -8 152 -8q46 0 55 5t21 35q8 46 8 60q0 8 -1 35t-1 33q0 86 52 176q-24 20 -38 22q-36 4 -48 4q-66 0 -113 -26t-55 -60l-14 -56q-20 -68 -20 -136zM850 352q0 -114 2 -170h4h20q34 0 66 -22t48 -46q52 38 120 42q38 2 54 14q-2 232 -4 282 q-4 104 -36 248q-34 6 -76 6q-54 0 -188 -10q-10 -154 -10 -344z" />
<glyph unicode="&#xfb04;" horiz-adv-x="1502" d="M14 82q0 40 25 66t67 30q16 2 26 8q2 56 4 233t4 221q-6 10 -36 32t-40 34q-20 36 -20 68q0 46 54 96q34 30 42 44q8 44 8 86v56q0 154 108 264q44 40 118 86q90 56 224 56q102 0 194 -54q58 30 102 39t136 11h18q98 0 188 -42q4 -4 17 -10t19 -9t17 -10t17 -13l14 -14 t14 -20q8 -14 16 -38v-1086q40 -20 58 -35t38 -45q14 -20 14 -48q0 -14 -10 -62l-6 -20l-476 2q-36 46 -36 84q0 20 12 64q44 40 140 62l-2 980q-2 4 -10 12t-9 10t-6 8t-7 7t-7 4t-8 5t-8 5t-11 5q-20 10 -40 10q-30 0 -84 -18q-8 -12 -21 -32t-20 -31t-15 -27t-10 -30 q-20 -74 -20 -176v-26q16 2 55 7t53 5q44 0 81 -38t37 -82q0 -56 -45 -106t-103 -50q-6 0 -72 6q-12 -144 -12 -322q0 -108 2 -162h4h22q50 0 68 -26q28 -42 28 -76q0 -32 -38 -80h-826q-46 38 -46 82zM386 182h4h20q26 0 48 -10q16 8 45 13t37 9q2 56 4 222t4 210 q-4 8 -44 36q-16 -2 -34 -2q-4 0 -74 6q-10 -144 -10 -322v-162zM390 1002q0 -10 1 -40t1 -38q12 2 56 9t56 7q16 0 32 -6q20 22 20 74v44q0 106 62 200q-28 14 -70 14q-48 0 -81 -25t-43 -61l-14 -56q-20 -60 -20 -122z" />
<glyph horiz-adv-x="2048" />
<glyph horiz-adv-x="2048" />
<glyph unicode="&#xd;" horiz-adv-x="682" />
<glyph unicode=" "  horiz-adv-x="1000" />
<glyph unicode="&#x09;" horiz-adv-x="1000" />
<glyph unicode="&#xa0;" horiz-adv-x="1000" />
<glyph unicode="!" horiz-adv-x="602" d="M148 154v18q10 102 102 140q46 20 88 20q66 0 108 -43t42 -103q0 -68 -56 -122q-52 -50 -128 -50q-64 0 -110 38t-46 102zM162 1252q0 40 4 148q2 30 53 66t117 36q74 0 136 -52q18 -14 18 -34q2 -44 2 -126q0 -138 -10 -269t-19 -196t-29 -182t-24 -141q-4 -22 -44 -53 t-84 -31q-28 0 -53 13t-27 37q-18 128 -18 196q0 14 1 40t1 42q0 8 -1 25t-1 27q-2 46 -12 203t-10 251z" />
<glyph unicode="&#x22;" horiz-adv-x="1100" d="M38 1160q0 60 22 130q2 6 9 28t10 32t12 31t18 33t22 27t30 25t39 18q38 12 74 12q124 0 216 -120q56 -74 56 -170q0 -60 -22 -152q-12 -54 -55 -111t-43 -117q0 -22 4 -82t4 -92q0 -96 -39 -155t-149 -61q-22 0 -38 14q-44 46 -44 158q0 42 7 129t7 127v30 q-56 34 -98 106t-42 160zM570 1160q0 60 22 130q2 6 9 28t10 32t12 31t18 33t22 27t30 25t39 18q38 12 74 12q124 0 216 -120q56 -74 56 -170q0 -60 -22 -152q-12 -54 -55 -111t-43 -117q0 -22 4 -82t4 -92q0 -96 -39 -155t-149 -61q-22 0 -38 14q-44 46 -44 158q0 42 7 129 t7 127v30q-56 34 -98 106t-42 160z" />
<glyph unicode="#" horiz-adv-x="1052" d="M40 340q0 36 41 70t85 46q-2 68 -6 190q-118 44 -118 114q0 38 37 71t95 49q16 64 52 114t80 50q40 0 76 -50t44 -100q38 2 107 12t75 10q44 126 120 126q38 0 71 -37t47 -97q74 -14 114 -48q52 -50 52 -92q0 -44 -45 -79t-105 -51q2 -14 20 -160q52 -14 91 -52t39 -80 q0 -48 -44 -80t-98 -48q-12 -60 -51 -103t-85 -43q-44 0 -76 39t-48 89l-168 -6q-14 -48 -52 -85t-78 -37q-48 0 -80 44t-48 98q-62 20 -103 53t-41 73zM442 616q2 -22 9 -70t9 -72q20 2 60 8t68 10l-6 130z" />
<glyph unicode="$" horiz-adv-x="736" d="M32 488q0 48 28 114t66 66q28 0 64 -40l-2 54q-64 20 -104 90t-40 180v22q6 138 136 238v206q0 52 36 77t86 25q42 0 74 -16q88 -44 116 -234q112 -40 152 -144q16 -42 16 -70q0 -42 -28 -110t-62 -68q-28 0 -66 52v-40q6 -4 41 -30t48 -36t37 -34t39 -51t25 -59 q18 -54 18 -112q0 -98 -53 -176t-155 -110q6 -80 24 -162q4 -16 4 -24q0 -42 -37 -62t-95 -20q-76 0 -142 30t-66 74q0 14 4 22v130q-80 20 -118 76q-46 70 -46 142z" />
<glyph unicode="%" horiz-adv-x="1634" d="M28 186v8q4 78 114 120q26 12 60 12q12 0 24 -2t18 -5t11 -7t9 -6l2 -2q104 126 193 226t136 147t147 148t152 153q96 98 134 136t74 82t38 48t22 47t32 65q-52 -12 -68 -12q-12 0 -17 5t-11 25q-6 14 -6 30q0 60 64 92q12 6 24 6q72 0 134 4t70 4q38 0 188 -48 q46 -18 46 -84q0 -42 -34 -82t-74 -40q-30 0 -44 24l-412 -496q-62 -76 -144 -171t-132 -158t-128 -173q-4 -14 -34 -28q2 -2 6 -2h8q14 0 31 3t23 3q14 0 28 -22t14 -46q0 -32 -22 -59t-48 -46t-26 -21q-18 -20 -40 -20q-72 0 -155 -6t-119 -6q-56 0 -162 12q-20 2 -32 18 l-26 18q-28 16 -48 43t-20 63zM33 1220q0 60 31 122q23 45 53 73.5t75 46.5q50 20 98 20t108 -19q59 -18 97.5 -41t65.5 -69q39 -65 39 -133q0 -47 -19 -104q-39 -123 -145 -167q-53 -22 -102 -22q-63 0 -136 40q-51 28 -87 62t-57 86q-21 54 -21 105zM169 1193 q0 -27 15 -54q17 -28 37.5 -42t58.5 -24q20 -5 30 -5q18 0 39 11q34 18 50.5 37.5t26.5 53.5q6 21 6 37q0 30 -22 71q-11 24 -22.5 35t-32.5 20q-34 14 -59 14t-59 -17q-25 -14 -37.5 -32t-21.5 -52q-9 -32 -9 -53zM981 346q0 60 31 122q23 45 53 73.5t75 46.5q50 20 98 20 t108 -19q59 -18 97.5 -41t65.5 -69q39 -65 39 -133q0 -47 -19 -104q-39 -123 -145 -167q-53 -22 -102 -22q-63 0 -136 40q-51 28 -87 62t-57 86q-21 54 -21 105zM1117 319q0 -27 15 -54q17 -28 37.5 -42t58.5 -24q20 -5 30 -5q18 0 39 11q34 18 50.5 37.5t26.5 53.5 q6 21 6 37q0 30 -22 71q-11 24 -22.5 35t-32.5 20q-34 14 -59 14t-59 -17q-25 -14 -37.5 -32t-21.5 -52q-9 -32 -9 -53z" />
<glyph unicode="&#x26;" horiz-adv-x="1868" d="M46 556q0 70 30 152q94 250 158 250q6 0 14 -2t10 -2q6 0 8 4q0 2 -22 23t-43 57t-21 82q4 218 178 314q128 72 220 72q86 0 148 -64q38 -40 38 -88q0 -58 -45 -105t-101 -47q-24 0 -57 9t-41 9t-10 -2q-74 -48 -74 -82q0 -26 36 -26q8 0 27 1t29 1q110 0 144 -76 q14 -30 14 -60q0 -74 -90 -152q-48 -44 -120 -44q-16 0 -42 3t-32 3q-16 0 -18 -8q-52 -128 -52 -178t64 -144q24 -34 62 -55t63 -28t105 -25q110 -26 174 -26q62 0 156 24q102 26 151 51t91 83q64 90 64 174q0 50 -18 112q-36 136 -170 136q-64 0 -100 -48q-14 -22 8 -40h4 q2 0 51 19t83 19q56 0 88 -48q22 -30 22 -68q0 -72 -77 -131t-171 -59t-158 62q-78 76 -78 182q0 90 52 182q26 48 75 79t76 38t97 25q46 12 92 12q82 0 198 -35t134 -35q28 0 28 26v4q0 4 -32 7t-68 22t-46 63q-6 28 -6 52q0 86 57 144t157 58q86 0 153 -45t79 -123 q4 -32 4 -52q0 -182 -128 -292q-54 -46 -122 -46q-20 0 -50 4t-40 4q-34 0 -34 -18q0 -4 8 -18t16 -40t8 -62t12 -110t12 -114q0 -118 -86 -222q-12 -14 -46 -59t-52 -63t-51 -49t-71 -47t-86 -26q-224 -44 -322 -44q-100 0 -240 30q-124 28 -203 66t-143 122 q-132 172 -132 328z" />
<glyph unicode="'" horiz-adv-x="568" d="M38 1160q0 60 22 130q2 6 9 28t10 32t12 31t18 33t22 27t30 25t39 18q38 12 74 12q124 0 216 -120q56 -74 56 -170q0 -60 -22 -152q-12 -54 -55 -111t-43 -117q0 -22 4 -82t4 -92q0 -96 -39 -155t-149 -61q-22 0 -38 14q-44 46 -44 158q0 42 7 129t7 127v30 q-56 34 -98 106t-42 160z" />
<glyph unicode="(" horiz-adv-x="560" d="M40 478q0 170 48 368q46 190 110 320t186 260q26 28 56 28q36 0 65 -35t29 -73q0 -14 -6 -30q-106 -222 -140 -311t-60 -251q-34 -210 -34 -318q0 -124 36 -288q20 -90 42 -136t77 -140t113 -216q10 -24 10 -40q0 -52 -59 -89t-129 -37q-98 0 -130 68q-76 166 -112 267 t-60 245q-42 270 -42 408z" />
<glyph unicode=")" horiz-adv-x="584" d="M38 1264q0 52 59 89t129 37q98 0 130 -68q76 -166 112 -267t60 -245q42 -270 42 -408q0 -170 -48 -368q-46 -190 -110 -320t-186 -260q-26 -28 -56 -28q-36 0 -65 35t-29 73q0 14 6 30q106 222 140 311t60 251q34 210 34 318q0 124 -36 288q-20 90 -42 136t-77 140 t-113 216q-10 24 -10 40z" />
<glyph unicode="*" horiz-adv-x="1104" d="M24 960v20q0 62 31 84t89 22q16 0 54 -3t58 -3q28 0 56 6q-8 4 -34 15t-37 16t-33 16t-33 20t-24 21t-18 26t-5 30q0 42 42 92q60 74 110 74q40 0 98 -68t72 -78v8q0 14 -12 61t-12 71q0 94 142 94h4q56 0 76 -20t20 -62q0 -14 -4 -58t-4 -70v-26q20 16 44 62t51 78 t63 32q48 0 124 -62q72 -58 72 -104q0 -28 -24 -52t-60 -46t-46 -32q96 22 108 22q88 0 88 -124v-16q-4 -116 -150 -116q-8 0 -108 10q6 -4 36 -27t55 -43t47 -53t22 -65q0 -54 -64 -104q-66 -52 -108 -52q-38 0 -57 38t-28 86t-17 58q18 -118 18 -128q0 -138 -148 -138h-18 q-130 8 -130 110q0 26 10 78t10 74q-18 -16 -36 -70t-42 -94t-64 -40q-54 0 -132 68q-62 54 -62 100q0 24 16 46t47 40t56 30t63 27t50 21h-14q-34 0 -105 -18t-101 -18q-92 0 -102 134z" />
<glyph unicode="+" horiz-adv-x="720" d="M16 442q0 60 42 106q16 18 46 27t64 12t40 5v52q0 84 60 126q38 26 80 26q60 0 108 -42q58 -78 58 -138q8 -4 14 -4t22 2t26 2q50 0 88 -52q40 -54 40 -114q0 -48 -28 -88q-24 -36 -92 -36q-14 0 -37 2t-31 2q-12 0 -16 -2q0 -4 4 -34t4 -50q0 -68 -38 -96 q-54 -40 -114 -40q-48 0 -88 28q-20 12 -33 32t-19 44t-9 41t-5 38t-2 25q-4 2 -18 2q-4 0 -18 -1t-22 -1q-68 0 -100 44q-26 38 -26 82z" />
<glyph unicode="," horiz-adv-x="644" d="M80 -278q0 46 38 79t82 51t48 28q6 18 6 26q0 6 -2 18t-2 20l-14 4q-14 2 -35 8t-42 18t-38 35t-21 53q-6 38 -6 78q0 134 98 204q52 38 114 38q52 0 128 -32q70 -28 113 -97t43 -157q0 -34 -12 -106q-36 -182 -144 -296q-82 -86 -168 -90h-20q-166 0 -166 118z" />
<glyph unicode="-" horiz-adv-x="728" d="M20 418q0 60 42 106q60 68 182 68h28q36 0 94 12t96 12q26 0 40 -2q2 0 25 -4t30 -5t27 -7t31 -12t26 -18t27 -28q40 -54 40 -114q0 -48 -28 -88q-20 -30 -44 -50t-59 -28t-53 -11t-64 -4t-52 -1q-10 0 -60 -4t-78 -4q-150 0 -224 100q-26 38 -26 82z" />
<glyph unicode="." horiz-adv-x="662" d="M84 254q0 96 62 177t158 81q106 0 167 -93t61 -181t-65 -155t-169 -67q-62 0 -104 21t-54 38t-26 45q-30 74 -30 134z" />
<glyph unicode="/" horiz-adv-x="1646" d="M28 186v8q4 78 114 120q26 12 60 12q12 0 24 -2t18 -5t11 -7t9 -6l2 -2q104 126 193 226t136 147t147 148t152 153q96 98 134 136t74 82t38 48t22 47t32 65q-52 -12 -68 -12q-12 0 -17 5t-11 25q-6 14 -6 30q0 60 64 92q12 6 24 6q72 0 134 4t70 4q38 0 188 -48 q46 -18 46 -84q0 -42 -34 -82t-74 -40q-30 0 -44 24l-412 -496q-62 -76 -144 -171t-132 -158t-128 -173q-4 -14 -34 -28q2 -2 6 -2h8q14 0 31 3t23 3q14 0 28 -22t14 -46q0 -32 -22 -59t-48 -46t-26 -21q-18 -20 -40 -20q-72 0 -155 -6t-119 -6q-56 0 -162 12q-20 2 -32 18 l-26 18q-28 16 -48 43t-20 63z" />
<glyph unicode="0" d="M14 600q0 120 62 244q46 90 106 147t150 93q100 40 196 40t216 -38q118 -36 195 -82t131 -138q78 -130 78 -266q0 -94 -38 -208q-78 -246 -290 -334q-106 -44 -204 -44q-126 0 -272 80q-102 56 -174 124t-114 172q-42 108 -42 210zM286 546q0 -54 30 -108q34 -56 75 -84 t117 -48q40 -10 60 -10q36 0 78 22q68 36 101 75t53 107q12 42 12 74q0 60 -44 142q-22 48 -45 70t-65 40q-68 28 -118 28t-118 -34q-50 -28 -75 -64t-43 -104q-18 -64 -18 -106z" />
<glyph unicode="1" d="M284 118q0 66 32 121t62 55q16 0 38 -32q4 134 4 303t2 281l-14 -12q-12 -12 -22 -12q-12 0 -30 18t-35 58t-17 86q0 64 32 108t64 44q186 6 254 6q74 0 142 -6q4 -2 15 -5t17 -7q72 -60 72 -156q0 -52 -22 -102q-16 -32 -27 -39t-15 4t-6 19t-4 2q6 -554 8 -604q2 4 6 9 t6 8t6 5t9 -2t11 -14q50 -88 50 -152q0 -72 -72 -72q-60 -2 -126 -2h-38t-21 1t-9 1h-82q-106 0 -210 -2h-2q-78 0 -78 90z" />
<glyph unicode="2" d="M158 92q0 52 24 90q56 92 119 162t107 107t95 96t91 135q28 54 28 90q0 30 -18 55t-52 25q-30 0 -78 -18q-26 -8 -43 -24t-28 -33t-40 -50t-71 -69q-28 -16 -40 -16q-22 0 -48 47t-26 87q0 38 34 92q68 98 116 137t132 67q136 48 218 48q112 0 193 -78t81 -198 q0 -64 -32 -180q-18 -62 -50 -110t-63 -74t-67 -59t-56 -63q-6 -22 -8 -38h20q10 0 34 -1t46 -1q-40 10 -40 34q0 16 20 36t30 26q72 28 120 28q60 0 120 -40q28 -22 20 -52q-16 -72 -23 -102t-20 -59t-21 -37t-35 -40t-53 -66q-14 -18 -38 -18q-310 -16 -336 -16 q-16 0 -39 2t-87 4t-170 4q-66 0 -66 70z" />
<glyph unicode="3" d="M170 -286q0 92 68 164q22 18 106 18q18 0 35 -3t35 -3q4 0 17 1t21 1q22 0 41 -16t19 -32q0 -4 -1 -12t-1 -14q0 -56 18 -56q6 0 14 7t21 19t21 20q112 92 112 290q0 94 -98 94q-12 0 -68 -4q-8 0 -59 -32t-139 -40q-30 0 -58 32t-28 82q0 38 18 90t26 60q84 92 170 169 t154 155q2 0 2 4q0 16 -22 41t-48 25q-38 0 -62 -21t-37 -48t-48 -61t-89 -56q-24 -8 -32 -8q-58 0 -58 106q0 104 60 211t170 171q8 4 28 16t27 15t24 11t28 11t29 7t37 5t43 1q100 0 188 -58t88 -172q0 -30 -26 -166q-16 -80 -56 -130t-70 -77t-30 -53v-4q40 34 58 34 q24 0 64 -34q38 -30 61 -72t30 -72t17 -84q14 -94 14 -148q0 -122 -54 -256q-40 -98 -86 -160t-128 -106q-186 -98 -302 -98q-110 0 -187 69t-77 167z" />
<glyph unicode="4" d="M-2 108q0 50 18 86q88 144 165 273t93 160t69 105t96 127t169 205q20 26 68 26q40 0 74 -20t36 -52q18 -168 18 -284q0 -54 -4 -111t-13 -155t-15 -194h6q10 0 66 21t178 21q28 0 116 -4q28 -4 48 -34t20 -72q0 -88 -85 -165t-171 -77q-36 0 -94 18t-86 18h-8 q0 -38 4 -139t4 -149q0 -114 -18 -134q-62 -72 -144 -72q-48 0 -93 27t-45 57q-2 86 -2 198v156q0 44 -2 70h-22q-34 0 -85 -16t-99 -16q-68 0 -196 30q-66 16 -66 96zM266 262q0 -2 2 -2h2q76 4 84 4q0 2 116 10v212l-2 2q-16 0 -109 -103t-93 -123z" />
<glyph unicode="5" d="M38 -262q0 72 56 125t132 53q18 0 28 -2q50 -8 79 -40t40 -62t17 -32q44 -10 76 -10q108 0 172 88q76 100 76 204q0 92 -62 166q-20 22 -54 22q-22 0 -88 -14q-28 -6 -61 -44t-78 -73t-109 -41h-16q-46 0 -72 23t-26 51q0 2 1 5t1 5q18 78 44 204q76 342 114 436 q30 76 146 270q26 46 40 70q18 28 66 28q42 0 75 -32t55 -67t32 -39q40 -14 50 -8q8 6 8 22q0 6 -2 25t-2 31q0 74 56 114q26 18 58 18q30 0 58 -12q196 -84 196 -252q0 -34 -7 -69t-21 -68t-24 -53t-24 -46l-16 -26q-14 -26 -46 -22q-122 10 -182 10q-22 0 -44 -2t-34 -2 q-34 0 -114 10q-6 0 -12 6t-12 14t-8 10q-6 14 -12 50t-10 50q-32 -144 -102 -398q170 28 254 28q64 0 122 -18q44 -14 68 -23t57 -35t51 -64q44 -94 44 -186q0 -120 -82 -278q-70 -134 -165 -212t-245 -136q-70 -30 -150 -30q-52 0 -120 16q-92 22 -150 54t-98 102 q-24 42 -24 86z" />
<glyph unicode="6" d="M16 626q0 130 38 258q38 136 100 231t172 189q138 116 253 171t271 57q38 0 61 -3t55 -21t58 -54q10 -24 10 -34q0 -16 -20 -34q-86 -70 -170 -108t-120 -68q-16 -14 -52 -44t-48 -41t-37 -34t-37 -39t-31 -41t-33 -53t-30 -62q16 12 36 29t27 22t19 12t24 8t26 2t42 1 h86q216 -26 316 -166q112 -158 112 -312q0 -108 -52 -218q-48 -102 -152 -188t-212 -108q-94 -22 -172 -22q-102 0 -192 40q-122 52 -196 119t-102 177q-50 200 -50 334zM346 460q0 -108 82 -204q48 -54 178 -54q58 0 100 36q92 84 92 228q0 106 -16 164t-68 90 q-54 34 -116 34t-136 -38q-50 -26 -73 -61t-33 -99q-10 -60 -10 -96z" />
<glyph unicode="7" d="M42 1056q42 202 73 265t133 163q4 2 10 8q28 20 62 20q78 0 148 -80h596q4 -2 11 -4t10 -4t8 -4t8 -3t6 -3t5 -4t3 -4t2 -5t1 -5q0 -16 -10 -36q-128 -286 -229 -489t-178 -370t-207 -489q-8 -16 -12 -18q-2 -2 -14 -20t-25 -34t-38 -31t-53 -19q-32 -4 -51 -7t-25 -5 t-14 -3t-26 -2t-56 -1q-30 8 -42 15t-12 23q0 10 6 28q58 186 102 299t66 149t54 95t62 139q32 84 79 170t67 140t20 132q-6 14 -31 28t-63 14t-61 -8t-38 -21t-60 -51t-101 -78q-14 -10 -42 -10q-44 0 -85 23t-57 71q-4 18 -2 26z" />
<glyph unicode="8" d="M138 1106q0 114 64 228q58 100 224 142q90 24 170 24q110 0 230 -50q236 -98 236 -328q0 -54 -20 -128q-20 -66 -113 -154t-113 -116q148 -22 208 -136q40 -78 40 -164q0 -76 -36 -198q-14 -52 -25 -80t-38 -66t-69 -64q-120 -70 -250 -70q-102 0 -236 46 q-148 54 -202 180q-34 80 -34 156q0 82 46 206q22 58 52 95t49 47t45 18q-6 6 -34 20t-48 28t-49 54t-51 98q-46 118 -46 212zM398 1076q0 -26 14 -62t28 -52t42 -28q46 -20 86 -20t98 30q16 8 32 46t16 80q0 76 -56 112q-62 40 -106 40q-24 0 -60 -10q-32 -8 -48 -25 t-32 -55q-14 -30 -14 -56zM402 386q0 -32 22 -82q22 -52 68 -70q48 -18 80 -18q36 0 82 24q22 12 30 29t22 61q16 52 16 78q0 22 -16 58q-22 38 -80 58q-60 20 -88 20q-34 0 -66 -16q-24 -14 -36 -29t-22 -49q-12 -38 -12 -64z" />
<glyph unicode="9" d="M76 482q0 58 20 142q56 232 262 324q122 54 234 54q136 0 272 -76q56 -32 94 -79t54 -86t36 -105q34 -122 34 -232q0 -108 -46 -316q-28 -130 -67 -219t-117 -187t-156 -158t-192 -106q-62 -26 -108 -33t-140 -7q-34 2 -62 39t-28 75q0 24 16 44q90 100 195 160t131 82 q188 208 188 258q0 4 -3 7l-5 5h-4q-40 -24 -70 -38q-106 -16 -122 -16q-40 0 -74 10q-156 42 -232 148q-110 158 -110 310zM370 468q0 -68 36 -148q16 -34 33 -49t53 -27q40 -16 82 -16q46 0 110 26q64 24 82 66q32 72 32 136q0 78 -56 190q-20 46 -76 70q-60 22 -98 22 t-92 -22q-26 -12 -39 -27t-27 -51q-40 -102 -40 -170z" />
<glyph unicode=":" horiz-adv-x="770" d="M162 258q0 96 62 177t158 81q106 0 167 -93t61 -181t-65 -155t-169 -67q-62 0 -104 21t-54 38t-26 45q-30 74 -30 134zM162 878q0 96 62 177t158 81q106 0 167 -93t61 -181t-65 -155t-169 -67q-62 0 -104 21t-54 38t-26 45q-30 74 -30 134z" />
<glyph unicode=";" horiz-adv-x="770" d="M127 -20q0 39 38.5 67t83 43.5t48.5 23.5q6 15 6 22q0 5 -2 15.5t-2 16.5l-15 4q-14 2 -35 7t-42.5 15t-38.5 29.5t-21 45.5q-6 32 -6 66q0 114 99 173q53 32 115 32q53 0 130 -27q70 -24 113.5 -82.5t43.5 -133.5q0 -28 -12 -89q-36 -155 -145 -252q-83 -73 -170 -76 h-20q-168 0 -168 100zM188 892q0 96 62 177t158 81q106 0 167 -93t61 -181t-65 -155t-169 -67q-62 0 -104 21t-54 38t-26 45q-30 74 -30 134z" />
<glyph unicode="&#x3c;" horiz-adv-x="792" d="M20 514q0 40 46 72q12 8 84 77t122 107q14 12 52 51t79 64t103 37q54 10 96 10q94 0 144 -50q30 -24 30 -62q0 -48 -40 -88q-24 -30 -70 -30q-32 0 -32 8q0 2 2 2h-2q-50 -32 -116 -73t-105 -67t-63 -46q8 -14 44 -35t118 -73t172 -122q8 -8 12 -14l6 -8q6 -8 12 -18 t11 -25t5 -29q0 -36 -32 -62q-6 -6 -20 -10q-36 -10 -67 -16t-49 -8t-53 -3t-53 -3h-10q-38 0 -73 20t-54 39t-56 65t-51 62q-10 12 -66 58t-91 89t-35 81z" />
<glyph unicode="=" horiz-adv-x="720" d="M16 226q0 60 42 106q60 68 182 68h28q36 0 94 12t96 12q26 0 40 -2q2 0 25 -4t30 -5t27 -7t31 -12t26 -18t27 -28q40 -54 40 -114q0 -48 -28 -88q-20 -30 -44 -50t-59 -28t-53 -11t-64 -4t-52 -1q-10 0 -60 -4t-78 -4q-150 0 -224 100q-26 38 -26 82zM16 610q0 60 42 106 q60 68 182 68h28q36 0 94 12t96 12q26 0 40 -2q2 0 25 -4t30 -5t27 -7t31 -12t26 -18t27 -28q40 -54 40 -114q0 -48 -28 -88q-20 -30 -44 -50t-59 -28t-53 -11t-64 -4t-52 -1q-10 0 -60 -4t-78 -4q-150 0 -224 100q-26 38 -26 82z" />
<glyph unicode="&#x3e;" horiz-adv-x="792" d="M18 190q0 48 40 88q24 30 70 30q32 0 32 -8q0 -2 -2 -2h2q50 32 116 73t105 67t63 46q-8 14 -44 35t-118 73t-172 122q-8 8 -12 14l-6 8q-6 8 -12 18t-11 25t-5 29q0 36 32 62q6 6 20 10q36 10 67 16t49 8t53 3t53 3h10q38 0 73 -20t54 -39t56 -65t51 -62q10 -12 66 -58 t91 -89t35 -81q0 -40 -46 -72q-12 -8 -84 -77t-122 -107q-14 -12 -52 -51t-79 -64t-103 -37q-54 -10 -96 -10q-94 0 -144 50q-30 24 -30 62z" />
<glyph unicode="?" horiz-adv-x="768" d="M82 210q0 74 57 111t131 37q90 0 140 -64q44 -56 44 -116q0 -42 -24 -84q-32 -62 -132 -70h-10q-72 0 -122 42q-84 80 -84 144zM104 1342q0 50 27 92t79 54q20 2 58 2q108 0 242 -78q12 -8 16 -14q8 -12 33 -49t32 -48t24 -41t24 -49t16 -48t13 -61q18 -126 18 -132 q0 -98 -76 -168q-42 -40 -88 -56t-75 -21t-39 -17v-24q0 -20 -4 -65t-4 -75q0 -42 8 -88v-4q0 -30 -29 -48t-61 -18q-66 0 -124 66q-6 6 -10 20q-48 178 -48 302q0 58 10 174q2 14 34 42q40 30 118 30q18 0 58 -2t58 -2q34 0 64 6q8 18 -4 38q-12 24 -35 35t-70 26t-91 39 q-2 2 -42 12t-74 33t-50 65v6q-8 30 -8 66z" />
<glyph unicode="@" horiz-adv-x="1074" d="M26 528q0 40 22 218q22 182 63 289t155 189q138 100 390 100q162 0 202 -28q74 -46 132 -206t58 -338q0 -252 -118 -402q-22 -26 -60 -26q-8 0 -22 1t-20 1h-24q-36 0 -58 6t-29 12t-17 19t-16 19q-8 8 -13 15t-7 9v2h-2q-10 0 -18 -6t-22 -19t-30 -23q-6 -4 -17 -13 t-22 -15t-27 -8q-48 -8 -68 -8q-112 0 -142 122q-8 32 -8 68q0 172 232 262q22 8 45 11t34 2t20 9t15 34q4 20 4 36q0 108 -46 108q-60 0 -80 -30q-8 -10 -11 -24t-3 -35t-2 -29q-4 -38 -31 -59t-63 -21q-38 0 -67 25t-29 71q0 16 2 24q18 96 70 140q70 58 202 62h28 q62 0 102 -28q54 -38 71 -98t17 -158q0 -16 -1 -51t-1 -53q0 -122 18 -224q0 -6 4 -6q18 0 56 98q26 70 26 126q0 42 -15 105t-17 83q-4 32 -65 132t-89 118q-20 14 -90 14q-198 0 -282 -100q-40 -48 -98 -208t-58 -294q0 -160 100 -220q98 -60 274 -60q54 0 139 7t109 7 q64 0 64 -26q0 -50 -136 -102t-274 -52q-92 0 -136 4t-102 33t-106 89q-112 134 -112 300zM488 560q0 -72 36 -88q90 32 112 58q36 44 36 86q0 38 -24 52h-6q-30 0 -92 -38t-62 -68v-2z" />
<glyph unicode="A" horiz-adv-x="1622" d="M18 172v4q4 122 136 198q38 22 76 22q56 0 56 -20q56 106 90 254v4q60 188 99 293t60 147t79 146t110 204q6 16 22 22q112 58 174 58q86 0 114 -42t46 -72t33 -62t21 -47t20 -57t22 -62q66 -186 123 -437t95 -357q2 -4 37 -11t79 -33t72 -76q30 -52 30 -106 q0 -52 -36 -86q-30 -28 -62 -28q-74 -16 -210 -16h-26q-24 0 -83 -2t-79 -2q-14 0 -68 1t-112 1q-96 0 -96 114q0 106 60 170q40 46 78 46q14 0 43 -11t47 -11q32 0 32 20q-4 54 -14 124q0 8 -2 17t-19 26t-47 21q-48 -4 -120 -4q-28 0 -78 1t-76 1q-52 0 -124 -6 q-36 -30 -36 -124v-14q12 4 26 4q56 0 90 -42q12 -16 12 -30q4 -92 4 -118q0 -88 -36 -124q-54 -54 -132 -54q-30 0 -85 11t-77 11h-6q-6 0 -154 -6q-2 0 -10 -4t-18 -6t-20 -2q-40 0 -90 34q-12 14 -14 16l-10 10q-12 8 -21 18t-17 30t-8 44zM720 768q42 -26 100 -26 q8 0 174 18q0 10 -10 33t-28 60t-30 65q-54 138 -60 190q-12 -28 -28 -58t-27 -47t-11 -19q-8 -22 -23 -69t-29 -84t-28 -63z" />
<glyph unicode="B" horiz-adv-x="1322" d="M10 138q0 88 78 156q2 2 14 8q46 18 92 18q72 0 98 -44v36q0 66 -16 140t-18 162v4l50 658q-2 -2 -6 -10t-8 -12t-12 -9t-20 -7t-30 -2q-48 0 -122 16q-28 4 -44 37t-16 65q0 40 21 81t55 49q134 36 264 36q74 0 232 -18q30 -4 141 -14t154 -19t121 -42t140 -89 q92 -82 102 -240q0 -8 1 -21t1 -19q0 -112 -64 -198q-50 -66 -92 -66q-6 0 -21 1t-23 1q-36 0 -68 -18q22 -12 50 -12q12 0 33 4t31 4q46 0 90 -62q66 -92 66 -216q0 -28 -4 -80q-8 -76 -16 -120t-39 -102t-85 -98q-120 -90 -282 -90q-40 0 -122 7t-124 7q-8 0 -22 -1 t-22 -1q-244 -18 -256 -18q-98 0 -232 18q-32 4 -51 44t-19 76zM608 360q2 -38 36 -63t80 -25h16q80 8 130 69t54 149v10q0 74 -36 127t-96 59q-32 4 -68 8t-55 6t-29 2q-14 0 -14 -4q-18 -248 -18 -284v-54zM658 1046q0 -70 16 -192q2 -2 8 -2q16 0 142 58q42 20 58 32 t28 40q26 58 26 92q0 38 -24 86q-18 38 -43 56t-75 36q-54 20 -74 20q-14 0 -48 -10q-14 -164 -14 -216z" />
<glyph unicode="C" horiz-adv-x="1490" d="M38 670q0 32 2 50q10 136 56 239t140 225q84 106 168 171t212 119q108 44 262 44q160 0 276 -44q14 -6 59 -21t67 -25t56 -29t58 -46t42 -63q36 -72 36 -148q0 -102 -88 -264q-24 -28 -40 -28q-12 0 -32 12q-54 32 -77 75t-27 82t-10 49q-18 22 -46 60t-42 55t-37 39 t-47 34t-56 20q-48 12 -88 12q-100 0 -210 -84q-108 -82 -156 -173t-64 -233q-4 -30 -4 -84q0 -152 112 -286q68 -78 140 -113t186 -47q14 -2 38 -2q68 0 187 44t187 54q2 0 8 1t10 1q66 0 66 -78q0 -84 -42 -134q-30 -38 -63 -66t-76 -45t-73 -28t-84 -16t-79 -7t-90 -3 t-85 -1h-30q-148 0 -286 70q-120 62 -198 132t-146 180q-92 152 -92 300z" />
<glyph unicode="D" horiz-adv-x="1608" d="M4 132q0 82 36 110q52 38 118 38q38 0 82 -12l46 -10h4q12 358 12 472q0 16 -1 47t-1 49q0 106 12 488q-4 -2 -9 -9t-33 -15q-20 -40 -86 -40h-14q-140 0 -140 96q0 72 142 132q50 24 116 24q16 0 47 -2t45 -2q38 0 102 1t92 1q212 0 400 -48q82 -22 126 -35t103 -44 t113 -75q96 -80 151 -158t87 -190q22 -76 22 -130q0 -80 -40 -232q-34 -126 -69 -203t-111 -157q-220 -228 -630 -228q-30 0 -70 1t-52 1h-106q-202 0 -432 26q-62 8 -62 104zM606 258l22 -6q22 -4 53 -9t51 -5q44 0 128 34q96 38 148 74t104 104q62 84 86 151t24 163v14 q-2 108 -27 171t-99 153q-56 70 -108 104t-140 58q-106 28 -156 28q-38 0 -54 -14q-16 -326 -16 -516v-172q0 -128 -16 -332z" />
<glyph unicode="E" horiz-adv-x="1364" d="M18 108q0 18 7 33t16 25t23 18t23 11t23 8t16 5q16 4 24 4q12 0 24 -5t19 -12t13 -15t10 -12l2 -6v10q-22 164 -22 296q0 130 35 320t35 348q0 10 -1 32t-1 34l-4 -2q-2 -2 -7 -6t-11 -8t-16 -6t-22 -2q-20 0 -54 12q-98 42 -98 120v10q6 62 57 105t99 55l48 12h212 q122 0 253 1t157 1q134 0 342 -34q40 -14 42 -46q2 -22 2 -58q0 -38 -4 -63t-8 -35l-4 -10q0 -2 4 -3t17 -8t29 -19l14 -10q16 -10 22 -16t14 -19t8 -29q0 -54 -38 -64q-104 -32 -168 -32q-22 0 -75 4t-83 6q-24 4 -34 18q-30 32 -30 48q0 12 33 20t35 28v12l-4 -4 q-2 -2 -6 -2q-18 0 -42 32q-60 10 -112 10q-74 0 -176 -18h-2q-36 -4 -38 4q-2 6 -4 10q-4 -112 -4 -178q0 -82 4 -218q76 -18 120 -18q30 0 66 6q2 2 2 8q0 4 -3 22t-3 30q0 66 68 104q32 20 74 20q62 0 108 -46q10 -10 12 -18t2 -36v-39v-55q0 -84 2 -186q2 0 4 -156 q-2 -32 -30 -44q-50 -22 -94 -22q-66 0 -110 54q-18 28 -18 82q0 40 22 40h10v4q0 2 -2 4t-8 4l-12 4t-19 5t-25 5q-78 24 -104 24q-18 0 -38 -6q-36 -10 -42 -20q-34 -160 -34 -216q0 -10 1 -52t1 -78q8 -8 32 -18q120 -26 220 -26q40 0 122 5t124 7q24 12 30 32t31 73 t87 125q30 20 42 20q14 0 34 -18q16 -16 28 -33t18 -30t10 -30t5 -26t1 -28v-23q2 -24 2 -74q0 -124 -84 -188q-16 -12 -30 -12h-1092q-10 0 -36 8t-57 35t-31 65z" />
<glyph unicode="F" horiz-adv-x="1296" d="M-50 104q0 18 7 33t16 25t23 18t23 11t23 8t16 5q16 4 24 4q12 0 24 -5t19 -12t13 -15t10 -12l2 -6v10q-22 164 -22 296q0 130 35 320t35 348q0 10 -1 32t-1 34l-4 -2q-2 -2 -7 -6t-11 -8t-16 -6t-22 -2q-20 0 -54 12q-98 42 -98 120v10q6 62 57 105t99 55l48 12h212 q122 0 253 1t157 1q134 0 342 -34q40 -14 42 -46q2 -22 2 -58q0 -40 -4 -68t-8 -41t-4 -17q0 -2 1 -5t6 -6t9 -6t14 -10t20 -15l14 -10q16 -10 22 -16t14 -19t8 -29q0 -54 -38 -64q-104 -32 -168 -32q-22 0 -75 4t-83 6q-24 4 -34 18q-28 30 -28 52q0 16 27 32t27 30v4l-2 4 q-4 10 -8 17t-7 10t-11 8t-12 7q-60 10 -112 10q-68 0 -176 -18q-26 0 -30 -4t-7 5t-7 13q-4 -112 -4 -178q0 -82 4 -218q76 -18 120 -18q30 0 66 6q2 2 2 6t-3 21t-3 29q0 56 68 96q38 22 74 22q66 0 108 -48q12 -12 12 -98q2 -114 4 -220q2 0 4 -150q-2 -32 -30 -44 q-50 -22 -94 -22q-66 0 -110 54q-18 28 -18 80q0 34 18 34q14 0 14 2t-2 4t-8 4l-12 4t-19 5t-25 5q-78 24 -104 24q-16 0 -38 -6q-36 -10 -42 -20q-32 -136 -32 -294v-52q10 -10 43 -20t58 -14t27 -4q4 0 9 3t11 7t34 8t74 6q28 14 50 14q52 0 52 -86q0 -26 -5 -58t-11 -52 l-4 -18q-2 -10 -18 -19t-28 -9h-712q-10 0 -36 7t-57 34t-31 65z" />
<glyph unicode="G" horiz-adv-x="1636" d="M14 672q0 154 45 254t153 240q84 106 168 171t212 119q28 12 57 20t51 12t53 6t48 3t54 1h53h30q204 0 307 -37t249 -133q14 -8 20 -24q30 -84 30 -158q0 -90 -82 -248q-24 -30 -40 -30q-14 0 -32 10q-56 32 -79 77t-25 82t-8 43q-86 86 -155 125t-171 51q-64 8 -88 8 q-112 0 -216 -78q-112 -84 -159 -166t-61 -220q-4 -30 -4 -84q0 -152 112 -286q66 -78 138 -112t188 -48q46 -6 82 -6q138 0 204 56q0 44 1 80t2 53t1 25l-16 86q-2 12 -40 10h-10q-35 0 -80 11q-52 13 -84 59q-16 24 -16 54q0 32 22 54q14 12 90 18t524 28q30 0 50 -26 t20 -62q0 -50 -36 -88q-16 -16 -28 -16q-4 0 -40 28h-2q-2 0 -2 -10t10 -101t10 -147q0 -98 -28 -140q-38 -52 -87 -92t-113 -66t-116 -42t-136 -25t-134 -13t-144 -8h-38q-140 0 -278 70q-120 62 -198 132t-146 180q-92 152 -92 300z" />
<glyph unicode="H" horiz-adv-x="1702" d="M22 146q0 46 37 78t79 32q32 0 63 -13t39 -25q-4 158 -4 374q0 86 1 146t6 133t7 102t12 139t14 160q-12 -16 -64 -16q-76 0 -114 52q-28 38 -28 78q0 30 21 62t53 32q148 -2 225 -3t96 -2t32 -3t24 -3t80 -3t193 -6q28 -2 46 -28t18 -60q0 -44 -28 -74q-40 -42 -104 -42 q-34 0 -65 11t-35 19q-10 -170 -10 -206q0 -22 2 -81t2 -109q244 -4 260 -4q38 0 81 1t119 2t142 1q2 48 2 122v114q0 70 10 130q-10 -10 -46 -10q-74 0 -114 58q-26 40 -26 82q0 28 17 58t47 30q168 18 238 18q72 0 282 -30q20 -2 37 -22t17 -50q0 -26 -18 -60 q-14 -26 -33 -44t-38 -27t-35 -13t-26 -6l-12 -2v-966q0 -2 14 -10t34 -27t34 -49q18 -36 18 -84v-42q-2 -28 -10 -39t-36 -13q-216 -24 -252 -24q-10 0 -36 2t-87 3t-155 1q-30 6 -39 13t-9 29v16v21t2 29t5 29t12 35t23 34q50 56 136 56h24q4 52 7 89t4 48t2 18t1 17v34 t-1 90t-1 148q-276 12 -358 12q-24 0 -244 -4q2 -66 7 -179t5 -175q0 -12 -1 -41t-1 -45q0 -2 8 -2q4 0 15 1t19 1q118 0 156 -76q16 -28 16 -60q0 -56 -54 -96q-16 -10 -30 -10q-116 -2 -192 -5t-108 -5t-46 -2q-34 0 -308 30q-26 4 -51 36t-25 70z" />
<glyph unicode="I" horiz-adv-x="838" d="M-6 148q0 50 42 83t90 33q84 0 118 -46q-10 486 -10 596q0 184 14 478q-20 -20 -64 -20q-72 0 -114 56q-28 38 -28 78q0 32 20 64t54 32q148 -2 225 -4t96 -3t32 -2t24 -2t80 -4t193 -7q26 0 42 -25t16 -53q0 -12 -2 -24t-5 -21t-6 -17t-5 -12l-2 -6q0 -2 -4 -10 q-38 -56 -110 -56q-38 0 -75 14t-49 26q24 -232 24 -432q0 -30 -1 -110t-1 -132q0 -142 6 -390q28 14 82 14q80 0 114 -54q18 -30 18 -60q0 -36 -23 -70t-61 -40q-116 0 -192 -3t-108 -5t-46 -2q-30 0 -308 28q-34 6 -55 39t-21 69z" />
<glyph unicode="J" horiz-adv-x="686" d="M-130 -348q0 60 46 112q44 56 94 56h16q20 -2 37 -8t27 -14t18 -18t12 -17t8 -15l2 -6q18 -24 44 -18q4 0 15 9t27 33t22 58q2 486 2 958v480q-6 -10 -32 -10q-68 0 -112 58q-26 34 -26 80q0 10 2 25t2 17q10 30 34 38q90 28 212 28q36 0 116 -4h78q56 0 112 -27t56 -85 q0 -26 -14 -54q-20 -40 -55 -65t-61 -33t-26 -10q8 -224 8 -464q0 -54 -1 -167t-1 -195q0 -158 6 -494v-4q0 -86 -32 -146q-12 -24 -31 -47t-28 -32t-41 -35t-36 -30q-84 -70 -148 -92q-66 -26 -142 -26q-88 0 -149 45t-61 119z" />
<glyph unicode="K" horiz-adv-x="1472" d="M2 124q0 48 32 80q46 46 102 46q36 0 54 -14q-2 82 -4 156t-3 121t-1 103q0 86 12 656v4q0 8 -8 8q-6 0 -43 -16t-57 -16q-24 0 -38 29t-14 57q0 82 86 136q14 10 28 10h464q40 -2 65 -36t25 -82q0 -66 -44 -108q-32 -30 -84 -30q-34 0 -56 14q4 -142 4 -206 q0 -10 -1 -19t-2 -23t-2 -65t-3 -133l342 448h-4q-38 0 -76 32t-38 82q0 62 49 98t77 36q54 0 99 1t66 2t27 1l10 -2q-2 0 -2 -2q0 -4 128 -14q14 -2 36 -9t59 -37t37 -70v-10q-2 -30 -19 -52t-39 -33t-42 -17t-36 -10l-18 -2q-76 -62 -124 -107t-72 -72t-90 -108t-126 -153 q84 -70 116 -98t75 -72t65 -71t102 -121t170 -196v2q0 6 12 14t30 8q44 0 81 -50t37 -96q0 -36 -22 -78t-60 -42h-614q-28 0 -52 31t-24 71q0 48 40 88q36 34 74 34q24 0 52 -15t30 -15h2q20 14 8 54q-8 10 -41 52t-43 53t-38 45t-44 52t-44 47t-57 56t-63 57 q-28 -16 -48 -50q-12 -116 -12 -158q0 -40 12 -188q6 14 32 14q28 0 61 -31t33 -71q0 -64 -66 -106q-6 -2 18 -6l10 -2q-144 0 -215 9t-303 9q-28 2 -49 30t-21 66z" />
<glyph unicode="L" horiz-adv-x="1418" d="M8 124q0 30 48 112q16 22 42 24h32q72 0 134 -17t64 -17h8v86q0 128 10 280t10 298q0 48 -4 248q-16 38 -49 66t-113 64q-40 18 -40 104q0 62 46 102q16 12 32 12q78 4 137 7t82 5t39 3t26 1t36 -2t103 -6t189 -8q32 -2 67 -47t35 -101q0 -46 -28 -86q-36 -50 -102 -50 q-14 0 -34 3t-24 3q-6 0 -8 -2q-32 -20 -42 -48q4 -178 4 -368q0 -78 -2 -164t-2 -154q0 -14 4 -282h68q90 0 145 10t149 50q0 10 -14 62t-14 100q0 42 8 82q18 80 120 80q26 0 68 -6t52 -6h6q28 0 40 -7t18 -29q38 -162 38 -250q0 -46 -20 -230q0 -2 1 -2t1 -2 q0 -12 -20 -26t-36 -14q-6 0 -10 4l-20 6q-22 4 -48 10t-40 8q-112 -6 -232 -15t-197 -14t-155 -5q-164 0 -536 34q-30 4 -51 37t-21 57z" />
<glyph unicode="M" horiz-adv-x="1758" d="M0 1332q0 68 110 124q4 2 10 2q102 24 174 24q80 0 232 -38q26 -10 32 -28q60 -148 120 -312t103 -262t125 -246l478 860q6 12 18 18q66 36 118 36q46 0 164 -38q26 -6 46 -51t20 -89q0 -34 -20 -48v-2q0 -22 -35 -35t-75 -13q-44 0 -44 14q-14 -466 -14 -592 q0 -94 8 -354q10 24 28 24q32 0 64 -44q28 -36 28 -84q0 -24 -9 -60t-9 -46q-6 -44 -44 -48q-118 -16 -174 -16q-30 0 -95 6t-131 10q-30 8 -39 17t-9 35q0 4 -5 30t-5 44q0 54 38 94q40 42 92 42q38 0 46 -18q20 152 20 300q0 82 -9 189t-9 163v12q-12 -24 -47 -121 t-112 -289t-187 -430q-2 -2 -8 -14t-14 -24t-27 -24t-43 -14h-12q-68 0 -136 84q-10 10 -175 430t-177 442q4 -40 4 -74q0 -22 -3 -138t-3 -230q0 -140 2 -224q2 2 14 2q90 0 134 -92q12 -26 12 -52q0 -18 -5 -37t-12 -33t-7 -18q-12 -40 -48 -40q-56 -2 -139 -10t-159 -8 q-68 0 -116 2q-24 4 -33 12t-15 30q0 2 -5 10t-11 17t-10 24t-4 31q0 30 20 62q28 42 70 42q30 0 42 -22q-10 208 -10 388q0 94 5 260t5 306v52q-10 -18 -40 -18q-36 0 -67 26t-31 72z" />
<glyph unicode="N" horiz-adv-x="1622" d="M-8 90q0 36 24 68q40 56 120 56q70 0 82 -34q-10 264 -10 382q0 20 5 189t5 487q-16 -32 -70 -32q-84 0 -114 82q-10 30 -10 50q0 78 74 116q2 0 5 1t5 1q98 24 172 24q88 0 234 -40q14 -2 24 -16q608 -720 680 -820l28 660q-2 0 -32 -12t-56 -12q-48 0 -88 40 q-46 44 -46 72q0 10 8 30t10 30q2 6 4 17t3 17t5 14t9 12t14 8t23 6q58 6 106 13t66 9t28 2t25 -3t62 -10t123 -15q44 -4 68 -31t24 -63q0 -74 -80 -112q-10 -6 -18 -12t-15 -8t-25 -4q-8 -162 -8 -298q0 -88 5 -223t5 -227q0 -168 -10 -352q0 -10 -8 -26l-6 -14 q-6 -12 -15 -26t-23 -29t-35 -26t-45 -13h-12q-32 0 -62 18t-41 31t-31 39q-262 328 -438 515t-270 313q8 -70 8 -116q0 -64 -15 -230t-15 -324v-64q12 18 38 18q30 0 56 -44q18 -28 18 -62q0 -20 -6 -40t-14 -36l-6 -14q-12 -42 -48 -44q-56 -2 -139 -10t-159 -8 q-68 0 -116 2q-22 4 -32 13t-16 31l-4 6q-4 4 -8 12l-9 18t-8 23t-3 25z" />
<glyph unicode="O" horiz-adv-x="1566" d="M24 744q0 242 152 432q134 168 299 245t385 77q376 -4 574 -274q120 -160 120 -360q0 -106 -34 -270q-18 -82 -50 -143t-94 -135t-82 -104q-150 -218 -456 -218q-166 0 -332 68q-88 48 -125 69t-110 72t-108 93t-71 108t-48 142q-20 126 -20 198zM454 622q0 -86 50 -172 q40 -70 86 -105t126 -61q76 -24 128 -24q68 0 134 36q78 42 116 97t88 171q62 152 62 232q0 44 -14 128q-18 100 -45 156t-91 108q-114 92 -208 92q-28 0 -58 -6q-100 -16 -162 -68t-134 -160q-30 -48 -46 -96t-19 -83t-7 -117q0 -18 -2 -45t-3 -47t-1 -36z" />
<glyph unicode="P" horiz-adv-x="1262" d="M36 132q0 86 78 150q10 10 38 17t52 11l24 4q0 68 2 129t3 91t1 32v2q10 158 10 470l-2 268q-8 0 -10 -12t-16 -24t-48 -12q-32 0 -72 8q-26 4 -43 36t-17 58q0 36 24 73t62 43q100 2 241 7t237 7q12 0 38 1t40 1q140 0 245 -30t201 -114q92 -82 102 -228q0 -4 1 -14 t1 -16q0 -100 -62 -194q-110 -158 -308 -234q-98 -36 -186 -36q-32 0 -67 5t-37 5h-2q2 -164 14 -324q10 10 48 10q98 0 148 -86q20 -34 20 -74q0 -82 -70 -132q-10 -10 -30 -10q-78 0 -194 -8t-174 -8q-102 0 -222 16q-32 4 -51 41t-19 71zM550 1066q0 -80 14 -184 q2 -2 10 -2q14 0 138 54q34 14 46 21t24 18t20 29q24 48 24 86q0 36 -24 84q-18 36 -42 53t-76 35q-62 18 -72 18q-14 0 -50 -10q-12 -132 -12 -202z" />
<glyph unicode="Q" horiz-adv-x="1518" d="M12 780q0 182 126 352q128 174 282 265t366 95h14q332 0 532 -276q114 -160 114 -354q0 -90 -34 -276q-12 -60 -37 -118t-43 -87t-67 -99t-67 -96q-10 -16 -43 -40t-59 -43t-26 -25t12 -6q134 -10 358 -96q600 -240 734 -240h4q26 0 113 31t125 31q58 0 60 -56 q0 -12 4 -31t4 -29q0 -30 -36 -72q-30 -32 -69 -52t-68 -24t-78 -9t-67 -7q-74 -10 -122 -10q-44 0 -118 10q-96 16 -187 44t-144 49t-160 68t-161 69q-106 44 -247 114t-237 120t-118 56q-144 38 -210 74q-98 56 -148 89t-122 95t-111 135t-53 163q-16 116 -16 186z M354 740q0 -94 18 -164t68 -150q46 -74 90 -110t120 -60q72 -22 118 -22q60 0 128 36q54 28 90 71t51 75t51 120q58 150 58 248q0 46 -14 134q-16 94 -42 150t-86 114q-70 64 -122 93t-118 29q-4 0 -14 -1t-16 -1q-94 -8 -157 -52t-135 -138q-56 -74 -72 -152t-16 -220z" />
<glyph unicode="R" horiz-adv-x="1554" d="M52 142q0 68 78 128q10 2 14 8q28 12 52 12q10 0 25 -2t17 -2h2q2 70 4 134t4 97t2 37v4q10 162 10 466l-2 270q-6 0 -9 -13t-17 -25t-48 -12q-22 0 -72 10q-26 4 -43 33t-17 67q0 64 52 110q14 12 32 12q86 2 229 10t251 8q186 0 312 -30t244 -130q102 -86 102 -238 q0 -120 -78 -232t-240 -182q90 -46 257 -189t313 -351q10 -24 10 -34q0 -16 -22 -32q-84 -62 -180 -62q-78 0 -192 40q-12 2 -20 14q-8 8 -118 147t-216 273l-106 134q-8 0 -29 -2t-33 -2q-26 0 -40 6q0 -62 14 -324q18 4 46 4q108 0 152 -82q16 -32 16 -58q0 -64 -64 -112 q-16 -10 -28 -12q-284 -24 -318 -24q-110 0 -278 26q-24 4 -46 33t-22 67zM614 1042q0 -88 14 -192q8 -4 16 -4q16 0 136 46q42 16 58 28t28 36q30 56 30 102q0 40 -28 100q-18 34 -43 51t-77 35q-62 18 -72 18q-14 0 -50 -10q-12 -132 -12 -210z" />
<glyph unicode="S" horiz-adv-x="1004" d="M20 350q0 30 3 85t3 93q2 24 28 45t66 21q42 0 84 -24q72 -38 103 -103t46 -126t45 -81q60 -44 130 -44q16 0 56 4q58 4 80 12t34 30q30 50 30 102q0 70 -62 156q-28 40 -70 58t-111 39t-125 49q-16 8 -66 23t-90 39t-70 68q-84 128 -84 264q0 102 46 216q50 132 202 188 q76 30 154 30q36 0 72 -5t87 -16t73 -15q12 -2 51 -7t62 -11t55 -25t52 -49q10 -14 10 -80q0 -116 -36 -294q-12 -30 -38 -38q-24 -6 -42 -6q-56 0 -92 46t-49 104t-32 114t-45 70q-66 38 -102 38q-22 0 -44 -16q-80 -60 -80 -164q0 -74 40 -150q14 -26 39 -37t73 -24 t88 -33q26 -12 92 -26t122 -41t96 -83q82 -116 82 -248q0 -108 -56 -244q-62 -158 -230 -226q-88 -36 -176 -36q-74 0 -214 34q-24 6 -41 10t-35 11t-27 11t-30 16t-31 18t-42 26t-50 32q-20 12 -22 34q-12 112 -12 166z" />
<glyph unicode="T" horiz-adv-x="1778" d="M14 1004q-1 6 -1 12.5t1 13.5q22 90 31 143t10 67t10 51t33 113q2 10 12 20q16 16 32 26t33 15t28 7t29 3t22 1q76 12 176 12q74 0 216 -14t230 -14q82 0 215 17t201 17q92 0 174 -18q62 -12 96 -46q38 -38 49 -50t21 -34t14 -43t30 -88t66 -157q2 -4 2 -16 q0 -42 -42 -88t-104 -46q-44 0 -62 22q-90 118 -124 203t-40 111t-38 40q-154 -32 -322 -42q0 -90 -17 -256t-17 -266q0 -216 68 -486q2 -10 14 -10q8 0 35 11t43 11q32 0 50 -38t18 -76q0 -74 -58 -120q-12 -10 -32 -10q-150 0 -223 2t-191 14t-266 38q-26 4 -50 39t-24 75 t26 74q46 60 138 60q22 0 44 -4t34 -8l10 -2q0 22 -1 60t-1 56q0 216 28 349t28 249t-10 248q-10 0 -45 5t-81 8t-96 3h-40q-36 -20 -47 -52t-11 -68t-29 -109t-93 -157q-16 -30 -64 -30t-85 51t-53 101z" />
<glyph unicode="U" horiz-adv-x="1664" d="M6 1316q0 54 36 102t102 70q2 0 7 1t7 1q94 4 172 8t116 6t58 2q10 0 278 -34q28 -4 61 -46t33 -88q0 -42 -28 -72q-34 -40 -92 -40q-48 0 -97 24t-55 38q-6 -138 -19 -269t-13 -185q0 -98 40 -348q44 -98 99 -147t157 -49q96 0 180 50t140 124q32 286 32 350q0 18 -2 72 t-2 108q0 104 8 282q-18 -18 -70 -18q-48 0 -86 27t-38 77q0 80 100 132q16 8 26 8q120 2 188 2q16 0 28 -1t54 -3t108 -4q30 -2 69 -44t39 -90q0 -24 -16 -52q-30 -44 -94 -44q-22 0 -34 8q-6 -110 -6 -176q0 -54 5 -143t5 -157q0 -142 -30 -518q0 -8 -6 -18 q-40 -72 -100 -112t-154 -72q-228 -78 -398 -78q-142 0 -306 50q-62 18 -108 52t-91 81t-73 69q-16 16 -18 34q-30 468 -30 736q0 182 12 252q-4 -2 -46 -32t-70 -30q-34 0 -56 33t-22 71z" />
<glyph unicode="V" horiz-adv-x="1412" d="M28 1360q0 32 19 63t51 37l274 30q20 0 48 -2t86 -5t114 -7q24 -4 45 -29t21 -55q0 -64 -76 -64q-36 0 -93 15t-59 15q10 -26 37 -92t34 -84t27 -69t26 -69t21 -62t22 -72t20 -75t23 -94t23 -106t29 -131q94 146 145 265t64 184t52 166t113 217v2q0 2 -4 2t-44 -7t-66 -7 q-54 0 -72 30q-14 22 -14 46q0 48 42 80q16 12 74 12q66 0 320 -18q28 -6 40 -24q16 -24 16 -50q0 -28 -18 -55t-40 -46t-24 -23q-100 -208 -245 -562t-289 -644q-36 -70 -140 -70q-106 0 -124 80q-66 272 -177 623t-165 541q0 2 -6 2h-18q-68 0 -100 62q-12 24 -12 50z" />
<glyph unicode="W" horiz-adv-x="2158" d="M28 1358q0 32 20 63t50 37l274 30q20 0 48 -2t86 -5t114 -7q24 -4 45 -29t21 -55q0 -64 -76 -64q-36 0 -93 15t-59 15q38 -96 95 -231t76 -185t54 -155t77 -255q16 26 36 68t39 88t39 95t37 94t30 80t23 59l8 24l-70 198q-8 -2 -20 -2q-70 0 -108 74q-12 24 -12 50 q0 56 44 88q14 12 32 12q24 0 60 -1t50 -1q70 0 139 3t101 3q84 0 240 -10q24 -2 45 -27t21 -55q0 -46 -53 -78t-95 -32q-62 -6 -62 -32v-4q20 -96 97 -322t113 -372q176 270 219 377t113 431h-4q-8 0 -49 -7t-63 -7q-36 0 -59 21t-23 55q0 48 42 80q16 12 74 12 q64 0 320 -18q28 -6 40 -24q16 -24 16 -50q0 -28 -18 -55t-40 -46t-24 -23q-106 -218 -250 -575t-284 -641q-24 -50 -96 -50q-74 0 -88 60q-60 244 -114 424t-78 238l-24 58q-78 -208 -334 -730q-24 -48 -92 -48q-70 0 -84 58q-80 314 -108 420t-87 302t-147 452q-4 6 -14 6 q-6 0 -32 -3t-44 -3q-84 0 -120 62q-14 26 -14 52z" />
<glyph unicode="X" horiz-adv-x="1694" d="M30 1346q0 8 4 28q20 78 160 100q228 34 312 34q128 0 312 -52q22 -6 40 -33t18 -57t-20 -56q-28 -36 -36 -36q-4 0 -14 3t-28 6t-42 5q36 -54 94 -122t106 -134q8 8 140 155t142 157q-48 -24 -66 -24q-16 0 -26 23t-10 49q0 60 62 92q12 6 24 6q72 0 133 4t69 4 q40 0 190 -50q46 -16 46 -82q0 -60 -46 -96q-40 -30 -66 -30t-40 28l-378 -428q58 -92 113 -188t98 -163t113 -159q6 -2 18 -2q8 0 31 2t37 2q72 0 120 -52q42 -48 42 -108q0 -22 -6 -57t-6 -45q-4 -26 -14 -36t-36 -12q-28 0 -71 -1t-57 -1q-128 0 -209 9t-223 9 q-28 4 -38 13t-12 35q0 8 -8 36t-8 48q0 30 14 64q12 30 21 40t14 8t12 -14t9 -14q-34 62 -89 142t-93 158q-18 -30 -33 -51l-30 -42t-23 -32t-26 -31t-25 -27t-32 -33t-37 -38q-72 -24 -84 -60q12 -2 34 -2q18 0 44 3t32 3q28 0 40 -34q8 -24 8 -34q0 -24 -14 -47t-31 -36 t-33 -25t-18 -14q-16 -22 -42 -22q-72 0 -155 -6t-119 -6q-58 0 -160 12q-18 2 -34 18q-2 2 -19 13t-32 24t-29 38t-14 53q0 36 24 65t41 37t49 22q26 12 58 12q22 0 40 -7t27 -13t11 -6q60 64 125 133t90 96t62 65t69 69t82 79q10 10 -8 54q-148 170 -238 283t-106 141 l-16 30h-2q-2 0 -22 -7t-52 -13t-62 -6q-66 0 -114 28q-78 46 -78 106z" />
<glyph unicode="Y" horiz-adv-x="1576" d="M14 1354q0 36 18 74t52 42q206 16 246 16q14 0 45 -2t69 -2q54 0 210 6h2q30 0 61 -39t31 -85q0 -44 -29 -70t-73 -26t-72 28q54 -124 102 -222t70 -147t44 -123l270 438q-16 -12 -44 -12q-66 0 -98 88q-8 18 -8 42q0 74 78 120q12 8 22 8q68 4 115 8t64 6t29 2t34 -2 t83 -6t143 -8q28 -2 52 -36t24 -76q0 -40 -22 -70q-36 -54 -112 -54q-26 0 -63 8t-43 8h-2l-4 -2q-40 -70 -95 -176t-87 -164t-88 -146t-124 -180q-2 -16 -2 -44q0 -52 14 -108t14 -92q0 -62 -30 -166l-2 -4q0 -4 4 -4q2 0 37 19t59 19q34 0 59 -35t25 -73q0 -28 -15 -52 t-41 -28q-260 -26 -320 -26q-64 0 -302 20q-26 4 -43 29t-17 59q0 62 46 102q42 36 88 36q64 0 86 -34q16 180 16 382q-92 192 -215 356t-187 274q-4 -34 -46 -34q-50 0 -89 52t-39 106z" />
<glyph unicode="Z" horiz-adv-x="1596" d="M24 1036q10 36 23 92t18 74t16 53t23 61t30 64t48 94q18 26 44 26h168q430 0 447 -8t581 -8q56 -6 56 -66q0 -18 -9 -34t-25 -32l-18 -18q-58 -72 -161 -196t-128 -155t-94 -117t-96 -123t-94 -127t-127 -174t-160 -222h584q78 32 156 156q18 26 27 89t53 155 q18 34 62 34q42 0 81 -28t39 -62q0 -162 -56 -308q-4 -8 -22 -62t-28 -75t-39 -55t-69 -56q-12 -6 -24 -6q-258 0 -449 13t-451 13q-2 0 -57 -32t-97 -32q-40 0 -78 24q-56 36 -56 114q0 16 2 43t2 35v12q-4 22 10 38q188 254 263 355t169 218t114 138t145 157t213 234h-536 q-48 -16 -106 -84q-32 -38 -50 -71t-43 -88t-55 -107q-10 -16 -46 -31t-76 -15q-80 0 -118 62q-8 12 -8 25q0 6 2 13z" />
<glyph unicode="[" horiz-adv-x="524" d="M24 70q0 20 18 50q2 46 2 132q0 70 -5 263t-5 357q0 10 2 198t2 348q2 34 32 44q62 24 80 24q8 0 19 -2t31 -5t44 -5q2 0 35 15t61 15q44 0 80 -29t36 -73q0 -34 -25 -65t-87 -31h-18q-10 0 -10 -2q-36 -46 -36 -108q0 -14 2 -56t2 -70l-18 -306q-2 -40 -3 -99t-4 -107 t-9 -104q-12 -128 -12 -144q0 -60 22 -86t96 -64l20 6q20 8 36 8q30 0 57 -23t27 -55q0 -40 -40 -68t-94 -28q-10 0 -108 14l-14 -2q-12 -2 -33 -3t-41 -1q-142 0 -142 62z" />
<glyph unicode="\" horiz-adv-x="1646" d="M28 1368q0 66 46 84q150 48 188 48q6 0 68 -4t136 -4q12 0 24 -6q64 -32 64 -92q0 -14 -6 -30q-6 -20 -11 -25t-17 -5q-16 0 -68 12q12 -22 32 -65t22 -47t38 -48t74 -82t134 -136q58 -60 187 -184t219 -222t222 -258l4 2q2 2 7 6t11 7t18 5t24 2q34 0 60 -12 q110 -42 114 -120v-8q0 -36 -20 -63t-46 -43l-28 -18q-12 -16 -32 -18q-104 -12 -162 -12q-36 0 -119 6t-155 6q-22 0 -40 20q0 2 -26 21t-48 46t-22 59q0 14 6 32q16 36 36 36q6 0 23 -3t31 -3h8l4 4q-28 10 -32 26q-76 106 -130 172t-128 150t-146 170l-412 496 q-14 -24 -44 -24q-40 0 -74 40t-34 82z" />
<glyph unicode="]" horiz-adv-x="524" d="M28 1406q0 40 40 68t94 28q10 0 108 -14l14 2q12 2 33 3t41 1q142 0 142 -62q0 -20 -18 -50q-2 -46 -2 -132q0 -70 5 -263t5 -357q0 -10 -2 -198t-2 -348q-2 -34 -32 -44q-62 -24 -80 -24q-8 0 -19 2t-31 5t-44 5q-2 0 -35 -15t-61 -15q-44 0 -80 29t-36 73q0 34 25 65 t87 31h18q10 0 10 2q36 46 36 108q0 14 -2 56t-2 70l18 306q2 40 3 99t4 107t9 104q12 128 12 144q0 60 -22 86t-96 64l-20 -6q-20 -8 -36 -8q-30 0 -57 23t-27 55z" />
<glyph unicode="^" horiz-adv-x="732" d="M8 924q0 6 4 18q62 164 216 460q6 14 22 20q112 56 166 56q28 0 64 -11t46 -31q42 -62 63 -108t42 -117t29 -93q40 -112 60 -192q2 -6 2 -16q0 -32 -39 -50t-95 -18q-58 0 -103 18t-45 48q0 44 -22 96t-46 68q-2 -8 -15 -68t-19 -94q-12 -66 -154 -66q-70 0 -123 22 t-53 58z" />
<glyph unicode="_" horiz-adv-x="1144" d="M15 180q2 42 16 73q34 77 129 98t237 13q25 -1 70 -4.5t64 -4.5q55 -2 150 -10t135 -11q146 -7 244 18q12 3 18 3q62 -3 55 -137q-4 -76 -29.5 -140t-57.5 -62q-11 1 -17 5l-69 4q-161 8 -336.5 9t-534.5 20h-6q-37 2 -53.5 39t-14.5 87z" />
<glyph unicode="`" horiz-adv-x="592" d="M42 1374q0 10 34 36q76 58 158 58q88 0 120 -44q42 -62 63 -108t42 -117t29 -93q40 -112 60 -192q2 -6 2 -18q0 -38 -47 -58t-111 -20q-110 0 -140 44q-20 30 -82 236t-94 224q-34 44 -34 52z" />
<glyph unicode="a" horiz-adv-x="960" d="M20 278q0 70 26 138q42 106 176 185t216 79h14q34 0 34 80q0 38 -9 77t-17 45q-38 0 -61 -5t-34 -23t-14 -26t-4 -42t-1 -42q-6 -58 -52 -92t-104 -34q-54 0 -99 36t-45 118q0 62 29 127t75 105q108 90 314 90q96 0 156 -44q46 -32 73 -70t38 -97t14 -100t3 -131t2 -138 v-116q0 -38 2 -60q46 46 90 46q32 0 57 -24t25 -62q0 -14 -4 -34l-4 -18q0 -6 -1 -24t-2 -27t-3 -26t-6 -28t-11 -26t-17 -28t-22 -25q-16 -14 -35 -23t-30 -10t-32 -2t-23 -1q-8 0 -20 -1t-16 -1q-48 0 -83 11t-47 22t-25 29t-15 20l-18 32q-2 0 -10 -9t-28 -26t-44 -31 l-16 -12q-16 -14 -33 -23t-54 -18t-81 -9q-102 0 -163 75t-61 193zM306 360q4 -98 26 -98q2 0 10 4q6 4 4 6q-2 0 -1 2t7 5t18 7t33 13t27 11t16 9t18 17q42 50 42 92q0 10 -2 19t-5 15t-6 11t-5 7l-2 4q-28 0 -98 -44l-8 -4q-8 -6 -20 -14t-25 -18t-21 -21t-8 -21v-2z" />
<glyph unicode="b" horiz-adv-x="1066" d="M-36 1252q0 20 12 40q58 114 208 216q20 14 42 14q46 0 84 -56t40 -84q8 -178 8 -344v-32l-2 4q0 16 -2 0v-12q6 10 6 26t13 25t55 19q2 0 94 22t142 22q46 0 76 -14q58 -26 101 -69t64 -79t53 -100q70 -138 70 -320q0 -212 -122 -358q-6 -8 -24 -34t-32 -43t-43 -35 t-63 -22q-184 -24 -326 -24q-238 0 -306 80q-12 12 -12 30q-18 286 -18 676q0 194 12 394q-6 -8 -32 -8q-36 0 -67 17t-31 49zM358 624q0 -120 13 -194t55 -148q16 -26 19 -32t12 -18t17 -16t22 -8q18 -6 28 -6q16 0 42 14q60 34 91 73t67 115q36 74 36 124q0 14 -4 46 q-8 68 -31 111t-79 111q-32 40 -70 56q-24 20 -60 20q-64 0 -116 -82q-42 -70 -42 -166z" />
<glyph unicode="c" horiz-adv-x="906" d="M22 518q0 84 26 174q30 102 66 167t108 121q128 98 294 98h24q50 -2 79 -7t70 -25t79 -58q76 -76 76 -158q0 -54 -31 -91t-77 -41h-8q-26 0 -49 12t-35 26t-22 28t-12 16q-20 14 -36 29t-23 21t-21 10t-40 4q-38 0 -78 -26q-22 -14 -32 -29t-26 -57q-42 -114 -42 -184 q0 -42 8 -88q10 -64 24 -98t50 -68q4 -4 9 -8t9 -6t10 -4t10 -4t13 -3t13 -2t16 -3t18 -2q36 -6 54 -6t38 12q6 4 10 6t8 6t7 6t6 8t5 8t5 10t4 11t5 14t6 17q22 66 90 66q44 0 78 -30t34 -74v-6q-4 -78 -12 -109t-34 -67q-76 -104 -260 -104q-10 0 -20 1t-16 1h-6 q-2 0 -19 -1t-31 -1q-154 0 -260 100q-162 154 -162 388z" />
<glyph unicode="d" horiz-adv-x="1014" d="M42 500v16q10 378 274 556q78 52 160 52q24 0 50 -5t43 -10t44 -14l39 -13q0 16 -1 47t-1 49q0 28 2 28q2 2 6 78q0 2 4 12v6q-48 -56 -90 -56q-34 0 -34 54t41 115t85 91q24 16 64 16q60 0 116 -36t56 -78q0 -16 -8 -26q18 -328 18 -862v-232q8 4 10 4q18 0 37 -32 t19 -64v-22q0 -102 -70 -132q-20 -10 -46 -10q-14 0 -27 2t-21 6l-8 2h-6q-30 0 -58 25t-45 51t-19 26t-2 -4q-2 -40 -100 -73t-202 -33q-34 0 -50 2q-34 4 -62 22t-42 34t-32 43t-24 35q-120 146 -120 330zM300 524q0 -50 34 -104q26 -42 57 -63t95 -45q34 -14 58 -14 t40 16t46 62q38 62 51 115t13 143q0 82 -44 154t-108 86h-4q-24 0 -61 -22t-61 -54q-56 -70 -79 -111t-31 -105q-6 -34 -6 -58z" />
<glyph unicode="e" horiz-adv-x="854" d="M34 518q0 84 26 174q30 102 66 167t108 121q120 92 264 92q36 0 56 -2q48 -4 79 -12t69 -35t60 -71q46 -92 46 -162q0 -56 -24 -120q-32 -86 -100 -90l-40 -2q-42 -2 -103 -4t-111 -2q-126 0 -142 14q0 -2 9 -22t20 -51t15 -53q16 -108 64 -148q16 -16 96 -24 q16 -2 38 -4t28 -2q10 0 16 1t11 8t7 12t7 22t9 29q24 66 92 66q42 0 76 -29t34 -73v-6q-4 -78 -11 -105t-29 -69q-64 -110 -198 -110q-18 0 -41 2t-25 2t-18 -1t-32 -1q-154 0 -260 100q-162 152 -162 388zM358 756h12q68 0 164 -16q0 2 -1 6t-1 6q0 20 16 58t16 40v2 q-14 10 -44 10q-64 0 -116 -34q-10 -8 -46 -72z" />
<glyph unicode="f" horiz-adv-x="698" d="M18 112q0 46 29 88t63 42q20 0 26 -16q6 176 6 184v42q0 104 2 198l-2 2q-2 0 -8 2t-13 7t-19 17t-26 28q-6 6 -6 10q-20 32 -20 76q0 20 6 42q10 36 31 61t39 38t20 15q4 20 4 54q0 16 -2 47t-2 47q0 76 42 156q54 118 196 208q60 38 166 56q26 6 56 6q32 0 58 -8 q4 -2 33 -9t40 -11t35 -14t38 -22t30 -31t26 -43q12 -28 12 -54q0 -46 -34 -85t-82 -39q-4 0 -68 16q-28 8 -49 21t-31 22t-14 9q-20 4 -48 4t-50 -16q-8 -6 -14 -13t-10 -11t-8 -16t-5 -17t-7 -24t-8 -27q-22 -78 -22 -144q0 -22 3 -46t3 -28v-4q36 30 78 30q54 0 102 -58 q28 -36 28 -80q0 -58 -43 -110t-97 -52q-14 0 -36 6t-30 6q-10 -120 -10 -210q0 -30 1 -63t2 -88t1 -109q0 36 24 36q16 0 60 -44q28 -40 28 -86t-30 -86q-14 -20 -40 -20h-376q-16 0 -32 12q-46 38 -46 96z" />
<glyph unicode="g" horiz-adv-x="1102" d="M4 -138q0 12 4 40q6 30 23 54t32 35t39 25t30 20q38 28 90 42q-2 2 -41 24t-59 49t-22 69q0 14 6 26q36 66 77 103t43 41q-2 0 -26 50q-10 18 -47 55t-64 82t-27 103q0 16 18 100q12 52 47 104t35 68q0 12 -6 20l-12 6l-20 12t-19 22t-9 38q0 78 74 78q40 0 75 -22 t41 -22q22 0 91 33t135 33q44 0 94 -14q54 -14 103 -44t73 -30q10 0 45 32t73 32q16 0 34 -6h2q2 0 27 5t43 5q66 0 74 -66q8 -56 8 -88q0 -70 -28 -126q-40 -72 -78 -88q-16 -6 -34 -6q-28 0 -68 18q4 -24 4 -86v-46q0 -100 -46 -160q-36 -48 -83 -73t-102 -41t-79 -28 q-4 -2 -38 -11t-63 -21t-31 -24q-2 -2 0 -4t12 -8t26 -14q20 -10 50 -10q18 0 68 9t84 9q36 0 74 -8q136 -32 198 -78q106 -78 106 -228v-12q-2 -96 -66 -178q-60 -74 -122 -114t-168 -86q-122 -54 -280 -60q-10 0 -27 -1t-23 -1q-96 0 -151 31t-115 117q-8 12 -31 43 t-36 51t-25 54t-12 66zM344 -116v-4q2 -28 26 -47t80 -43q42 -16 68 -16q12 0 92 16q92 20 104 38q8 10 8 24q0 20 -18 60q-24 54 -44 77t-58 35q-32 8 -44 8q-42 0 -118 -50q-56 -34 -76 -53t-20 -45zM344 710q0 -46 40 -104q54 -74 80 -74h6q30 2 46 29t38 93q16 48 16 78 q0 26 -16 74q-34 96 -70 96q-26 0 -86 -56q-50 -50 -54 -116v-20z" />
<glyph unicode="h" horiz-adv-x="1078" d="M68 1356q0 30 12 51t34 33t39 18t42 11t27 5t53 12t79 12q72 0 122 -52q14 -14 14 -32q10 -234 10 -326q0 -46 -2 -86t-2 -46q20 8 58 24t65 24t55 8q80 0 192 -88q66 -52 98 -148q48 -152 48 -282q0 -60 -13 -141t-13 -137v-14l2 2q6 0 20 -18t26 -50t12 -60 q0 -32 -17 -58t-47 -26q-28 2 -54 2q-4 0 -33 -1t-65 -1q-92 0 -178 2q-6 0 -7 1t-2 5t-5 8q-34 34 -34 80q0 44 32 89t66 45q6 0 8 -2q6 38 16 70t15 57t5 67q0 64 -18 186q-6 38 -27 62t-71 48q-18 10 -34 10t-46 -8q-26 -8 -46 -6q-6 0 -6 -4q-20 -108 -20 -200 q0 -60 10 -132t10 -118v-10q72 -86 72 -148q0 -46 -32 -80l-2 -2q-12 -12 -61 -15t-293 -3q-20 0 -48 35t-28 79q0 30 14 56q38 72 94 72q14 0 22 -8q-12 290 -12 428q0 40 1 212t1 354q-2 -2 -10 -2q-40 0 -86 40q0 2 -12 11t-22 20t-19 29t-9 36z" />
<glyph unicode="i" horiz-adv-x="626" d="M50 894q0 16 30 36q28 18 46 25t39 13l35 10q8 2 31 12t44 16t45 6q4 0 12 -1t12 -1q100 -16 138 -82q34 -60 34 -116q0 -36 -15 -98t-15 -86q0 -72 -5 -179t-5 -223q8 12 26 12q40 0 72 -64q14 -32 14 -60q0 -50 -36 -80q-16 -12 -132 -12h-298q-28 0 -48 27t-20 63 q0 52 39 84t79 32q30 0 44 -10v64q0 34 1 72t1 58q0 54 -14 300q-6 18 -21 31t-49 40t-70 69q-14 32 -14 42zM240 1150q0 36 20 61t54 27q2 0 6 1t6 1q34 0 60 -23t26 -59q0 -40 -29 -59t-67 -19h-6q-36 2 -52 18q-18 20 -18 52z" />
<glyph unicode="j" horiz-adv-x="662" d="M4 -340q0 72 54 127t130 55q44 0 77 -18t43 -44h6l2 958q-4 -2 -16 -2q-54 0 -88 38q-36 46 -36 100q0 34 17 72t47 44q184 46 276 46q48 0 71 -9t23 -43v-1140q0 -22 -21 -74t-63 -102q-58 -72 -174 -136q-92 -52 -146 -52q-46 0 -100 28q-102 56 -102 152zM366 1180 q0 36 20 61t54 27q2 0 6 1t6 1q34 0 60 -23t26 -59q0 -40 -29 -59t-67 -19h-6q-36 2 -52 18q-18 20 -18 52z" />
<glyph unicode="k" horiz-adv-x="1218" d="M48 1356q0 52 30 70q108 78 222 78h62q90 0 132 -56q24 -36 24 -70t-19 -71t-39 -49q2 -62 4 -103t3 -52t1 -26v-43t-1 -75t-2 -140t-1 -197q32 24 48 24h4q22 0 148 132h-10q-40 0 -83 26t-47 74v8q0 72 84 118q8 4 60 8q154 6 370 22h2q34 0 63 -39t29 -81 q0 -36 -26 -54q-88 -62 -163 -114t-107 -73t-73 -51t-89 -68q78 -72 210 -171t272 -225q16 -18 16 -42l-4 -48q-8 -38 -40 -46q-90 -18 -176 -18q-34 0 -124 5t-158 5q-26 0 -44 25t-18 49q0 52 68 106q-98 52 -108 64q-42 46 -74 76l-6 -140q30 0 62 -33t32 -71 q0 -32 -24 -58q-32 -30 -272 -30q-38 0 -86 1t-50 1q-26 2 -45 24t-19 56q0 30 22 64q12 22 36 37t38 15h2q-2 166 -2 362q0 84 1 199t1 203q0 120 -2 292q-22 -16 -42 -16q-38 0 -65 38t-27 78z" />
<glyph unicode="l" horiz-adv-x="670" d="M16 1268l12 78q12 66 116 128q50 24 114 24q72 0 224 -52q32 -16 34 -48l-2 -1156q30 -2 49 -20t45 -60q16 -22 16 -58q0 -50 -10 -60q-10 -34 -46 -40l-452 -10q-70 2 -70 114q0 68 22 86q16 16 46 30t52 20l22 8l-2 902q-36 0 -85 19t-77 59q-8 17 -8 31v5z" />
<glyph unicode="m" horiz-adv-x="1560" d="M30 172q0 20 6 42q16 46 41 69t49 23q8 0 12 -2q-2 244 -2 506q-6 -6 -18 -6q-26 0 -53 20t-31 50q-2 26 16 44q134 120 192 180q16 14 38 14q48 -2 108 -44q30 -24 26 -54q0 4 2 6q8 12 18 17t44 12t62 17q6 2 20 10t32 13t42 5h6q32 0 58 -10t47 -22t31 -16 q66 -22 74 -22h6q4 0 11 5t23 15t38 16q82 24 138 24q130 0 234 -66q106 -72 142 -172q4 -12 4 -16q6 -244 6 -296q0 -42 -3 -93t-3 -107q2 2 10 2q28 0 54 -65t26 -109q0 -98 -80 -138q-8 -6 -20 -6q-46 -2 -84 -2q-62 0 -182 2q-14 0 -22 6q-40 18 -58 68q-20 52 -20 90 q0 26 8 48t29 54t35 32q8 0 10 -8q0 86 1 124t1 44q0 12 -1 40t-2 89t-1 139q-10 20 -32 38q-36 24 -76 26h-12q-22 0 -52 -20q-18 -10 -52 -44q6 -102 6 -208q0 -34 -2 -79t-2 -79q0 -8 1 -33t1 -41q2 34 18 34q14 0 50 -44q42 -50 42 -118q0 -112 -80 -152q-8 -6 -20 -6 q-46 -2 -102 -2q-90 0 -208 2q-46 0 -74 74q-24 58 -24 88q0 28 12 54q36 78 80 78q10 0 18 -8q0 54 -1 100t-2 69t-1 35q0 16 1 64t3 142q-6 34 -16 46t-40 14q-4 0 -9 1t-7 1q-24 0 -68 -26q-44 -24 -54 -48q-2 -78 -2 -152q0 -18 1 -83t1 -161q10 24 26 2q4 -4 12 -16 q4 -8 8 -12q36 -52 36 -106q0 -28 -8 -50q-24 -82 -96 -100q-4 -2 -12 -2h-254q-10 0 -14 2q-56 16 -84 54q-32 46 -32 94z" />
<glyph unicode="n" horiz-adv-x="1084" d="M36 190q0 52 33 95t61 43q8 0 14 -6q-2 138 -2 506q-6 -12 -22 -12q-24 0 -50 23t-30 53v12q0 10 4 17t19 21t34 31t61 56t90 87q16 14 38 14q48 -2 108 -44q30 -24 26 -54q0 4 2 6q8 12 18 17t44 12t62 17q6 2 20 10t33 13t43 5h6q30 0 54 -8t50 -23t34 -19q4 -2 20 -6 t29 -9t31 -19t32 -32q46 -70 46 -160q0 -46 -12 -74q6 -102 6 -208q0 -34 -2 -79t-2 -79q0 -8 1 -33t1 -41q6 36 20 36q6 0 27 -18t42 -59t21 -87q0 -72 -36 -115t-64 -43q-46 -2 -102 -2q-90 0 -208 2q-42 0 -71 60t-29 102q0 44 30 89t60 45q12 0 22 -10q0 54 -1 100 t-2 69t-1 35q0 16 1 64t3 142q-6 44 -28 54q-10 4 -28 6q-4 0 -9 1t-7 1q-30 0 -72 -27t-50 -47q-2 -78 -2 -152q0 -18 1 -83t1 -161q8 26 24 4q2 -4 8 -12l12 -18q36 -52 36 -106q0 -28 -8 -50q-24 -82 -94 -100q-4 -2 -12 -2h-254q-40 0 -85 42t-45 108z" />
<glyph unicode="o" horiz-adv-x="972" d="M34 500q0 84 26 174q30 102 66 167t108 121q128 98 294 98h24q50 -2 79 -7t70 -25t79 -58q88 -90 122 -168t40 -222q2 -28 2 -80q0 -90 -26 -176q-10 -36 -17 -56t-29 -64t-47 -72t-70 -60t-99 -48q-40 -12 -86 -12q-10 0 -32 1t-32 1q-2 0 -19 -1t-31 -1 q-154 0 -260 100q-162 154 -162 388zM324 530q0 -42 8 -88q10 -64 24 -98t50 -68q4 -4 9 -8t9 -6t10 -4t10 -4t13 -3t13 -2t16 -3t18 -2q36 -6 54 -6t38 12q16 8 26 21t13 20t17 47q36 92 36 170q0 168 -74 262q-26 34 -47 45t-65 11q-38 0 -78 -26q-22 -14 -32 -29t-26 -57 q-42 -114 -42 -184z" />
<glyph unicode="p" horiz-adv-x="1038" d="M44 840q6 36 22 65t45 51t48 33t61 31t54 26q10 6 18 6h12q28 0 51 -10t33 -21t18 -25l8 -14q84 70 220 70q52 0 106 -14q32 -8 60 -20t48 -22t38 -27t30 -27t24 -32t17 -31t12 -34t9 -31t8 -32t6 -30q26 -110 26 -198v-44q-6 -160 -33 -225t-109 -147q-84 -82 -150 -112 q-98 -40 -140 -40t-66 32q0 -24 -1 -49t-1 -27q0 -10 1 -17t1 -18t1 -57t1 -124q6 6 14 6q18 0 40 -20t36 -58q12 -36 12 -62q0 -32 -19 -65t-51 -33h-222q-46 0 -186 4q-28 2 -56 35t-28 75q0 4 1 8t1 8q10 52 39 80t53 28q8 0 10 -2q-2 310 -2 1008l-4 4t-8 5t-15 7 l-27 12t-40 20q-28 16 -28 42q0 6 2 12zM458 330q0 -16 38 -37t68 -21q70 0 132 82q36 48 50 162q2 8 2 26q0 90 -76 172q-54 54 -110 54q-20 0 -54 -10q-24 -10 -42 -12q-8 -2 -8 -6q14 -140 14 -190q0 -26 -7 -81t-7 -139z" />
<glyph unicode="q" horiz-adv-x="984" d="M24 496v26q0 286 104 408q96 106 270 106q54 0 108 -12q66 -16 120 -56l4 8q4 8 12 18t19 20t31 17t44 7h14q28 0 84 -30q38 -20 38 -56q2 -660 2 -1236q2 2 10 2q26 0 55 -27t39 -79q0 -4 1 -10t1 -8q0 -58 -58 -100q-22 -12 -174 -12h-260q-26 0 -48 27t-22 69 q0 30 12 62q14 38 37 58t41 20q8 0 10 -6q0 80 1 128t1 59t1 18t1 17q0 2 -1 24t-1 48q-28 -24 -72 -24q-52 0 -130 30q-20 8 -38 18t-35 23t-26 21t-28 27l-25 25q-60 60 -82 88t-40 96t-20 186zM292 528q0 -6 1 -16t1 -12q14 -108 52 -160q62 -80 130 -80q34 0 68 20 q40 26 40 36q0 84 -7 139t-7 81q0 50 14 190q0 4 -8 6q-18 2 -42 12q-28 12 -54 12q-54 0 -110 -56q-78 -82 -78 -172z" />
<glyph unicode="r" horiz-adv-x="806" d="M32 824q0 16 8 26q6 10 20 32t18 30t16 25t17 24t16 19t20 18t21 15t25 15t29 12q24 10 56 10q40 0 100 -30q8 -4 25 -15t31 -17q0 2 9 18t18 27t37 21t68 10h28q136 -10 180 -186q6 -24 6 -46q0 -56 -36 -108q-54 -82 -124 -82q-12 0 -18 2q-26 6 -44 19t-27 26t-25 38 t-30 41q-2 -8 -6 -28l-7 -35t-3 -19v-266q0 -82 -2 -138q10 16 16 16q14 0 32 -49t18 -79q0 -54 -32 -88q-14 -16 -66 -27t-141 -24t-139 -25q-2 0 -6 -1t-6 -1q-34 0 -61 38t-27 80q0 28 10 46q38 76 76 76q8 0 10 -6q6 98 6 158q0 30 -2 92t-2 102q0 68 2 110 q-32 4 -73 37t-41 87z" />
<glyph unicode="s" horiz-adv-x="724" d="M20 260q0 48 28 114t66 66q32 0 73 -52t79 -104t62 -52h2q36 2 58 30t24 70v4q0 18 -14 32t-60 48q-18 16 -71 20t-107 25t-84 77q-46 84 -46 168q0 6 1 19t1 21q4 96 56 161t142 117q62 40 136 40q30 0 74 -10q148 -38 192 -156q16 -42 16 -70q0 -40 -28 -110t-62 -70 t-78 72l-46 74q-60 40 -72 40q-6 0 -10 -2q-60 -18 -60 -58q0 -2 1 -5t1 -5q4 -18 27 -24t67 -18t82 -42q16 -14 57 -43t63 -48t50 -56t42 -81q18 -58 18 -112q0 -98 -58 -182q-28 -40 -71 -67t-71 -36t-84 -21q-52 -12 -94 -12q-50 0 -100 12q-2 0 -14 3l-16 4l-16 4t-17 5 t-16 6t-17 8t-16 10t-16 12l-14 14t-14 18q-46 70 -46 142z" />
<glyph unicode="t" horiz-adv-x="704" d="M20 868q0 20 7 43t14 35t11 16q54 58 85 90t35 35t10 9t15 16t45 52q16 20 50 20q64 0 96 -56q26 -42 26 -76q0 -12 -6 -36h16q12 0 182 -10q30 -4 53 -41t23 -83q0 -60 -42 -108q-20 -18 -82 -18q-14 0 -55 1t-69 1h-42v-100q0 -26 -1 -96t-3 -184q6 -26 10 -53t6 -37 t5 -20t6 -14t11 -6l6 4q6 4 16 10t23 11t30 9t33 4q42 0 67 -20t25 -50q0 -96 -122 -178q-60 -20 -116 -20q-178 0 -266 144q-8 10 -8 26v554q-94 62 -94 126z" />
<glyph unicode="u" horiz-adv-x="996" d="M16 906q0 24 14 46q32 50 96 82t130 32q104 0 140 -74q8 -16 8 -194q0 -58 -1 -205t-1 -223q8 -14 41 -35t65 -21q64 0 98 86l-2 430q-8 -4 -28 -4q-80 0 -110 50q-16 24 -16 56q0 46 32 82q14 16 28 27t33 16t29 7t32 4t24 2q42 6 80 6q66 0 126 -26q80 -26 88 -82 q0 -2 1 -7t1 -7q0 -28 -14 -51t-26 -23q-4 0 -8 4v-542q30 -38 38 -44q18 -12 48 -34q20 -26 20 -40q0 -12 -12 -30q-60 -82 -106 -119t-146 -69q-6 -2 -18 -2q-30 2 -52 9t-35 25t-15 22t-10 24q-6 -2 -89 -32t-135 -30q-86 0 -152 58q-36 32 -60 77t-30 70t-6 35v170 q0 -6 -2 -6v372q-4 -4 -10 -4q-26 0 -57 36t-31 76z" />
<glyph unicode="v" horiz-adv-x="976" d="M14 960q0 26 14 54q38 74 152 74h62q44 4 58 4q54 0 116 -32q46 -22 46 -62q0 -36 -33 -79t-33 -69q0 -16 10 -48t14 -52l42 -254q2 -8 14 -8t16 8q10 40 30 100t50 170q6 22 12 43t8 29t2 14t-2 10q-6 8 -11 14t-8 9l-7 7t-7 12t-7 24l-16 70q0 36 46 62q60 30 98 30 q8 0 18 -1t23 -3t23 -2q2 0 37 -1t51 -4t43 -17t47 -38q34 -44 34 -90q0 -40 -20 -74q-23 -42 -46 -42h-2q-10 0 -6 10q-62 -94 -109 -204t-171 -320q-14 -34 -19 -104t-29 -130q-10 -18 -39 -32t-63 -14q-72 0 -118 52l-6 12q-32 64 -38 147t-8 89q-48 168 -70 231t-47 123 t-55 144q-2 -14 -4 -14t-24 22q-68 74 -68 130z" />
<glyph unicode="w" horiz-adv-x="1424" d="M16 926q0 88 70 136q4 2 25 7t60 10t75 5q200 0 200 -156q-2 -22 -22 -43t-20 -35q0 -10 2 -14q10 -30 11 -70t20 -79t79 -111q14 10 31 16t23 10t15 23t19 61q14 60 14 114v4q-4 8 -49 36t-69 78q-16 36 -16 68q0 36 24 66q54 50 144 50q46 0 92 -16q58 18 116 18 q144 0 144 -112q0 -32 -16 -60t-36 -44t-37 -27t-17 -13l-2 -6v-10q0 -20 6 -89t6 -81q12 -30 18 -51t5 -24t3 -8t6 -5t19 -11t39 -27q28 6 37 22t35 92q10 28 16 46q32 118 32 122q0 14 -6 32q-4 10 -19 24t-33 52q-14 32 -14 56q0 32 18 52q42 54 118 54q26 0 62 -4 q94 -6 128 -48q30 -40 30 -90q0 -34 -12 -70q-6 -22 -18 -37t-20 -19l-8 -6q-28 -92 -54 -238t-73 -257t-165 -267q-34 -46 -96 -46q-46 0 -62 24q-54 74 -81 124t-35 73t-17 87t-19 108q-16 16 -14 36q-12 -18 -32 -40q-58 -170 -76 -204q-14 -26 -88 -146q-4 -8 -16 -20 t-40 -28t-56 -16q-46 0 -66 32q-84 158 -137 380t-105 332q-10 20 -17 38t-10 25t-15 21t-36 38q-18 18 -18 56z" />
<glyph unicode="x" horiz-adv-x="1084" d="M22 194q0 50 30 84q38 44 90 44q14 0 29 -3t24 -6t11 -3h2q108 106 130 132t60 92q-12 24 -28 62t-24 56t-33 57t-65 93q-6 4 -20 4h-26q-44 0 -98 14q-52 14 -52 106q0 100 56 114q42 10 84 25t67 19t77 4h52q124 0 168 -68q26 -40 26 -78q0 -40 -26 -66 q-26 -30 -20 -52q4 -4 14 -23t28 -19q36 0 70 28t34 50t-18 22h-14q-22 0 -36 40q-4 12 -4 32q0 60 84 114q34 20 128 20h26q8 0 28 1t34 1q88 0 124 -62q18 -26 18 -62q0 -46 -24 -93t-56 -47q-20 0 -26 18q-32 -34 -83 -86t-89 -93t-70 -83q16 -42 52 -81t102 -108 t126 -147q30 -40 30 -100q0 -62 -38 -82q-30 -14 -59 -22t-42 -10t-45 -5t-42 -3q-76 -8 -126 -8q-52 0 -94 8q-2 0 6 8q2 2 0 4q-32 28 -32 76q0 12 3 27t3 19q2 34 22 34q2 0 9 -1t11 -1q6 0 13 5t12 12t9 13l4 6q6 12 6 26q0 16 -11 28t-29 12h-6l-2 -2q-12 0 -30 6h-15 h-19h-16q-38 -18 -38 -50q0 -10 4 -17t16 -20t16 -17v-2q18 -26 18 -50q0 -36 -26 -70q-12 -24 -32 -33t-44 -9t-30 -2q-60 -12 -132 -12q-56 0 -110 12q-56 12 -91 62t-35 106z" />
<glyph unicode="y" horiz-adv-x="1090" d="M10 -324q0 40 20 92q12 96 96 136q32 16 60 16q26 0 50 -14l24 -14q24 8 66 92t42 162q0 36 -14 94q-14 74 -25 128t-25 102t-19 71t-24 65t-23 52t-30 61t-34 67q-48 6 -95 52t-47 100q0 64 44 86q94 60 212 66h16q72 6 80 6q90 0 140 -58q42 -46 42 -102q0 -42 -28 -78 q-30 -36 -46 -36q-10 0 -34 24q6 -18 12 -50q8 -44 16 -78t13 -54t15 -46t12 -32t17 -39t19 -43q24 0 24 10q10 20 30 54t27 48t18 43t16 63t11 84l4 50q-10 -20 -24 -20q-26 0 -51 42t-25 76q0 46 30 82q20 22 93 42t149 20q84 0 134 -28q20 -10 44 -50t24 -86 q0 -34 -18 -70q-6 -12 -17 -20t-20 -11t-20 -6t-13 -3q-72 -148 -159 -342t-178 -372t-303 -568q-20 -38 -108 -38q-76 0 -182 76q-38 28 -38 96z" />
<glyph unicode="z" horiz-adv-x="1052" d="M28 114q0 42 48 114q108 134 192 231t134 158t124 161q18 48 18 60q0 30 -56 30q-38 0 -104 -28q-24 -10 -43 -36t-32 -54t-46 -66t-83 -66q-18 -8 -36 -6q-44 8 -70 40t-26 64q0 28 18 40q2 14 2 46q0 16 -1 51t-1 53q0 66 14 106q10 32 48 38q58 8 96 8q24 0 53 -4 t49 -4q74 0 188 7t172 7q94 0 204 -14q32 -6 49 -40t17 -70q0 -28 -8 -57t-16 -45l-8 -16l-392 -514q70 -14 84 -14q20 0 64 16q36 16 80 102t100 132q24 16 46 8q18 -6 32 -14t25 -20t19 -22t14 -27t10 -27t7 -30t4 -26t3 -26t2 -22q4 -56 4 -88q0 -140 -92 -208 q-12 -10 -30 -10h-90q-60 0 -139 -2t-129 -2h-60q-40 0 -90 -3t-76 -3q-90 0 -242 22q-50 12 -50 70z" />
<glyph unicode="{" horiz-adv-x="534" d="M42 792q0 12 42 32q36 16 68 24t42 11t19 15t17 44q2 4 2 12q0 14 -12 30t-33 43t-37 57q-56 108 -56 196q0 94 62 164q88 96 176 96q38 0 70 -16q52 -24 52 -80q0 -20 -10 -40q-26 -50 -90 -50h-36q-22 -22 -22 -50t54 -109t78 -149q28 -132 28 -184q0 -16 -2 -26 t-11 -17t-12 -9t-22 -7t-25 -7q12 -8 29 -15t24 -11t13 -19t6 -45q0 -42 -8 -106q-14 -132 -52 -236t-38 -148q0 -22 2 -34q0 -6 6 -6q4 0 26 9t36 9q26 0 45 -22t19 -48q0 -28 -20 -48q-56 -60 -140 -60q-62 0 -108 38q-104 78 -104 216q0 94 52 176q10 16 26 39t23 33 t12 24t5 26q0 4 -1 8t-1 8q-4 24 -12 42t-27 37t-30 29t-46 35t-53 39q-26 48 -26 50z" />
<glyph unicode="|" horiz-adv-x="510" d="M90 1402v8q0 50 36 75t86 25q42 0 74 -16q78 -40 104 -167t26 -319q0 -34 -1 -95t-1 -87q0 -74 -3 -203t-3 -183q0 -198 30 -328q4 -16 4 -24q0 -84 -134 -84q-76 0 -141 30t-65 74q0 14 4 22v94q0 218 -8 455t-8 723z" />
<glyph unicode="}" horiz-adv-x="534" d="M42 1412q0 28 20 48q56 60 140 60q62 0 108 -38q104 -78 104 -216q0 -94 -52 -176q-10 -16 -26 -39t-23 -33t-12 -24t-5 -26q0 -4 1 -8t1 -8q4 -24 12 -42t27 -37t30 -29t46 -35t53 -39q26 -48 26 -50q0 -12 -42 -32q-36 -16 -68 -24t-42 -11t-19 -15t-17 -44 q-2 -4 -2 -12q0 -14 12 -30t33 -43t37 -57q56 -108 56 -196q0 -94 -62 -164q-88 -96 -176 -96q-38 0 -70 16q-52 24 -52 80q0 20 10 40q26 50 90 50h36q22 22 22 50t-54 109t-78 149q-28 132 -28 184q0 16 2 26t11 17t12 9t22 7t25 7q-12 8 -29 15t-24 11t-13 19t-6 45 q0 42 8 106q14 132 52 236t38 148q0 22 -2 34q0 6 -6 6q-4 0 -26 -9t-36 -9q-26 0 -45 22t-19 48z" />
<glyph unicode="~" horiz-adv-x="780" d="M24 702q0 18 6 34t14 26t20 21t20 16t21 11t15 8q78 48 152 48h16q34 -2 60 -13t49 -26t33 -19q24 -10 39 -18t20 -11t9 -3l6 8q4 10 13 22t21 24t33 20t47 8q48 -2 89 -30t45 -80v-6q0 -14 -4 -26t-10 -21t-14 -16t-15 -12t-14 -8t-11 -5l-4 -2q-10 -8 -35 -31t-42 -36 t-48 -25t-65 -14h-14q-54 0 -95 25t-65 50t-40 25h-2l-14 -18q-16 -20 -44 -38t-60 -18q-56 0 -94 38t-38 92z" />
<glyph horiz-adv-x="3194" d="M48 630q0 320 192 536q76 86 142 138t182 124q252 158 448 158h42q168 0 250 -56q36 -24 63 -58t39 -59t33 -76t33 -77q20 -44 43 -122t36 -134t15 -56l18 32q20 30 51 79t69 102t84 106t88 85q120 92 281 155t275 73q112 8 148 8q294 0 432 -172q52 -60 77 -113t43 -139 q20 -98 20 -176q0 -46 -7 -95t-15 -86t-24 -105t-26 -114q-8 -34 -17 -63t-25 -59t-25 -48t-34 -50t-34 -44t-42 -50t-43 -50q-90 -106 -177 -144t-291 -48q-96 -6 -174 -6q-128 0 -234 24t-181 70t-101 67t-66 59q-22 22 -46 107t-42 158t-30 73q-4 0 -16 -26t-26 -57 t-20 -39l-188 -246q-46 -60 -77 -92t-99 -68t-146 -36h-52q-14 0 -75 -1t-89 -1q-130 0 -254 30q-16 4 -50 12t-49 12t-43 12t-43 15t-37 19t-41 27t-37 35q-18 18 -32 37t-25 42t-17 36t-13 45t-9 41t-9 50t-9 49q-14 82 -14 150zM150 706q0 -126 18 -213t35 -118t49 -75 q14 -20 30 -35t38 -27t35 -18t44 -17t45 -17q86 -34 152 -47t186 -13q114 0 206 27t158 76t100 85t74 88q36 48 56 78t44 95t24 131q0 36 -6 68t-21 81t-21 73t-20 86t-21 87t-26 68t-45 83q-46 70 -85 108t-103 64q-70 26 -132 26q-58 0 -136 -22q-82 -22 -153 -60 t-111 -70t-128 -106q-64 -54 -100 -90t-87 -100t-75 -137t-24 -159zM302 322q20 78 96 128q36 22 85 31t83 7t59 10t25 44q0 8 -1 24t-1 26v46q0 96 -76 96q-24 0 -68 -14l-44 -12q-12 0 -22 12q-2 14 -2 18t11 17t15 19q34 56 51 70t59 18q6 0 20 -4t18 2q28 22 28 62 q0 14 -4 43t-4 45q0 14 3 32t3 44q0 8 -1 25t-1 25q0 54 19 66t99 12q16 0 44 -1t52 -1q22 0 63 -4t67 -4q48 0 82 6t45 10t40 22t39 24q6 4 9 -1t7 -15t8 -14q2 -4 7 -9t8 -9t5 -10t0 -12q-2 -8 -17 -12t-19 -10q-6 -12 -6 -20q0 -16 36 -35t38 -35q2 -8 -1 -14t-6 -10 t-11 -11t-10 -9q-38 -38 -80 -38q-20 0 -58 16t-108 16q-134 0 -212 -30q-14 -6 -14 -20q0 -8 8 -31t10 -35q4 -86 11 -107t35 -21q16 0 62 10t70 10q6 0 15 -1t21 -1q18 0 53 4t51 4q30 0 47 -12t20 -21t3 -17q0 -10 -10 -17t-25 -14t-23 -15t-19 -29t-25 -33t-38 -12 q-6 0 -80 18t-82 18q-10 0 -21 -4t-22 -23t-11 -49v-36q0 -16 -5 -56t-5 -66t4 -47t9 -34t5 -15q0 -8 -8 -15t-22 -15t-20 -14l-19 -19t-22 -19t-21 -6h-4q-16 0 -28 9t-24 24t-22 23q-12 10 -32 31t-37 31t-39 10q-26 0 -67 -25t-65 -49q-4 -6 -8 -25t-16 -21 q-10 -2 -18 14t-12 18t-14 4t-15 5t-3 9zM1622 718q0 -82 74 -210q56 -96 113 -156t151 -116q32 -20 61 -33t66 -23t56 -15t70 -13t71 -12q98 -18 138 -18q170 0 269 56t157 158q52 90 80 154t57 207t29 325q0 180 -82 322q-50 86 -160 128q-106 38 -196 38q-66 0 -192 -24 q-88 -16 -150 -44t-158 -86q-140 -84 -228 -192q-4 -6 -40 -48t-52 -62t-47 -67t-46 -83t-28 -86t-13 -100zM1906 462q0 128 6 210q2 30 4 82t6 92t18 102q8 34 24 62t31 43t47 44t48 45q30 30 95 67t97 75q16 20 22 59t11 65t21 26q14 0 20 -10t7 -29t5 -27q4 -12 6 -43 t16 -45q34 -32 94 -32q8 0 26 1t28 1q18 0 56 -4t52 -4q34 0 52 6t33 18t31 18q10 4 35 18t37 14q38 0 38 -36q0 -8 -4 -24q-4 -12 -29 -24t-25 -36q0 -30 44 -70t44 -66q0 -28 -23 -51t-45 -23q-14 0 -22 10q-10 12 -34 30t-34 38q-18 34 -27 46t-40 21t-93 9 q-140 0 -152 -76q-50 -256 -50 -560q0 -64 1 -95t4 -48t6 -19t13 -2t34 6t36 6h6q12 0 32 4t30 4q48 0 48 -16q0 -6 -13 -14t-38 -19t-29 -13q-18 -10 -53 -13t-55 -15t-42 -37t-37 -44t-23 -19q-6 0 -10 5t-18 21t-38 32l-70 48q-26 18 -74 45t-76 49q-14 12 -45 26t-48 28 t-17 38zM2042 516q0 -20 13 -33t48 -28t41 -19q10 -4 30 -17t36 -22t26 -9t16 15t9 48t4 67t2 91t3 101q10 220 12 286q0 12 1 26t1 20q0 60 -13 82t-45 22q-10 0 -20 -4t-22 -13t-18 -13q-10 -4 -32 -11t-33 -15t-13 -24q-20 -118 -30 -307t-16 -237v-6z" />
<glyph unicode="&#xa1;" horiz-adv-x="602" d="M148 214q0 138 10 269t19 196t29 182t24 141q4 22 44 53t84 31q28 0 53 -13t27 -37q18 -128 18 -196q0 -14 -1 -40t-1 -42q0 -8 1 -25t1 -27q2 -46 12 -203t10 -251q0 -40 -4 -148q-2 -30 -53 -66t-117 -36q-74 0 -136 52q-18 14 -18 34q-2 44 -2 126zM152 1318 q0 68 56 122q52 50 128 50q64 0 110 -38t46 -102v-18q-10 -102 -102 -140q-46 -20 -88 -20q-66 0 -108 43t-42 103z" />
<glyph unicode="&#xa2;" horiz-adv-x="674" d="M30 746q0 64 20 134q22 78 55 130t57 71t74 49q0 62 4 152q2 32 44 73t92 41q62 0 112 -66q12 -16 12 -176q72 -28 108 -78t36 -102q0 -44 -24 -73t-64 -33q-38 -2 -60 16l-12 -184l-2 -40q24 38 68 38q36 0 65 -25t29 -63v-6q-2 -36 -5 -56t-11 -45t-24 -41t-43 -32 t-67 -30q-2 0 -28 -2l-46 -6q4 0 34 -2l-12 -116q-4 -22 -37 -57t-71 -35q-22 0 -45 16t-23 40l-14 162q-58 10 -140 106t-82 240zM190 788q0 -36 4 -60q4 -22 5 -28t5 -15t7 -11t16 -12t25 -22l24 -20q20 26 18 44v52q0 36 -1 74t-1 52t-1 31t-4 26l-7 21q-2 8 -12 21 t-12 17l-32 -22q-34 -92 -34 -148z" />
<glyph unicode="&#xa3;" horiz-adv-x="1416" d="M6 124q0 36 48 120q20 26 98 26q20 0 34 -1t20 -1l6 -2q2 0 18 14q114 96 114 252q0 16 -1 34t-1 22v4h-14q-132 0 -232 92q-38 36 -38 84q0 72 60 118q86 66 158 66q16 0 38 -4t32 -4h6q14 40 14 98q0 48 -14 98q-2 8 -29 30t-50 57t-23 77v16q24 206 346 206 q264 0 458 -218q16 -22 43 -85t27 -109q0 -62 -54 -62q-8 0 -32 4q-86 20 -142 49t-75 51t-36 39t-37 17q-46 0 -46 -46v-58v-52t1 -38t2 -24t1 -15v-7q6 0 16 -1t16 -2t8 -1q20 -6 68 -7t90 -14t74 -51q52 -60 52 -126q0 -50 -36 -86q-92 -88 -226 -88q-20 0 -42 2l-22 2 q0 -34 -25 -77t-55 -116t-36 -179q150 -38 230 -38q94 0 250 68q0 10 -14 66t-14 106q0 42 8 84q18 86 124 86q26 0 67 -6t49 -6h6q30 -2 41 -9t17 -31q38 -170 38 -262q0 -50 -20 -244q0 -2 1 -2t1 -2q0 -12 -20 -27t-36 -15q-6 0 -10 4q-2 2 -22 7t-46 11t-40 8 q-110 -6 -230 -15t-197 -14t-155 -5q-192 0 -538 34q-30 4 -51 38t-21 60z" />
<glyph unicode="&#xa4;" horiz-adv-x="676" d="M26 498v12q0 32 45 60t79 30l18 -24q-2 4 -8 22q-12 26 -14 32q-10 46 -10 74q0 40 12 80q4 12 16 44l6 16q-4 -2 -12 -18l-10 4l-16 8t-21 11t-23 14t-22 15t-20 17t-14 18t-6 19v6q0 22 10 38t20 20l10 6q20 22 82 22q18 0 55 -2t53 -2q8 0 19 -12t21 -8q8 2 23 -8 t19 -30l46 6h18q14 52 62 52q20 0 41 1t27 1q24 0 80 -18q38 -16 38 -62q0 -34 -28 -60q-36 -30 -52 -30q-8 0 -8 6l-4 -6q0 -4 9 -15t16 -33t7 -52q0 -54 -24 -132q-10 -32 -10 -34l8 -8h6q26 0 53 -26t27 -60q0 -78 -148 -78l-38 2q-20 0 -38 16t-24 38l-66 -2h-4 q-6 -12 -15 -19t-15 -9l-6 -2q-16 -22 -40 -22q-22 0 -52 -2t-44 -2q-36 0 -62 4q-6 2 -15 10t-17 10q-4 0 -12 5t-18 21t-10 36zM240 724q0 -18 8 -46q2 -4 6 -20t6 -22t8 -19t13 -20t17 -16t25 -14t33 -7q4 0 10 -1t8 -1q58 0 84 45t26 107q0 60 -16 86q-42 80 -102 80 q-28 0 -62 -20q-16 -10 -30 -44t-22 -44q-12 -20 -12 -44z" />
<glyph unicode="&#xa5;" horiz-adv-x="1576" d="M14 1364q0 44 21 78t49 38q206 16 246 16q14 0 45 -2t69 -2q54 0 210 6h2q32 0 62 -39t30 -85q0 -44 -29 -70t-73 -26t-72 28q78 -208 136 -315t80 -177l262 424q-58 2 -100 42t-42 92q0 70 78 118q12 8 22 8q68 4 115 8t64 6t29 2t34 -2t83 -6t143 -8q28 -2 52 -36 t24 -76q0 -40 -22 -70q-36 -54 -112 -54q-26 0 -63 8t-43 8q-2 0 -6 -2q-30 -54 -122 -229t-154 -271q162 -10 226 -40q60 -30 60 -64q0 -28 -40 -50q-96 -52 -364 -52v-22q0 -20 4 -52h44q214 0 296 -42q60 -30 60 -64q0 -28 -40 -50q-94 -52 -344 -52q-14 -68 -24 -98 l-2 -4q0 -4 4 -4q2 0 37 19t59 19q36 0 60 -38t24 -70t-15 -55t-41 -25q-260 -26 -320 -26q-64 0 -302 20q-26 4 -43 29t-17 59q0 62 46 102q36 34 94 34q30 0 53 -9t27 -17q2 32 6 60q-170 10 -254 56q-40 22 -40 46q0 38 83 67t221 31v82q-168 8 -264 56q-40 20 -40 46 q0 32 66 60t160 34q-56 96 -152 223t-166 243q-8 -16 -50 -16q-46 0 -74 26q-56 50 -56 126z" />
<glyph unicode="&#xa6;" horiz-adv-x="548" d="M94 1438q0 34 42 55t94 21q36 0 68 -14q80 -40 104 -169t24 -331v-88q-4 -34 -23 -42t-113 -26q-46 -8 -96 -8q-6 0 -18 1t-16 1q-30 4 -41 12t-13 36q-6 118 -6 226q0 42 1 140t1 156q-8 14 -8 30zM112 638q8 40 22 44q10 6 174 8q32 0 64 2q30 -4 41 -13t11 -37 q0 -38 -1 -104t-1 -98q0 -204 28 -322q4 -16 4 -24q0 -84 -134 -84q-74 0 -140 31t-66 73q0 6 4 22v110q0 174 -6 392z" />
<glyph unicode="&#xa7;" horiz-adv-x="1286" d="M182 676q0 18 4 50q8 62 45 102t74 55t68 45t31 76q0 28 -15 93t-15 103q0 72 42 136q92 132 248 132q4 0 16 -1t16 -1q120 -10 183 -64t63 -124q0 -60 -46 -105t-126 -53h-6q-28 0 -52 20t-37 40t-15 20t-2 -4q-2 -14 -16 -49t-14 -65q0 -18 6 -46q10 -50 45 -86t89 -82 t92 -102q22 -34 95 -120t108 -156t39 -164v-26q0 -64 -19 -121t-35 -83t-48 -64l-32 -36q60 -112 60 -188t-38 -154q-78 -158 -276 -172q-6 0 -20 -1t-20 -1q-190 0 -260 138q-14 26 -14 56q0 64 54 108t116 44q32 0 80 -12q36 -8 55 -26t27 -40t14 -28v2q0 2 -2 10t-6 25 t-6 39q-8 78 -29 130t-71 138q-16 26 -45 79t-41 71t-39 51t-59 58t-80 53q-186 110 -186 300zM430 814q52 -134 130 -302q10 -22 82 -59t126 -107q42 -56 42 -94l-2 -10q18 -2 32 -11t26 -25t19 -26t19 -34t16 -30l2 -2v2q0 12 -17 62t-55 124t-82 120q-92 62 -197 210 t-141 182z" />
<glyph unicode="&#xa8;" horiz-adv-x="506" d="M40 816q0 43 28 79.5t71 36.5q47 0 74.5 -41.5t27.5 -81.5t-29 -70t-76 -30q-28 0 -47 9.5t-24 17t-12 20.5q-13 33 -13 60zM264 824q0 43 28 79.5t71 36.5q47 0 74.5 -41.5t27.5 -81.5t-29 -70t-76 -30q-28 0 -47 9.5t-24 17t-12 20.5q-13 33 -13 60z" />
<glyph unicode="&#xa9;" horiz-adv-x="994" d="M-12 564q0 157 98 280q87 110 194.5 160t250.5 50q244 -3 373 -178q78 -104 78 -234q0 -69 -22 -176q-12 -53 -32.5 -93t-61 -88t-53.5 -67q-97 -142 -296 -142q-108 0 -216 44q-57 31 -81 45t-71.5 47t-70.5 60.5t-46.5 70t-30.5 92.5q-13 82 -13 129zM267 484 q0 -56 33 -112q26 -45 55.5 -68t81.5 -39q50 -16 84 -16q44 0 87 23q50 28 75 63.5t57 111.5q41 98 41 150q0 29 -10 84q-11 65 -28.5 101t-59.5 70q-74 60 -135 60q-18 0 -38 -4q-65 -10 -105 -44t-87 -104q-20 -31 -30.5 -62.5t-12 -54t-4.5 -76.5q0 -11 -1.5 -28.5 t-2 -30.5t-0.5 -24zM319 587q0 42 13 87q15 51 33 83.5t54 60.5q64 49 147 49h12q25 -1 39.5 -3.5t35 -12.5t39.5 -29q38 -38 38 -79q0 -27 -15.5 -45.5t-38.5 -20.5h-4q-13 0 -24.5 6t-17.5 13t-11 14t-6 8q-10 7 -18 14.5t-11.5 10.5t-10.5 5t-20 2q-19 0 -39 -13 q-11 -7 -16 -14.5t-13 -28.5q-21 -57 -21 -92q0 -21 4 -44q5 -32 12 -49t25 -34q2 -2 4.5 -4t4.5 -3t5 -2t5 -2t6.5 -1.5t6.5 -1t8 -1.5t9 -1q18 -3 27 -3t19 6q3 2 5 3t4 3t3.5 3t3 4t2.5 4t2.5 5t2 5.5t2.5 7t3 8.5q11 33 45 33q22 0 39 -15t17 -37v-3q-2 -39 -6 -54.5 t-17 -33.5q-38 -52 -130 -52q-5 0 -10 0.5t-8 0.5h-3q-1 0 -9.5 -0.5t-15.5 -0.5q-77 0 -130 50q-81 77 -81 194z" />
<glyph unicode="&#xaa;" horiz-adv-x="728" d="M20 418q0 60 42 106q60 68 182 68h28q36 0 94 12t96 12q26 0 40 -2q2 0 25 -4t30 -5t27 -7t31 -12t26 -18t27 -28q40 -54 40 -114q0 -48 -28 -88q-20 -30 -44 -50t-59 -28t-53 -11t-64 -4t-52 -1q-10 0 -60 -4t-78 -4q-150 0 -224 100q-26 38 -26 82zM29 842q0 53 19 104 q32 80 132.5 139t161.5 59h11q25 0 25 60q0 28 -6.5 57.5t-12.5 34.5q-29 0 -46 -4t-25 -17.5t-10.5 -19.5t-3 -31.5t-0.5 -31.5q-5 -44 -39.5 -69t-78.5 -25q-40 0 -74 27t-34 88q0 47 22 95.5t56 78.5q82 67 236 67q72 0 117 -32q35 -24 55 -53t28 -73t10.5 -75t2.5 -98 t1 -103v-88q0 -28 2 -44q34 34 68 34q24 0 42.5 -18t18.5 -46q0 -11 -3 -26l-3 -14q0 -4 -0.5 -17.5t-1.5 -20t-2.5 -19.5t-4.5 -21t-8.5 -19.5t-12.5 -21t-17 -19.5q-12 -10 -26 -17t-22 -7.5t-24 -1t-18 -0.5q-6 0 -15 -1t-11 -1q-36 0 -62.5 8t-35.5 16.5t-18.5 22 t-11.5 15.5l-14 24q-1 0 -7 -7t-21 -20t-33 -23l-12 -9q-12 -11 -24.5 -17.5t-40.5 -13t-61 -6.5q-77 0 -122.5 56t-45.5 144zM244 904q2 -74 19 -74q1 0 7 4q5 2 4 4q-2 0 -1 1.5t5 4t13 5.5t25 9.5t20.5 8t12 6.5t13.5 13q32 38 32 69q0 7 -2 14t-4 11.5t-4 8t-4 5.5l-2 3 q-20 0 -73 -33l-6 -3q-6 -5 -15 -11t-18.5 -13t-15.5 -15.5t-6 -15.5v-2z" />
<glyph unicode="&#xab;" horiz-adv-x="1362" d="M30 514q0 40 46 72q12 8 84 77t122 107q14 12 52 51t79 64t103 37q54 10 96 10q94 0 144 -50q30 -24 30 -62q0 -48 -40 -88q-24 -30 -70 -30q-32 0 -32 8q0 2 2 2h-2q-50 -32 -116 -73t-105 -67t-63 -46q8 -14 44 -35t118 -73t172 -122q8 -8 12 -14l6 -8q6 -8 12 -18 t11 -25t5 -29q0 -36 -32 -62q-6 -6 -20 -10q-36 -10 -67 -16t-49 -8t-53 -3t-53 -3h-10q-38 0 -73 20t-54 39t-56 65t-51 62q-10 12 -66 58t-91 89t-35 81zM576 502q0 40 46 72q12 8 84 77t122 107q14 12 52 51t79 64t103 37q54 10 96 10q94 0 144 -50q30 -24 30 -62 q0 -48 -40 -88q-24 -30 -70 -30q-32 0 -32 8q0 2 2 2h-2q-50 -32 -116 -73t-105 -67t-63 -46q8 -14 44 -35t118 -73t172 -122q8 -8 12 -14l6 -8q6 -8 12 -18t11 -25t5 -29q0 -36 -32 -62q-6 -6 -20 -10q-36 -10 -67 -16t-49 -8t-53 -3t-53 -3h-10q-38 0 -73 20t-54 39 t-56 65t-51 62q-10 12 -66 58t-91 89t-35 81z" />
<glyph unicode="&#xac;" horiz-adv-x="752" d="M24 504q0 60 42 106q58 68 180 68h28q38 0 54 4q70 20 150 20q138 0 194 -76q56 -78 56 -178q0 -40 -12 -115t-14 -109q-2 -48 -48 -76t-106 -28q-84 0 -120 50q-26 38 -26 88q0 16 8 72h-93t-156 20t-111 72q-26 38 -26 82z" />
<glyph unicode="&#xad;" horiz-adv-x="728" d="M20 418q0 60 42 106q60 68 182 68h28q36 0 94 12t96 12q26 0 40 -2q2 0 25 -4t30 -5t27 -7t31 -12t26 -18t27 -28q40 -54 40 -114q0 -48 -28 -88q-20 -30 -44 -50t-59 -28t-53 -11t-64 -4t-52 -1q-10 0 -60 -4t-78 -4q-150 0 -224 100q-26 38 -26 82z" />
<glyph unicode="&#xae;" horiz-adv-x="994" d="M-12 564q0 157 98 280q87 110 194.5 160t250.5 50q244 -3 373 -178q78 -104 78 -234q0 -69 -22 -176q-12 -53 -32.5 -93t-61 -88t-53.5 -67q-97 -142 -296 -142q-108 0 -216 44q-57 31 -81 45t-71.5 47t-70.5 60.5t-46.5 70t-30.5 92.5q-13 82 -13 129zM267 484 q0 -56 33 -112q26 -45 55.5 -68t81.5 -39q50 -16 84 -16q44 0 87 23q50 28 75 63.5t57 111.5q41 98 41 150q0 29 -10 84q-11 65 -28.5 101t-59.5 70q-74 60 -135 60q-18 0 -38 -4q-65 -10 -105 -44t-87 -104q-20 -31 -30.5 -62.5t-12 -54t-4.5 -76.5q0 -11 -1.5 -28.5 t-2 -30.5t-0.5 -24zM328 740q0 8 4 13q3 5 10 16t9 15t8 12.5t8.5 12t8 9.5t10 9t10.5 7.5t12.5 7.5t14.5 6q12 5 28 5q20 0 50 -15q4 -2 12.5 -7.5t15.5 -8.5q0 1 4.5 9t9 13.5t18.5 10.5t34 5h14q68 -5 90 -93q3 -12 3 -23q0 -28 -18 -54q-27 -41 -62 -41q-6 0 -9 1 q-13 3 -22 9.5t-13.5 13t-12.5 19t-15 20.5q-1 -4 -3 -14l-3.5 -17.5t-1.5 -9.5v-133q0 -41 -1 -69q5 8 8 8q7 0 16 -24.5t9 -39.5q0 -27 -16 -44q-7 -8 -33 -13.5t-70.5 -12t-69.5 -12.5q-1 0 -3 -0.5t-3 -0.5q-17 0 -30.5 19t-13.5 40q0 14 5 23q19 38 38 38q4 0 5 -3 q3 49 3 79q0 15 -1 46t-1 51q0 34 1 55q-16 2 -36.5 18.5t-20.5 43.5z" />
<glyph unicode="&#xaf;" horiz-adv-x="720" d="M16 842q0 30 42 54q60 32 182 32h28q36 0 94 6t96 6h40q2 0 25 -2t30 -3t27 -3t31 -6t26 -10t27 -12q40 -28 40 -58q0 -24 -28 -44q-20 -16 -44 -25t-59 -14t-53 -6t-64 -1h-52q-10 -2 -60 -3t-78 -1q-150 0 -224 48q-26 20 -26 42z" />
<glyph unicode="&#xb0;" horiz-adv-x="580" d="M47 881q0 46 14 96q16 56 36 91.5t60 66.5q70 54 161 54h14q27 -1 43 -4t38.5 -14t43.5 -32q48 -49 67 -92t22 -122q1 -15 1 -44q0 -50 -14 -97q-6 -20 -9.5 -31t-16 -35t-26 -39.5t-38.5 -33t-54 -26.5q-22 -6 -48 -6q-5 0 -17 0.5t-18 0.5q-1 0 -10.5 -0.5t-16.5 -0.5 q-85 0 -143 55q-89 84 -89 213zM206 897q0 -23 5 -48q5 -35 12.5 -54t27.5 -37q2 -2 5 -4.5t5 -3.5t5.5 -2t5.5 -2t7 -2l7.5 -1.5t9 -1.5t9.5 -1q20 -3 30 -3t21 6q9 5 14.5 12t7 11t9.5 26q19 50 19 93q0 93 -40 144q-15 19 -26.5 25t-35.5 6q-21 0 -43 -14 q-12 -8 -17.5 -16t-14.5 -31q-23 -63 -23 -102z" />
<glyph unicode="&#xb1;" horiz-adv-x="740" d="M24 824q0 60 42 106q16 18 46 27t64 12t40 5v52q0 84 60 126q38 26 80 26q60 0 108 -42q58 -78 58 -138q8 -4 14 -4t22 2t26 2q50 0 88 -52q40 -54 40 -114q0 -48 -28 -88q-24 -36 -92 -36q-14 0 -37 2t-31 2q-12 0 -16 -2q0 -4 4 -34t4 -50q0 -68 -38 -96 q-54 -40 -114 -40q-48 0 -88 28q-20 12 -33 32t-19 44t-9 41t-5 38t-2 25q-4 2 -18 2q-4 0 -18 -1t-22 -1q-68 0 -100 44q-26 38 -26 82zM28 256q0 60 42 106q60 68 182 68h28q36 0 94 12t96 12q26 0 40 -2q2 0 25 -4t30 -5t27 -7t31 -12t26 -18t27 -28q40 -54 40 -114 q0 -48 -28 -88q-20 -30 -44 -50t-59 -28t-53 -11t-64 -4t-52 -1q-10 0 -60 -4t-78 -4q-150 0 -224 100q-26 38 -26 82z" />
<glyph unicode="&#xb2;" horiz-adv-x="560" d="M79 716q0 26 12 45q28 46 59.5 81t53.5 53.5t47.5 48t45.5 67.5q14 27 14 45q0 15 -9 27.5t-26 12.5q-15 0 -39 -9q-13 -4 -21.5 -12t-14 -16.5t-20 -25t-35.5 -34.5q-14 -8 -20 -8q-11 0 -24 23.5t-13 43.5q0 19 17 46q34 49 58 68.5t66 33.5q68 24 109 24 q56 0 96.5 -39t40.5 -99q0 -32 -16 -90q-9 -31 -25 -55t-31.5 -37t-33.5 -29.5t-28 -31.5q-3 -11 -4 -19h10q5 0 17 -0.5t23 -0.5q-20 5 -20 17q0 8 10 18t15 13q36 14 60 14q30 0 60 -20q14 -11 10 -26q-8 -36 -11.5 -51t-10 -29.5t-10.5 -18.5t-17.5 -20t-26.5 -33 q-7 -9 -19 -9q-155 -8 -168 -8q-8 0 -19.5 1t-43.5 2t-85 2q-33 0 -33 35z" />
<glyph unicode="&#xb3;" horiz-adv-x="560" d="M91 523q0 46 34 82q11 9 53 9q9 0 17.5 -1.5t17.5 -1.5q2 0 8.5 0.5t10.5 0.5q11 0 20.5 -8t9.5 -16q0 -2 -0.5 -6t-0.5 -7q0 -28 9 -28q3 0 7 3.5t10.5 9.5t10.5 10q56 46 56 145q0 47 -49 47q-6 0 -34 -2q-4 0 -29.5 -16t-69.5 -20q-15 0 -29 16t-14 41q0 19 9 45 t13 30q42 46 85 84.5t77 77.5q1 0 1 2q0 8 -11 20.5t-24 12.5q-19 0 -31 -10.5t-18.5 -24t-24 -30.5t-44.5 -28q-12 -4 -16 -4q-29 0 -29 53q0 52 30 105.5t85 85.5q4 2 14 8t13.5 7.5t12 5.5t14 5.5t14.5 3.5t18.5 2.5t21.5 0.5q50 0 94 -29t44 -86q0 -15 -13 -83 q-8 -40 -28 -65t-35 -38.5t-15 -26.5v-2q20 17 29 17q12 0 32 -17q19 -15 30.5 -36t15 -36t8.5 -42q7 -47 7 -74q0 -61 -27 -128q-20 -49 -43 -80t-64 -53q-93 -49 -151 -49q-55 0 -93.5 34.5t-38.5 83.5z" />
<glyph unicode="&#xb4;" horiz-adv-x="576" d="M38 896q0 12 2 18q20 80 60 192q10 30 24 77t24 75t32 73t54 93q22 42 110 42q58 0 166 -56q36 -42 36 -50q0 -10 -34 -38q-28 -24 -92 -226t-84 -234q-30 -42 -146 -42q-64 0 -108 19t-44 57z" />
<glyph unicode="&#xb5;" horiz-adv-x="1004" d="M20 832q0 24 12 48q10 16 21 29t21 22t26 17t25 13t27 11t25 8t27 6t24 6q24 4 36 4q42 0 80 -21t56 -55q6 -10 6 -180q0 -64 -1 -219t-1 -223q10 -18 41 -37t65 -19q64 0 98 86q0 86 -1 102t-1 338q-6 -18 -42 -18q-40 0 -76 31t-36 79q0 46 32 82q14 16 29 27t34 16 t29 7t31 4t23 2t32 3t44 3q62 0 132 -26q78 -26 86 -82v-14q0 -28 -12 -54t-24 -26q-8 0 -10 10v-542q30 -38 40 -44q18 -12 46 -34q22 -26 22 -40t-14 -30q-60 -82 -106 -119t-146 -69q-6 -2 -18 -2q-36 2 -61 15t-33 27t-14 31t-8 19q-2 -6 0 -10l-4 -2q-8 -2 -14 -4 q-36 -10 -76 -13t-59 -8t-33 -21q-34 -36 -34 -106q0 -30 9 -83t9 -91q0 -110 -66 -176q-40 -40 -72 -40q-132 0 -132 544q0 176 4 176v170q0 -6 -2 -6v384q-10 -10 -22 -10q-22 0 -48 33t-26 71z" />
<glyph unicode="&#xb6;" horiz-adv-x="1466" d="M32 1106q0 174 104 266q122 106 322 106q36 0 110 -3t90 -3q222 -6 402 -14q28 50 86 50q34 0 67 -17t45 -39q16 0 36 -1t33 -2t21 -1q20 0 34 -12q52 -48 52 -76t-30 -60q-4 -4 -20 -10l-10 -6l2 -2q12 -6 12 -8q0 -10 -52 -10q-36 0 -50 6q2 -52 4 -84t2 -54 q0 -54 -22 -476q-4 -58 -7 -114t-5 -95t-4 -70t-2 -47l-2 -16q16 -12 46 -12q8 0 23 2t19 2h4q8 -2 16 -8q76 -62 76 -150q0 -36 -18 -71t-50 -41q-32 -4 -278 -12q-18 2 -23 5t-6 17t-3 24l-8 162v2q2 66 2 198v98q-2 152 -2 326v112q0 102 -8 192q-4 30 -26 66 q-20 32 -22 -20q0 -18 2 -44q4 -570 4 -572v-364q0 -4 7 -52t7 -78q0 -78 -44 -78h-2q-76 0 -211 3t-193 3q-14 0 -30 10q-70 54 -70 132q0 36 22 74q44 80 150 80q14 0 30 -2l16 -2q10 162 12 344h-2l-34 -4q-36 -6 -70 -6q-88 0 -186 36q-106 42 -177 95t-131 141 q-60 94 -60 184zM432 1112q0 -36 24 -86q12 -24 29 -36t61 -32q122 -54 140 -54q8 0 10 2q12 104 12 178q0 72 -12 208q-36 10 -50 10q-18 0 -70 -18t-77 -35t-43 -53q-24 -48 -24 -84z" />
<glyph unicode="&#xb7;" horiz-adv-x="608" d="M84 594q0 96 62 177t158 81q106 0 167 -93t61 -181t-65 -155t-169 -67q-62 0 -104 21t-54 38t-26 45q-30 74 -30 134z" />
<glyph unicode="&#xb8;" horiz-adv-x="644" d="M80 -278q0 46 38 79t82 51t48 28q6 18 6 26q0 6 -2 18t-2 20l-14 4q-14 2 -35 8t-42 18t-38 35t-21 53q-6 38 -6 78q0 134 98 204q52 38 114 38q52 0 128 -32q70 -28 113 -97t43 -157q0 -34 -12 -106q-36 -182 -144 -296q-82 -86 -168 -90h-20q-166 0 -166 118z" />
<glyph unicode="&#xb9;" horiz-adv-x="560" d="M140 725q0 33 16 60.5t31 27.5q8 0 19 -16q2 67 2 151.5t1 140.5l-7 -6q-6 -6 -11 -6q-6 0 -15 9t-17.5 29t-8.5 43q0 32 16 54t32 22q93 3 127 3q37 0 71 -3q2 -1 7.5 -2.5t8.5 -3.5q36 -30 36 -78q0 -26 -11 -51q-8 -16 -13.5 -19.5t-7.5 2t-3 9.5t-2 1q3 -277 4 -302 q1 2 3 4.5t3 4t3 2.5t4.5 -1t5.5 -7q25 -44 25 -76q0 -36 -36 -36q-30 -1 -63 -1h-19t-10.5 0.5t-4.5 0.5h-41q-53 0 -105 -1h-1q-39 0 -39 45z" />
<glyph unicode="&#xba;" horiz-adv-x="612" d="M39 590q0 44 31 79q46 51 137 51h21q27 0 70.5 9t71.5 9q20 0 30 -2q2 0 19 -3t22.5 -3.5t20.5 -5t23.5 -9t19.5 -13.5t20 -21q30 -41 30 -85q0 -36 -21 -66q-15 -23 -33 -38t-44.5 -21t-39.5 -8.5t-48 -3t-39 -0.5q-8 0 -45 -3t-59 -3q-112 0 -168 75q-19 28 -19 62z M65 1022q0 42 13 87q15 51 33 83.5t54 60.5q64 49 147 49h12q25 -1 39.5 -3.5t35 -12.5t39.5 -29q44 -45 61 -84t20 -111q1 -14 1 -40q0 -45 -13 -88q-5 -18 -8.5 -28t-14.5 -32t-23.5 -36t-35 -30t-49.5 -24q-20 -6 -43 -6q-5 0 -16 0.5t-16 0.5q-1 0 -9.5 -0.5t-15.5 -0.5 q-77 0 -130 50q-81 77 -81 194zM210 1037q0 -21 4 -44q5 -32 12 -49t25 -34q2 -2 4.5 -4t4.5 -3t5 -2t5 -2t6.5 -1.5t6.5 -1t8 -1.5t9 -1q18 -3 27 -3t19 6q8 4 13 10.5t6.5 10t8.5 23.5q18 46 18 85q0 84 -37 131q-13 17 -23.5 22.5t-32.5 5.5q-19 0 -39 -13 q-11 -7 -16 -14.5t-13 -28.5q-21 -57 -21 -92z" />
<glyph unicode="&#xbb;" horiz-adv-x="1352" d="M24 212q0 48 40 88q24 30 70 30q32 0 32 -8q0 -2 -2 -2h2q50 32 116 73t105 67t63 46q-8 14 -44 35t-118 73t-172 122q-8 8 -12 14l-6 8q-6 8 -12 18t-11 25t-5 29q0 36 32 62q6 6 20 10q36 10 67 16t49 8t53 3t53 3h10q38 0 73 -20t54 -39t56 -65t51 -62q10 -12 66 -58 t91 -89t35 -81q0 -40 -46 -72q-12 -8 -84 -77t-122 -107q-14 -12 -52 -51t-79 -64t-103 -37q-54 -10 -96 -10q-94 0 -144 50q-30 24 -30 62zM572 212q0 48 40 88q24 30 70 30q32 0 32 -8q0 -2 -2 -2h2q50 32 116 73t105 67t63 46q-8 14 -44 35t-118 73t-172 122q-8 8 -12 14 l-6 8q-6 8 -12 18t-11 25t-5 29q0 36 32 62q6 6 20 10q36 10 67 16t49 8t53 3t53 3h10q38 0 73 -20t54 -39t56 -65t51 -62q10 -12 66 -58t91 -89t35 -81q0 -40 -46 -72q-12 -8 -84 -77t-122 -107q-14 -12 -52 -51t-79 -64t-103 -37q-54 -10 -96 -10q-94 0 -144 50 q-30 24 -30 62z" />
<glyph unicode="&#xbc;" d="M70 825q0 33 16 60.5t31 27.5q8 0 19 -16q2 67 2 151.5t1 140.5l-7 -6q-6 -6 -11 -6q-6 0 -15 9t-17.5 29t-8.5 43q0 32 16 54t32 22q93 3 127 3q37 0 71 -3q2 -1 7.5 -2.5t8.5 -3.5q36 -30 36 -78q0 -26 -11 -51q-8 -16 -13.5 -19.5t-7.5 2t-3 9.5t-2 1q3 -277 4 -302 q1 2 3 4.5t3 4t3 2.5t4.5 -1t5.5 -7q25 -44 25 -76q0 -36 -36 -36q-30 -1 -63 -1h-19t-10.5 0.5t-4.5 0.5h-41q-53 0 -105 -1h-1q-39 0 -39 45zM108 417v4q2 39 57 60q13 6 30 6q6 0 12 -1t9 -2.5t5.5 -3.5t4.5 -3l1 -1q52 63 96.5 113t68 73.5t73.5 74t76 76.5q48 49 67 68 t37 41t19 24t11 23.5t16 32.5q-26 -6 -34 -6q-6 0 -8.5 2.5t-5.5 12.5q-3 7 -3 15q0 30 32 46q6 3 12 3q36 0 67 2t35 2q19 0 94 -24q23 -9 23 -42q0 -21 -17 -41t-37 -20q-15 0 -22 12l-206 -248q-31 -38 -72 -85.5t-66 -79t-64 -86.5q-2 -7 -17 -14q1 -1 3 -1h4 q7 0 15.5 1.5t11.5 1.5q7 0 14 -11t7 -23q0 -16 -11 -29.5t-24 -23t-13 -10.5q-9 -10 -20 -10q-36 0 -77.5 -3t-59.5 -3q-28 0 -81 6q-10 1 -16 9l-13 9q-14 8 -24 21.5t-10 31.5zM471 326q0 25 9 43q44 72 82.5 136.5t46.5 80t34.5 52.5t48 63.5t84.5 102.5q10 13 34 13 q20 0 37 -10t18 -26q9 -84 9 -142q0 -27 -2 -55.5t-6.5 -77.5t-7.5 -97h3q5 0 33 10.5t89 10.5q14 0 58 -2q14 -2 24 -17t10 -36q0 -44 -42.5 -82.5t-85.5 -38.5q-18 0 -47 9t-43 9h-4q0 -19 2 -69.5t2 -74.5q0 -57 -9 -67q-31 -36 -72 -36q-24 0 -46.5 13.5t-22.5 28.5 q-1 43 -1 99v78q0 22 -1 35h-11q-17 0 -42.5 -8t-49.5 -8q-34 0 -98 15q-33 8 -33 48zM605 403q0 -1 1 -1h1q38 2 42 2q0 1 58 5v106l-1 1q-8 0 -54.5 -51.5t-46.5 -61.5z" />
<glyph unicode="&#xbd;" d="M70 825q0 33 16 60.5t31 27.5q8 0 19 -16q2 67 2 151.5t1 140.5l-7 -6q-6 -6 -11 -6q-6 0 -15 9t-17.5 29t-8.5 43q0 32 16 54t32 22q93 3 127 3q37 0 71 -3q2 -1 7.5 -2.5t8.5 -3.5q36 -30 36 -78q0 -26 -11 -51q-8 -16 -13.5 -19.5t-7.5 2t-3 9.5t-2 1q3 -277 4 -302 q1 2 3 4.5t3 4t3 2.5t4.5 -1t5.5 -7q25 -44 25 -76q0 -36 -36 -36q-30 -1 -63 -1h-19t-10.5 0.5t-4.5 0.5h-41q-53 0 -105 -1h-1q-39 0 -39 45zM108 417v4q2 39 57 60q13 6 30 6q6 0 12 -1t9 -2.5t5.5 -3.5t4.5 -3l1 -1q52 63 96.5 113t68 73.5t73.5 74t76 76.5q48 49 67 68 t37 41t19 24t11 23.5t16 32.5q-26 -6 -34 -6q-6 0 -8.5 2.5t-5.5 12.5q-3 7 -3 15q0 30 32 46q6 3 12 3q36 0 67 2t35 2q19 0 94 -24q23 -9 23 -42q0 -21 -17 -41t-37 -20q-15 0 -22 12l-206 -248q-31 -38 -72 -85.5t-66 -79t-64 -86.5q-2 -7 -17 -14q1 -1 3 -1h4 q7 0 15.5 1.5t11.5 1.5q7 0 14 -11t7 -23q0 -16 -11 -29.5t-24 -23t-13 -10.5q-9 -10 -20 -10q-36 0 -77.5 -3t-59.5 -3q-28 0 -81 6q-10 1 -16 9l-13 9q-14 8 -24 21.5t-10 31.5zM553 146q0 26 12 45q28 46 59.5 81t53.5 53.5t47.5 48t45.5 67.5q14 27 14 45q0 15 -9 27.5 t-26 12.5q-15 0 -39 -9q-13 -4 -21.5 -12t-14 -16.5t-20 -25t-35.5 -34.5q-14 -8 -20 -8q-11 0 -24 23.5t-13 43.5q0 19 17 46q34 49 58 68.5t66 33.5q68 24 109 24q56 0 96.5 -39t40.5 -99q0 -32 -16 -90q-9 -31 -25 -55t-31.5 -37t-33.5 -29.5t-28 -31.5q-3 -11 -4 -19h10 q5 0 17 -0.5t23 -0.5q-20 5 -20 17q0 8 10 18t15 13q36 14 60 14q30 0 60 -20q14 -11 10 -26q-8 -36 -11.5 -51t-10 -29.5t-10.5 -18.5t-17.5 -20t-26.5 -33q-7 -9 -19 -9q-155 -8 -168 -8q-8 0 -19.5 1t-43.5 2t-85 2q-33 0 -33 35z" />
<glyph unicode="&#xbe;" d="M41 745q0 46 34 82q11 9 53 9q9 0 17.5 -1.5t17.5 -1.5q2 0 8.5 0.5t10.5 0.5q11 0 20.5 -8t9.5 -16q0 -2 -0.5 -6t-0.5 -7q0 -28 9 -28q3 0 7 3.5t10.5 9.5t10.5 10q56 46 56 145q0 47 -49 47q-6 0 -34 -2q-4 0 -29.5 -16t-69.5 -20q-15 0 -29 16t-14 41q0 19 9 45 t13 30q42 46 85 84.5t77 77.5q1 0 1 2q0 8 -11 20.5t-24 12.5q-19 0 -31 -10.5t-18.5 -24t-24 -30.5t-44.5 -28q-12 -4 -16 -4q-29 0 -29 53q0 52 30 105.5t85 85.5q4 2 14 8t13.5 7.5t12 5.5t14 5.5t14.5 3.5t18.5 2.5t21.5 0.5q50 0 94 -29t44 -86q0 -15 -13 -83 q-8 -40 -28 -65t-35 -38.5t-15 -26.5v-2q20 17 29 17q12 0 32 -17q19 -15 30.5 -36t15 -36t8.5 -42q7 -47 7 -74q0 -61 -27 -128q-20 -49 -43 -80t-64 -53q-93 -49 -151 -49q-55 0 -93.5 34.5t-38.5 83.5zM108 417v4q2 39 57 60q13 6 30 6q6 0 12 -1t9 -2.5t5.5 -3.5t4.5 -3 l1 -1q52 63 96.5 113t68 73.5t73.5 74t76 76.5q48 49 67 68t37 41t19 24t11 23.5t16 32.5q-26 -6 -34 -6q-6 0 -8.5 2.5t-5.5 12.5q-3 7 -3 15q0 30 32 46q6 3 12 3q36 0 67 2t35 2q19 0 94 -24q23 -9 23 -42q0 -21 -17 -41t-37 -20q-15 0 -22 12l-206 -248 q-31 -38 -72 -85.5t-66 -79t-64 -86.5q-2 -7 -17 -14q1 -1 3 -1h4q7 0 15.5 1.5t11.5 1.5q7 0 14 -11t7 -23q0 -16 -11 -29.5t-24 -23t-13 -10.5q-9 -10 -20 -10q-36 0 -77.5 -3t-59.5 -3q-28 0 -81 6q-10 1 -16 9l-13 9q-14 8 -24 21.5t-10 31.5zM471 326q0 25 9 43 q44 72 82.5 136.5t46.5 80t34.5 52.5t48 63.5t84.5 102.5q10 13 34 13q20 0 37 -10t18 -26q9 -84 9 -142q0 -27 -2 -55.5t-6.5 -77.5t-7.5 -97h3q5 0 33 10.5t89 10.5q14 0 58 -2q14 -2 24 -17t10 -36q0 -44 -42.5 -82.5t-85.5 -38.5q-18 0 -47 9t-43 9h-4q0 -19 2 -69.5 t2 -74.5q0 -57 -9 -67q-31 -36 -72 -36q-24 0 -46.5 13.5t-22.5 28.5q-1 43 -1 99v78q0 22 -1 35h-11q-17 0 -42.5 -8t-49.5 -8q-34 0 -98 15q-33 8 -33 48zM605 403q0 -1 1 -1h1q38 2 42 2q0 1 58 5v106l-1 1q-8 0 -54.5 -51.5t-46.5 -61.5z" />
<glyph unicode="&#xbf;" horiz-adv-x="948" d="M172 550q0 98 76 168q42 40 88 56t75 21t39 17v24q0 20 4 65t4 75q0 42 -8 88v4q0 30 29 48t61 18q66 0 124 -66q6 -6 10 -20q48 -178 48 -302q0 -58 -10 -174q-2 -14 -34 -42q-40 -30 -118 -30q-18 0 -58 2t-58 2q-34 0 -64 -6q-8 -18 4 -38q12 -24 35 -35t70 -26 t91 -39q2 -2 42 -12t74 -33t50 -65v-6q8 -30 8 -66q0 -50 -27 -92t-79 -54q-20 -2 -58 -2q-108 0 -242 78q-12 8 -16 14q-8 12 -33 49t-32 48t-24 41t-24 49t-16 48t-13 61q-18 126 -18 132zM404 1342q0 42 24 84q32 62 132 70h10q72 0 122 -42q84 -80 84 -144 q0 -74 -57 -111t-131 -37q-90 0 -140 64q-44 56 -44 116z" />
<glyph unicode="&#xc0;" horiz-adv-x="1622" d="M18 172v4q4 122 136 198q38 22 76 22q56 0 56 -20q56 106 90 254v4q60 188 99 293t60 147t79 146t110 204q6 16 22 22q112 58 174 58q86 0 114 -42t46 -72t33 -62t21 -47t20 -57t22 -62q66 -186 123 -437t95 -357q2 -4 37 -11t79 -33t72 -76q30 -52 30 -106 q0 -52 -36 -86q-30 -28 -62 -28q-74 -16 -210 -16h-26q-24 0 -83 -2t-79 -2q-14 0 -68 1t-112 1q-96 0 -96 114q0 106 60 170q40 46 78 46q14 0 43 -11t47 -11q32 0 32 20q-4 54 -14 124q0 8 -2 17t-19 26t-47 21q-48 -4 -120 -4q-28 0 -78 1t-76 1q-52 0 -124 -6 q-36 -30 -36 -124v-14q12 4 26 4q56 0 90 -42q12 -16 12 -30q4 -92 4 -118q0 -88 -36 -124q-54 -54 -132 -54q-30 0 -85 11t-77 11h-6q-6 0 -154 -6q-2 0 -10 -4t-18 -6t-20 -2q-40 0 -90 34q-12 14 -14 16l-10 10q-12 8 -21 18t-17 30t-8 44zM442 1756q0 78 72 90q8 2 16 0 q46 -10 85 -23t61 -22t62 -27t62 -28q112 -48 156 -70q38 -16 38 -54q0 -36 -30 -70t-62 -34q-6 0 -10 2q-30 6 -191 80t-189 74h-4q-8 2 -21 3t-16 2t-9 5t-9 12t-7 22q-4 20 -4 38zM720 768q42 -26 100 -26q8 0 174 18q0 10 -10 33t-28 60t-30 65q-54 138 -60 190 q-12 -28 -28 -58t-27 -47t-11 -19q-8 -22 -23 -69t-29 -84t-28 -63z" />
<glyph unicode="&#xc1;" horiz-adv-x="1622" d="M18 172v4q4 122 136 198q38 22 76 22q56 0 56 -20q56 106 90 254v4q60 188 99 293t60 147t79 146t110 204q6 16 22 22q112 58 174 58q86 0 114 -42t46 -72t33 -62t21 -47t20 -57t22 -62q66 -186 123 -437t95 -357q2 -4 37 -11t79 -33t72 -76q30 -52 30 -106 q0 -52 -36 -86q-30 -28 -62 -28q-74 -16 -210 -16h-26q-24 0 -83 -2t-79 -2q-14 0 -68 1t-112 1q-96 0 -96 114q0 106 60 170q40 46 78 46q14 0 43 -11t47 -11q32 0 32 20q-4 54 -14 124q0 8 -2 17t-19 26t-47 21q-48 -4 -120 -4q-28 0 -78 1t-76 1q-52 0 -124 -6 q-36 -30 -36 -124v-14q12 4 26 4q56 0 90 -42q12 -16 12 -30q4 -92 4 -118q0 -88 -36 -124q-54 -54 -132 -54q-30 0 -85 11t-77 11h-6q-6 0 -154 -6q-2 0 -10 -4t-18 -6t-20 -2q-40 0 -90 34q-12 14 -14 16l-10 10q-12 8 -21 18t-17 30t-8 44zM620 1558q0 38 38 54 q62 30 156 70q22 10 62 28t62 27t62 22t84 23q10 2 18 0q72 -12 72 -90q0 -18 -4 -38q-4 -14 -7 -22t-9 -12t-9 -5t-16 -2t-21 -3h-4q-30 0 -191 -74t-191 -80q-4 -2 -10 -2q-32 0 -62 34t-30 70zM720 768q42 -26 100 -26q8 0 174 18q0 10 -10 33t-28 60t-30 65 q-54 138 -60 190q-12 -28 -28 -58t-27 -47t-11 -19q-8 -22 -23 -69t-29 -84t-28 -63z" />
<glyph unicode="&#xc2;" horiz-adv-x="1622" d="M18 172v4q4 122 136 198q38 22 76 22q56 0 56 -20q56 106 90 254v4q60 188 99 293t60 147t79 146t110 204q6 16 22 22q112 58 174 58q86 0 114 -42t46 -72t33 -62t21 -47t20 -57t22 -62q66 -186 123 -437t95 -357q2 -4 37 -11t79 -33t72 -76q30 -52 30 -106 q0 -52 -36 -86q-30 -28 -62 -28q-74 -16 -210 -16h-26q-24 0 -83 -2t-79 -2q-14 0 -68 1t-112 1q-96 0 -96 114q0 106 60 170q40 46 78 46q14 0 43 -11t47 -11q32 0 32 20q-4 54 -14 124q0 8 -2 17t-19 26t-47 21q-48 -4 -120 -4q-28 0 -78 1t-76 1q-52 0 -124 -6 q-36 -30 -36 -124v-14q12 4 26 4q56 0 90 -42q12 -16 12 -30q4 -92 4 -118q0 -88 -36 -124q-54 -54 -132 -54q-30 0 -85 11t-77 11h-6q-6 0 -154 -6q-2 0 -10 -4t-18 -6t-20 -2q-40 0 -90 34q-12 14 -14 16l-10 10q-12 8 -21 18t-17 30t-8 44zM720 768q42 -26 100 -26 q8 0 174 18q0 10 -10 33t-28 60t-30 65q-54 138 -60 190q-12 -28 -28 -58t-27 -47t-11 -19q-8 -22 -23 -69t-29 -84t-28 -63zM742 1558q0 2 2 8q30 80 106 230q4 6 12 10q56 28 84 28q44 0 54 -20q28 -50 66 -160q20 -56 32 -96v-8q0 -42 -82 -42q-56 0 -66 24q-4 6 -12 38 t-18 48q-12 -52 -14 -68q-6 -32 -76 -32q-34 0 -61 10t-27 30z" />
<glyph unicode="&#xc3;" horiz-adv-x="1622" d="M18 172v4q4 122 136 198q38 22 76 22q56 0 56 -20q56 106 90 254v4q60 188 99 293t60 147t79 146t110 204q6 16 22 22q112 58 174 58q86 0 114 -42t46 -72t33 -62t21 -47t20 -57t22 -62q66 -186 123 -437t95 -357q2 -4 37 -11t79 -33t72 -76q30 -52 30 -106 q0 -52 -36 -86q-30 -28 -62 -28q-74 -16 -210 -16h-26q-24 0 -83 -2t-79 -2q-14 0 -68 1t-112 1q-96 0 -96 114q0 106 60 170q40 46 78 46q14 0 43 -11t47 -11q32 0 32 20q-4 54 -14 124q0 8 -2 17t-19 26t-47 21q-48 -4 -120 -4q-28 0 -78 1t-76 1q-52 0 -124 -6 q-36 -30 -36 -124v-14q12 4 26 4q56 0 90 -42q12 -16 12 -30q4 -92 4 -118q0 -88 -36 -124q-54 -54 -132 -54q-30 0 -85 11t-77 11h-6q-6 0 -154 -6q-2 0 -10 -4t-18 -6t-20 -2q-40 0 -90 34q-12 14 -14 16l-10 10q-12 8 -21 18t-17 30t-8 44zM676 1614q0 12 6 23t12 17 t17 13t17 9t16 6l10 4q66 30 126 30h8q28 0 49 -7t38 -16t23 -11q44 -12 44 -16l8 10t15 16t26 12t43 6q40 0 75 -18t39 -52v-4q0 -42 -60 -58q-8 -2 -56 -31t-94 -31h-6q-44 0 -77 15t-51 30t-24 15l-4 -4q-42 -42 -90 -42q-2 0 -7 1t-9 1q-40 6 -67 29t-27 53zM720 768 q42 -26 100 -26q8 0 174 18q0 10 -10 33t-28 60t-30 65q-54 138 -60 190q-12 -28 -28 -58t-27 -47t-11 -19q-8 -22 -23 -69t-29 -84t-28 -63z" />
<glyph unicode="&#xc4;" horiz-adv-x="1622" d="M18 172v4q4 122 136 198q38 22 76 22q56 0 56 -20q56 106 90 254v4q60 188 99 293t60 147t79 146t110 204q6 16 22 22q112 58 174 58q86 0 114 -42t46 -72t33 -62t21 -47t20 -57t22 -62q66 -186 123 -437t95 -357q2 -4 37 -11t79 -33t72 -76q30 -52 30 -106 q0 -52 -36 -86q-30 -28 -62 -28q-74 -16 -210 -16h-26q-24 0 -83 -2t-79 -2q-14 0 -68 1t-112 1q-96 0 -96 114q0 106 60 170q40 46 78 46q14 0 43 -11t47 -11q32 0 32 20q-4 54 -14 124q0 8 -2 17t-19 26t-47 21q-48 -4 -120 -4q-28 0 -78 1t-76 1q-52 0 -124 -6 q-36 -30 -36 -124v-14q12 4 26 4q56 0 90 -42q12 -16 12 -30q4 -92 4 -118q0 -88 -36 -124q-54 -54 -132 -54q-30 0 -85 11t-77 11h-6q-6 0 -154 -6q-2 0 -10 -4t-18 -6t-20 -2q-40 0 -90 34q-12 14 -14 16l-10 10q-12 8 -21 18t-17 30t-8 44zM704 1610q0 43 28 79.5 t71 36.5q47 0 74.5 -41.5t27.5 -81.5t-29 -70t-76 -30q-28 0 -47 9.5t-24 17t-12 20.5q-13 33 -13 60zM720 768q42 -26 100 -26q8 0 174 18q0 10 -10 33t-28 60t-30 65q-54 138 -60 190q-12 -28 -28 -58t-27 -47t-11 -19q-8 -22 -23 -69t-29 -84t-28 -63zM928 1618 q0 43 28 79.5t71 36.5q47 0 74.5 -41.5t27.5 -81.5t-29 -70t-76 -30q-28 0 -47 9.5t-24 17t-12 20.5q-13 33 -13 60z" />
<glyph unicode="&#xc5;" horiz-adv-x="1622" d="M18 172v4q4 122 136 198q38 22 76 22q56 0 56 -20q56 106 90 254v4q60 188 99 293t60 147t79 146t110 204q6 16 22 22q112 58 174 58q86 0 114 -42t46 -72t33 -62t21 -47t20 -57t22 -62q66 -186 123 -437t95 -357q2 -4 37 -11t79 -33t72 -76q30 -52 30 -106 q0 -52 -36 -86q-30 -28 -62 -28q-74 -16 -210 -16h-26q-24 0 -83 -2t-79 -2q-14 0 -68 1t-112 1q-96 0 -96 114q0 106 60 170q40 46 78 46q14 0 43 -11t47 -11q32 0 32 20q-4 54 -14 124q0 8 -2 17t-19 26t-47 21q-48 -4 -120 -4q-28 0 -78 1t-76 1q-52 0 -124 -6 q-36 -30 -36 -124v-14q12 4 26 4q56 0 90 -42q12 -16 12 -30q4 -92 4 -118q0 -88 -36 -124q-54 -54 -132 -54q-30 0 -85 11t-77 11h-6q-6 0 -154 -6q-2 0 -10 -4t-18 -6t-20 -2q-40 0 -90 34q-12 14 -14 16l-10 10q-12 8 -21 18t-17 30t-8 44zM720 768q42 -26 100 -26 q8 0 174 18q0 10 -10 33t-28 60t-30 65q-54 138 -60 190q-12 -28 -28 -58t-27 -47t-11 -19q-8 -22 -23 -69t-29 -84t-28 -63zM794 1656q0 64 38 109t98 45h8q54 -4 81 -46t27 -108q0 -26 -8 -50q-26 -84 -96 -84h-8h-10h-5h-9q-48 0 -82 39t-34 95zM874 1664q0 -40 14 -60 t50 -20q18 0 27 25t9 49q0 86 -50 86q-24 0 -37 -26t-13 -54z" />
<glyph unicode="&#xc7;" horiz-adv-x="1454" d="M10 658q0 34 2 50q10 136 56 240t140 224q84 108 169 173t211 117q110 46 262 46q156 0 276 -46q18 -6 60 -21t66 -25t57 -28t57 -45t42 -63q36 -74 36 -150q0 -100 -88 -262q-24 -30 -40 -30q-12 0 -32 12q-54 32 -77 76t-27 83t-10 47q-16 22 -46 61t-43 55t-36 38 t-47 34t-56 20q-48 12 -90 12q-98 0 -210 -84q-108 -82 -155 -173t-63 -231q-6 -44 -6 -84q0 -150 114 -286q68 -78 140 -113t186 -49q14 -2 38 -2q68 0 188 44t186 54q6 2 18 2q66 0 66 -78q0 -80 -42 -134q-36 -44 -126 -79t-118 -67q-2 -2 -2 -8q0 -4 11 -34t11 -56 q0 -28 -6 -46q-2 -8 -9 -31t-10 -32t-9 -29t-10 -30t-11 -28t-13 -29t-15 -28t-19 -29t-21 -27t-25 -29q-82 -86 -166 -90h-18q-168 0 -168 120q0 46 38 78t81 51t47 29q8 16 8 28q0 8 -10 42q-26 82 -36 109t-30 42t-39 13t-75 14t-126 52q-120 60 -198 130t-146 180 q-92 152 -92 300z" />
<glyph unicode="&#xc8;" horiz-adv-x="1364" d="M18 108q0 18 7 33t16 25t23 18t23 11t23 8t16 5q16 4 24 4q12 0 24 -5t19 -12t13 -15t10 -12l2 -6v10q-22 164 -22 296q0 130 35 320t35 348q0 10 -1 32t-1 34l-4 -2q-2 -2 -7 -6t-11 -8t-16 -6t-22 -2q-20 0 -54 12q-98 42 -98 120v10q6 62 57 105t99 55l48 12h212 q122 0 253 1t157 1q134 0 342 -34q40 -14 42 -46q2 -22 2 -58q0 -38 -4 -63t-8 -35l-4 -10q0 -2 4 -3t17 -8t29 -19l14 -10q16 -10 22 -16t14 -19t8 -29q0 -54 -38 -64q-104 -32 -168 -32q-22 0 -75 4t-83 6q-24 4 -34 18q-30 32 -30 48q0 12 33 20t35 28v12l-4 -4 q-2 -2 -6 -2q-18 0 -42 32q-60 10 -112 10q-74 0 -176 -18h-2q-36 -4 -38 4q-2 6 -4 10q-4 -112 -4 -178q0 -82 4 -218q76 -18 120 -18q30 0 66 6q2 2 2 8q0 4 -3 22t-3 30q0 66 68 104q32 20 74 20q62 0 108 -46q10 -10 12 -18t2 -36v-39v-55q0 -84 2 -186q2 0 4 -156 q-2 -32 -30 -44q-50 -22 -94 -22q-66 0 -110 54q-18 28 -18 82q0 40 22 40h10v4q0 2 -2 4t-8 4l-12 4t-19 5t-25 5q-78 24 -104 24q-18 0 -38 -6q-36 -10 -42 -20q-34 -160 -34 -216q0 -10 1 -52t1 -78q8 -8 32 -18q120 -26 220 -26q40 0 122 5t124 7q24 12 30 32t31 73 t87 125q30 20 42 20q14 0 34 -18q16 -16 28 -33t18 -30t10 -30t5 -26t1 -28v-23q2 -24 2 -74q0 -124 -84 -188q-16 -12 -30 -12h-1092q-10 0 -36 8t-57 35t-31 65zM246 1748q0 78 72 90q8 2 16 0q46 -10 85 -23t61 -22t62 -27t62 -28q112 -48 156 -70q38 -16 38 -54 q0 -36 -30 -70t-62 -34q-6 0 -10 2q-30 6 -191 80t-189 74h-4q-8 2 -21 3t-16 2t-9 5t-9 12t-7 22q-4 20 -4 38z" />
<glyph unicode="&#xc9;" horiz-adv-x="1364" d="M18 108q0 18 7 33t16 25t23 18t23 11t23 8t16 5q16 4 24 4q12 0 24 -5t19 -12t13 -15t10 -12l2 -6v10q-22 164 -22 296q0 130 35 320t35 348q0 10 -1 32t-1 34l-4 -2q-2 -2 -7 -6t-11 -8t-16 -6t-22 -2q-20 0 -54 12q-98 42 -98 120v10q6 62 57 105t99 55l48 12h212 q122 0 253 1t157 1q134 0 342 -34q40 -14 42 -46q2 -22 2 -58q0 -38 -4 -63t-8 -35l-4 -10q0 -2 4 -3t17 -8t29 -19l14 -10q16 -10 22 -16t14 -19t8 -29q0 -54 -38 -64q-104 -32 -168 -32q-22 0 -75 4t-83 6q-24 4 -34 18q-30 32 -30 48q0 12 33 20t35 28v12l-4 -4 q-2 -2 -6 -2q-18 0 -42 32q-60 10 -112 10q-74 0 -176 -18h-2q-36 -4 -38 4q-2 6 -4 10q-4 -112 -4 -178q0 -82 4 -218q76 -18 120 -18q30 0 66 6q2 2 2 8q0 4 -3 22t-3 30q0 66 68 104q32 20 74 20q62 0 108 -46q10 -10 12 -18t2 -36v-39v-55q0 -84 2 -186q2 0 4 -156 q-2 -32 -30 -44q-50 -22 -94 -22q-66 0 -110 54q-18 28 -18 82q0 40 22 40h10v4q0 2 -2 4t-8 4l-12 4t-19 5t-25 5q-78 24 -104 24q-18 0 -38 -6q-36 -10 -42 -20q-34 -160 -34 -216q0 -10 1 -52t1 -78q8 -8 32 -18q120 -26 220 -26q40 0 122 5t124 7q24 12 30 32t31 73 t87 125q30 20 42 20q14 0 34 -18q16 -16 28 -33t18 -30t10 -30t5 -26t1 -28v-23q2 -24 2 -74q0 -124 -84 -188q-16 -12 -30 -12h-1092q-10 0 -36 8t-57 35t-31 65zM374 1612q0 38 38 54q62 30 156 70q22 10 62 28t62 27t62 22t84 23q10 2 18 0q72 -12 72 -90q0 -18 -4 -38 q-4 -14 -7 -22t-9 -12t-9 -5t-16 -2t-21 -3h-4q-30 0 -191 -74t-191 -80q-4 -2 -10 -2q-32 0 -62 34t-30 70z" />
<glyph unicode="&#xca;" horiz-adv-x="1364" d="M18 108q0 18 7 33t16 25t23 18t23 11t23 8t16 5q16 4 24 4q12 0 24 -5t19 -12t13 -15t10 -12l2 -6v10q-22 164 -22 296q0 130 35 320t35 348q0 10 -1 32t-1 34l-4 -2q-2 -2 -7 -6t-11 -8t-16 -6t-22 -2q-20 0 -54 12q-98 42 -98 120v10q6 62 57 105t99 55l48 12h212 q122 0 253 1t157 1q134 0 342 -34q40 -14 42 -46q2 -22 2 -58q0 -38 -4 -63t-8 -35l-4 -10q0 -2 4 -3t17 -8t29 -19l14 -10q16 -10 22 -16t14 -19t8 -29q0 -54 -38 -64q-104 -32 -168 -32q-22 0 -75 4t-83 6q-24 4 -34 18q-30 32 -30 48q0 12 33 20t35 28v12l-4 -4 q-2 -2 -6 -2q-18 0 -42 32q-60 10 -112 10q-74 0 -176 -18h-2q-36 -4 -38 4q-2 6 -4 10q-4 -112 -4 -178q0 -82 4 -218q76 -18 120 -18q30 0 66 6q2 2 2 8q0 4 -3 22t-3 30q0 66 68 104q32 20 74 20q62 0 108 -46q10 -10 12 -18t2 -36v-39v-55q0 -84 2 -186q2 0 4 -156 q-2 -32 -30 -44q-50 -22 -94 -22q-66 0 -110 54q-18 28 -18 82q0 40 22 40h10v4q0 2 -2 4t-8 4l-12 4t-19 5t-25 5q-78 24 -104 24q-18 0 -38 -6q-36 -10 -42 -20q-34 -160 -34 -216q0 -10 1 -52t1 -78q8 -8 32 -18q120 -26 220 -26q40 0 122 5t124 7q24 12 30 32t31 73 t87 125q30 20 42 20q14 0 34 -18q16 -16 28 -33t18 -30t10 -30t5 -26t1 -28v-23q2 -24 2 -74q0 -124 -84 -188q-16 -12 -30 -12h-1092q-10 0 -36 8t-57 35t-31 65zM586 1554q0 2 2 8q30 80 106 230q4 6 12 10q56 28 84 28q44 0 54 -20q28 -50 66 -160q20 -56 32 -96v-8 q0 -42 -82 -42q-56 0 -66 24q-4 6 -12 38t-18 48q-12 -52 -14 -68q-6 -32 -76 -32q-34 0 -61 10t-27 30z" />
<glyph unicode="&#xcb;" horiz-adv-x="1364" d="M18 108q0 18 7 33t16 25t23 18t23 11t23 8t16 5q16 4 24 4q12 0 24 -5t19 -12t13 -15t10 -12l2 -6v10q-22 164 -22 296q0 130 35 320t35 348q0 10 -1 32t-1 34l-4 -2q-2 -2 -7 -6t-11 -8t-16 -6t-22 -2q-20 0 -54 12q-98 42 -98 120v10q6 62 57 105t99 55l48 12h212 q122 0 253 1t157 1q134 0 342 -34q40 -14 42 -46q2 -22 2 -58q0 -38 -4 -63t-8 -35l-4 -10q0 -2 4 -3t17 -8t29 -19l14 -10q16 -10 22 -16t14 -19t8 -29q0 -54 -38 -64q-104 -32 -168 -32q-22 0 -75 4t-83 6q-24 4 -34 18q-30 32 -30 48q0 12 33 20t35 28v12l-4 -4 q-2 -2 -6 -2q-18 0 -42 32q-60 10 -112 10q-74 0 -176 -18h-2q-36 -4 -38 4q-2 6 -4 10q-4 -112 -4 -178q0 -82 4 -218q76 -18 120 -18q30 0 66 6q2 2 2 8q0 4 -3 22t-3 30q0 66 68 104q32 20 74 20q62 0 108 -46q10 -10 12 -18t2 -36v-39v-55q0 -84 2 -186q2 0 4 -156 q-2 -32 -30 -44q-50 -22 -94 -22q-66 0 -110 54q-18 28 -18 82q0 40 22 40h10v4q0 2 -2 4t-8 4l-12 4t-19 5t-25 5q-78 24 -104 24q-18 0 -38 -6q-36 -10 -42 -20q-34 -160 -34 -216q0 -10 1 -52t1 -78q8 -8 32 -18q120 -26 220 -26q40 0 122 5t124 7q24 12 30 32t31 73 t87 125q30 20 42 20q14 0 34 -18q16 -16 28 -33t18 -30t10 -30t5 -26t1 -28v-23q2 -24 2 -74q0 -124 -84 -188q-16 -12 -30 -12h-1092q-10 0 -36 8t-57 35t-31 65zM600 1632q0 43 28 79.5t71 36.5q47 0 74.5 -41.5t27.5 -81.5t-29 -70t-76 -30q-28 0 -47 9.5t-24 17 t-12 20.5q-13 33 -13 60zM824 1640q0 43 28 79.5t71 36.5q47 0 74.5 -41.5t27.5 -81.5t-29 -70t-76 -30q-28 0 -47 9.5t-24 17t-12 20.5q-13 33 -13 60z" />
<glyph unicode="&#xcc;" horiz-adv-x="838" d="M-6 148q0 50 42 83t90 33q84 0 118 -46q-10 486 -10 596q0 184 14 478q-20 -20 -64 -20q-72 0 -114 56q-28 38 -28 78q0 32 20 64t54 32q148 -2 225 -4t96 -3t32 -2t24 -2t80 -4t193 -7q26 0 42 -25t16 -53q0 -12 -2 -24t-5 -21t-6 -17t-5 -12l-2 -6q0 -2 -4 -10 q-38 -56 -110 -56q-38 0 -75 14t-49 26q24 -232 24 -432q0 -30 -1 -110t-1 -132q0 -142 6 -390q28 14 82 14q80 0 114 -54q18 -30 18 -60q0 -36 -23 -70t-61 -40q-116 0 -192 -3t-108 -5t-46 -2q-30 0 -308 28q-34 6 -55 39t-21 69zM18 1732q0 78 72 90q8 2 16 0 q46 -10 85 -23t61 -22t62 -27t62 -28q112 -48 156 -70q38 -16 38 -54q0 -36 -30 -70t-62 -34q-6 0 -10 2q-30 6 -191 80t-189 74h-4q-8 2 -21 3t-16 2t-9 5t-9 12t-7 22q-4 20 -4 38z" />
<glyph unicode="&#xcd;" horiz-adv-x="838" d="M-6 148q0 50 42 83t90 33q84 0 118 -46q-10 486 -10 596q0 184 14 478q-20 -20 -64 -20q-72 0 -114 56q-28 38 -28 78q0 32 20 64t54 32q148 -2 225 -4t96 -3t32 -2t24 -2t80 -4t193 -7q26 0 42 -25t16 -53q0 -12 -2 -24t-5 -21t-6 -17t-5 -12l-2 -6q0 -2 -4 -10 q-38 -56 -110 -56q-38 0 -75 14t-49 26q24 -232 24 -432q0 -30 -1 -110t-1 -132q0 -142 6 -390q28 14 82 14q80 0 114 -54q18 -30 18 -60q0 -36 -23 -70t-61 -40q-116 0 -192 -3t-108 -5t-46 -2q-30 0 -308 28q-34 6 -55 39t-21 69zM284 1610q0 38 38 54q62 30 156 70 q22 10 62 28t62 27t62 22t84 23q10 2 18 0q72 -12 72 -90q0 -18 -4 -38q-4 -14 -7 -22t-9 -12t-9 -5t-16 -2t-21 -3h-4q-30 0 -191 -74t-191 -80q-4 -2 -10 -2q-32 0 -62 34t-30 70z" />
<glyph unicode="&#xce;" horiz-adv-x="838" d="M-6 148q0 50 42 83t90 33q84 0 118 -46q-10 486 -10 596q0 184 14 478q-20 -20 -64 -20q-72 0 -114 56q-28 38 -28 78q0 32 20 64t54 32q148 -2 225 -4t96 -3t32 -2t24 -2t80 -4t193 -7q26 0 42 -25t16 -53q0 -12 -2 -24t-5 -21t-6 -17t-5 -12l-2 -6q0 -2 -4 -10 q-38 -56 -110 -56q-38 0 -75 14t-49 26q24 -232 24 -432q0 -30 -1 -110t-1 -132q0 -142 6 -390q28 14 82 14q80 0 114 -54q18 -30 18 -60q0 -36 -23 -70t-61 -40q-116 0 -192 -3t-108 -5t-46 -2q-30 0 -308 28q-34 6 -55 39t-21 69zM244 1566q0 2 2 8q30 80 106 230 q4 6 12 10q56 28 84 28q44 0 54 -20q28 -50 66 -160q20 -56 32 -96v-8q0 -42 -82 -42q-56 0 -66 24q-4 6 -12 38t-18 48q-12 -52 -14 -68q-6 -32 -76 -32q-34 0 -61 10t-27 30z" />
<glyph unicode="&#xcf;" horiz-adv-x="838" d="M-6 148q0 50 42 83t90 33q84 0 118 -46q-10 486 -10 596q0 184 14 478q-20 -20 -64 -20q-72 0 -114 56q-28 38 -28 78q0 32 20 64t54 32q148 -2 225 -4t96 -3t32 -2t24 -2t80 -4t193 -7q26 0 42 -25t16 -53q0 -12 -2 -24t-5 -21t-6 -17t-5 -12l-2 -6q0 -2 -4 -10 q-38 -56 -110 -56q-38 0 -75 14t-49 26q24 -232 24 -432q0 -30 -1 -110t-1 -132q0 -142 6 -390q28 14 82 14q80 0 114 -54q18 -30 18 -60q0 -36 -23 -70t-61 -40q-116 0 -192 -3t-108 -5t-46 -2q-30 0 -308 28q-34 6 -55 39t-21 69zM204 1648q0 43 28 79.5t71 36.5 q47 0 74.5 -41.5t27.5 -81.5t-29 -70t-76 -30q-28 0 -47 9.5t-24 17t-12 20.5q-13 33 -13 60zM428 1656q0 43 28 79.5t71 36.5q47 0 74.5 -41.5t27.5 -81.5t-29 -70t-76 -30q-28 0 -47 9.5t-24 17t-12 20.5q-13 33 -13 60z" />
<glyph unicode="&#xd0;" horiz-adv-x="1608" d="M6 134q0 80 34 108q52 38 118 38q38 0 82 -12l46 -10h4q2 54 3 105t3 100t2 71q-78 14 -129 65t-51 115q0 56 42 104q52 58 140 66q0 22 3 158t7 272q-24 0 -40 -4q-20 -38 -86 -40h-14q-140 0 -140 96q0 72 142 132q50 24 116 24q16 0 47 -2t45 -2q38 0 102 1t92 1 q212 0 400 -48q82 -22 126 -35t103 -44t113 -75q96 -80 151 -158t87 -190q22 -76 22 -150q0 -80 -40 -232q-34 -126 -69 -203t-111 -157q-216 -228 -626 -228q-30 0 -73 1t-53 1h-8q-296 0 -530 26q-60 8 -60 106zM606 258l22 -6q22 -4 53 -9t51 -5q44 0 128 34 q96 38 148 74t104 104q62 84 86 151t24 163v14q-2 110 -29 183t-97 161q-54 70 -107 104t-141 58q-106 28 -154 28q-40 0 -56 -14q-10 -230 -14 -396q96 -8 142 -70q40 -56 40 -114q0 -66 -50 -116t-134 -60q0 -60 -16 -284z" />
<glyph unicode="&#xd1;" horiz-adv-x="1622" d="M-8 90q0 36 24 68q40 56 120 56q70 0 82 -34q-10 264 -10 382q0 20 5 189t5 487q-16 -32 -70 -32q-84 0 -114 82q-10 30 -10 50q0 78 74 116q2 0 5 1t5 1q98 24 172 24q88 0 234 -40q14 -2 24 -16q608 -720 680 -820l28 660q-2 0 -32 -12t-56 -12q-48 0 -88 40 q-46 44 -46 72q0 10 8 30t10 30q2 6 4 17t3 17t5 14t9 12t14 8t23 6q58 6 106 13t66 9t28 2t25 -3t62 -10t123 -15q44 -4 68 -31t24 -63q0 -74 -80 -112q-10 -6 -18 -12t-15 -8t-25 -4q-8 -162 -8 -298q0 -88 5 -223t5 -227q0 -168 -10 -352q0 -10 -8 -26l-6 -14 q-6 -12 -15 -26t-23 -29t-35 -26t-45 -13h-12q-32 0 -62 18t-41 31t-31 39q-262 328 -438 515t-270 313q8 -70 8 -116q0 -64 -15 -230t-15 -324v-64q12 18 38 18q30 0 56 -44q18 -28 18 -62q0 -20 -6 -40t-14 -36l-6 -14q-12 -42 -48 -44q-56 -2 -139 -10t-159 -8 q-68 0 -116 2q-22 4 -32 13t-16 31l-4 6q-4 4 -8 12l-9 18t-8 23t-3 25zM522 1592q0 12 6 23t12 17t17 13t17 9t16 6l10 4q66 30 126 30h8q28 0 49 -7t38 -16t23 -11q44 -12 44 -16l8 10t15 16t26 12t43 6q40 0 75 -18t39 -52v-4q0 -42 -60 -58q-8 -2 -56 -31t-94 -31h-6 q-44 0 -77 15t-51 30t-24 15l-4 -4q-42 -42 -90 -42q-2 0 -7 1t-9 1q-40 6 -67 29t-27 53z" />
<glyph unicode="&#xd2;" horiz-adv-x="1566" d="M24 744q0 242 152 432q134 168 299 245t385 77q376 -4 574 -274q120 -160 120 -360q0 -106 -34 -270q-18 -82 -50 -143t-94 -135t-82 -104q-150 -218 -456 -218q-166 0 -332 68q-88 48 -125 69t-110 72t-108 93t-71 108t-48 142q-20 126 -20 198zM454 622q0 -86 50 -172 q40 -70 86 -105t126 -61q76 -24 128 -24q68 0 134 36q78 42 116 97t88 171q62 152 62 232q0 44 -14 128q-18 100 -45 156t-91 108q-114 92 -208 92q-28 0 -58 -6q-100 -16 -162 -68t-134 -160q-30 -48 -46 -96t-19 -83t-7 -117q0 -18 -2 -45t-3 -47t-1 -36zM666 1708 q0 78 72 90q8 2 16 0q46 -10 85 -23t61 -22t62 -27t62 -28q112 -48 156 -70q38 -16 38 -54q0 -36 -30 -70t-62 -34q-6 0 -10 2q-30 6 -191 80t-189 74h-4q-8 2 -21 3t-16 2t-9 5t-9 12t-7 22q-4 20 -4 38z" />
<glyph unicode="&#xd3;" horiz-adv-x="1566" d="M24 744q0 242 152 432q134 168 299 245t385 77q376 -4 574 -274q120 -160 120 -360q0 -106 -34 -270q-18 -82 -50 -143t-94 -135t-82 -104q-150 -218 -456 -218q-166 0 -332 68q-88 48 -125 69t-110 72t-108 93t-71 108t-48 142q-20 126 -20 198zM454 622q0 -86 50 -172 q40 -70 86 -105t126 -61q76 -24 128 -24q68 0 134 36q78 42 116 97t88 171q62 152 62 232q0 44 -14 128q-18 100 -45 156t-91 108q-114 92 -208 92q-28 0 -58 -6q-100 -16 -162 -68t-134 -160q-30 -48 -46 -96t-19 -83t-7 -117q0 -18 -2 -45t-3 -47t-1 -36zM466 1576 q0 38 38 54q62 30 156 70q22 10 62 28t62 27t62 22t84 23q10 2 18 0q72 -12 72 -90q0 -18 -4 -38q-4 -14 -7 -22t-9 -12t-9 -5t-16 -2t-21 -3h-4q-30 0 -191 -74t-191 -80q-4 -2 -10 -2q-32 0 -62 34t-30 70z" />
<glyph unicode="&#xd4;" horiz-adv-x="1566" d="M24 744q0 242 152 432q134 168 299 245t385 77q376 -4 574 -274q120 -160 120 -360q0 -106 -34 -270q-18 -82 -50 -143t-94 -135t-82 -104q-150 -218 -456 -218q-166 0 -332 68q-88 48 -125 69t-110 72t-108 93t-71 108t-48 142q-20 126 -20 198zM454 622q0 -86 50 -172 q40 -70 86 -105t126 -61q76 -24 128 -24q68 0 134 36q78 42 116 97t88 171q62 152 62 232q0 44 -14 128q-18 100 -45 156t-91 108q-114 92 -208 92q-28 0 -58 -6q-100 -16 -162 -68t-134 -160q-30 -48 -46 -96t-19 -83t-7 -117q0 -18 -2 -45t-3 -47t-1 -36zM676 1562 q0 2 2 8q30 80 106 230q4 6 12 10q56 28 84 28q44 0 54 -20q28 -50 66 -160q20 -56 32 -96v-8q0 -42 -82 -42q-56 0 -66 24q-4 6 -12 38t-18 48q-12 -52 -14 -68q-6 -32 -76 -32q-34 0 -61 10t-27 30z" />
<glyph unicode="&#xd5;" horiz-adv-x="1566" d="M24 744q0 242 152 432q134 168 299 245t385 77q376 -4 574 -274q120 -160 120 -360q0 -106 -34 -270q-18 -82 -50 -143t-94 -135t-82 -104q-150 -218 -456 -218q-166 0 -332 68q-88 48 -125 69t-110 72t-108 93t-71 108t-48 142q-20 126 -20 198zM454 622q0 -86 50 -172 q40 -70 86 -105t126 -61q76 -24 128 -24q68 0 134 36q78 42 116 97t88 171q62 152 62 232q0 44 -14 128q-18 100 -45 156t-91 108q-114 92 -208 92q-28 0 -58 -6q-100 -16 -162 -68t-134 -160q-30 -48 -46 -96t-19 -83t-7 -117q0 -18 -2 -45t-3 -47t-1 -36zM586 1610 q0 12 6 23t12 17t17 13t17 9t16 6l10 4q66 30 126 30h8q28 0 49 -7t38 -16t23 -11q44 -12 44 -16l8 10t15 16t26 12t43 6q40 0 75 -18t39 -52v-4q0 -42 -60 -58q-8 -2 -56 -31t-94 -31h-6q-44 0 -77 15t-51 30t-24 15l-4 -4q-42 -42 -90 -42q-2 0 -7 1t-9 1q-40 6 -67 29 t-27 53z" />
<glyph unicode="&#xd6;" horiz-adv-x="1566" d="M24 744q0 242 152 432q134 168 299 245t385 77q376 -4 574 -274q120 -160 120 -360q0 -106 -34 -270q-18 -82 -50 -143t-94 -135t-82 -104q-150 -218 -456 -218q-166 0 -332 68q-88 48 -125 69t-110 72t-108 93t-71 108t-48 142q-20 126 -20 198zM454 622q0 -86 50 -172 q40 -70 86 -105t126 -61q76 -24 128 -24q68 0 134 36q78 42 116 97t88 171q62 152 62 232q0 44 -14 128q-18 100 -45 156t-91 108q-114 92 -208 92q-28 0 -58 -6q-100 -16 -162 -68t-134 -160q-30 -48 -46 -96t-19 -83t-7 -117q0 -18 -2 -45t-3 -47t-1 -36zM660 1626 q0 43 28 79.5t71 36.5q47 0 74.5 -41.5t27.5 -81.5t-29 -70t-76 -30q-28 0 -47 9.5t-24 17t-12 20.5q-13 33 -13 60zM884 1634q0 43 28 79.5t71 36.5q47 0 74.5 -41.5t27.5 -81.5t-29 -70t-76 -30q-28 0 -47 9.5t-24 17t-12 20.5q-13 33 -13 60z" />
<glyph unicode="&#xd7;" horiz-adv-x="892" d="M72 266q0 26 29 76t29 58v2q6 16 11 25t7 12t7 8l9 9q44 44 70 73t32 38t17 29t13 24q-104 230 -178 330q-2 8 -5 18t-5 16t-2 10q0 18 40 34q44 20 78 20h40q32 -2 46 -30q10 -22 40 -71t55 -88t27 -41q8 -6 24 2q10 4 14 8t14 19t24 31l88 92q18 48 28 58t18 20 q16 4 38 4q84 0 118 -58q16 -34 -6 -58q-174 -200 -238 -282q10 -24 34 -50t73 -77t99 -115q24 -34 24 -82q0 -58 -36 -74q-28 -14 -51 -20t-55 -9t-36 -3q-48 14 -50 22q-2 4 -2 12q0 20 2 38l-106 112q-2 12 -12 16q-6 4 -12 6h-30q-10 -10 -17 -14t-9 -3t-6 -3t-10 -16 q-4 -12 -18 -40l-26 -52t-12 -26q0 -34 -7 -45t-37 -17q-20 -4 -48 -4q-14 0 -86 16q-48 0 -48 40z" />
<glyph unicode="&#xd8;" horiz-adv-x="1566" d="M24 764q0 242 152 432q134 168 299 245t385 77q146 0 268 -42q26 26 52 26q72 0 134 4t70 4q38 0 188 -48q46 -16 46 -82q0 -60 -46 -96q-30 -24 -70 -24q-42 0 -42 14l-28 -26q122 -162 122 -360q0 -104 -34 -274q-14 -64 -42 -125t-51 -95t-69 -95t-64 -87 q-152 -218 -454 -218q-146 0 -286 50q-54 -2 -127 -7t-111 -5q-78 0 -162 12q-16 2 -32 18l-26 18q-28 16 -48 43t-20 63v8q4 80 120 122q-82 98 -104 230q-20 126 -20 218zM454 642q0 -60 14 -114q142 162 371 394t267 276q-122 100 -222 100q-36 0 -56 -4 q-100 -16 -162 -68t-134 -160q-30 -48 -46 -96t-19 -83t-7 -117q0 -8 -3 -57t-3 -71zM666 302q100 -42 176 -42q68 0 136 36q78 42 116 97t88 171q62 154 62 256q0 72 -24 178q-104 -144 -272 -340t-282 -356z" />
<glyph unicode="&#xd9;" horiz-adv-x="1664" d="M6 1316q0 54 36 102t102 70q2 0 7 1t7 1q94 4 172 8t116 6t58 2q10 0 278 -34q28 -4 61 -46t33 -88q0 -42 -28 -72q-34 -40 -92 -40q-48 0 -97 24t-55 38q-6 -138 -19 -269t-13 -185q0 -98 40 -348q44 -98 99 -147t157 -49q96 0 180 50t140 124q32 286 32 350q0 18 -2 72 t-2 108q0 104 8 282q-18 -18 -70 -18q-48 0 -86 27t-38 77q0 80 100 132q16 8 26 8q120 2 188 2q16 0 28 -1t54 -3t108 -4q30 -2 69 -44t39 -90q0 -24 -16 -52q-30 -44 -94 -44q-22 0 -34 8q-6 -110 -6 -176q0 -54 5 -143t5 -157q0 -142 -30 -518q0 -8 -6 -18 q-40 -72 -100 -112t-154 -72q-228 -78 -398 -78q-142 0 -306 50q-62 18 -108 52t-91 81t-73 69q-16 16 -18 34q-30 468 -30 736q0 182 12 252q-4 -2 -46 -32t-70 -30q-34 0 -56 33t-22 71zM490 1664q0 78 72 90q8 2 16 0q46 -10 85 -23t61 -22t62 -27t62 -28 q112 -48 156 -70q38 -16 38 -54q0 -36 -30 -70t-62 -34q-6 0 -10 2q-30 6 -191 80t-189 74h-4q-8 2 -21 3t-16 2t-9 5t-9 12t-7 22q-4 20 -4 38z" />
<glyph unicode="&#xda;" horiz-adv-x="1664" d="M6 1316q0 54 36 102t102 70q2 0 7 1t7 1q94 4 172 8t116 6t58 2q10 0 278 -34q28 -4 61 -46t33 -88q0 -42 -28 -72q-34 -40 -92 -40q-48 0 -97 24t-55 38q-6 -138 -19 -269t-13 -185q0 -98 40 -348q44 -98 99 -147t157 -49q96 0 180 50t140 124q32 286 32 350q0 18 -2 72 t-2 108q0 104 8 282q-18 -18 -70 -18q-48 0 -86 27t-38 77q0 80 100 132q16 8 26 8q120 2 188 2q16 0 28 -1t54 -3t108 -4q30 -2 69 -44t39 -90q0 -24 -16 -52q-30 -44 -94 -44q-22 0 -34 8q-6 -110 -6 -176q0 -54 5 -143t5 -157q0 -142 -30 -518q0 -8 -6 -18 q-40 -72 -100 -112t-154 -72q-228 -78 -398 -78q-142 0 -306 50q-62 18 -108 52t-91 81t-73 69q-16 16 -18 34q-30 468 -30 736q0 182 12 252q-4 -2 -46 -32t-70 -30q-34 0 -56 33t-22 71zM840 1560q0 38 38 54q62 30 156 70q22 10 62 28t62 27t62 22t84 23q10 2 18 0 q72 -12 72 -90q0 -18 -4 -38q-4 -14 -7 -22t-9 -12t-9 -5t-16 -2t-21 -3h-4q-30 0 -191 -74t-191 -80q-4 -2 -10 -2q-32 0 -62 34t-30 70z" />
<glyph unicode="&#xdb;" horiz-adv-x="1664" d="M6 1316q0 54 36 102t102 70q2 0 7 1t7 1q94 4 172 8t116 6t58 2q10 0 278 -34q28 -4 61 -46t33 -88q0 -42 -28 -72q-34 -40 -92 -40q-48 0 -97 24t-55 38q-6 -138 -19 -269t-13 -185q0 -98 40 -348q44 -98 99 -147t157 -49q96 0 180 50t140 124q32 286 32 350q0 18 -2 72 t-2 108q0 104 8 282q-18 -18 -70 -18q-48 0 -86 27t-38 77q0 80 100 132q16 8 26 8q120 2 188 2q16 0 28 -1t54 -3t108 -4q30 -2 69 -44t39 -90q0 -24 -16 -52q-30 -44 -94 -44q-22 0 -34 8q-6 -110 -6 -176q0 -54 5 -143t5 -157q0 -142 -30 -518q0 -8 -6 -18 q-40 -72 -100 -112t-154 -72q-228 -78 -398 -78q-142 0 -306 50q-62 18 -108 52t-91 81t-73 69q-16 16 -18 34q-30 468 -30 736q0 182 12 252q-4 -2 -46 -32t-70 -30q-34 0 -56 33t-22 71zM782 1552q0 2 2 8q30 80 106 230q4 6 12 10q56 28 84 28q44 0 54 -20 q28 -50 66 -160q20 -56 32 -96v-8q0 -42 -82 -42q-56 0 -66 24q-4 6 -12 38t-18 48q-12 -52 -14 -68q-6 -32 -76 -32q-34 0 -61 10t-27 30z" />
<glyph unicode="&#xdc;" horiz-adv-x="1664" d="M6 1316q0 54 36 102t102 70q2 0 7 1t7 1q94 4 172 8t116 6t58 2q10 0 278 -34q28 -4 61 -46t33 -88q0 -42 -28 -72q-34 -40 -92 -40q-48 0 -97 24t-55 38q-6 -138 -19 -269t-13 -185q0 -98 40 -348q44 -98 99 -147t157 -49q96 0 180 50t140 124q32 286 32 350q0 18 -2 72 t-2 108q0 104 8 282q-18 -18 -70 -18q-48 0 -86 27t-38 77q0 80 100 132q16 8 26 8q120 2 188 2q16 0 28 -1t54 -3t108 -4q30 -2 69 -44t39 -90q0 -24 -16 -52q-30 -44 -94 -44q-22 0 -34 8q-6 -110 -6 -176q0 -54 5 -143t5 -157q0 -142 -30 -518q0 -8 -6 -18 q-40 -72 -100 -112t-154 -72q-228 -78 -398 -78q-142 0 -306 50q-62 18 -108 52t-91 81t-73 69q-16 16 -18 34q-30 468 -30 736q0 182 12 252q-4 -2 -46 -32t-70 -30q-34 0 -56 33t-22 71zM736 1578q0 43 28 79.5t71 36.5q47 0 74.5 -41.5t27.5 -81.5t-29 -70t-76 -30 q-28 0 -47 9.5t-24 17t-12 20.5q-13 33 -13 60zM960 1586q0 43 28 79.5t71 36.5q47 0 74.5 -41.5t27.5 -81.5t-29 -70t-76 -30q-28 0 -47 9.5t-24 17t-12 20.5q-13 33 -13 60z" />
<glyph unicode="&#xdd;" horiz-adv-x="1576" d="M14 1354q0 36 18 74t52 42q206 16 246 16q14 0 45 -2t69 -2q54 0 210 6h2q30 0 61 -39t31 -85q0 -44 -29 -70t-73 -26t-72 28q54 -124 102 -222t70 -147t44 -123l270 438q-16 -12 -44 -12q-66 0 -98 88q-8 18 -8 42q0 74 78 120q12 8 22 8q68 4 115 8t64 6t29 2t34 -2 t83 -6t143 -8q28 -2 52 -36t24 -76q0 -40 -22 -70q-36 -54 -112 -54q-26 0 -63 8t-43 8h-2l-4 -2q-40 -70 -95 -176t-87 -164t-88 -146t-124 -180q-2 -16 -2 -44q0 -52 14 -108t14 -92q0 -62 -30 -166l-2 -4q0 -4 4 -4q2 0 37 19t59 19q34 0 59 -35t25 -73q0 -28 -15 -52 t-41 -28q-260 -26 -320 -26q-64 0 -302 20q-26 4 -43 29t-17 59q0 62 46 102q42 36 88 36q64 0 86 -34q16 180 16 382q-92 192 -215 356t-187 274q-4 -34 -46 -34q-50 0 -89 52t-39 106zM732 1540q0 38 38 54q62 30 156 70q22 10 62 28t62 27t62 22t84 23q10 2 18 0 q72 -12 72 -90q0 -18 -4 -38q-4 -14 -7 -22t-9 -12t-9 -5t-16 -2t-21 -3h-4q-30 0 -191 -74t-191 -80q-4 -2 -10 -2q-32 0 -62 34t-30 70z" />
<glyph unicode="&#xde;" horiz-adv-x="1178" d="M34 1378q0 66 54 112q16 12 32 12h98q80 0 249 -2t227 -2h44q32 0 54 -32t22 -74q0 -46 -30 -88q-28 -38 -158 -38q-14 0 -31 1t-27 1h-12q50 -10 160 -18t186 -32t140 -84q88 -76 102 -228v-26q0 -94 -58 -194q-50 -90 -97 -144t-129 -92q-90 -44 -180 -44q-26 0 -52 4 t-42 8t-20 4h-2q2 -52 7 -97t7 -73q50 18 110 18q124 0 178 -96q14 -22 14 -48q0 -52 -64 -100q-10 -10 -30 -10q-70 0 -213 -9t-225 -9q-124 0 -244 16q-28 4 -47 36t-19 58q0 32 22 62t44 42l22 14q52 20 78 20q16 0 24 -8q4 150 4 342q0 4 1 24t3 58t4 90t3 134t1 174 q0 30 -1 99t-1 109q-10 -2 -34 -2q-50 0 -114 14q-26 4 -43 32t-17 66zM548 852q0 -84 14 -184q2 -2 10 -2q14 0 140 54q72 30 88 68q24 48 24 86q0 36 -24 84q-18 36 -43 54t-75 34q-62 18 -72 18q-14 0 -50 -10q-12 -132 -12 -202z" />
<glyph unicode="&#xdf;" horiz-adv-x="1260" d="M26 122q0 68 68 114q26 18 42 18q4 0 40 -20q0 50 1 116t1 90q0 32 -4 200q-10 -12 -28 -12q-38 0 -78 52t-40 106q0 32 20 64q38 56 88 56q22 0 32 -10q4 14 4 64v78q0 68 6 84q50 148 142 249t190 131q36 12 86 12q124 0 229 -64t105 -186q0 -64 -31 -111t-101 -47 q-46 0 -94 31t-84 63t-54 32h-6q-24 -4 -41 -26t-25 -40t-24 -66q-2 -84 -2 -210q0 -76 2 -201t2 -217q0 -144 -2 -244q6 6 20 6q36 0 64 -48q16 -32 16 -60q0 -48 -34 -84t-82 -36h-318q-46 0 -78 34t-32 82zM564 236q0 48 28 114t66 66q32 0 73 -52t79 -104t62 -52h2 q36 2 58 30t24 70v4q0 18 -14 32t-60 48q-18 16 -71 20t-107 25t-84 77q-46 84 -46 168q0 6 1 19t1 21q4 96 56 161t142 117q62 40 136 40q30 0 74 -10q148 -38 192 -156q16 -42 16 -70q0 -40 -28 -110t-62 -70t-78 72l-46 74q-60 40 -72 40q-6 0 -10 -2q-60 -18 -60 -58 q0 -2 1 -5t1 -5q4 -18 27 -24t67 -18t82 -42q16 -14 57 -43t63 -48t50 -56t42 -81q18 -58 18 -112q0 -98 -58 -182q-28 -40 -71 -67t-71 -36t-84 -21q-52 -12 -94 -12q-50 0 -100 12q-2 0 -14 3l-16 4l-16 4t-17 5t-16 6t-17 8t-16 10t-16 12l-14 14t-14 18q-46 70 -46 142z " />
<glyph unicode="&#xe0;" horiz-adv-x="960" d="M20 278q0 70 26 138q42 106 176 185t216 79h14q34 0 34 80q0 38 -9 77t-17 45q-38 0 -61 -5t-34 -23t-14 -26t-4 -42t-1 -42q-6 -58 -52 -92t-104 -34q-54 0 -99 36t-45 118q0 62 29 127t75 105q108 90 314 90q96 0 156 -44q46 -32 73 -70t38 -97t14 -100t3 -131t2 -138 v-116q0 -38 2 -60q46 46 90 46q32 0 57 -24t25 -62q0 -14 -4 -34l-4 -18q0 -6 -1 -24t-2 -27t-3 -26t-6 -28t-11 -26t-17 -28t-22 -25q-16 -14 -35 -23t-30 -10t-32 -2t-23 -1q-8 0 -20 -1t-16 -1q-48 0 -83 11t-47 22t-25 29t-15 20l-18 32q-2 0 -10 -9t-28 -26t-44 -31 l-16 -12q-16 -14 -33 -23t-54 -18t-81 -9q-102 0 -163 75t-61 193zM60 1334q0 78 72 90q8 2 16 0q46 -10 85 -23t61 -22t62 -27t62 -28q112 -48 156 -70q38 -16 38 -54q0 -36 -30 -70t-62 -34q-6 0 -10 2q-30 6 -191 80t-189 74h-4q-8 2 -21 3t-16 2t-9 5t-9 12t-7 22 q-4 20 -4 38zM306 360q4 -98 26 -98q2 0 10 4q6 4 4 6q-2 0 -1 2t7 5t18 7t33 13t27 11t16 9t18 17q42 50 42 92q0 10 -2 19t-5 15t-6 11t-5 7l-2 4q-28 0 -98 -44l-8 -4q-8 -6 -20 -14t-25 -18t-21 -21t-8 -21v-2z" />
<glyph unicode="&#xe1;" horiz-adv-x="960" d="M20 278q0 70 26 138q42 106 176 185t216 79h14q34 0 34 80q0 38 -9 77t-17 45q-38 0 -61 -5t-34 -23t-14 -26t-4 -42t-1 -42q-6 -58 -52 -92t-104 -34q-54 0 -99 36t-45 118q0 62 29 127t75 105q108 90 314 90q96 0 156 -44q46 -32 73 -70t38 -97t14 -100t3 -131t2 -138 v-116q0 -38 2 -60q46 46 90 46q32 0 57 -24t25 -62q0 -14 -4 -34l-4 -18q0 -6 -1 -24t-2 -27t-3 -26t-6 -28t-11 -26t-17 -28t-22 -25q-16 -14 -35 -23t-30 -10t-32 -2t-23 -1q-8 0 -20 -1t-16 -1q-48 0 -83 11t-47 22t-25 29t-15 20l-18 32q-2 0 -10 -9t-28 -26t-44 -31 l-16 -12q-16 -14 -33 -23t-54 -18t-81 -9q-102 0 -163 75t-61 193zM306 360q4 -98 26 -98q2 0 10 4q6 4 4 6q-2 0 -1 2t7 5t18 7t33 13t27 11t16 9t18 17q42 50 42 92q0 10 -2 19t-5 15t-6 11t-5 7l-2 4q-28 0 -98 -44l-8 -4q-8 -6 -20 -14t-25 -18t-21 -21t-8 -21v-2z M310 1208q0 38 38 54q62 30 156 70q22 10 62 28t62 27t62 22t84 23q10 2 18 0q72 -12 72 -90q0 -18 -4 -38q-4 -14 -7 -22t-9 -12t-9 -5t-16 -2t-21 -3h-4q-30 0 -191 -74t-191 -80q-4 -2 -10 -2q-32 0 -62 34t-30 70z" />
<glyph unicode="&#xe2;" horiz-adv-x="960" d="M20 278q0 70 26 138q42 106 176 185t216 79h14q34 0 34 80q0 38 -9 77t-17 45q-38 0 -61 -5t-34 -23t-14 -26t-4 -42t-1 -42q-6 -58 -52 -92t-104 -34q-54 0 -99 36t-45 118q0 62 29 127t75 105q108 90 314 90q96 0 156 -44q46 -32 73 -70t38 -97t14 -100t3 -131t2 -138 v-116q0 -38 2 -60q46 46 90 46q32 0 57 -24t25 -62q0 -14 -4 -34l-4 -18q0 -6 -1 -24t-2 -27t-3 -26t-6 -28t-11 -26t-17 -28t-22 -25q-16 -14 -35 -23t-30 -10t-32 -2t-23 -1q-8 0 -20 -1t-16 -1q-48 0 -83 11t-47 22t-25 29t-15 20l-18 32q-2 0 -10 -9t-28 -26t-44 -31 l-16 -12q-16 -14 -33 -23t-54 -18t-81 -9q-102 0 -163 75t-61 193zM274 1164q0 2 2 8q30 80 106 230q4 6 12 10q56 28 84 28q44 0 54 -20q28 -50 66 -160q20 -56 32 -96v-8q0 -42 -82 -42q-56 0 -66 24q-4 6 -12 38t-18 48q-12 -52 -14 -68q-6 -32 -76 -32q-34 0 -61 10 t-27 30zM306 360q4 -98 26 -98q2 0 10 4q6 4 4 6q-2 0 -1 2t7 5t18 7t33 13t27 11t16 9t18 17q42 50 42 92q0 10 -2 19t-5 15t-6 11t-5 7l-2 4q-28 0 -98 -44l-8 -4q-8 -6 -20 -14t-25 -18t-21 -21t-8 -21v-2z" />
<glyph unicode="&#xe3;" horiz-adv-x="960" d="M20 278q0 70 26 138q42 106 176 185t216 79h14q34 0 34 80q0 38 -9 77t-17 45q-38 0 -61 -5t-34 -23t-14 -26t-4 -42t-1 -42q-6 -58 -52 -92t-104 -34q-54 0 -99 36t-45 118q0 62 29 127t75 105q108 90 314 90q96 0 156 -44q46 -32 73 -70t38 -97t14 -100t3 -131t2 -138 v-116q0 -38 2 -60q46 46 90 46q32 0 57 -24t25 -62q0 -14 -4 -34l-4 -18q0 -6 -1 -24t-2 -27t-3 -26t-6 -28t-11 -26t-17 -28t-22 -25q-16 -14 -35 -23t-30 -10t-32 -2t-23 -1q-8 0 -20 -1t-16 -1q-48 0 -83 11t-47 22t-25 29t-15 20l-18 32q-2 0 -10 -9t-28 -26t-44 -31 l-16 -12q-16 -14 -33 -23t-54 -18t-81 -9q-102 0 -163 75t-61 193zM178 1248q0 12 6 23t12 17t17 13t17 9t16 6l10 4q66 30 126 30h8q28 0 49 -7t38 -16t23 -11q44 -12 44 -16l8 10t15 16t26 12t43 6q40 0 75 -18t39 -52v-4q0 -42 -60 -58q-8 -2 -56 -31t-94 -31h-6 q-44 0 -77 15t-51 30t-24 15l-4 -4q-42 -42 -90 -42q-2 0 -7 1t-9 1q-40 6 -67 29t-27 53zM306 360q4 -98 26 -98q2 0 10 4q6 4 4 6q-2 0 -1 2t7 5t18 7t33 13t27 11t16 9t18 17q42 50 42 92q0 10 -2 19t-5 15t-6 11t-5 7l-2 4q-28 0 -98 -44l-8 -4q-8 -6 -20 -14t-25 -18 t-21 -21t-8 -21v-2z" />
<glyph unicode="&#xe4;" horiz-adv-x="960" d="M20 278q0 70 26 138q42 106 176 185t216 79h14q34 0 34 80q0 38 -9 77t-17 45q-38 0 -61 -5t-34 -23t-14 -26t-4 -42t-1 -42q-6 -58 -52 -92t-104 -34q-54 0 -99 36t-45 118q0 62 29 127t75 105q108 90 314 90q96 0 156 -44q46 -32 73 -70t38 -97t14 -100t3 -131t2 -138 v-116q0 -38 2 -60q46 46 90 46q32 0 57 -24t25 -62q0 -14 -4 -34l-4 -18q0 -6 -1 -24t-2 -27t-3 -26t-6 -28t-11 -26t-17 -28t-22 -25q-16 -14 -35 -23t-30 -10t-32 -2t-23 -1q-8 0 -20 -1t-16 -1q-48 0 -83 11t-47 22t-25 29t-15 20l-18 32q-2 0 -10 -9t-28 -26t-44 -31 l-16 -12q-16 -14 -33 -23t-54 -18t-81 -9q-102 0 -163 75t-61 193zM216 1234q0 43 28 79.5t71 36.5q47 0 74.5 -41.5t27.5 -81.5t-29 -70t-76 -30q-28 0 -47 9.5t-24 17t-12 20.5q-13 33 -13 60zM306 360q4 -98 26 -98q2 0 10 4q6 4 4 6q-2 0 -1 2t7 5t18 7t33 13t27 11 t16 9t18 17q42 50 42 92q0 10 -2 19t-5 15t-6 11t-5 7l-2 4q-28 0 -98 -44l-8 -4q-8 -6 -20 -14t-25 -18t-21 -21t-8 -21v-2zM440 1242q0 43 28 79.5t71 36.5q47 0 74.5 -41.5t27.5 -81.5t-29 -70t-76 -30q-28 0 -47 9.5t-24 17t-12 20.5q-13 33 -13 60z" />
<glyph unicode="&#xe5;" horiz-adv-x="960" d="M20 278q0 70 26 138q42 106 176 185t216 79h14q34 0 34 80q0 38 -9 77t-17 45q-38 0 -61 -5t-34 -23t-14 -26t-4 -42t-1 -42q-6 -58 -52 -92t-104 -34q-54 0 -99 36t-45 118q0 62 29 127t75 105q108 90 314 90q96 0 156 -44q46 -32 73 -70t38 -97t14 -100t3 -131t2 -138 v-116q0 -38 2 -60q46 46 90 46q32 0 57 -24t25 -62q0 -14 -4 -34l-4 -18q0 -6 -1 -24t-2 -27t-3 -26t-6 -28t-11 -26t-17 -28t-22 -25q-16 -14 -35 -23t-30 -10t-32 -2t-23 -1q-8 0 -20 -1t-16 -1q-48 0 -83 11t-47 22t-25 29t-15 20l-18 32q-2 0 -10 -9t-28 -26t-44 -31 l-16 -12q-16 -14 -33 -23t-54 -18t-81 -9q-102 0 -163 75t-61 193zM288 1248q0 64 38 109t98 45h8q54 -4 81 -46t27 -108q0 -26 -8 -50q-26 -84 -96 -84h-8h-10h-5h-9q-48 0 -82 39t-34 95zM306 360q4 -98 26 -98q2 0 10 4q6 4 4 6q-2 0 -1 2t7 5t18 7t33 13t27 11t16 9 t18 17q42 50 42 92q0 10 -2 19t-5 15t-6 11t-5 7l-2 4q-28 0 -98 -44l-8 -4q-8 -6 -20 -14t-25 -18t-21 -21t-8 -21v-2zM368 1256q0 -40 14 -60t50 -20q18 0 27 25t9 49q0 86 -50 86q-24 0 -37 -26t-13 -54z" />
<glyph unicode="&#xe7;" horiz-adv-x="924" d="M50 432q0 76 28 176q30 100 66 166t106 122q128 98 296 98h24q50 -2 79 -7t70 -25t79 -58q76 -76 76 -160q0 -54 -32 -90t-78 -40h-6q-26 0 -49 12t-34 25t-22 28t-13 17q-4 2 -28 24t-44 32t-46 10q-38 0 -82 -28q-30 -20 -56 -86q-42 -112 -42 -186q0 -20 8 -86 q12 -104 102 -160q58 -34 114 -34q38 0 74 18q8 4 30 70t90 66q44 0 78 -30t34 -74v-6q-4 -80 -12 -110t-34 -66q-56 -74 -70 -74q-2 0 -5 3t-5 3l-12 -66q-38 -194 -144 -312q-80 -92 -166 -96h-18q-168 0 -168 128q0 50 38 83t81 52t47 29q6 12 6 28q0 6 -2 17t-2 21 l-14 2q-14 4 -34 11t-41 19t-38 37t-23 57q0 8 -2 18l-14 8q-14 8 -28 18t-35 31t-39 48t-36 69t-30 92q-22 88 -22 156z" />
<glyph unicode="&#xe8;" horiz-adv-x="854" d="M34 518q0 84 26 174q30 102 66 167t108 121q120 92 264 92q36 0 56 -2q48 -4 79 -12t69 -35t60 -71q46 -92 46 -162q0 -56 -24 -120q-32 -86 -100 -90l-40 -2q-42 -2 -103 -4t-111 -2q-126 0 -142 14q0 -2 9 -22t20 -51t15 -53q16 -108 64 -148q16 -16 96 -24 q16 -2 38 -4t28 -2q10 0 16 1t11 8t7 12t7 22t9 29q24 66 92 66q42 0 76 -29t34 -73v-6q-4 -78 -11 -105t-29 -69q-64 -110 -198 -110q-18 0 -41 2t-25 2t-18 -1t-32 -1q-154 0 -260 100q-162 152 -162 388zM114 1322q0 78 72 90q8 2 16 0q46 -10 85 -23t61 -22t62 -27 t62 -28q112 -48 156 -70q38 -16 38 -54q0 -36 -30 -70t-62 -34q-6 0 -10 2q-30 6 -191 80t-189 74h-4q-8 2 -21 3t-16 2t-9 5t-9 12t-7 22q-4 20 -4 38zM358 756h12q68 0 164 -16q0 2 -1 6t-1 6q0 20 16 58t16 40v2q-14 10 -44 10q-64 0 -116 -34q-10 -8 -46 -72z" />
<glyph unicode="&#xe9;" horiz-adv-x="854" d="M34 518q0 84 26 174q30 102 66 167t108 121q120 92 264 92q36 0 56 -2q48 -4 79 -12t69 -35t60 -71q46 -92 46 -162q0 -56 -24 -120q-32 -86 -100 -90l-40 -2q-42 -2 -103 -4t-111 -2q-126 0 -142 14q0 -2 9 -22t20 -51t15 -53q16 -108 64 -148q16 -16 96 -24 q16 -2 38 -4t28 -2q10 0 16 1t11 8t7 12t7 22t9 29q24 66 92 66q42 0 76 -29t34 -73v-6q-4 -78 -11 -105t-29 -69q-64 -110 -198 -110q-18 0 -41 2t-25 2t-18 -1t-32 -1q-154 0 -260 100q-162 152 -162 388zM284 1186q0 38 38 54q62 30 156 70q22 10 62 28t62 27t62 22 t84 23q10 2 18 0q72 -12 72 -90q0 -18 -4 -38q-4 -14 -7 -22t-9 -12t-9 -5t-16 -2t-21 -3h-4q-30 0 -191 -74t-191 -80q-4 -2 -10 -2q-32 0 -62 34t-30 70zM358 756h12q68 0 164 -16q0 2 -1 6t-1 6q0 20 16 58t16 40v2q-14 10 -44 10q-64 0 -116 -34q-10 -8 -46 -72z" />
<glyph unicode="&#xea;" horiz-adv-x="854" d="M34 518q0 84 26 174q30 102 66 167t108 121q120 92 264 92q36 0 56 -2q48 -4 79 -12t69 -35t60 -71q46 -92 46 -162q0 -56 -24 -120q-32 -86 -100 -90l-40 -2q-42 -2 -103 -4t-111 -2q-126 0 -142 14q0 -2 9 -22t20 -51t15 -53q16 -108 64 -148q16 -16 96 -24 q16 -2 38 -4t28 -2q10 0 16 1t11 8t7 12t7 22t9 29q24 66 92 66q42 0 76 -29t34 -73v-6q-4 -78 -11 -105t-29 -69q-64 -110 -198 -110q-18 0 -41 2t-25 2t-18 -1t-32 -1q-154 0 -260 100q-162 152 -162 388zM308 1128q0 2 2 8q30 80 106 230q4 6 12 10q56 28 84 28 q44 0 54 -20q28 -50 66 -160q20 -56 32 -96v-8q0 -42 -82 -42q-56 0 -66 24q-4 6 -12 38t-18 48q-12 -52 -14 -68q-6 -32 -76 -32q-34 0 -61 10t-27 30zM358 756h12q68 0 164 -16q0 2 -1 6t-1 6q0 20 16 58t16 40v2q-14 10 -44 10q-64 0 -116 -34q-10 -8 -46 -72z" />
<glyph unicode="&#xeb;" horiz-adv-x="854" d="M34 518q0 84 26 174q30 102 66 167t108 121q120 92 264 92q36 0 56 -2q48 -4 79 -12t69 -35t60 -71q46 -92 46 -162q0 -56 -24 -120q-32 -86 -100 -90l-40 -2q-42 -2 -103 -4t-111 -2q-126 0 -142 14q0 -2 9 -22t20 -51t15 -53q16 -108 64 -148q16 -16 96 -24 q16 -2 38 -4t28 -2q10 0 16 1t11 8t7 12t7 22t9 29q24 66 92 66q42 0 76 -29t34 -73v-6q-4 -78 -11 -105t-29 -69q-64 -110 -198 -110q-18 0 -41 2t-25 2t-18 -1t-32 -1q-154 0 -260 100q-162 152 -162 388zM296 1218q0 43 28 79.5t71 36.5q47 0 74.5 -41.5t27.5 -81.5 t-29 -70t-76 -30q-28 0 -47 9.5t-24 17t-12 20.5q-13 33 -13 60zM358 756h12q68 0 164 -16q0 2 -1 6t-1 6q0 20 16 58t16 40v2q-14 10 -44 10q-64 0 -116 -34q-10 -8 -46 -72zM520 1226q0 43 28 79.5t71 36.5q47 0 74.5 -41.5t27.5 -81.5t-29 -70t-76 -30q-28 0 -47 9.5 t-24 17t-12 20.5q-13 33 -13 60z" />
<glyph unicode="&#xec;" horiz-adv-x="626" d="M-122 1272q0 78 72 90q8 2 16 0q46 -10 85 -23t61 -22t62 -27t62 -28q112 -48 156 -70q38 -16 38 -54q0 -36 -30 -70t-62 -34q-6 0 -10 2q-30 6 -191 80t-189 74h-4q-8 2 -21 3t-16 2t-9 5t-9 12t-7 22q-4 20 -4 38zM50 894q0 16 30 36q28 18 46 25t39 13l35 10 q8 2 31 12t44 16t45 6q4 0 12 -1t12 -1q100 -16 138 -82q34 -60 34 -116q0 -36 -15 -98t-15 -86q0 -72 -5 -179t-5 -223q8 12 26 12q40 0 72 -64q14 -32 14 -60q0 -50 -36 -80q-16 -12 -132 -12h-298q-28 0 -48 27t-20 63q0 52 39 84t79 32q30 0 44 -10v64q0 34 1 72t1 58 q0 54 -14 300q-6 18 -21 31t-49 40t-70 69q-14 32 -14 42z" />
<glyph unicode="&#xed;" horiz-adv-x="626" d="M50 894q0 16 30 36q28 18 46 25t39 13l35 10q8 2 31 12t44 16t45 6q4 0 12 -1t12 -1q100 -16 138 -82q34 -60 34 -116q0 -36 -15 -98t-15 -86q0 -72 -5 -179t-5 -223q8 12 26 12q40 0 72 -64q14 -32 14 -60q0 -50 -36 -80q-16 -12 -132 -12h-298q-28 0 -48 27t-20 63 q0 52 39 84t79 32q30 0 44 -10v64q0 34 1 72t1 58q0 54 -14 300q-6 18 -21 31t-49 40t-70 69q-14 32 -14 42zM62 1110q0 38 38 54q62 30 156 70q22 10 62 28t62 27t62 22t84 23q10 2 18 0q72 -12 72 -90q0 -18 -4 -38q-4 -14 -7 -22t-9 -12t-9 -5t-16 -2t-21 -3h-4 q-30 0 -191 -74t-191 -80q-4 -2 -10 -2q-32 0 -62 34t-30 70z" />
<glyph unicode="&#xee;" horiz-adv-x="626" d="M50 894q0 16 30 36q28 18 46 25t39 13l35 10q8 2 31 12t44 16t45 6q4 0 12 -1t12 -1q100 -16 138 -82q34 -60 34 -116q0 -36 -15 -98t-15 -86q0 -72 -5 -179t-5 -223q8 12 26 12q40 0 72 -64q14 -32 14 -60q0 -50 -36 -80q-16 -12 -132 -12h-298q-28 0 -48 27t-20 63 q0 52 39 84t79 32q30 0 44 -10v64q0 34 1 72t1 58q0 54 -14 300q-6 18 -21 31t-49 40t-70 69q-14 32 -14 42zM150 1124q0 2 2 8q30 80 106 230q4 6 12 10q56 28 84 28q44 0 54 -20q28 -50 66 -160q20 -56 32 -96v-8q0 -42 -82 -42q-56 0 -66 24q-4 6 -12 38t-18 48 q-12 -52 -14 -68q-6 -32 -76 -32q-34 0 -61 10t-27 30z" />
<glyph unicode="&#xef;" horiz-adv-x="626" d="M50 894q0 16 30 36q28 18 46 25t39 13l35 10q8 2 31 12t44 16t45 6q4 0 12 -1t12 -1q100 -16 138 -82q34 -60 34 -116q0 -36 -15 -98t-15 -86q0 -72 -5 -179t-5 -223q8 12 26 12q40 0 72 -64q14 -32 14 -60q0 -50 -36 -80q-16 -12 -132 -12h-298q-28 0 -48 27t-20 63 q0 52 39 84t79 32q30 0 44 -10v64q0 34 1 72t1 58q0 54 -14 300q-6 18 -21 31t-49 40t-70 69q-14 32 -14 42zM128 1164q0 43 28 79.5t71 36.5q47 0 74.5 -41.5t27.5 -81.5t-29 -70t-76 -30q-28 0 -47 9.5t-24 17t-12 20.5q-13 33 -13 60zM352 1172q0 43 28 79.5t71 36.5 q47 0 74.5 -41.5t27.5 -81.5t-29 -70t-76 -30q-28 0 -47 9.5t-24 17t-12 20.5q-13 33 -13 60z" />
<glyph unicode="&#xf0;" horiz-adv-x="1014" d="M42 472v16q10 378 274 556q72 50 158 52h12q116 0 242 -42q-4 74 -24 114q-48 -18 -100 -18q-46 0 -72 18t-26 46q0 38 40 72q-20 8 -32 12l2 4q6 18 2 14q-44 -56 -90 -56q-34 0 -34 52q0 54 41 117t85 91q42 24 78 24q90 0 224 -134q52 14 78 14q38 0 67 -21t29 -47 q0 -60 -84 -104q16 -72 16 -220q0 -84 -8 -342t-10 -430q-4 -92 -194 -188q-140 -70 -290 -70q-50 0 -104 6q-34 4 -62 22t-42 34t-32 43t-24 35q-120 146 -120 330zM300 496q0 -50 34 -104q26 -42 57 -63t95 -45q34 -14 58 -14t40 16t46 62q38 62 51 115t13 143 q0 82 -44 154t-108 86h-4q-24 0 -61 -22t-61 -54q-56 -70 -79 -111t-31 -105q-6 -34 -6 -58z" />
<glyph unicode="&#xf1;" horiz-adv-x="1084" d="M36 190q0 52 33 95t61 43q8 0 14 -6q-2 138 -2 506q-6 -12 -22 -12q-24 0 -50 23t-30 53v12q0 10 4 17t19 21t34 31t61 56t90 87q16 14 38 14q48 -2 108 -44q30 -24 26 -54q0 4 2 6q8 12 18 17t44 12t62 17q6 2 20 10t33 13t43 5h6q30 0 54 -8t50 -23t34 -19q4 -2 20 -6 t29 -9t31 -19t32 -32q46 -70 46 -160q0 -46 -12 -74q6 -102 6 -208q0 -34 -2 -79t-2 -79q0 -8 1 -33t1 -41q6 36 20 36q6 0 27 -18t42 -59t21 -87q0 -72 -36 -115t-64 -43q-46 -2 -102 -2q-90 0 -208 2q-42 0 -71 60t-29 102q0 44 30 89t60 45q12 0 22 -10q0 54 -1 100 t-2 69t-1 35q0 16 1 64t3 142q-6 44 -28 54q-10 4 -28 6q-4 0 -9 1t-7 1q-30 0 -72 -27t-50 -47q-2 -78 -2 -152q0 -18 1 -83t1 -161q8 26 24 4q2 -4 8 -12l12 -18q36 -52 36 -106q0 -28 -8 -50q-24 -82 -94 -100q-4 -2 -12 -2h-254q-40 0 -85 42t-45 108zM256 1290 q0 12 6 23t12 17t17 13t17 9t16 6l10 4q66 30 126 30h8q28 0 49 -7t38 -16t23 -11q44 -12 44 -16l8 10t15 16t26 12t43 6q40 0 75 -18t39 -52v-4q0 -42 -60 -58q-8 -2 -56 -31t-94 -31h-6q-44 0 -77 15t-51 30t-24 15l-4 -4q-42 -42 -90 -42q-2 0 -7 1t-9 1q-40 6 -67 29 t-27 53z" />
<glyph unicode="&#xf2;" horiz-adv-x="972" d="M34 500q0 84 26 174q30 102 66 167t108 121q128 98 294 98h24q50 -2 79 -7t70 -25t79 -58q88 -90 122 -168t40 -222q2 -28 2 -80q0 -90 -26 -176q-10 -36 -17 -56t-29 -64t-47 -72t-70 -60t-99 -48q-40 -12 -86 -12q-10 0 -32 1t-32 1q-2 0 -19 -1t-31 -1 q-154 0 -260 100q-162 154 -162 388zM212 1300q0 78 72 90q8 2 16 0q46 -10 85 -23t61 -22t62 -27t62 -28q112 -48 156 -70q38 -16 38 -54q0 -36 -30 -70t-62 -34q-6 0 -10 2q-30 6 -191 80t-189 74h-4q-8 2 -21 3t-16 2t-9 5t-9 12t-7 22q-4 20 -4 38zM324 530q0 -42 8 -88 q10 -64 24 -98t50 -68q4 -4 9 -8t9 -6t10 -4t10 -4t13 -3t13 -2t16 -3t18 -2q36 -6 54 -6t38 12q16 8 26 21t13 20t17 47q36 92 36 170q0 168 -74 262q-26 34 -47 45t-65 11q-38 0 -78 -26q-22 -14 -32 -29t-26 -57q-42 -114 -42 -184z" />
<glyph unicode="&#xf3;" horiz-adv-x="972" d="M34 500q0 84 26 174q30 102 66 167t108 121q128 98 294 98h24q50 -2 79 -7t70 -25t79 -58q88 -90 122 -168t40 -222q2 -28 2 -80q0 -90 -26 -176q-10 -36 -17 -56t-29 -64t-47 -72t-70 -60t-99 -48q-40 -12 -86 -12q-10 0 -32 1t-32 1q-2 0 -19 -1t-31 -1 q-154 0 -260 100q-162 154 -162 388zM324 530q0 -42 8 -88q10 -64 24 -98t50 -68q4 -4 9 -8t9 -6t10 -4t10 -4t13 -3t13 -2t16 -3t18 -2q36 -6 54 -6t38 12q16 8 26 21t13 20t17 47q36 92 36 170q0 168 -74 262q-26 34 -47 45t-65 11q-38 0 -78 -26q-22 -14 -32 -29t-26 -57 q-42 -114 -42 -184zM376 1188q0 38 38 54q62 30 156 70q22 10 62 28t62 27t62 22t84 23q10 2 18 0q72 -12 72 -90q0 -18 -4 -38q-4 -14 -7 -22t-9 -12t-9 -5t-16 -2t-21 -3h-4q-30 0 -191 -74t-191 -80q-4 -2 -10 -2q-32 0 -62 34t-30 70z" />
<glyph unicode="&#xf4;" horiz-adv-x="972" d="M34 500q0 84 26 174q30 102 66 167t108 121q128 98 294 98h24q50 -2 79 -7t70 -25t79 -58q88 -90 122 -168t40 -222q2 -28 2 -80q0 -90 -26 -176q-10 -36 -17 -56t-29 -64t-47 -72t-70 -60t-99 -48q-40 -12 -86 -12q-10 0 -32 1t-32 1q-2 0 -19 -1t-31 -1 q-154 0 -260 100q-162 154 -162 388zM324 530q0 -42 8 -88q10 -64 24 -98t50 -68q4 -4 9 -8t9 -6t10 -4t10 -4t13 -3t13 -2t16 -3t18 -2q36 -6 54 -6t38 12q16 8 26 21t13 20t17 47q36 92 36 170q0 168 -74 262q-26 34 -47 45t-65 11q-38 0 -78 -26q-22 -14 -32 -29t-26 -57 q-42 -114 -42 -184zM344 1166q0 2 2 8q30 80 106 230q4 6 12 10q56 28 84 28q44 0 54 -20q28 -50 66 -160q20 -56 32 -96v-8q0 -42 -82 -42q-56 0 -66 24q-4 6 -12 38t-18 48q-12 -52 -14 -68q-6 -32 -76 -32q-34 0 -61 10t-27 30z" />
<glyph unicode="&#xf5;" horiz-adv-x="972" d="M34 500q0 84 26 174q30 102 66 167t108 121q128 98 294 98h24q50 -2 79 -7t70 -25t79 -58q88 -90 122 -168t40 -222q2 -28 2 -80q0 -90 -26 -176q-10 -36 -17 -56t-29 -64t-47 -72t-70 -60t-99 -48q-40 -12 -86 -12q-10 0 -32 1t-32 1q-2 0 -19 -1t-31 -1 q-154 0 -260 100q-162 154 -162 388zM254 1202q0 12 6 23t12 17t17 13t17 9t16 6l10 4q66 30 126 30h8q28 0 49 -7t38 -16t23 -11q44 -12 44 -16l8 10t15 16t26 12t43 6q40 0 75 -18t39 -52v-4q0 -42 -60 -58q-8 -2 -56 -31t-94 -31h-6q-44 0 -77 15t-51 30t-24 15l-4 -4 q-42 -42 -90 -42q-2 0 -7 1t-9 1q-40 6 -67 29t-27 53zM324 530q0 -42 8 -88q10 -64 24 -98t50 -68q4 -4 9 -8t9 -6t10 -4t10 -4t13 -3t13 -2t16 -3t18 -2q36 -6 54 -6t38 12q16 8 26 21t13 20t17 47q36 92 36 170q0 168 -74 262q-26 34 -47 45t-65 11q-38 0 -78 -26 q-22 -14 -32 -29t-26 -57q-42 -114 -42 -184z" />
<glyph unicode="&#xf6;" horiz-adv-x="972" d="M34 500q0 84 26 174q30 102 66 167t108 121q128 98 294 98h24q50 -2 79 -7t70 -25t79 -58q88 -90 122 -168t40 -222q2 -28 2 -80q0 -90 -26 -176q-10 -36 -17 -56t-29 -64t-47 -72t-70 -60t-99 -48q-40 -12 -86 -12q-10 0 -32 1t-32 1q-2 0 -19 -1t-31 -1 q-154 0 -260 100q-162 154 -162 388zM316 1212q0 43 28 79.5t71 36.5q47 0 74.5 -41.5t27.5 -81.5t-29 -70t-76 -30q-28 0 -47 9.5t-24 17t-12 20.5q-13 33 -13 60zM324 530q0 -42 8 -88q10 -64 24 -98t50 -68q4 -4 9 -8t9 -6t10 -4t10 -4t13 -3t13 -2t16 -3t18 -2 q36 -6 54 -6t38 12q16 8 26 21t13 20t17 47q36 92 36 170q0 168 -74 262q-26 34 -47 45t-65 11q-38 0 -78 -26q-22 -14 -32 -29t-26 -57q-42 -114 -42 -184zM540 1220q0 43 28 79.5t71 36.5q47 0 74.5 -41.5t27.5 -81.5t-29 -70t-76 -30q-28 0 -47 9.5t-24 17t-12 20.5 q-13 33 -13 60z" />
<glyph unicode="&#xf7;" horiz-adv-x="746" d="M28 596q0 54 42 106q62 68 180 68h38q36 0 91 11t89 11q28 0 44 -2q4 0 17 -2t18 -3t18 -3t20 -4t18 -6t20 -9t19 -12t18 -16t16 -19q42 -56 42 -114q0 -44 -28 -88q-20 -30 -45 -50t-60 -28t-53 -11t-64 -4t-52 -1q-128 -6 -134 -6q-152 0 -226 100q-28 40 -28 82z M260 970q0 54 32 90t76 36q48 0 81 -42t33 -94q0 -50 -37 -81t-85 -31q-66 0 -86 52q-14 34 -14 70zM264 226q0 54 32 90t76 36q48 0 81 -42t33 -94q0 -50 -37 -81t-85 -31q-62 0 -86 52q-14 34 -14 70z" />
<glyph unicode="&#xf8;" horiz-adv-x="1104" d="M30 124v4q2 36 39 61t75 25q14 0 20 -2q-74 112 -74 280q0 94 26 182q30 102 66 168t108 120q128 98 294 98h24q46 -2 73 -6t64 -21t71 -47q34 2 65 4t39 2q28 0 124 -32q30 -10 30 -54q0 -30 -23 -54t-53 -24q-28 0 -28 10l-20 -20q50 -106 50 -284t-69 -321t-219 -189 q-40 -12 -86 -12q-10 0 -32 1t-32 1q-14 0 -37 -1t-33 -1q-48 0 -102 18q-44 0 -96 -4t-76 -4q-46 0 -104 8q-10 4 -24 11t-37 32t-23 51zM380 528q0 -36 10 -102q66 72 210 216l92 96q-46 70 -94 84q-16 4 -42 4q-36 0 -76 -26q-22 -14 -32 -29t-26 -57q-42 -112 -42 -186z M490 258q60 -18 110 -18q36 0 52 10q6 4 10 6t8 6t7 6t6 8t5 8t5 10t4 11t5 14t6 17q36 98 36 172q0 34 -2 54l-38 -46q-40 -48 -83 -98t-71 -84t-60 -76z" />
<glyph unicode="&#xf9;" horiz-adv-x="996" d="M14 1296q0 78 72 90q8 2 16 0q46 -10 85 -23t61 -22t62 -27t62 -28q112 -48 156 -70q38 -16 38 -54q0 -36 -30 -70t-62 -34q-6 0 -10 2q-30 6 -191 80t-189 74h-4q-8 2 -21 3t-16 2t-9 5t-9 12t-7 22q-4 20 -4 38zM16 906q0 24 14 46q32 50 96 82t130 32q104 0 140 -74 q8 -16 8 -194q0 -58 -1 -205t-1 -223q8 -14 41 -35t65 -21q64 0 98 86l-2 430q-8 -4 -28 -4q-80 0 -110 50q-16 24 -16 56q0 46 32 82q14 16 28 27t33 16t29 7t32 4t24 2q42 6 80 6q66 0 126 -26q80 -26 88 -82q0 -2 1 -7t1 -7q0 -28 -14 -51t-26 -23q-4 0 -8 4v-542 q30 -38 38 -44q18 -12 48 -34q20 -26 20 -40q0 -12 -12 -30q-60 -82 -106 -119t-146 -69q-6 -2 -18 -2q-30 2 -52 9t-35 25t-15 22t-10 24q-6 -2 -89 -32t-135 -30q-86 0 -152 58q-36 32 -60 77t-30 70t-6 35v170q0 -6 -2 -6v372q-4 -4 -10 -4q-26 0 -57 36t-31 76z" />
<glyph unicode="&#xfa;" horiz-adv-x="996" d="M16 906q0 24 14 46q32 50 96 82t130 32q104 0 140 -74q8 -16 8 -194q0 -58 -1 -205t-1 -223q8 -14 41 -35t65 -21q64 0 98 86l-2 430q-8 -4 -28 -4q-80 0 -110 50q-16 24 -16 56q0 46 32 82q14 16 28 27t33 16t29 7t32 4t24 2q42 6 80 6q66 0 126 -26q80 -26 88 -82 q0 -2 1 -7t1 -7q0 -28 -14 -51t-26 -23q-4 0 -8 4v-542q30 -38 38 -44q18 -12 48 -34q20 -26 20 -40q0 -12 -12 -30q-60 -82 -106 -119t-146 -69q-6 -2 -18 -2q-30 2 -52 9t-35 25t-15 22t-10 24q-6 -2 -89 -32t-135 -30q-86 0 -152 58q-36 32 -60 77t-30 70t-6 35v170 q0 -6 -2 -6v372q-4 -4 -10 -4q-26 0 -57 36t-31 76zM374 1162q0 38 38 54q62 30 156 70q22 10 62 28t62 27t62 22t84 23q10 2 18 0q72 -12 72 -90q0 -18 -4 -38q-4 -14 -7 -22t-9 -12t-9 -5t-16 -2t-21 -3h-4q-30 0 -191 -74t-191 -80q-4 -2 -10 -2q-32 0 -62 34t-30 70z " />
<glyph unicode="&#xfb;" horiz-adv-x="996" d="M16 906q0 24 14 46q32 50 96 82t130 32q104 0 140 -74q8 -16 8 -194q0 -58 -1 -205t-1 -223q8 -14 41 -35t65 -21q64 0 98 86l-2 430q-8 -4 -28 -4q-80 0 -110 50q-16 24 -16 56q0 46 32 82q14 16 28 27t33 16t29 7t32 4t24 2q42 6 80 6q66 0 126 -26q80 -26 88 -82 q0 -2 1 -7t1 -7q0 -28 -14 -51t-26 -23q-4 0 -8 4v-542q30 -38 38 -44q18 -12 48 -34q20 -26 20 -40q0 -12 -12 -30q-60 -82 -106 -119t-146 -69q-6 -2 -18 -2q-30 2 -52 9t-35 25t-15 22t-10 24q-6 -2 -89 -32t-135 -30q-86 0 -152 58q-36 32 -60 77t-30 70t-6 35v170 q0 -6 -2 -6v372q-4 -4 -10 -4q-26 0 -57 36t-31 76zM272 1152q0 2 2 8q30 80 106 230q4 6 12 10q56 28 84 28q44 0 54 -20q28 -50 66 -160q20 -56 32 -96v-8q0 -42 -82 -42q-56 0 -66 24q-4 6 -12 38t-18 48q-12 -52 -14 -68q-6 -32 -76 -32q-34 0 -61 10t-27 30z" />
<glyph unicode="&#xfc;" horiz-adv-x="996" d="M16 906q0 24 14 46q32 50 96 82t130 32q104 0 140 -74q8 -16 8 -194q0 -58 -1 -205t-1 -223q8 -14 41 -35t65 -21q64 0 98 86l-2 430q-8 -4 -28 -4q-80 0 -110 50q-16 24 -16 56q0 46 32 82q14 16 28 27t33 16t29 7t32 4t24 2q42 6 80 6q66 0 126 -26q80 -26 88 -82 q0 -2 1 -7t1 -7q0 -28 -14 -51t-26 -23q-4 0 -8 4v-542q30 -38 38 -44q18 -12 48 -34q20 -26 20 -40q0 -12 -12 -30q-60 -82 -106 -119t-146 -69q-6 -2 -18 -2q-30 2 -52 9t-35 25t-15 22t-10 24q-6 -2 -89 -32t-135 -30q-86 0 -152 58q-36 32 -60 77t-30 70t-6 35v170 q0 -6 -2 -6v372q-4 -4 -10 -4q-26 0 -57 36t-31 76zM284 1204q0 43 28 79.5t71 36.5q47 0 74.5 -41.5t27.5 -81.5t-29 -70t-76 -30q-28 0 -47 9.5t-24 17t-12 20.5q-13 33 -13 60zM508 1212q0 43 28 79.5t71 36.5q47 0 74.5 -41.5t27.5 -81.5t-29 -70t-76 -30q-28 0 -47 9.5 t-24 17t-12 20.5q-13 33 -13 60z" />
<glyph unicode="&#xfd;" horiz-adv-x="1090" d="M10 -324q0 40 20 92q12 96 96 136q32 16 60 16q26 0 50 -14l24 -14q24 8 66 92t42 162q0 36 -14 94q-14 74 -25 128t-25 102t-19 71t-24 65t-23 52t-30 61t-34 67q-48 6 -95 52t-47 100q0 64 44 86q94 60 212 66h16q72 6 80 6q90 0 140 -58q42 -46 42 -102q0 -42 -28 -78 q-30 -36 -46 -36q-10 0 -34 24q6 -18 12 -50q8 -44 16 -78t13 -54t15 -46t12 -32t17 -39t19 -43q24 0 24 10q10 20 30 54t27 48t18 43t16 63t11 84l4 50q-10 -20 -24 -20q-26 0 -51 42t-25 76q0 46 30 82q20 22 93 42t149 20q84 0 134 -28q20 -10 44 -50t24 -86 q0 -34 -18 -70q-6 -12 -17 -20t-20 -11t-20 -6t-13 -3q-72 -148 -159 -342t-178 -372t-303 -568q-20 -38 -108 -38q-76 0 -182 76q-38 28 -38 96zM504 1170q0 38 38 54q62 30 156 70q22 10 62 28t62 27t62 22t84 23q10 2 18 0q72 -12 72 -90q0 -18 -4 -38q-4 -14 -7 -22 t-9 -12t-9 -5t-16 -2t-21 -3h-4q-30 0 -191 -74t-191 -80q-4 -2 -10 -2q-32 0 -62 34t-30 70z" />
<glyph unicode="&#xfe;" horiz-adv-x="1134" d="M-8 1388q0 70 54 118q16 12 34 12h82q74 0 236 -2t224 -2h74q32 0 54 -33t22 -79q0 -56 -30 -94q-28 -38 -154 -38q-16 0 -34 1t-29 1h-13l-12 -8q-10 -8 -21 -21t-11 -29q0 -22 16 -40q64 -22 170 -34t190 -37t154 -87q54 -48 76 -100t40 -134q20 -98 20 -186 q0 -120 -46 -256q-34 -98 -58 -152t-78 -120t-132 -106t-154 -40q-36 0 -70 8t-54 18l-20 8q2 -52 7 -112t7 -92q50 20 110 20q122 0 178 -100q14 -26 14 -52q0 -54 -62 -106q-16 -10 -32 -10q-76 0 -221 -8t-223 -8q-118 0 -238 14q-28 4 -47 38t-19 62q0 32 22 63t44 47 l22 14q58 20 80 20q16 0 22 -6q4 156 4 358q12 198 12 750q0 262 -2 422h-30q-62 0 -118 14q-26 4 -43 34t-17 70zM504 554q0 -224 16 -362q6 -6 20 -6q44 0 122 54q66 46 94 104t46 162q16 80 16 132q0 92 -56 190q-22 40 -47 58t-75 36q-58 20 -72 20t-50 -10 q-14 -188 -14 -378z" />
<glyph unicode="&#xff;" horiz-adv-x="1090" d="M10 -324q0 40 20 92q12 96 96 136q32 16 60 16q26 0 50 -14l24 -14q24 8 66 92t42 162q0 36 -14 94q-14 74 -25 128t-25 102t-19 71t-24 65t-23 52t-30 61t-34 67q-48 6 -95 52t-47 100q0 64 44 86q94 60 212 66h16q72 6 80 6q90 0 140 -58q42 -46 42 -102q0 -42 -28 -78 q-30 -36 -46 -36q-10 0 -34 24q6 -18 12 -50q8 -44 16 -78t13 -54t15 -46t12 -32t17 -39t19 -43q24 0 24 10q10 20 30 54t27 48t18 43t16 63t11 84l4 50q-10 -20 -24 -20q-26 0 -51 42t-25 76q0 46 30 82q20 22 93 42t149 20q84 0 134 -28q20 -10 44 -50t24 -86 q0 -34 -18 -70q-6 -12 -17 -20t-20 -11t-20 -6t-13 -3q-72 -148 -159 -342t-178 -372t-303 -568q-20 -38 -108 -38q-76 0 -182 76q-38 28 -38 96zM380 1238q0 43 28 79.5t71 36.5q47 0 74.5 -41.5t27.5 -81.5t-29 -70t-76 -30q-28 0 -47 9.5t-24 17t-12 20.5q-13 33 -13 60z M604 1246q0 43 28 79.5t71 36.5q47 0 74.5 -41.5t27.5 -81.5t-29 -70t-76 -30q-28 0 -47 9.5t-24 17t-12 20.5q-13 33 -13 60z" />
<glyph unicode="&#x152;" horiz-adv-x="1926" d="M34 756q0 244 152 436q258 322 616 322q48 0 72 -2q6 0 18 -2l12 -2h160q162 0 298 3t146 3q76 0 256 -30q38 -14 40 -46q4 -64 12 -105t14 -54t11 -24t5 -23t-6 -44v-2q0 -6 24 -12t24 -26q0 -16 -8 -36t-20 -24q-104 -32 -166 -32q-22 0 -76 4t-84 6q-22 4 -34 18 q-28 34 -28 46q0 10 27 14t27 16q0 4 -3 13t-3 11v2q0 6 -34 48q-56 8 -122 8h-154q-22 -6 -29 -4t-27 2q-2 -58 -3 -109t-1 -69q0 -16 1 -40t2 -73t1 -107q90 -16 120 -16t66 6q2 2 2 10q0 4 -3 30t-3 44q0 84 68 124q34 20 74 20q62 0 108 -46q12 -12 14 -86l6 -496 q-2 -32 -30 -44q-50 -22 -94 -22q-66 0 -108 54q-10 10 -10 20q-8 38 -8 66q0 18 3 30t8 18t9 10t8 4l2 2v2q0 4 -2 6t-8 4t-12 3t-19 4t-25 7q-78 24 -102 24q-18 0 -42 -6q-34 -10 -40 -20q-22 -98 -27 -155t-5 -191q8 -8 32 -18q120 -26 222 -26q40 0 122 5t124 7 q22 12 28 32t31 73t87 125q30 20 42 20t34 -18q16 -16 28 -33t18 -30t10 -30t5 -26t1 -27v-24q4 -48 4 -74q0 -124 -84 -188q-12 -10 -32 -10h-896q-84 0 -169 11t-134 22t-61 19q-88 48 -124 68t-109 71t-109 93t-72 108t-48 142q-20 126 -20 216zM386 664q0 -106 50 -192 q36 -62 84 -97t128 -71q34 -16 74 -16q34 0 49 6t21 30q36 340 36 588q0 164 -4 268q-2 60 -11 76t-33 16h-14l-22 -8q-8 -4 -37 -19t-37 -19t-32 -18t-33 -21t-30 -20t-32 -24t-27 -26t-29 -32t-25 -35q-30 -46 -46 -96t-19 -82t-5 -100q0 -6 -3 -47t-3 -61z" />
<glyph unicode="&#x153;" horiz-adv-x="1172" d="M40 542q0 84 26 174q30 100 66 166t108 122q124 98 322 98q24 0 65 -2t55 -2h14q22 0 63 2t63 2q46 0 94 -8q4 -2 33 -7t40 -8t35 -12t38 -19t31 -29t29 -43q44 -88 44 -162q0 -58 -24 -122q-30 -82 -98 -88q-32 -8 -246 -8l-150 14l8 -22q10 -20 20 -51t14 -53 q10 -62 22 -92t44 -56q18 -16 96 -24q60 -4 64 -4q10 0 16 2t10 4t8 9t5 12t5 19t8 24q22 66 90 66q42 0 76 -29t34 -73v-6q-2 -78 -9 -106t-31 -68q-66 -110 -196 -110q-18 0 -40 2t-26 2q-58 0 -134 6h-6q-8 0 -35 -4t-51 -4h-30q-18 0 -49 1t-47 1q-2 0 -19 -1t-33 -1 q-154 0 -260 100q-162 148 -162 388zM254 552q0 -104 46 -176t136 -84l36 2q26 10 28 36q0 16 7 56t7 64t-4 38q-10 38 -10 80q0 26 13 121t13 117q0 16 -3 26t-6 13t-10 6t-9 5q-14 2 -40 2q-120 0 -170 -126q-34 -88 -34 -180zM726 808q0 -4 8 -10q100 -62 136 -62 q38 0 46 44q10 54 10 70q0 38 -36 38q-28 0 -82 -36q-12 -6 -34 -15t-35 -16t-13 -13z" />
<glyph unicode="&#x178;" horiz-adv-x="1576" d="M14 1354q0 36 18 74t52 42q206 16 246 16q14 0 45 -2t69 -2q54 0 210 6h2q30 0 61 -39t31 -85q0 -44 -29 -70t-73 -26t-72 28q54 -124 102 -222t70 -147t44 -123l270 438q-16 -12 -44 -12q-66 0 -98 88q-8 18 -8 42q0 74 78 120q12 8 22 8q68 4 115 8t64 6t29 2t34 -2 t83 -6t143 -8q28 -2 52 -36t24 -76q0 -40 -22 -70q-36 -54 -112 -54q-26 0 -63 8t-43 8h-2l-4 -2q-40 -70 -95 -176t-87 -164t-88 -146t-124 -180q-2 -16 -2 -44q0 -52 14 -108t14 -92q0 -62 -30 -166l-2 -4q0 -4 4 -4q2 0 37 19t59 19q34 0 59 -35t25 -73q0 -28 -15 -52 t-41 -28q-260 -26 -320 -26q-64 0 -302 20q-26 4 -43 29t-17 59q0 62 46 102q42 36 88 36q64 0 86 -34q16 180 16 382q-92 192 -215 356t-187 274q-4 -34 -46 -34q-50 0 -89 52t-39 106zM608 1614q0 43 28 79.5t71 36.5q47 0 74.5 -41.5t27.5 -81.5t-29 -70t-76 -30 q-28 0 -47 9.5t-24 17t-12 20.5q-13 33 -13 60zM832 1622q0 43 28 79.5t71 36.5q47 0 74.5 -41.5t27.5 -81.5t-29 -70t-76 -30q-28 0 -47 9.5t-24 17t-12 20.5q-13 33 -13 60z" />
<glyph unicode="&#x2c6;" horiz-adv-x="428" d="M36 1028q0 2 2 8q30 80 106 230q4 6 12 10q56 28 84 28q44 0 54 -20q28 -50 66 -160q20 -56 32 -96v-8q0 -42 -82 -42q-56 0 -66 24q-4 6 -12 38t-18 48q-12 -52 -14 -68q-6 -32 -76 -32q-34 0 -61 10t-27 30z" />
<glyph unicode="&#x2dc;" horiz-adv-x="692" d="M60 1296q0 12 6 23t12 17t17 13t17 9t16 6l10 4q66 30 126 30h8q28 0 49 -7t38 -16t23 -11q44 -12 44 -16l8 10t15 16t26 12t43 6q40 0 75 -18t39 -52v-4q0 -42 -60 -58q-8 -2 -56 -31t-94 -31h-6q-44 0 -77 15t-51 30t-24 15l-4 -4q-42 -42 -90 -42q-2 0 -7 1t-9 1 q-40 6 -67 29t-27 53z" />
<glyph unicode="&#x2000;" horiz-adv-x="923" />
<glyph unicode="&#x2001;" horiz-adv-x="1847" />
<glyph unicode="&#x2002;" horiz-adv-x="923" />
<glyph unicode="&#x2003;" horiz-adv-x="1847" />
<glyph unicode="&#x2004;" horiz-adv-x="615" />
<glyph unicode="&#x2005;" horiz-adv-x="461" />
<glyph unicode="&#x2006;" horiz-adv-x="307" />
<glyph unicode="&#x2007;" horiz-adv-x="307" />
<glyph unicode="&#x2008;" horiz-adv-x="230" />
<glyph unicode="&#x2009;" horiz-adv-x="369" />
<glyph unicode="&#x200a;" horiz-adv-x="102" />
<glyph unicode="&#x2010;" horiz-adv-x="728" d="M20 418q0 60 42 106q60 68 182 68h28q36 0 94 12t96 12q26 0 40 -2q2 0 25 -4t30 -5t27 -7t31 -12t26 -18t27 -28q40 -54 40 -114q0 -48 -28 -88q-20 -30 -44 -50t-59 -28t-53 -11t-64 -4t-52 -1q-10 0 -60 -4t-78 -4q-150 0 -224 100q-26 38 -26 82z" />
<glyph unicode="&#x2011;" horiz-adv-x="728" d="M20 418q0 60 42 106q60 68 182 68h28q36 0 94 12t96 12q26 0 40 -2q2 0 25 -4t30 -5t27 -7t31 -12t26 -18t27 -28q40 -54 40 -114q0 -48 -28 -88q-20 -30 -44 -50t-59 -28t-53 -11t-64 -4t-52 -1q-10 0 -60 -4t-78 -4q-150 0 -224 100q-26 38 -26 82z" />
<glyph unicode="&#x2012;" horiz-adv-x="728" d="M20 418q0 60 42 106q60 68 182 68h28q36 0 94 12t96 12q26 0 40 -2q2 0 25 -4t30 -5t27 -7t31 -12t26 -18t27 -28q40 -54 40 -114q0 -48 -28 -88q-20 -30 -44 -50t-59 -28t-53 -11t-64 -4t-52 -1q-10 0 -60 -4t-78 -4q-150 0 -224 100q-26 38 -26 82z" />
<glyph unicode="&#x2013;" horiz-adv-x="1064" d="M20 418q0 60 63 106q89 68 270 68h42q54 0 140 12t143 12q39 0 59 -2q3 0 37.5 -4t45 -5t40 -7t46 -12t39 -18t39.5 -28q60 -54 60 -114q0 -48 -42 -88q-29 -30 -65 -50t-88 -28t-79 -11t-95.5 -4t-77.5 -1q-14 0 -88.5 -4t-116.5 -4q-223 0 -333 100q-39 38 -39 82z" />
<glyph unicode="&#x2014;" horiz-adv-x="2088" d="M20 418q0 60 125 106q179 68 542 68h83q107 0 280 12t286 12q77 0 119 -2q6 0 74.5 -4t89 -5t80 -7t92.5 -12t77.5 -18t80.5 -28q119 -54 119 -114q0 -48 -83 -88q-60 -30 -131.5 -50t-175.5 -28t-157.5 -11t-190.5 -4t-155 -1q-30 0 -178.5 -4t-232.5 -4 q-446 0 -667 100q-77 38 -77 82z" />
<glyph unicode="&#x2018;" horiz-adv-x="582" d="M24 1046q0 102 24 171t88 129l28 28t27 26t26 20t32 19t35 12t47 12t57 6t76 5q24 0 40 -17t16 -37q0 -30 -44 -71t-88 -91t-44 -98v-6q6 -4 36 -6t65 -18t65 -54q48 -58 48 -136q0 -22 -8 -66q-32 -166 -142 -200q-36 -12 -70 -12q-108 0 -216 116q-98 106 -98 268z" />
<glyph unicode="&#x2019;" horiz-adv-x="582" d="M24 1198q0 22 8 66q32 166 142 200q36 12 70 12q108 0 216 -116q98 -106 98 -268q0 -102 -24 -171t-88 -129l-28 -28t-27 -26t-26 -20t-32 -19t-35 -12t-47 -12t-57 -6t-76 -5q-24 0 -40 17t-16 37q0 30 44 71t88 91t44 98v6q-6 4 -36 6t-65 18t-65 54q-48 58 -48 136z " />
<glyph unicode="&#x201c;" horiz-adv-x="1126" d="M24 1046q0 102 24 171t88 129l28 28t27 26t26 20t32 19t35 12t47 12t57 6t76 5q24 0 40 -17t16 -37q0 -30 -44 -71t-88 -91t-44 -98v-6q6 -4 36 -6t65 -18t65 -54q48 -58 48 -136q0 -22 -8 -66q-32 -166 -142 -200q-36 -12 -70 -12q-108 0 -216 116q-98 106 -98 268z M574 1046q0 102 24 171t88 129l28 28t27 26t26 20t32 19t35 12t47 12t57 6t76 5q24 0 40 -17t16 -37q0 -30 -44 -71t-88 -91t-44 -98v-6q6 -4 36 -6t65 -18t65 -54q48 -58 48 -136q0 -22 -8 -66q-32 -166 -142 -200q-36 -12 -70 -12q-108 0 -216 116q-98 106 -98 268z" />
<glyph unicode="&#x201d;" horiz-adv-x="1126" d="M-10 1214q0 22 8 66q32 166 142 200q36 12 70 12q108 0 216 -116q98 -106 98 -268q0 -102 -24 -171t-88 -129l-28 -28t-27 -26t-26 -20t-32 -19t-35 -12t-47 -12t-57 -6t-76 -5q-24 0 -40 17t-16 37q0 30 44 71t88 91t44 98v6q-6 4 -36 6t-65 18t-65 54q-48 58 -48 136z M540 1214q0 22 8 66q32 166 142 200q36 12 70 12q108 0 216 -116q98 -106 98 -268q0 -102 -24 -171t-88 -129l-28 -28t-27 -26t-26 -20t-32 -19t-35 -12t-47 -12t-57 -6t-76 -5q-24 0 -40 17t-16 37q0 30 44 71t88 91t44 98v6q-6 4 -36 6t-65 18t-65 54q-48 58 -48 136z" />
<glyph unicode="&#x2022;" horiz-adv-x="606" d="M104 830q0 96 62 177t158 81q106 0 167 -93t61 -181t-65 -155t-169 -67q-62 0 -104 21t-54 38t-26 45q-30 74 -30 134z" />
<glyph unicode="&#x2026;" horiz-adv-x="1436" d="M14 830q0 96 62 177t158 81q106 0 167 -93t61 -181t-65 -155t-169 -67q-62 0 -104 21t-54 38t-26 45q-30 74 -30 134zM486 812q0 96 62 177t158 81q106 0 167 -93t61 -181t-65 -155t-169 -67q-62 0 -104 21t-54 38t-26 45q-30 74 -30 134zM974 812q0 96 62 177t158 81 q106 0 167 -93t61 -181t-65 -155t-169 -67q-62 0 -104 21t-54 38t-26 45q-30 74 -30 134z" />
<glyph unicode="&#x202f;" horiz-adv-x="369" />
<glyph unicode="&#x2039;" horiz-adv-x="792" d="M24 634q0 60 46 108q12 12 85 117t121 161q16 18 53 77t78 96t103 55q60 16 94 16q94 0 146 -78q30 -38 30 -90q0 -76 -40 -132q-24 -48 -70 -48q-32 0 -32 12q0 4 2 4h-2q-50 -50 -116 -111t-105 -99t-63 -68q8 -20 44 -52t118 -110t172 -184q8 -12 12 -20l6 -12l12 -28 t11 -37t5 -43q0 -30 -14 -64t-38 -46q-36 -14 -68 -23t-47 -11t-54 -5t-53 -5h-10q-30 0 -57 16t-51 48t-41 61t-43 79t-42 76q-12 18 -67 87t-90 133t-35 120z" />
<glyph unicode="&#x203a;" horiz-adv-x="772" d="M-8 238q0 76 40 132q24 48 70 48q32 0 32 -12q0 -4 -2 -4h2q50 50 116 111t105 99t63 68q-8 20 -44 52t-118 110t-172 184q-8 12 -12 20l-6 12l-12 28t-11 37t-5 43q0 30 14 64t38 46q36 14 68 23t47 11t54 5t53 5h10q30 0 57 -16t51 -48t41 -61t43 -79t42 -76 q12 -18 67 -87t90 -133t35 -120q0 -60 -46 -108q-12 -12 -85 -117t-121 -161q-16 -18 -53 -77t-78 -96t-103 -55q-60 -16 -94 -16q-94 0 -146 78q-30 38 -30 90z" />
<glyph unicode="&#x205f;" horiz-adv-x="461" />
<glyph unicode="&#x20ac;" horiz-adv-x="1586" d="M10 706q0 44 46 75t100 45q2 8 5 23t5 23q-58 16 -107 47t-49 75t52 80q72 50 226 50q88 132 188 217t244 145q108 44 242 44q12 0 37 -1t39 -1q116 -2 220 -42q14 -6 59 -21t67 -25t56 -29t58 -46t42 -63q36 -72 36 -148q0 -98 -86 -264q-28 -28 -42 -28q-12 0 -32 12 q-54 32 -76 75t-26 82t-12 49q-16 20 -55 72t-54 67t-48 37t-71 32q-48 12 -86 12q-100 0 -212 -84q-58 -44 -92 -82q68 -8 126 -43t58 -93q0 -38 -32 -64q-78 -70 -272 -70l-2 -10q32 0 50 -2q6 0 32 -2t37 -4t35 -6t38 -9t33 -14t33 -21q48 -38 48 -86q0 -38 -32 -64 q-74 -66 -258 -70q24 -60 88 -136q66 -78 138 -113t186 -47q14 -2 38 -2q68 0 188 44t188 54q4 0 10 1t8 1q66 0 66 -78q0 -82 -44 -134q-30 -38 -63 -66t-76 -45t-73 -28t-84 -16t-79 -7t-90 -3t-85 -1h-30q-146 0 -286 70q-120 62 -198 132t-144 180q-66 102 -86 208 q-50 14 -95 44t-45 72z" />
<glyph unicode="&#x2122;" horiz-adv-x="1778" d="M17 1234q-1 6 0 13q11 45 15.5 71.5t5 33.5t5 25.5t16.5 56.5q1 5 6 10q8 8 16 13t16.5 7.5t14 3.5t14.5 1.5t11 0.5q38 6 88 6q37 0 108 -7t115 -7q41 0 107.5 8.5t100.5 8.5q46 0 87 -9q31 -6 48 -23q19 -19 24.5 -25t10.5 -17t7 -21.5t15 -44t33 -78.5q1 -2 1 -8 q0 -21 -21 -44t-52 -23q-22 0 -31 11q-45 59 -62 101.5t-20 55.5t-19 20q-77 -16 -161 -21q0 -45 -8.5 -128t-8.5 -133q0 -108 34 -243q1 -5 7 -5q4 0 17.5 5.5t21.5 5.5q16 0 25 -19t9 -38q0 -37 -29 -60q-6 -5 -16 -5q-75 0 -111.5 1t-95.5 7t-133 19q-13 2 -25 19.5 t-12 37.5t13 37q23 30 69 30q11 0 22 -2t17 -4l5 -1q0 11 -0.5 30t-0.5 28q0 108 14 174.5t14 124.5t-5 124q-5 0 -22.5 2.5t-40.5 4t-48 1.5h-20q-18 -10 -23.5 -26t-5.5 -34t-14.5 -54.5t-46.5 -78.5q-8 -15 -32 -15t-42.5 25.5t-26.5 50.5zM888 1400q0 34 55 62q2 1 5 1 q51 12 87 12q40 0 116 -19q13 -5 16 -14q30 -74 60 -156t51.5 -131t62.5 -123l239 430q3 6 9 9q33 18 59 18q23 0 82 -19q13 -3 23 -25.5t10 -44.5q0 -17 -10 -24v-1q0 -11 -17.5 -17.5t-37.5 -6.5q-22 0 -22 7q-7 -233 -7 -296q0 -47 4 -177q5 12 14 12q16 0 32 -22 q14 -18 14 -42q0 -12 -4.5 -30t-4.5 -23q-3 -22 -22 -24q-59 -8 -87 -8q-15 0 -47.5 3t-65.5 5q-15 4 -19.5 8.5t-4.5 17.5q0 2 -2.5 15t-2.5 22q0 27 19 47q20 21 46 21q19 0 23 -9q10 76 10 150q0 41 -4.5 94.5t-4.5 81.5v6q-6 -12 -23.5 -60.5t-56 -144.5t-93.5 -215 q-1 -1 -4 -7t-7 -12t-13.5 -12t-21.5 -7h-6q-34 0 -68 42q-5 5 -87.5 215t-88.5 221q2 -20 2 -37q0 -11 -1.5 -69t-1.5 -115q0 -70 1 -112q1 1 7 1q45 0 67 -46q6 -13 6 -26q0 -9 -2.5 -18.5t-6 -16.5t-3.5 -9q-6 -20 -24 -20q-28 -1 -69.5 -5t-79.5 -4q-34 0 -58 1 q-12 2 -16.5 6t-7.5 15q0 1 -2.5 5t-5.5 8.5t-5 12t-2 15.5q0 15 10 31q14 21 35 21q15 0 21 -11q-5 104 -5 194q0 47 2.5 130t2.5 153v26q-5 -9 -20 -9q-18 0 -33.5 13t-15.5 36z" />
<glyph unicode="&#xe000;" horiz-adv-x="1090" d="M0 0v1090h1090v-1090h-1090z" />
</font>
</defs>
</svg>
